<?xml version="1.0" standalone="no"?>
<!DOCTYPE svg PUBLIC "-//W3C//DTD SVG 1.1//EN" "http://www.w3.org/Graphics/SVG/1.1/DTD/svg11.dtd" >
<svg xmlns="http://www.w3.org/2000/svg">
<metadata></metadata>
<defs>
<font id="carrig_textbold" horiz-adv-x="1748" >
<font-face units-per-em="2048" ascent="1638" descent="-410" />
<missing-glyph horiz-adv-x="450" />
<glyph unicode="&#xfb01;" horiz-adv-x="1359" d="M1321 78q18 -4 18 -49q0 -12 -2.5 -22.5t-6.5 -17t-9 -5.5q-108 16 -305 16q-88 0 -157 -4t-95 -8l-25 -4q-5 -1 -9 5.5t-6.5 17t-2.5 22.5q0 45 18 49q28 5 49 13t28 13l7 5q24 21 34 49t13 75q6 88 7.5 284t-5.5 274q-10 81 -21 109t-42 32l-283 -2q-13 -1 -19.5 -8.5 t-6.5 -15.5v-7q-5 -119 -2 -322.5t12 -322.5q9 -114 45 -145q18 -19 98 -31q7 -2 13 -15t6 -32q0 -12 -2.5 -23.5t-7 -18t-9.5 -5.5q-96 16 -297 16q-90 0 -169.5 -4t-113.5 -8l-34 -4q-5 -1 -9.5 5.5t-7 19t-2.5 26.5q0 38 19 43q36 3 64 10.5t39 13.5l10 7q36 32 47 145 q8 86 12.5 288.5t-2.5 358.5q0 27 -27 29q-48 4 -116 0q-35 -4 -35 22v78q0 23 35 19q57 -4 116 0q3 0 7.5 0.5t12 7t7.5 18.5v123q0 43 15 86.5t53 89t95.5 80.5t152 57.5t212.5 22.5q109 0 186 -18.5t117 -51t57 -69t17 -80.5q0 -62 -31.5 -95.5t-91.5 -33.5 q-71 0 -116 45.5t-60 114.5q-27 88 -131 88q-34 0 -63.5 -10.5t-58 -35t-45.5 -74.5t-17 -120v-119q0 -12 6.5 -18.5t13.5 -6.5l6 -1q115 -5 422 -5q18 0 150 5q43 3 60 -10t16 -56q-13 -496 -13.5 -584.5t8.5 -165.5q6 -56 15 -79.5t33 -44.5q16 -19 104 -31z" />
<glyph unicode="&#xfb02;" horiz-adv-x="1372" d="M1331 78q21 -4 21 -49q0 -22 -6.5 -34.5t-14.5 -10.5q-182 16 -309 16q-56 0 -128 -4t-116 -8l-43 -4q-20 -3 -20 45q0 46 16 49q69 8 107 43q18 20 23.5 46t8.5 87q19 332 13 676q-65 3 -156.5 3t-150.5 -1l-58 -2q-13 -1 -19.5 -8.5t-6.5 -15.5v-7q-5 -119 -2 -322.5 t12 -322.5q9 -114 45 -145q18 -19 98 -31q7 -2 13 -15t6 -32q0 -12 -2.5 -23.5t-7 -18t-9.5 -5.5q-96 16 -297 16q-90 0 -162.5 -4t-99.5 -8l-27 -4q-5 -1 -9 5.5t-6.5 19t-2.5 26.5q0 38 18 43q24 3 45 10.5t30 13.5l9 7q36 32 47 145q9 87 13 288.5t-2 358.5q0 27 -27 29 q-53 4 -119 0q-35 -4 -35 22v78q0 23 35 19q80 -4 119 0q3 0 7.5 0.5t12 7t7.5 18.5v123q0 43 14 86.5t48.5 89t85.5 80.5t133 57.5t184 22.5q81 0 155 -14q46 -7 112 6.5t193 62.5q29 12 44.5 -4.5t13.5 -52.5q-12 -289 -16.5 -445.5t-3 -395t15.5 -437.5q4 -55 13 -89 t34 -56q27 -20 104 -31zM518 1049q112 -5 363 -5q0 41 -3.5 116.5t-3.5 90.5q0 17 -2 23q-6 56 -44 94.5t-79.5 52t-80.5 13.5q-30 0 -57.5 -10.5t-56 -35t-45.5 -74.5t-17 -120v-119q0 -12 6.5 -18.5t13.5 -6.5z" />
<glyph horiz-adv-x="0" />
<glyph horiz-adv-x="682" />
<glyph unicode=" "  horiz-adv-x="450" />
<glyph unicode="&#x09;" horiz-adv-x="450" />
<glyph unicode="&#xa0;" horiz-adv-x="450" />
<glyph unicode="!" horiz-adv-x="610" d="M301 336q-43 0 -60.5 10.5t-17.5 36.5q-20 439 -59 934q-2 20 14 59q18 49 84 94.5t105 45.5q27 0 53.5 -18t25.5 -48q-49 -523 -65 -1067q0 -26 -18 -36.5t-62 -10.5zM303 -51q-59 0 -99 40.5t-40 100.5q0 58 40.5 99.5t98.5 41.5t100.5 -42t42.5 -99q0 -59 -42 -100 t-101 -41z" />
<glyph unicode="&#x22;" horiz-adv-x="808" d="M231 975q-35 0 -45.5 10t-13.5 37q-12 101 -34 202t-38 152l-16 51q-11 47 33 58q32 9 109 8.5t112 -10.5q15 -3 25 -17.5t6 -35.5q-21 -77 -41 -179.5t-30 -166.5l-9 -64q-2 -25 -12.5 -35t-45.5 -10zM588 975q-35 0 -46 10t-14 37q-12 101 -34 202t-38 152l-16 51 q-11 47 33 58q32 9 109 8.5t112 -10.5q15 -3 25 -17.5t6 -35.5q-21 -77 -41 -179.5t-30 -166.5l-9 -64q-2 -25 -12 -35t-45 -10z" />
<glyph unicode="#" horiz-adv-x="1173" d="M174 -14q-14 0 -19.5 9.5t-2.5 22.5l69 388h-178q-14 0 -25 13.5t-8 26.5l21 113q3 12 16 23.5t25 11.5h182l57 301h-182q-14 0 -25 14t-8 27l21 113q3 12 16 23t25 11h186l64 328q3 13 16.5 25t26.5 12h120q16 0 22 -9t3 -22l-59 -334h165l62 328q3 15 13 26t24 11h133 q16 0 21.5 -10t2.5 -23l-61 -332h193q14 0 24 -11.5t8 -24.5l-18 -115q-3 -14 -16.5 -25.5t-26.5 -11.5h-199l-53 -301h195q13 0 23.5 -11.5t8.5 -23.5l-18 -117q-1 -13 -15 -24.5t-28 -11.5h-201l-72 -386q-3 -13 -12 -23.5t-20 -10.5h-138q-14 0 -19.5 9.5t-2.5 22.5 l72 388h-170l-72 -386q-2 -13 -11 -23.5t-22 -10.5h-133zM446 594h168l54 301h-168z" />
<glyph unicode="$" horiz-adv-x="1067" d="M985 401q0 -150 -102 -263.5t-287 -155.5v-99q0 -18 -3.5 -22t-19.5 -4h-100q-17 0 -20.5 3.5t-3.5 22.5v78q-120 -10 -230 45q-52 27 -85.5 65.5t-43.5 76t-7.5 69.5t17.5 51q28 36 62.5 44t64 -8.5t52 -57.5t26.5 -96q8 -95 144 -84v557q-349 204 -349 454 q1 146 97.5 250.5t251.5 134.5v74q0 18 3.5 22.5t20.5 4.5h100q15 0 19 -5t4 -22v-61q53 -2 99.5 -7.5t90.5 -17t74.5 -28.5t53.5 -42t27.5 -57t-5.5 -74q-17 -51 -60 -59.5t-88 25t-69 94.5q-24 58 -123 61v-491q77 -43 129.5 -76.5t105.5 -78.5t84 -90t50.5 -104.5 t19.5 -128.5zM346 1182q0 -70 22.5 -116.5t80.5 -98.5v376q-41 -22 -71.5 -62t-31.5 -99zM596 117q55 30 84 86t29 104q0 128 -113 217v-407z" />
<glyph unicode="%" horiz-adv-x="1933" d="M543 -96l-94 53q-18 10 -19 22.5t12 32.5l885 1487q12 21 23 26.5t30 -1.5l97 -54q27 -15 4 -59l-883 -1487q-13 -22 -25.5 -26t-29.5 6zM475 551q-95 0 -168.5 38t-117 103t-65.5 146t-22 174q0 128 40.5 230.5t125.5 166.5t201 64q95 0 168.5 -41t116.5 -109.5 t64.5 -149t21.5 -167.5t-23 -167t-66.5 -145t-115 -104t-160.5 -39zM475 651q40 0 69.5 33t44 88t21 114.5t4.5 123.5q-2 84 -18.5 165t-50.5 140t-76 59q-36 0 -63.5 -34t-43 -89t-23 -116t-7.5 -123q2 -65 9 -122.5t22 -114.5t44 -90.5t68 -33.5zM1466 -18 q-95 0 -168 37.5t-116.5 103t-65.5 146t-22 173.5q0 128 40.5 230.5t125 166.5t200.5 64q95 0 168.5 -41t116.5 -109.5t64.5 -149t21.5 -167.5q0 -69 -14 -134.5t-44 -123.5t-72 -101.5t-102.5 -69t-132.5 -25.5zM1466 82q40 0 69.5 33t44.5 87.5t21.5 114t4.5 123.5 q-2 61 -12.5 124t-28 117.5t-45.5 89t-60 34.5q-47 0 -79.5 -60t-45 -138.5t-12.5 -164.5q2 -65 9 -122.5t22 -114t44 -90t68 -33.5z" />
<glyph unicode="&#x26;" horiz-adv-x="1783" d="M1733 1038q11 1 15.5 -13t4.5 -36q0 -46 -18 -49q-73 -4 -160 -25q-35 -9 -71 -36.5t-64.5 -60.5t-59.5 -83t-51.5 -88.5t-45 -93t-35 -79.5t-25.5 -64q-19 -48 25.5 -124t113.5 -132t115 -56q97 0 159 49q6 5 17.5 1.5t21.5 -13.5t14 -21.5t-1 -15.5 q-108 -137 -295 -137q-100 0 -190 56.5t-156 138.5q-183 -197 -494 -197q-106 0 -194 27t-156 80.5t-106 141.5t-38 202q0 77 35 154.5t92 140.5t117.5 111.5t124.5 86.5q-87 100 -109 159.5t-22 156.5q0 37 8 71t30 68.5t56 59.5t90 41t129 16q94 0 158 -18.5t96 -54 t45 -75.5t13 -94q0 -104 -46.5 -171.5t-138.5 -137.5q119 -117 334 -375q125 244 156 321q13 32 -13.5 46.5t-89.5 21.5q-24 3 -24 51q0 22 6.5 36t17.5 13q111 -12 299 -12q172 0 310 12zM623 1393q-45 0 -73.5 -25.5t-35.5 -68t1.5 -91.5t38 -101.5t73.5 -92.5 q116 88 116 219q0 74 -25 117t-95 43zM623 139q87 0 173.5 45t145.5 129q-66 101 -187.5 243t-224.5 245q-75 -59 -126.5 -148t-51.5 -190q0 -143 82.5 -233.5t188.5 -90.5z" />
<glyph unicode="'" horiz-adv-x="452" d="M231 975q-35 0 -45.5 10t-13.5 37q-12 101 -34 202t-38 152l-16 51q-11 47 33 58q32 9 109 8.5t112 -10.5q15 -3 25 -17.5t6 -35.5q-21 -77 -41 -179.5t-30 -166.5l-9 -64q-2 -25 -12.5 -35t-45.5 -10z" />
<glyph unicode="(" horiz-adv-x="743" d="M639 -489q-90 53 -167 120t-146.5 158.5t-118 197.5t-77 241t-28.5 284q0 186 42.5 348t118.5 285.5t170 216t208 158.5q7 6 18.5 7.5t22 -9t10.5 -35.5q0 -8 -1 -15.5t-3.5 -14t-4 -11t-5.5 -10.5t-6 -8.5t-7 -9t-6 -7.5q-160 -186 -225 -406.5t-65 -488.5 q0 -128 11.5 -230.5t41.5 -215t89 -223.5t148 -224q33 -39 33 -76q0 -30 -20 -37t-33 5z" />
<glyph unicode=")" horiz-adv-x="743" d="M104 -489q-14 -12 -33.5 -5t-19.5 37q0 37 33 76q89 113 148 224t89.5 223.5t42 215.5t11.5 230q0 268 -65.5 488t-225.5 407q-1 1 -6 7.5t-7 9t-6 8.5t-5.5 10.5t-4 11t-3.5 14t-1 15.5q0 25 10.5 35.5t22 9t18.5 -7.5q114 -66 208 -158.5t170 -216t118.5 -285.5 t42.5 -348q0 -149 -28.5 -284t-77 -241t-118 -197.5t-146.5 -158.5t-167 -120z" />
<glyph unicode="*" horiz-adv-x="763" d="M690 1135q9 -6 11.5 -17t-3.5 -22l-41 -68q-6 -9 -17 -11.5t-22 3.5l-139 86v-166q0 -11 -8 -19t-20 -8h-78q-12 0 -20.5 8t-8.5 19v166l-141 -86q-9 -6 -21 -3t-18 13l-41 68q-5 9 -2 21t12 18l150 90l-150 90q-9 6 -11.5 17t3.5 20l41 67q6 10 17 13.5t20 -2.5l141 -86 v163q0 12 8.5 20.5t20.5 8.5h78q12 0 20 -8.5t8 -20.5v-163l142 84q9 6 20 3t16 -12l43 -69q11 -23 -10 -37l-147 -90z" />
<glyph unicode="+" horiz-adv-x="1169" d="M516 109q-22 0 -22 22v369h-367q-25 0 -25 22v137q0 10 7 16.5t18 6.5h367v369q0 22 22 22h139q9 0 16 -6t7 -16v-369h366q23 0 23 -23v-137q0 -22 -23 -22h-366v-369q0 -10 -7 -16t-16 -6h-139z" />
<glyph unicode="," horiz-adv-x="471" d="M119 -215q-2 2 -4 6.5t-6 15.5t-4 20t6.5 18t21.5 12q10 2 26 7t45 30t34 61q4 32 -9 59t-53 31q-42 5 -63 36t-15 83q6 35 34.5 56t70.5 24q3 0 8.5 0.5t21.5 -1.5t31 -7t35 -17.5t35.5 -31.5t30 -51t22.5 -73q1 -7 2.5 -20t-2 -49t-16 -68.5t-46 -70t-83.5 -62.5 q-4 -2 -10.5 -5t-24 -9t-32.5 -8.5t-31 0.5t-25 14z" />
<glyph unicode="-" horiz-adv-x="763" d="M160 485q-22 0 -29.5 7.5t-7.5 29.5v119q0 22 8 30.5t29 8.5h444q21 0 29 -8.5t8 -30.5v-119q0 -22 -7.5 -29.5t-29.5 -7.5h-444z" />
<glyph unicode="." horiz-adv-x="514" d="M242 -51q-61 0 -105.5 44.5t-44.5 104.5t44.5 105t105.5 45q60 0 104.5 -45t44.5 -105t-44.5 -104.5t-104.5 -44.5z" />
<glyph unicode="/" horiz-adv-x="679" d="M18 -106q-10 0 -14.5 8t-1.5 20l453 1589q5 17 11 23t19 6h156q23 0 16 -29l-448 -1589q-8 -28 -37 -28h-154z" />
<glyph unicode="0" horiz-adv-x="1333" d="M672 -37q-121 0 -220.5 41t-167 111.5t-114 167.5t-67.5 205.5t-21 228.5q0 156 38 292t110 240t183 164t249 60q122 0 222 -44.5t167 -119t113 -174t66.5 -206.5t20.5 -220q0 -114 -22.5 -221t-70 -202.5t-114.5 -167t-163 -113.5t-209 -42zM674 68q79 0 135.5 56 t85 153t40 205t9.5 233q-3 161 -35.5 307.5t-97.5 248t-149 101.5q-71 0 -125.5 -58.5t-85.5 -155.5t-46.5 -209t-15.5 -232q4 -125 19 -230.5t46 -205t87 -156.5t133 -57z" />
<glyph unicode="1" horiz-adv-x="909" d="M172 -16q-10 -1 -17.5 12t-7.5 33q0 49 25 49q34 0 73.5 11t61.5 26q20 13 33.5 59.5t17.5 86.5l4 40q22 510 3 801q-3 51 -15.5 68.5t-40.5 17.5q-91 0 -221 -19q-14 -2 -20.5 11.5t-6.5 54.5q0 55 23 61q2 0 29.5 6.5t61 14t85.5 22t104.5 30.5t116 39t121.5 48 q10 6 33 6q29 0 45.5 -10.5t19 -27.5t1 -31t-6.5 -27q-41 -103 -51 -213q-11 -144 -11.5 -425.5t5.5 -426.5q1 -18 3.5 -44.5t17 -78t36.5 -65.5q51 -35 135 -35q19 0 19 -49q0 -48 -19 -45q-188 16 -325 16q-62 0 -145 -4t-135 -8z" />
<glyph unicode="2" horiz-adv-x="1177" d="M68 -16q-27 -3 -39.5 15t-2.5 48t42 57q94 95 147.5 150.5t122.5 128t105 115t81.5 98t67.5 92.5t46.5 82t34.5 84t17.5 81.5t7.5 88.5q0 129 -51 216t-143 87q-52 0 -92.5 -14t-66 -34.5t-47 -40.5t-45.5 -34t-52 -14q-43 0 -63.5 32.5t5.5 61.5q77 90 181.5 140.5 t207.5 50.5q104 0 186.5 -25t146.5 -77t99 -140.5t35 -208.5q1 -56 -13.5 -114.5t-38 -110.5t-62 -110.5t-75.5 -105t-90 -105t-93 -100t-96.5 -100t-90.5 -94.5q-6 -6 -5 -11t7 -7q87 -12 199 -12.5t204.5 5t233.5 17.5q20 2 28.5 -5t8.5 -28q-5 -59 -2 -123 q0 -24 -8 -31.5t-29 -4.5q-223 16 -475.5 16t-393.5 -8z" />
<glyph unicode="3" horiz-adv-x="1036" d="M434 -39q-78 0 -150.5 19.5t-119.5 47t-75 56t-28 49.5q0 26 9.5 35.5t31.5 9.5q29 0 74 -20t104.5 -40t122.5 -20q129 0 210 93.5t81 238.5q0 80 -27.5 141.5t-72 96t-93.5 52t-98 17.5q-58 0 -81 4t-30 13t-7 34q0 14 23.5 31.5t58.5 35t76.5 44t76.5 56t58.5 75.5 t23.5 98q0 215 -160 215q-52 0 -94.5 -21t-65 -45.5t-48 -45.5t-46.5 -21q-34 0 -55 24.5t-10 47.5q10 21 25.5 43t47.5 50t72 49.5t102 36t134 14.5q44 0 90.5 -10t93 -32t83 -54t59 -80t22.5 -105q0 -204 -199 -330q57 -9 111.5 -37t103 -74t78 -118.5t29.5 -159.5 q0 -106 -32 -193.5t-85.5 -145.5t-124.5 -98.5t-146 -58.5t-153 -18z" />
<glyph unicode="4" horiz-adv-x="1460" d="M1298 553q34 2 48 -5.5t10 -25.5q-6 -24 -13 -49.5t-10.5 -39t-5.5 -25.5q-3 -15 -13.5 -19.5t-39.5 -3.5q-94 4 -230 4q-4 -130 15 -344q2 -13 -9.5 -22t-41.5 -15q-88 -12 -170 -31q-43 -9 -62 7q-11 9 -5 57q1 7 1 10q12 166 12 338q-35 0 -149 0.5t-184 0.5 t-171.5 -2t-177.5 -5q-10 0 -20 3.5t-21 25t35 67.5q144 161 372.5 467.5t315.5 470.5q10 17 71.5 36.5t118.5 30.5l56 11q26 1 39 -12t8 -31q-10 -44 -17.5 -111t-11 -124t-5 -161t-2 -157t0 -181.5t0.5 -168.5q200 0 256 4zM379 553q78 -4 403 -4q6 290 -4 565 q-144 -185 -399 -561z" />
<glyph unicode="5" horiz-adv-x="1042" d="M401 -37q-127 0 -231.5 32.5t-108.5 82.5q1 55 48 102q21 21 43.5 32t50 5t47.5 -35q17 -24 28 -37t30.5 -30t44.5 -24.5t57 -8.5q284 0 284 360q0 94 -20 163.5t-54.5 109.5t-83.5 59.5t-104 19t-119 -17.5q-50 -17 -112 -59q-25 -14 -58 -2.5t-45 35.5q-11 20 -2 47 q21 74 22.5 138t-7.5 386q-1 25 0 41.5t5.5 35.5t13.5 30t26 18t41 6q433 -7 519 -4q75 2 163 4q38 1 53 -4.5t15.5 -18.5t-3.5 -34q-12 -66 -35 -86.5t-55 -20.5q-22 0 -126 17.5t-189 17.5h-162q-22 -241 6 -424q59 19 115 19q37 0 75.5 -4t87.5 -16.5t92 -32t86 -53.5 t73.5 -77.5t49.5 -107t19 -140.5q0 -92 -27.5 -170.5t-71 -131.5t-100.5 -94.5t-113.5 -65.5t-111.5 -39t-94 -19.5t-62 -3.5z" />
<glyph unicode="6" horiz-adv-x="1202" d="M625 -39q-143 0 -253 42t-177 116.5t-100.5 169.5t-33.5 207q-1 65 18 151.5t67 199t119 218t188 209.5t260 172q48 21 72.5 24.5t54.5 -10.5q74 -46 -31 -96q-25 -12 -55 -31.5t-76.5 -58.5t-89 -86t-87.5 -118t-78 -151t-54 -187.5t-21 -225.5q0 -204 85 -314t208 -110 q41 0 78 13.5t71.5 45t55 92.5t20.5 146q0 84 -28.5 160t-87 127t-134.5 51q-80 0 -127 -31q-25 -15 -54.5 10t-2.5 56q12 15 29.5 29.5t49 35t77 33t96.5 12.5t104 -9t119 -38.5t115.5 -75t84 -128t34.5 -189.5q0 -103 -41.5 -190.5t-112 -146t-164.5 -91.5t-198 -33z" />
<glyph unicode="7" horiz-adv-x="1134" d="M127 -20q-37 0 -37 40q0 38 37 95q303 521 580 1140q21 50 -21 50h-156q-103 0 -228.5 -17.5t-164.5 -17.5q-27 0 -45 7t-23 17t-7 21t1 18q0 2 3.5 17.5t5.5 23t7 22t11 23t15 17.5t21.5 13t27.5 3q160 -6 433.5 -5.5t399.5 7.5q44 3 66.5 -13.5t21 -41t-19.5 -47.5 q-137 -189 -374.5 -638.5t-338.5 -693.5q-13 -29 -47 -34.5t-168 -5.5z" />
<glyph unicode="8" horiz-adv-x="1167" d="M524 -39q-210 0 -326 98t-116 277q0 242 276 422q-76 70 -109 118q-65 92 -65 189q0 115 65.5 211t165.5 147.5t206 51.5q52 0 104.5 -12t103.5 -38t90 -64t63 -95t24 -125q0 -28 -6 -56t-16.5 -51.5t-25 -47t-30 -42.5t-33 -37t-32.5 -31.5t-30.5 -25.5t-26 -19 t-18.5 -13l-8 -5q56 -34 88 -55t79.5 -61t73 -76.5t45 -91.5t19.5 -117q0 -133 -78.5 -237.5t-206 -159t-276.5 -54.5zM629 893q44 23 81.5 95t37.5 147q0 85 -44.5 146.5t-123.5 61.5q-53 0 -89 -33.5t-49.5 -78.5t-13.5 -96q0 -79 59 -143.5t142 -98.5zM594 98 q103 0 173.5 70.5t68.5 169.5q1 92 -76.5 168t-251.5 164q-64 -49 -101.5 -123.5t-41 -151t17.5 -144t77 -110.5t134 -43z" />
<glyph unicode="9" horiz-adv-x="1196" d="M322 23q-12 11 -8 33t32 36q129 65 228.5 162.5t159 209.5t89 229t29.5 235q0 57 -14 123t-43 134t-84.5 113t-126.5 45q-54 0 -97 -19.5t-70.5 -50t-46.5 -71.5t-26.5 -82t-7.5 -82q0 -64 17 -117t44.5 -86t63 -56t73 -31t72.5 -6t64 14q36 19 57.5 -14.5t5.5 -69.5 q-19 -41 -77 -71t-140 -30q-210 0 -332.5 117.5t-122.5 310.5q0 59 16.5 121t56.5 126.5t98 114.5t150 82t204 32q265 0 407 -144.5t142 -427.5q1 -142 -52.5 -274.5t-147.5 -241t-205 -194.5t-243 -158q-5 -3 -13 -7t-31 -13t-43 -13t-42.5 0.5t-35.5 20.5z" />
<glyph unicode=":" horiz-adv-x="544" d="M262 686q-60 0 -104.5 44.5t-44.5 105.5q0 60 44.5 104.5t104.5 44.5q61 0 105.5 -44.5t44.5 -104.5q0 -62 -44 -106t-106 -44zM262 -53q-60 0 -104.5 44.5t-44.5 104.5q0 61 44.5 105.5t104.5 44.5q62 0 106 -44t44 -106q0 -60 -44.5 -104.5t-105.5 -44.5z" />
<glyph unicode=";" horiz-adv-x="483" d="M242 684q-61 0 -105.5 45.5t-44.5 104.5q0 60 44.5 104.5t105.5 44.5q59 0 104 -44.5t45 -104.5q0 -59 -45.5 -104.5t-103.5 -45.5zM123 -215q-2 2 -4 6.5t-6 15.5t-4 20t6.5 18t21.5 12q10 2 26 7t45 30t34 61q4 32 -9 59t-53 31q-42 5 -63 36t-15 83q6 35 34.5 56 t70.5 24q3 0 8.5 0.5t21.5 -1.5t31 -7t35 -17.5t35.5 -31.5t30 -51t22.5 -73q1 -7 2.5 -20t-2 -49t-16 -68.5t-46 -70t-83.5 -62.5q-4 -2 -10.5 -5t-24 -9t-32.5 -8.5t-31 0.5t-25 14z" />
<glyph unicode="&#x3c;" horiz-adv-x="1189" d="M1087 936q0 -12 -6.5 -20.5t-12 -11.5t-15.5 -7l-611 -305l611 -287q20 -10 27 -17.5t7 -23.5v-112q0 -39 -11.5 -46.5t-39.5 5.5l-901 424q-33 13 -33 55q0 37 35 53l899 449q23 13 37 4.5t14 -45.5v-115z" />
<glyph unicode="=" horiz-adv-x="1114" d="M125 653q-14 0 -18.5 7.5t-4.5 33.5v99q0 26 4.5 33.5t18.5 7.5h862q15 0 20 -7.5t5 -33.5v-99q0 -26 -5 -33.5t-20 -7.5h-862zM125 334q-15 0 -19 7.5t-4 31.5v98q0 27 4 35t19 8h862q14 0 19.5 -9t5.5 -34v-98q0 -23 -5.5 -31t-19.5 -8h-862z" />
<glyph unicode="&#x3e;" horiz-adv-x="1189" d="M1053 643q34 -15 34 -53q0 -42 -32 -55l-901 -424q-28 -13 -40 -5.5t-12 46.5v112q0 16 7 23.5t28 17.5l611 287l-611 305q-11 5 -16 7.5t-12 11.5t-7 20v115q0 37 14.5 45.5t37.5 -4.5z" />
<glyph unicode="?" horiz-adv-x="1026" d="M455 322q-37 0 -66 18q-33 21 -63 57.5t-44 63t-12 26.5q-12 42 -6 73t20 49l13 18q198 204 283 336q44 71 57 134t2.5 104t-37.5 73q-42 43 -88.5 62t-85 15.5t-73 -17.5t-55.5 -29.5t-30 -28.5q-8 -10 -14 -21t-9.5 -24t-6 -22t-3.5 -24.5t-1 -21v-21.5v-16 q0 -39 -33 -39q-90 0 -90 56q0 88 -11 168q-5 32 22.5 62t70.5 49.5t86.5 34t74.5 21.5l31 7q84 18 156 11.5t127 -23t99 -47.5t72.5 -61.5t47.5 -64.5q134 -267 -238 -600q-172 -162 -172 -233q0 -31 27 -68q14 -23 14 -37q0 -16 -22 -28t-43 -12zM444 -51q-59 0 -99 40.5 t-40 100.5q0 58 40.5 99.5t98.5 41.5t101 -42t43 -99q0 -59 -42.5 -100t-101.5 -41z" />
<glyph unicode="@" horiz-adv-x="1558" d="M1159 897q-32 -157 -68 -368t-40 -281v-5q0 -16 1 -24t9.5 -16t25.5 -8q22 0 50 10.5t62 38.5t61.5 69.5t46 111.5t18.5 157q0 108 -28.5 199t-76.5 154t-111.5 107.5t-132.5 65t-140 20.5q-129 0 -242.5 -52t-191.5 -138.5t-123.5 -202t-45.5 -239.5q0 -174 79.5 -321.5 t209.5 -230.5t277 -83q124 0 230 45.5t151 95.5q22 25 43 12l22 -16q21 -13 0 -41q-77 -87 -213.5 -149t-281.5 -62q-138 0 -263 50.5t-219.5 141t-150.5 225.5t-56 294q0 93 25 186.5t71 178.5t116 159t154.5 128t191.5 85t223 31q129 0 237.5 -35t184.5 -95.5t129.5 -142 t78.5 -173.5t25 -191q0 -128 -43 -235.5t-113 -175.5t-155.5 -106t-173.5 -38q-87 0 -127 84q-97 -84 -203 -84q-73 0 -133.5 31.5t-99 83t-59.5 114t-21 127.5q0 118 30.5 217t78.5 163.5t109.5 109.5t121.5 64.5t116 19.5q107 0 166 -70l6 16q11 33 33 33h111q26 0 18 -45 zM907 571q16 148 1.5 216.5t-74.5 68.5q-45 0 -87 -27.5t-78 -81t-57.5 -143.5t-21.5 -203q0 -247 127 -247q83 0 124 99t66 318z" />
<glyph unicode="A" d="M1737 80q20 -3 26 -12t6 -33q0 -54 -24 -51q-139 16 -301 16q-94 0 -179.5 -4t-124.5 -8l-38 -4q-19 -1 -26 11t-7 40q0 42 18 45q4 1 13.5 2t18.5 2.5t16 3.5q21 5 40.5 24t10.5 50q-40 123 -119 319q-9 20 -16 25t-31 6q-56 3 -187.5 3t-185.5 -3q-25 -1 -32.5 -6.5 t-16.5 -28.5q-27 -62 -68 -147.5t-65 -149.5q-15 -39 3 -62t42 -30q15 -4 53 -8q18 -1 23.5 -10t5.5 -35q0 -29 -5.5 -40.5t-23.5 -10.5q-233 16 -315 16q-31 0 -91 -4t-105 -8l-44 -4q-16 -1 -22 11t-6 40q0 42 24 45q64 9 66 10q174 40 249 184q304 602 465 1074 q8 31 61 61t103 45l49 14q22 4 32.5 -6.5t10.5 -27.5q0 -48 17 -97q95 -272 232.5 -619t226.5 -501q26 -45 53 -74t41 -35l14 -6q27 -12 113 -22zM981 666q18 3 20 9.5t-8 31.5q-11 30 -42 120t-54 153t-43 112q-159 -376 -164 -387q-12 -25 -9.5 -31t24.5 -8 q41 -4 137.5 -3.5t138.5 3.5z" />
<glyph unicode="B" horiz-adv-x="1382" d="M51 -16q-16 -1 -22 9.5t-6 35.5q0 29 5 39t19 12q92 9 139 43q35 26 47.5 62t14.5 100q10 195 10 460.5t-10 403.5q-3 64 -15.5 102t-46.5 64q-56 36 -137 43q-26 3 -26 47q0 47 26 47q6 0 58 -4.5t131 -9t149 -4.5q125 0 256.5 9.5t206.5 8.5q39 -1 69.5 -3t73.5 -9.5 t75 -21t67 -38.5t57 -59t36.5 -86t14.5 -117q0 -68 -25.5 -127.5t-65.5 -98.5t-80.5 -64t-78.5 -35q33 0 74 -11t90.5 -39.5t89.5 -69.5t67 -109t27 -150q0 -110 -43 -193t-122 -134.5t-183.5 -77t-232.5 -25.5q-82 0 -205 8t-180 8q-63 0 -144 -4t-131 -8zM756 92 q127 0 204 97t72 237q-3 112 -104 183t-258 71q-10 0 -16 3t-11.5 16t-5.5 38q0 41 9 53.5t24 12.5q37 0 76 10t79.5 33.5t72 58.5t51.5 90t20 123q0 87 -39.5 142.5t-95.5 70.5q-103 26 -218 2q-50 -8 -57 -121q-11 -202 -12 -501t10 -498q3 -41 35 -69.5t74.5 -40 t89.5 -11.5z" />
<glyph unicode="C" horiz-adv-x="1503" d="M807 -39q-77 0 -149 8.5t-152 31t-148 58t-131 94.5t-107 136t-70.5 186.5t-26.5 241.5q0 154 66 294t178.5 242t270 162t332.5 60q263 0 502 -66q30 -9 27 -37q-11 -64 -13.5 -132t0.5 -104l3 -36q2 -17 -10 -26t-52 -9q-35 0 -46 8.5t-11 24.5q0 95 -35 147 q-83 127 -352 127q-113 0 -204.5 -45t-149 -114.5t-96.5 -159t-55 -173.5t-16 -163q0 -104 23.5 -197.5t63.5 -164t92.5 -127.5t111.5 -93t118.5 -55t115.5 -19q151 0 251.5 38.5t131.5 97.5q11 24 16 54t6 64t2 41q2 13 14 18t50 5q29 0 43.5 -3.5t17 -9t0.5 -14.5 q-33 -158 -33 -264q2 -23 -11 -38t-27 -19l-13 -4q-17 -3 -80.5 -16.5t-83 -17t-73.5 -12t-89 -11.5t-89.5 -6t-112.5 -3z" />
<glyph unicode="D" horiz-adv-x="1665" d="M68 -16q-11 -2 -18 10.5t-7 36.5q0 48 23 51q76 5 131 41q26 17 41.5 64t17.5 85l2 39q8 161 8 410t-8 409q0 6 -0.5 16t-4.5 37t-9.5 50t-17.5 47.5t-27 36.5q-25 19 -52.5 26.5t-83.5 14.5q-11 2 -15.5 11t-4.5 36q0 50 25 47q119 -18 342 -18q20 0 246.5 10t322.5 8 q301 -5 483.5 -200t182.5 -531q0 -127 -37 -237t-103.5 -192.5t-159.5 -145.5t-203.5 -101t-236.5 -53q-105 -10 -163.5 -8t-165 9t-168.5 7q-116 0 -201 -4t-112 -8zM948 98q117 25 201 112t126 217t42 290q0 436 -248 579q-49 26 -110.5 38t-126.5 9.5t-105.5 -7 t-92.5 -12.5l-18 -3q-40 -8 -43 -35q-16 -214 -18.5 -471t4 -426.5t14.5 -232.5q2 -23 35 -43q57 -26 142 -30t142 5z" />
<glyph unicode="E" horiz-adv-x="1249" d="M49 -16q-12 -3 -19 8.5t-7 36.5q0 43 22 47q94 10 131 30q24 16 39 72t18 104l3 48q8 158 8 399t-8 399q-1 18 -3 46t-17.5 83t-39.5 72q-29 18 -127 29q-15 2 -22 11.5t-7 35.5q0 24 7.5 37t21.5 10q126 -18 416 -18q342 0 641 18q20 2 29.5 -6.5t5.5 -30.5 q-27 -114 -11 -254q2 -16 -7.5 -22.5t-47.5 -5.5q-43 3 -45 20q-3 90 -29 131q-40 59 -213 59q-124 0 -200 -26q-21 -6 -30.5 -14t-12.5 -25q-16 -242 -17 -383q0 -29 7 -36t32 -9q183 -8 307 2q47 3 52 43q5 24 12 94q1 9 4.5 13.5t17.5 8t41 3.5q21 0 27 -7t4 -22 q-10 -63 -12 -217q2 -67 5 -119t5 -71l2 -19q2 -14 -4.5 -20.5t-28.5 -6.5q-26 0 -40 3.5t-17 7.5t-4 12q-7 76 -14 96q-9 33 -50 39q-119 13 -301 4q-31 -1 -38 -7.5t-7 -31.5q0 -194 15 -475q5 -36 41 -45q37 -9 98 -14.5t103 -6.5l42 -1q177 0 232 24q10 5 18 16 t14.5 31.5t10.5 35t10.5 45.5t9.5 44q3 9 5.5 13t13.5 7t30 1q38 -3 48.5 -11t7.5 -22q0 -1 -5.5 -25t-10.5 -56.5t-9 -78.5v-102q1 -10 -3 -19.5t-9 -13.5l-4 -4q-11 -9 -42 -12t-56 -2l-25 2q-162 14 -598 14q-108 0 -212 -4t-154 -8z" />
<glyph unicode="F" horiz-adv-x="1167" d="M47 -16q-10 -1 -17 12t-7 33q0 19 3.5 29.5t7.5 13.5t11 4q105 9 137 30q25 16 40 67.5t18 94.5l2 43q8 160 8 419t-8 417q0 17 -2 42.5t-17.5 75t-40.5 64.5q-50 26 -127 29q-17 1 -22.5 10.5t-5.5 36.5q0 26 6 38t22 9q139 -18 385 -18q391 0 656 18q2 -2 17.5 0.5 t27.5 -10t2 -37.5q-25 -81 -13 -182q6 -51 7 -54q3 -18 -6.5 -27.5t-34.5 -8.5q-30 0 -44.5 5t-15.5 21q-1 31 -8.5 62.5t-14.5 46.5l-7 16q-33 59 -211 59q-113 0 -199 -24q-42 -9 -45 -39q-14 -182 -16 -418q0 -29 6.5 -36t31.5 -9q186 -6 301 2q4 0 11 2t21.5 13t19.5 28 q3 17 14 86q1 8 3.5 13t10.5 8.5t23 3.5q42 0 52 -6.5t7 -22.5q-10 -51 -12 -205q2 -68 5 -118.5t5 -66.5l2 -17q2 -15 -9 -22t-52 -7q-20 0 -26.5 6t-8.5 18q-11 73 -16 89q-9 33 -50 38q-123 11 -294 5q-31 -1 -38 -7.5t-7 -31.5q0 -96 8 -334q12 -155 59 -185 q42 -26 137 -30q14 -2 19.5 -11t5.5 -38q0 -46 -25 -43q-182 16 -303 16q-88 0 -185.5 -4t-150.5 -8z" />
<glyph unicode="G" horiz-adv-x="1632" d="M774 -39q-158 0 -286 37t-214 100t-144 150t-84 184t-26 205q0 170 75 326t198.5 267.5t288.5 178t340 66.5q251 0 460 -60q35 -10 42 -23.5t1 -48.5q-10 -57 -11.5 -116.5t2.5 -90.5l3 -30q3 -24 -11 -32.5t-44 -8.5q-37 0 -51.5 9t-12.5 30q2 78 -27 132t-85 83 t-123 41t-154 12q-120 0 -215.5 -39.5t-156 -103.5t-101 -151t-57 -176t-16.5 -185q0 -150 40.5 -275t109.5 -207.5t160.5 -128t192.5 -45.5q180 0 244 80q27 36 29.5 125.5t-19.5 172t-57 100.5q-41 20 -172 32q-13 1 -19 12.5t-8 37.5q2 26 8.5 38t22.5 11q87 -15 369 -17 q97 -1 177 3.5t111 9.5l31 4q14 3 20.5 -10t6.5 -37q0 -49 -23 -52q-126 -12 -153 -32q-37 -26 -51.5 -98t-7.5 -152t28 -146q12 -40 5.5 -62.5t-34.5 -37.5q-73 -39 -254.5 -60.5t-347.5 -21.5z" />
<glyph unicode="H" horiz-adv-x="1742" d="M63 -16q-22 -3 -22 45q0 46 18 49q92 7 131 31q25 16 40 61t18 82l2 37q8 160 8 430t-8 428q0 16 -2 41t-17.5 75t-40.5 66q-44 25 -131 29q-18 4 -18 47q0 50 18 47q188 -18 342 -18q68 0 152.5 4.5t134.5 9.5l51 4q23 3 23 -47q0 -44 -21 -47q-91 -5 -131 -29 q-24 -16 -39 -61.5t-17 -83.5l-3 -37q-6 -126 -6 -229q0 -29 13 -39t54 -13q181 -6 258.5 -6t259.5 6q47 1 57.5 12.5t10.5 51.5q0 7 -6 217q-1 16 -3 41t-18 75t-41 66q-37 22 -131 29q-18 3 -18 47q0 50 18 47q184 -18 340 -18q68 0 153.5 4.5t137.5 9.5l51 4q21 3 21 -47 q0 -42 -19 -47q-90 -6 -131 -29q-25 -16 -40 -61.5t-17 -83.5l-2 -37q-7 -150 -7 -413.5t5 -444.5q1 -67 18.5 -116t42.5 -64q51 -26 131 -31q19 -3 19 -49q0 -48 -25 -45q-176 16 -334 16q-70 0 -154.5 -4t-133.5 -8l-49 -4q-11 -2 -18 11t-7 34q0 46 18 49q83 6 131 31 q25 16 40.5 61t18.5 82l3 37q8 246 8 366q0 28 -13 38.5t-57 13.5q-180 6 -257.5 6t-260.5 -6q-43 -2 -56 -11.5t-13 -40.5q0 -120 8 -366q0 -16 2.5 -41t17.5 -74t39 -65q40 -24 131 -31q21 -4 21 -49q0 -48 -25 -45q-178 16 -334 16q-68 0 -153 -4t-136 -8z" />
<glyph unicode="I" horiz-adv-x="843" d="M272 1147q0 16 -2.5 41t-18 75t-40.5 66q-37 22 -131 29q-19 3 -19 47q0 50 19 47q182 -18 340 -18q68 0 153.5 4.5t136.5 9.5l52 4q20 3 20 -47q0 -25 -3.5 -34.5t-14.5 -12.5q-90 -6 -131 -29q-25 -16 -40 -61.5t-17 -83.5l-3 -37q-7 -162 -7.5 -422t5.5 -436 q1 -67 18.5 -115.5t43.5 -64.5q51 -26 131 -31q18 -3 18 -49q0 -48 -24 -45q-174 16 -338 16q-68 0 -151.5 -4t-132.5 -8l-50 -4q-11 -2 -18 11t-7 34q0 46 19 49q83 6 131 31q25 16 40.5 61t18.5 82l2 37q6 180 6 436t-6 422z" />
<glyph unicode="J" horiz-adv-x="751" d="M-37 -477q-30 0 -47.5 21t-17.5 50q0 44 39 44q152 0 225.5 101t75.5 281q3 419 0.5 597t-15.5 507q-1 19 -3.5 49t-17 86t-38.5 70q-48 23 -135 29q-19 3 -19 47q0 50 19 47q199 -18 346 -18q65 0 150 4.5t137 9.5l53 4q16 3 16 -47q0 -27 -3.5 -36t-12.5 -11 q-88 -7 -133 -29q-25 -13 -40.5 -64t-18.5 -96l-3 -45q-10 -507 -6 -1058q0 -75 -22 -150.5t-67.5 -146t-109.5 -125.5t-155 -88t-197 -33z" />
<glyph unicode="K" horiz-adv-x="1736" d="M725 78q18 -3 18 -49q0 -48 -24 -45q-176 16 -334 16q-70 0 -154.5 -4t-134.5 -8l-49 -4q-11 -2 -17.5 10.5t-6.5 34.5q0 46 18 49q83 6 131 31q25 16 40.5 61t17.5 82l3 37q6 180 6 436t-6 422q0 16 -2.5 41t-18 75t-40.5 66q-37 22 -131 29q-18 3 -18 47q0 50 18 47 q184 -18 340 -18q68 0 153.5 4.5t137.5 9.5l51 4q20 3 20 -47q0 -25 -3.5 -34.5t-14.5 -12.5q-90 -6 -131 -29q-25 -16 -40 -61.5t-17 -83.5l-2 -37q-7 -164 -8 -422t5 -436q1 -67 18.5 -115.5t43.5 -64.5q51 -26 131 -31zM1737 78q20 -3 20 -49q0 -45 -20 -45h-275 q-71 0 -135.5 16t-105.5 39t-71.5 45.5t-43.5 38.5l-14 16q-54 65 -156.5 214t-179.5 243q-59 66 -77 78q-20 14 -40 14q-16 0 -47 33q-34 37 -10 65q60 57 108.5 104t97.5 98t68.5 71.5t76.5 83t66 71.5q26 30 39.5 55t14 41.5t-7.5 27.5t-23 16q-14 4 -53 4q-19 0 -19 47 q0 50 17 47q168 -18 338 -18q75 0 149 4.5t111 9.5l37 4q18 3 18 -47q0 -44 -18 -47q-88 -5 -150.5 -23.5t-132.5 -68.5q-63 -45 -129.5 -109t-163 -168.5t-123.5 -132.5q95 -135 239 -322.5t228 -281.5q30 -34 59 -59.5t51.5 -43t52.5 -30t47 -19t51 -11.5t50 -6.5t56 -4.5 z" />
<glyph unicode="L" horiz-adv-x="1236" d="M1180 330q28 0 33.5 -9t-1.5 -34q-33 -138 -28 -217q0 -5 1 -13t1 -12t0.5 -10t-0.5 -9.5t-2.5 -7t-3.5 -6.5q-18 -18 -42.5 -23t-74.5 -5q-10 0 -142.5 4t-294.5 8t-245 4q-68 0 -151.5 -4t-133.5 -8l-49 -4q-11 -2 -17.5 10.5t-6.5 34.5q0 46 18 49q83 6 131 31 q25 16 40.5 61t17.5 82l3 37q6 180 6 436t-6 422q0 16 -2.5 41t-18 75t-40.5 66q-37 22 -131 29q-18 3 -18 47q0 50 18 47q182 -18 340 -18q68 0 153.5 4.5t137.5 9.5l51 4q20 3 20 -47q0 -25 -3.5 -34.5t-14.5 -12.5q-90 -6 -131 -29q-25 -16 -40 -61.5t-17 -83.5l-2 -37 q-7 -164 -8 -429t5 -437q5 -70 20.5 -105.5t45.5 -44.5q83 -25 238 -25q86 0 140 11t70.5 22t26.5 27q31 56 39 129q3 20 15.5 27.5t52.5 7.5z" />
<glyph unicode="M" horiz-adv-x="2205" d="M2161 78q24 -3 24 -47q0 -20 -6.5 -34t-17.5 -13q-185 16 -353 16q-76 0 -154.5 -4t-119.5 -8l-41 -4q-11 -1 -19 14t-8 33q0 41 25 47q38 5 68.5 13t41.5 13l11 5q42 22 34 193q-1 8 -1 11q-9 283 -64 693q-126 -258 -268 -562t-142 -317q0 -21 -18 -39 q-81 -78 -109 -113q-26 -30 -34 -34q-6 -2 -13 -2q-18 0 -24.5 8t-14.5 35q-50 164 -171.5 458t-237.5 541q-73 -500 -86 -709q-9 -140 31 -163q36 -21 124 -31q23 -3 23 -47q0 -19 -7 -33.5t-16 -13.5q-151 16 -282 16q-59 0 -132 -4t-116 -8l-43 -4q-10 -1 -16 13.5 t-6 33.5q0 44 20 47q40 4 72 12t43 14l12 5q64 38 92 204q51 303 67.5 425t43.5 390q2 25 -2 60q-9 62 -29.5 92.5t-69.5 50.5q-39 17 -125 27q-18 3 -18 47q0 47 18 47q26 0 109.5 -9t132.5 -9q50 0 157 9t122 9q19 0 27.5 -9.5t17.5 -43.5q77 -231 147 -415.5 t114.5 -288.5t139.5 -318q95 192 240.5 510t226.5 514q11 33 19.5 42t31.5 9q13 0 79.5 -9t141.5 -9q56 0 106 4.5t77.5 9t29.5 4.5q11 1 17 -13.5t6 -33.5q0 -44 -21 -47q-38 -4 -68 -11t-41 -11l-11 -5q-29 -11 -49 -35t-28.5 -54t-11 -53.5t-1.5 -45.5q17 -395 86 -832 q17 -98 38.5 -144t53.5 -58q35 -19 125 -31z" />
<glyph unicode="N" horiz-adv-x="1841" d="M1821 1452q9 1 14.5 -12.5t5.5 -32.5q0 -32 -3.5 -40.5t-14.5 -10.5q-99 -7 -142 -29q-46 -27 -53 -127q-28 -527 -4 -991q2 -57 8 -80q7 -31 -6 -39q-94 -48 -162 -104q-5 -4 -14.5 -12.5t-14 -12t-11 -8.5t-12 -6.5t-11.5 -1.5q-11 0 -19.5 7.5t-22 29t-18.5 28.5 q-384 525 -843 1041q-6 -607 2 -738q6 -92 16.5 -139t42.5 -65q55 -23 137 -29q13 -2 18 -11.5t5 -39.5q0 -19 -6 -32.5t-17 -12.5q-178 16 -313 16q-52 0 -125 -4t-120 -8l-48 -4q-24 -3 -24 45q0 31 5 40t19 11q37 3 70 10t47 13l14 6q57 33 64 204q11 407 0 813 q-2 65 -30 122.5t-83 80.5q-41 19 -129 29q-20 4 -20 53q0 44 20 41q80 -12 147 -12q31 0 177.5 6t169.5 6q26 0 45 -35q140 -227 823 -1020q5 617 -4 781q-8 124 -55 149q-44 22 -142 29q-10 2 -13 10.5t-3 40.5q0 48 20 45q173 -18 308 -18q50 0 126.5 4.5t127.5 9.5z" />
<glyph unicode="O" horiz-adv-x="1642" d="M807 -39q-253 -11 -440 91.5t-267 312.5q-53 136 -58 274.5t32 258.5t111 226t174.5 182t227 121t263.5 48q170 3 312.5 -54.5t237 -158.5t147.5 -234.5t55 -282.5q0 -341 -215.5 -553t-579.5 -231zM918 74q119 31 206.5 140.5t124.5 273.5t11 346q-41 279 -190.5 425.5 t-332.5 96.5q-119 -31 -209.5 -140.5t-130.5 -274t-14 -345.5q41 -276 196 -424t339 -98z" />
<glyph unicode="P" horiz-adv-x="1306" d="M43 -16q-9 -1 -14.5 11.5t-5.5 33.5q0 46 20 49q75 5 129 31q24 16 39 66.5t17 92.5l3 43q6 160 6 418t-6 416q0 6 -0.5 16t-4.5 37t-9.5 49.5t-17.5 46t-27 33.5q-48 29 -129 31q-20 3 -20 47q0 20 5.5 34t14.5 13q119 -18 338 -18q52 0 226.5 9t252.5 9q200 0 313 -92 t113 -285q0 -110 -38 -201.5t-103.5 -153t-150.5 -102t-179.5 -54.5t-191.5 -3q-31 8 -31 64q0 33 10 48t23 13q354 -34 354 338q0 155 -69 237t-185 82q-80 0 -129 -16q-51 -16 -59 -129q-10 -179 -11.5 -447.5t6.5 -439.5q4 -171 60 -202q52 -25 131 -31q20 -3 20 -49 q0 -19 -5.5 -32.5t-14.5 -12.5q-133 16 -342 16q-91 0 -175.5 -4t-123.5 -8z" />
<glyph unicode="Q" horiz-adv-x="1714" d="M1853 -127q5 -13 2.5 -23t-16.5 -24q-43 -36 -62.5 -51t-53 -33t-70.5 -27q-147 -40 -322 62q-57 30 -109.5 70t-92.5 62.5t-103 33.5q-76 14 -174 20q-8 -2 -25 -2q-253 -11 -439.5 91.5t-266.5 312.5q-53 136 -58 274.5t32 258.5t111 226t174 182t226.5 121t263.5 48 q170 3 312.5 -54.5t237 -158.5t147.5 -234.5t55 -282.5q-1 -255 -111.5 -434t-312.5 -268q16 0 33.5 -3.5t30 -7t30.5 -11.5t26 -12t27.5 -14t24.5 -13q19 -9 73 -35t79 -37t63.5 -22.5t67.5 -12.5q76 0 121 35q22 16 43 4q23 -12 36 -41zM403 596q41 -276 196 -424t339 -98 q119 31 207 140.5t125 273.5t10 346q-41 279 -190 425.5t-332 96.5q-119 -31 -209.5 -140t-131 -274t-14.5 -346z" />
<glyph unicode="R" horiz-adv-x="1564" d="M47 -16q-9 -2 -16.5 11t-7.5 34q0 28 5.5 37.5t18.5 11.5q84 5 127 31q24 16 39 66t17 92l3 42q6 161 6 419.5t-6 418.5q0 6 -0.5 16t-4.5 37.5t-9.5 50.5t-17.5 46.5t-27 33.5q-41 27 -125 29q-14 2 -20 10.5t-6 34.5q0 50 26 47q172 -18 367 -18q45 0 226.5 9t254.5 9 q183 0 292 -110t109 -281q0 -240 -272 -387q-26 -12 -28 -21t14 -30l41 -52q45 -56 115.5 -150t122 -157.5t108.5 -120.5q10 -10 21.5 -18.5t21 -14.5t21.5 -11t19.5 -7.5t19 -5.5t16 -4t14.5 -2l10 -2q13 -3 18 -12t5 -33q0 -49 -23 -49h-246q-45 0 -85.5 10t-66 24t-45 28 t-27.5 24l-9 10q-43 57 -138.5 208t-160.5 226q-2 2 -11.5 13t-11.5 13t-9.5 10t-11.5 10.5t-11 7t-14 6.5t-15 4l-47 8q-28 6 -38.5 18.5t-10.5 38.5q0 36 10 55t39 19q86 0 149.5 18.5t101.5 48t60.5 74t30.5 88.5t8 98q-14 299 -258 299q-70 0 -121 -14q-57 -17 -67 -133 q-13 -149 -13 -439t8 -466q2 -51 16 -106.5t44 -75.5q51 -31 131 -31q20 -3 20 -49q0 -21 -5.5 -33.5t-14.5 -11.5q-182 16 -297 16q-82 0 -176.5 -4t-148.5 -8z" />
<glyph unicode="S" horiz-adv-x="1093" d="M399 -39q-197 0 -270 57q-23 17 -33.5 38.5t-11 36.5t2.5 42.5t3 40.5q0 29 -6 53q-5 24 7 35t54 17q18 3 28 3t16.5 -1t9 -9.5t3.5 -14.5t1.5 -25.5t1.5 -32.5q9 -140 211 -140q51 1 97.5 17.5t86.5 50t64 92.5t24 135q0 53 -33 99.5t-86.5 83.5t-117.5 75t-128 83.5 t-117.5 99t-86.5 131.5t-33 172q0 52 17 103t56.5 100.5t98 87.5t148 61t198.5 23q51 0 203 -29q5 -1 14 -2.5t35 -4t43 2.5q18 2 29.5 -2.5t16.5 -19.5t-7 -44q-17 -44 -18 -81t6 -74q2 -15 -11 -24t-43 -13q-36 -5 -43 24q-14 80 -66 120t-171 44q-94 0 -152 -50.5 t-59 -147.5q0 -67 35 -121t90.5 -92t122.5 -73.5t134.5 -76t123 -89t90.5 -124t35 -170.5q0 -59 -14 -114t-43 -108t-78.5 -97t-115 -77.5t-158.5 -52t-204 -18.5z" />
<glyph unicode="T" horiz-adv-x="1570" d="M444 -16q-9 -1 -14.5 13t-5.5 32q0 46 18 49q82 3 133 31q25 16 40.5 66t18.5 92l3 42q14 458 -6 932q-2 39 -8.5 56.5t-24.5 21.5q-72 16 -219 16q-177 0 -207 -43q-19 -29 -29 -131q0 -20 -49 -20q-34 0 -43.5 4.5t-9.5 17.5v60q0 12 0.5 43.5t0 41t-2 31t-5.5 38 t-11 36.5q-9 24 3 33.5t29 7.5q63 -4 139.5 -7t143.5 -4t138.5 -1.5t118 -0.5t89.5 0.5t47 0.5h117q4 0 46.5 -0.5t88.5 -0.5t116.5 0.5t136.5 1.5t142 4t138 7q18 2 28.5 -6t3.5 -33q-24 -85 -18 -192v-58q-2 -13 -12 -17.5t-41 -4.5q-47 0 -50 18q-5 44 -12.5 76.5 t-12.5 43.5l-5 11q-5 8 -13 14.5t-20 11t-23 7.5t-27.5 5t-28 3t-30 1.5t-28 0.5h-27h-22.5q-131 0 -201 -16q-20 -4 -26.5 -22t-8.5 -56q-21 -489 -4 -932q0 -18 2 -46t17 -83t40 -71q47 -28 133 -31q19 -3 19 -49q0 -8 -0.5 -14.5t-2 -14.5t-6 -12.5t-10.5 -3.5 q-128 16 -339 16q-94 0 -180.5 -4t-126.5 -8z" />
<glyph unicode="U" horiz-adv-x="1865" d="M1825 76q7 -1 10.5 -4t6.5 -13t3 -30q0 -23 -4.5 -34.5t-15.5 -10.5q-94 10 -209 10q-6 0 -29 0.5t-34.5 0t-34 -1.5t-38.5 -3.5t-36.5 -8t-38.5 -12.5q-40 -17 -67.5 -2t-22.5 51q8 69 0 125q-200 -182 -557 -182q-118 0 -209.5 30t-149 79t-95 118.5t-52 143 t-14.5 157.5q0 477 -5 660q0 7 -0.5 18t-4.5 40t-10 52.5t-18 46t-28 29.5q-32 13 -133 25q-10 2 -14.5 10.5t-4.5 34.5q0 20 5.5 34.5t13.5 12.5q24 -2 61 -5.5t117 -8.5t117 -4l387 18q22 0 22 -47q0 -43 -22 -47q-81 -10 -133 -31q-25 -12 -40.5 -55t-18.5 -80l-3 -37 q-10 -289 0 -657q1 -52 15 -108t43 -111t68.5 -99t97.5 -71t124 -27q89 0 194.5 45t180.5 117q36 36 48 97.5t12 184.5v168.5v128v83.5t-1 76t-2 62.5t-3 83.5q0 7 -0.5 19t-4.5 44t-10 57.5t-18 50t-29 32.5q-49 18 -135 27q-10 2 -14.5 11t-4.5 36q0 20 5 34t14 13 q252 -18 344 -18q59 0 144 4.5t140 9.5l56 4q18 3 18 -47q0 -29 -3.5 -37t-14.5 -10q-80 -5 -129 -27q-25 -12 -40.5 -62.5t-18.5 -95.5l-3 -45q-18 -568 19 -888q3 -21 11 -47.5t30.5 -58.5t52.5 -40q57 -15 113 -18z" />
<glyph unicode="V" horiz-adv-x="1761" d="M1763 1452q8 2 13.5 -11.5t5.5 -33.5q0 -46 -21 -49q-77 -7 -143 -57.5t-141 -180.5q-89 -155 -260 -501.5t-238 -534.5q-10 -35 -33 -43q-99 -28 -145 -59q-28 -21 -49 -21q-28 0 -43 49q-15 57 -35 113q-85 232 -147 393t-159 383t-180 373q-25 39 -62.5 58t-129.5 30 q-16 3 -16 45q0 50 20 47q167 -18 276 -18q48 0 153.5 4.5t186.5 9.5l82 4q10 1 15.5 -13t5.5 -34q0 -44 -21 -47q-117 -14 -136.5 -47.5t16.5 -126.5q105 -330 321 -842q14 29 86.5 182.5t123.5 261.5t108 231t77 171q46 94 26.5 124.5t-136.5 45.5q-17 3 -17 47 q0 50 17 47q139 -18 293 -18q68 0 139.5 4.5t109.5 9.5z" />
<glyph unicode="W" horiz-adv-x="2506" d="M2509 1452q18 3 18 -47q0 -44 -18 -47q-84 -7 -112 -19.5t-42 -46.5q-82 -201 -225 -599t-213 -617q-11 -33 -37 -37q-82 -20 -133 -51q-5 -3 -16.5 -11.5t-20 -12t-18.5 -3.5q-14 0 -23.5 9.5t-14 20t-9.5 27.5q-43 140 -158 446t-191 494q-22 -60 -97.5 -267 t-137.5 -377t-86 -242q-8 -24 -37 -33q-80 -22 -129 -53q-37 -25 -55 -25q-20 0 -32 19.5t-15 35.5q-50 217 -189 608.5t-215 544.5q-54 110 -111.5 142.5t-195.5 46.5q-16 3 -16 47q0 50 16 47q248 -18 414 -18q73 0 159 4.5t135 9.5l50 4q18 3 18 -47q0 -26 -3 -36 t-13 -11q-41 -5 -68 -11t-43 -17.5t-23 -22.5t-5.5 -33.5t6.5 -41.5t16 -56q26 -116 122.5 -413t141.5 -409q194 534 264 760q25 81 18 125t-61 76q-44 33 -155 43q-17 3 -17 47q0 50 21 47q94 -18 309 -18h59q85 0 109 -91q44 -149 173 -484.5t204 -506.5q62 161 149 430.5 t113 388.5q8 38 9.5 65t-4.5 47t-17 32.5t-33 21t-47 13t-64 8.5q-16 3 -16 47q0 21 4.5 34.5t15.5 12.5q216 -18 318 -18q45 0 108.5 4.5t104.5 9.5z" />
<glyph unicode="X" horiz-adv-x="1628" d="M1620 76q18 -3 18 -47q0 -48 -20 -45q-86 16 -268 16q-81 0 -176 -4t-150 -8l-55 -4q-10 -1 -15.5 12.5t-5.5 32.5q0 44 17 47l45 8q34 7 42 19t-5 34q-23 37 -46 73.5t-56.5 85t-52.5 76t-67.5 96.5t-68.5 97q-168 -220 -297 -420q-11 -25 0 -37t35 -16q13 -2 36 -8 t45 -8q17 -3 17 -47q0 -48 -19 -45q-176 16 -297 16q-55 0 -122 -4t-106 -8l-40 -4q-6 -1 -10.5 8t-6 18.5t-1.5 18.5q0 44 16 47q64 7 119 16q63 10 94 47q268 334 416 557q23 36 -10 84q-151 231 -383 529q-34 43 -166 49q-19 3 -19 47q0 50 21 47q171 -18 323 -18 q68 0 170 4.5t170 9.5l68 4q11 1 16.5 -14t5.5 -33q0 -44 -22 -47l-113 -12q-37 -5 -46.5 -18t3.5 -42q28 -60 232 -348q204 281 235 338q15 37 3.5 52.5t-40.5 19.5l-90 10q-18 3 -18 47q0 11 2 21.5t6 18.5t10 7q207 -18 303 -18q43 0 107.5 4.5t107.5 9.5l43 4 q7 1 11.5 -7t6 -18.5t1.5 -21.5q0 -44 -19 -47l-92 -10q-77 -8 -104 -45q-236 -304 -354 -472q-23 -33 -9 -57q43 -76 186 -276t267 -361q26 -35 94 -49z" />
<glyph unicode="Y" horiz-adv-x="1521" d="M1520 1450q22 3 22 -45q0 -44 -18 -47l-51 -6q-94 -14 -119 -45q-221 -316 -434 -660q-31 -51 -31 -106q0 -108 6 -252q0 -17 2.5 -42.5t18 -76t40.5 -66.5q22 -16 131 -28q19 -3 19 -47q0 -19 -5.5 -32.5t-15.5 -12.5q-138 16 -337 16q-88 0 -170.5 -4t-121.5 -8l-38 -4 q-23 -3 -23 45q0 44 17 47q48 5 81 12t41 12l9 4q25 16 40.5 62.5t18.5 84.5l2 38q6 117 6 157q0 59 -28 113q-105 203 -232.5 418.5t-212.5 339.5q-20 29 -84 35l-55 6q-18 3 -18 47q0 20 4.5 33t15.5 12q106 -16 268 -16q71 0 155 4t133 8l48 4q23 3 23 -45q0 -44 -19 -47 q-16 -2 -52 -6t-40 -4q-28 -4 -37.5 -23.5t0.5 -36.5q77 -158 314 -557q272 410 350 545q32 59 -37 72q-22 4 -78 10q-20 3 -20 47q0 48 22 45q170 -16 285 -16q51 0 102.5 4t76.5 8z" />
<glyph unicode="Z" horiz-adv-x="1392" d="M57 -16q-26 0 -36 20.5t10 48.5q150 193 418.5 589.5t390.5 600.5q21 35 11.5 55.5t-42.5 22.5q-197 13 -330 8q-70 -2 -143.5 -16.5t-91.5 -42.5q-28 -41 -25 -94q0 -20 -9.5 -25.5t-33.5 -5.5q-36 0 -50.5 7.5t-10.5 29.5q7 30 5 100.5t-16 130.5q-7 24 1 33.5t28 7.5 q80 -10 449 -10q150 0 394 5t263 5q37 2 54 -32.5t-7 -65.5q-130 -166 -426 -604.5t-379 -589.5q-9 -18 1.5 -31t37.5 -14q116 -6 237 -8t184 -1l63 1q54 0 96 6t62.5 11.5t37 17.5t18 14t7.5 12q11 16 18 90q1 14 27.5 23.5t56.5 13.5q32 4 40 -3.5t3 -27.5q-1 -6 -9 -50.5 t-13 -84.5q-4 -33 0 -74q5 -27 -4.5 -43.5t-29.5 -22.5t-47 -8t-57 1q-70 0 -357 3t-339 3q-43 0 -223 -3t-234 -3z" />
<glyph unicode="[" horiz-adv-x="653" d="M588 -410q-22 1 -58 2t-140.5 2t-172.5 -2q-4 0 -21.5 -1.5t-24 -1.5t-19 0.5t-20.5 2.5t-15 5q-16 12 -13 45q6 52 11 805t-4 997q-1 21 -3.5 46t-3.5 34q-5 26 13 39q8 5 18 5t35 -1.5t47 -1.5q182 -2 367 6q23 2 31 -4t8 -31q0 -30 -6.5 -37t-32.5 -10 q-133 -13 -203 -33q-24 -7 -38 -51t-17 -102q-14 -322 -14 -720t14 -722q10 -143 55 -156q79 -22 205 -31q22 -3 29.5 -12t7.5 -35t-6.5 -32.5t-28.5 -4.5z" />
<glyph unicode="\" horiz-adv-x="606" d="M618 -106h-153q-29 0 -37 28l-448 1589q-7 29 16 29h156q13 0 19 -6t11 -23l453 -1589q3 -12 -2 -20t-15 -8z" />
<glyph unicode="]" horiz-adv-x="673" d="M86 -410q-22 -2 -28.5 4.5t-6.5 32.5t7.5 35t29.5 12q126 9 205 31q45 13 55 156q14 324 14 722t-14 720q-3 58 -17 102t-38 51q-70 20 -203 33q-26 3 -32.5 10t-6.5 37q0 25 8 31t31 4q185 -8 367 -6q19 0 38.5 1t28.5 1.5t18 0t15 -4.5q17 -12 12 -39q-1 -9 -2 -23 t-2 -27.5t-2 -29.5q-9 -244 -4.5 -997t10.5 -805q3 -34 -12 -45q-7 -3 -15 -5t-20.5 -2.5t-19 -0.5t-24 1.5t-21.5 1.5q-90 3 -172.5 2.5t-140.5 -2.5z" />
<glyph unicode="^" horiz-adv-x="1046" d="M938 793q21 -58 -18 -58h-138q-7 0 -12 2t-10 9.5t-6.5 11t-8.5 18.5l-227 449l-209 -449q-1 -3 -4.5 -10l-4.5 -9t-3.5 -6.5t-4.5 -6t-5 -4t-6 -3.5t-7.5 -1.5t-9.5 -0.5h-135q-21 0 -25 13.5t7 44.5l309 665q17 38 34 52t60 14t61 -14.5t35 -51.5z" />
<glyph unicode="_" horiz-adv-x="1259" d="M141 -276q-18 0 -18 18v115q0 20 18 20h977q19 0 19 -20v-115q0 -18 -19 -18h-977z" />
<glyph unicode="`" horiz-adv-x="571" d="M406 1458q-48 31 -127.5 73.5t-134.5 69.5l-56 27q-26 13 -32 29.5t5 42.5q22 63 82 106q19 12 44.5 8t37.5 -22q36 -49 95 -117t100 -111l41 -44q19 -19 21 -31.5t-13 -30.5q-18 -17 -28.5 -16.5t-34.5 16.5z" />
<glyph unicode="a" horiz-adv-x="1232" d="M1192 186q31 -7 37 -16t0 -35q-37 -174 -250 -174q-180 0 -242 98q-118 -98 -331 -98q-171 0 -258 82.5t-87 206.5q0 64 23 117.5t68 95t101.5 74t134.5 57.5t156 43.5t175 34.5v135q0 78 -32 117t-124 39q-140 0 -164 -134q-8 -37 -27.5 -59.5t-64.5 -38.5 q-61 -15 -112.5 8.5t-65.5 73.5q-6 24 2.5 55t39 66t78.5 64t130 48t184 19q133 0 220.5 -18.5t137.5 -59t69.5 -96t19.5 -137.5q0 -28 -2 -139.5t-2.5 -189.5t2.5 -185q3 -54 13 -84t20 -37.5t24 -7.5q47 0 63 55q7 23 18 26t46 -6zM719 289v233q-125 -22 -203 -63 q-178 -93 -178 -232q0 -67 48 -106t126 -39q38 0 83.5 23t68.5 51q55 67 55 133z" />
<glyph unicode="b" horiz-adv-x="1292" d="M696 -39q-63 0 -137.5 17t-130.5 34t-76 17q-17 0 -39.5 -8.5t-36.5 -17.5l-14 -9q-31 -22 -64.5 -12.5t-31.5 38.5q17 585 -6 1246q-3 84 -54 100q-23 6 -86 -4q-9 -1 -13.5 8t-6.5 31q-3 53 20 57q199 21 394 62q58 13 55 -45q-10 -208 -10 -451q0 -48 8 -48q4 0 16 9 q102 80 244 80q80 0 151 -15.5t141 -55t120 -100.5t81 -159t31 -223q0 -156 -61.5 -279t-189 -197.5t-304.5 -74.5zM707 61q37 0 72 14t69.5 47.5t60 83.5t41 129t15.5 177q0 122 -29.5 223t-89.5 164.5t-141 63.5q-47 0 -88 -22t-77.5 -70.5t-57.5 -140.5t-21 -218 q0 -451 246 -451z" />
<glyph unicode="c" horiz-adv-x="1165" d="M639 -39q-56 0 -108.5 5.5t-114 21.5t-113.5 41.5t-101.5 68.5t-84 99t-55.5 136.5t-21 178.5q3 144 82.5 271t217 204.5t298.5 77.5q119 0 213 -24.5t145 -62.5t74 -81.5t14 -83.5q-12 -34 -40 -55.5t-59 -27.5t-59.5 -3.5t-47.5 12.5q-30 15 -47.5 42.5t-33.5 67.5 t-32 64q-22 28 -50 39t-75 11q-85 0 -158 -65.5t-114 -169t-41 -216.5q0 -112 28.5 -198.5t75.5 -135t99.5 -72.5t107.5 -24q128 0 214 52.5t124 129.5q17 40 84 0q33 -21 40 -35t-5 -39q-55 -102 -170.5 -165.5t-286.5 -63.5z" />
<glyph unicode="d" horiz-adv-x="1316" d="M1315 72q3 -29 -2 -41.5t-23 -12.5q-89 0 -289 -34q-40 -8 -53 1.5t-23 38.5l-3 9l-11 37q-105 -109 -276 -109q-281 0 -428.5 141t-147.5 410q0 148 64.5 273t189.5 202.5t287 77.5q82 0 151 -24t113 -62q-3 171 -6 264q0 4 -1 14.5t-1.5 15.5t-1.5 14.5t-2.5 15 t-3 13.5t-4 13t-5 10.5t-6.5 9t-8 5.5q-16 9 -39 10t-65 -2q-15 -2 -22 7.5t-7 37.5q0 46 19 49q164 13 393 70q28 6 45 -6t16 -37q-42 -555 -20 -1159q0 -160 39 -191q17 -13 38 -14.5t62 2.5q18 2 23 -6t8 -43zM862 461v133q0 40 -5.5 80t-17.5 82.5t-33 78.5t-48.5 65.5 t-68.5 46t-89 16.5q-65 0 -115 -38.5t-79.5 -103.5t-44.5 -143t-15 -166q2 -68 21.5 -140t54 -138.5t92 -109t127.5 -42.5q221 0 221 379z" />
<glyph unicode="e" horiz-adv-x="1155" d="M655 -39q-72 0 -147 15.5t-157 55.5t-145 100t-104 158.5t-41 221.5q0 76 21 152t66.5 148.5t110 128.5t160 90t208.5 34q90 0 164.5 -21t124 -54t87 -79.5t58 -91.5t33.5 -96t16.5 -87.5t3.5 -70.5q0 -41 -12.5 -53t-63.5 -12l-671 -6q0 -90 27.5 -169t71 -131t96.5 -82 t106 -30q108 0 190 47.5t119 103.5q18 27 36.5 29.5t55.5 -20.5q34 -23 40.5 -37t-5.5 -37q-61 -92 -179.5 -149.5t-269.5 -57.5zM365 641q376 0 456 4q13 0 13 12q0 147 -62 226.5t-151 79.5q-208 0 -256 -322z" />
<glyph unicode="f" horiz-adv-x="999" d="M70 -16q-5 -1 -9.5 6t-7 18t-2.5 21q0 45 19 49q39 5 65 13t33 13l6 5q35 31 47 145q10 128 13 319t-3 328q1 27 -26 29q-82 6 -150 0q-35 -4 -35 22v78q0 23 35 19q91 -6 150 0q3 0 7.5 0.5t11.5 7t7 18.5v123q0 33 3.5 61t15 63.5t31 64t55 57t83.5 47.5t119.5 31 t159.5 12q94 0 162.5 -20.5t103 -54.5t48 -72.5t6.5 -79.5q-16 -86 -125 -74q-72 7 -102 113q-16 47 -53 67.5t-79 20.5q-137 0 -137 -240v-119q0 -12 7 -18.5t13 -6.5l7 -1q68 -3 133.5 -3t97.5 2l31 1q33 4 33 -19v-78q0 -15 -7 -19.5t-26 -2.5q-65 3 -130.5 3t-98.5 -1 l-33 -2q-13 -1 -19.5 -8.5t-7.5 -15.5v-7q-11 -336 10 -645q2 -39 13.5 -83.5t32.5 -61.5q16 -19 104 -31q7 -2 12.5 -15.5t5.5 -33.5q0 -12 -2.5 -22.5t-6.5 -17t-9 -5.5q-104 16 -301 16q-92 0 -169.5 -4t-109.5 -8z" />
<glyph unicode="g" horiz-adv-x="1275" d="M1024 879q-21 12 -53 0q48 -68 64.5 -148.5t-10.5 -167.5t-101 -151q-134 -115 -400 -125q-52 -2 -102.5 -15.5t-50.5 -38.5q0 -15 25 -28t77 -19q230 -24 399 -59q176 -36 246.5 -111.5t75.5 -187.5q0 -115 -83.5 -207.5t-216.5 -141t-284 -48.5q-198 0 -323 30.5 t-195 112.5q-40 49 -57 95.5t-14.5 83.5t18.5 81q18 45 59.5 75t82.5 41t79 11q65 0 116 -49q49 -46 33 -89q-10 -27 -49 -42q-61 -26 -69 -66q-11 -62 35.5 -109.5t158.5 -66.5q158 -20 273.5 24t154.5 118q17 40 19 76t-10.5 64t-34.5 51.5t-54.5 41.5t-68.5 32t-80 24.5 t-85 17.5t-87 12q-77 9 -114.5 14t-95.5 16.5t-88 24t-59.5 34t-43.5 50.5q-14 40 -3.5 72.5t43 60.5t68 46.5t72.5 29.5q-40 16 -74.5 38t-70 56t-56.5 85t-22 112q2 188 139.5 301t365.5 113q84 0 167.5 -22.5t142.5 -61.5q7 4 36 21t39 22q93 41 161.5 32.5t106.5 -35.5 t46 -59q16 -58 -15.5 -94.5t-82.5 -36.5q-22 0 -48.5 8.5t-44 18t-36.5 21t-21 12.5zM578 385q82 0 135 66.5t53 203.5q0 139 -64.5 223.5t-152.5 84.5q-66 0 -115 -45t-70.5 -107t-21.5 -127q0 -133 64.5 -216t171.5 -83z" />
<glyph unicode="h" horiz-adv-x="1423" d="M41 -16q-5 -1 -9 5.5t-6.5 17t-2.5 22.5q0 45 18 49q38 5 64 13t33 13l7 5q45 40 48 124q12 310 13 495.5t-11 531.5q-5 51 -16 74t-38 32q-18 6 -92 -2q-20 -3 -20 55q0 38 16 41q194 19 401 66q20 7 38.5 0.5t17.5 -31.5q-19 -382 -19 -518q0 -11 5.5 -14t9.5 2 q46 41 125.5 70.5t185.5 29.5q56 0 109.5 -9.5t110 -34t98.5 -62.5t69 -100.5t27 -141.5q0 -256 10 -484q3 -49 12.5 -77t34.5 -47q16 -19 104 -31q19 -4 19 -49q0 -18 -6 -32t-13 -13q-159 16 -278 16q-56 0 -136.5 -4t-133.5 -8l-52 -4q-7 -1 -12.5 12.5t-5.5 32.5 q0 45 18 49q35 5 59 13t31 13l7 5q39 37 45 124q14 287 10 420q-3 142 -48 215.5t-143 73.5q-111 0 -176 -79.5t-73 -190.5q-9 -157 2 -439q3 -89 47 -124q16 -19 94 -31q18 -4 18 -49q0 -12 -2.5 -22.5t-6.5 -17t-9 -5.5q-94 16 -303 16q-84 0 -158 -4t-106 -8z" />
<glyph unicode="i" horiz-adv-x="679" d="M360 1198q-63 0 -112 50t-49 116q0 63 49 114.5t112 51.5q65 0 115.5 -51t50.5 -115q0 -66 -50 -116t-116 -50zM489 233q6 -90 48 -124q16 -19 104 -31q18 -4 18 -49q0 -12 -2.5 -22.5t-6.5 -17t-9 -5.5q-104 16 -313 16q-82 0 -154 -4t-104 -8l-31 -4q-7 -1 -13 13 t-6 32q0 44 19 49q38 5 64 13t33 13l7 5q24 21 34 49t13 75q7 125 8.5 291t-5.5 250q-5 51 -16 74.5t-38 32.5q-23 7 -92 0q-20 -3 -20 53q0 42 16 45q209 14 399 61q20 7 38.5 3t17.5 -25q-21 -392 -9 -785z" />
<glyph unicode="j" horiz-adv-x="581" d="M354 1198q-63 0 -112 50t-49 116q0 63 49 114.5t112 51.5q65 0 115.5 -51t50.5 -115q0 -66 -50 -116t-116 -50zM436 1040q20 7 38.5 3t17.5 -25q-7 -135 -14 -461t-7 -592q-1 -132 -19 -202.5t-63 -139.5q-127 -194 -434 -194q-28 0 -35 53q-6 52 14 55q136 20 181 57 q37 31 53 84t22 197q6 126 2 476.5t-12 422.5q-5 52 -15.5 75t-37.5 32q-23 7 -92 0q-21 -3 -21 53q0 42 17 45q208 14 405 61z" />
<glyph unicode="k" horiz-adv-x="1433" d="M43 -16q-20 -3 -20 45q0 46 16 49q50 6 75.5 15.5t45.5 27.5q5 5 8.5 10.5t6.5 13t5.5 12.5t4 14t2.5 13.5t2 16.5t1.5 16t1.5 18.5t1 18.5q26 465 4 981q-2 61 -14 91.5t-40 39.5q-31 9 -94 -2q-6 -1 -10 1.5t-7 14.5t-3 35q0 42 14 45q134 13 428 66q26 4 33 -8t4 -48 q-18 -199 -19.5 -587t13.5 -629q7 -110 47 -145q27 -20 104 -31q21 -4 21 -49q0 -22 -6.5 -34.5t-14.5 -10.5q-182 16 -309 16q-56 0 -131.5 -4t-122.5 -8zM1106 -16q-136 0 -215 79q-172 256 -240 338q-71 86 -104 91q-29 4 -35 17q-4 7 -4 17q0 20 3.5 28t14.5 19 q183 183 234 244q58 70 53 92q-5 25 -53 25q-19 0 -19 41q0 49 19 49q9 0 108.5 -7t196.5 -7q71 0 145 7t99 7q16 0 16 -41q0 -26 -3 -37t-13 -12q-3 0 -34.5 -2.5t-54 -5.5t-55.5 -13.5t-57 -27.5q-33 -23 -69.5 -58t-91.5 -89.5t-101 -96.5q-19 -19 -8 -35 q113 -167 190 -268.5t156 -175.5q30 -28 61 -46.5t59 -26t46.5 -10t40 -2t22.5 0.5q21 0 21 -49q0 -45 -21 -45h-307z" />
<glyph unicode="l" horiz-adv-x="694" d="M43 -16q-20 -3 -20 45q0 46 16 49q50 6 75.5 15.5t45.5 27.5q5 5 8.5 10.5t6.5 13t5.5 12.5t4 14t2.5 13.5t2 16.5t1.5 16t1.5 18.5t1 18.5q26 465 4 981q-2 61 -14 91.5t-40 39.5q-31 9 -94 -2q-6 -1 -10 1.5t-7 15t-3 34.5q0 42 14 45q134 13 428 66q26 4 33 -8t4 -48 q-18 -199 -19.5 -587t13.5 -629q7 -110 47 -145q27 -20 104 -31q21 -4 21 -49q0 -22 -6.5 -34.5t-14.5 -10.5q-182 16 -309 16q-56 0 -131.5 -4t-122.5 -8z" />
<glyph unicode="m" horiz-adv-x="2142" d="M2103 78q19 -4 19 -49q0 -18 -6 -32t-13 -13q-157 16 -278 16q-54 0 -134 -4t-133 -8l-53 -4q-7 -1 -12.5 12.5t-5.5 32.5q0 45 18 49q35 5 59 13t31 13l7 5q39 37 45 124q14 208 10 420q-1 26 -3 47.5t-9 59t-22 66t-38 57t-61.5 44t-87.5 15.5q-97 0 -151.5 -58.5 t-65.5 -160.5v-6q0 -302 10 -484q3 -50 13.5 -78.5t33.5 -45.5q16 -19 94 -31q19 -4 19 -49q0 -18 -6 -32t-13 -13q-151 16 -272 16q-55 0 -134.5 -4t-131.5 -8l-52 -4q-7 -1 -12.5 12.5t-5.5 32.5q0 45 18 49q35 5 59 13t31 13l7 5q39 37 45 124q13 219 10 420 q-8 289 -232 289q-61 0 -103 -20t-63 -55.5t-30 -70.5t-12 -79q0 -2 -1.5 -50.5t-2 -104.5t0.5 -148t5 -181q4 -92 47 -124q16 -19 94 -31q18 -4 18 -49q0 -12 -2.5 -22.5t-6.5 -17t-9 -5.5q-98 16 -295 16q-88 0 -163 -4t-105 -8l-31 -4q-5 -1 -9 5.5t-6.5 17t-2.5 22.5 q0 45 18 49q38 5 64 13t33 13l7 5q42 37 48 124q6 88 7.5 275.5t-5.5 265.5q-5 51 -16 74.5t-38 32.5q-23 7 -92 0q-20 -3 -20 53q0 42 16 45q186 14 379 61q20 7 37.5 3.5t17.5 -25.5v-43q0 -11 5.5 -14t9.5 2q93 102 311 102q95 0 184.5 -29t149.5 -94q12 -9 19.5 -9 t17.5 9q46 44 138 83.5t216 39.5q56 0 109.5 -9.5t109.5 -34t98 -62.5t68.5 -100.5t26.5 -141.5q0 -302 10 -484q3 -50 13.5 -78.5t33.5 -45.5q16 -19 104 -31z" />
<glyph unicode="n" horiz-adv-x="1417" d="M41 -16q-5 -1 -9 5.5t-6.5 17t-2.5 22.5q0 45 18 49q38 5 64 13t33 13l7 5q42 37 48 124q6 88 7.5 275.5t-5.5 265.5q-5 51 -16 74.5t-38 32.5q-23 7 -92 0q-20 -3 -20 53q0 42 16 45q186 14 379 61q20 7 37.5 3.5t17.5 -25.5v-43q0 -11 5.5 -14t9.5 2q93 102 311 102 q56 0 109.5 -9.5t109.5 -34t98 -62.5t68.5 -100.5t26.5 -141.5q0 -302 10 -484q3 -50 13.5 -78.5t33.5 -45.5q16 -19 104 -31q19 -4 19 -49q0 -18 -6 -32t-13 -13q-157 16 -278 16q-54 0 -134 -4t-133 -8l-53 -4q-7 -1 -12.5 12.5t-5.5 32.5q0 45 18 49q35 5 59 13t31 13 l7 5q39 37 45 124q14 208 10 420q-1 26 -3 47.5t-9 59t-22 66t-38 57t-61.5 44t-87.5 15.5q-62 0 -105.5 -25t-66 -70.5t-33 -90t-14.5 -103.5q-8 -133 2 -420q4 -92 47 -124q16 -19 94 -31q18 -4 18 -49q0 -12 -2.5 -22.5t-6.5 -17t-9 -5.5q-98 16 -295 16q-88 0 -163 -4 t-105 -8z" />
<glyph unicode="o" horiz-adv-x="1269" d="M623 -39q-276 0 -429 140.5t-153 410.5q0 64 23 136.5t73.5 147t120 134.5t172.5 98t221 39q127 0 236 -44t183.5 -119.5t116.5 -177t42 -214.5q0 -156 -87 -284t-225 -197.5t-294 -69.5zM633 61q131 0 210 114.5t79 336.5q0 72 -18 148t-52 145t-92.5 113.5t-130.5 44.5 q-140 0 -209 -111t-72 -340q0 -78 19.5 -157t54.5 -145t90.5 -107.5t120.5 -41.5z" />
<glyph unicode="p" horiz-adv-x="1310" d="M803 1065q131 0 241.5 -66.5t178 -192t67.5 -284.5q0 -254 -167 -407.5t-443 -153.5q-119 0 -209 43q3 -168 12 -297q4 -55 13 -89t34 -56q27 -20 105 -31q20 -4 20 -47q0 -19 -4 -30.5t-8 -14.5t-8 -2q-182 16 -311 16q-57 0 -133 -4t-123 -8l-48 -4q-9 -2 -14.5 10 t-5.5 39q0 42 16 45q50 6 75.5 15.5t45.5 27.5q18 21 24 47t9 86q14 241 14 536t-10 502q-3 65 -13.5 93.5t-39.5 38.5q-27 9 -94 0q-6 -1 -10 1.5t-7.5 15t-3.5 36.5q0 42 14 45l433 61q26 3 32.5 -7t3.5 -48l-2 -35q0 -12 5 -14q7 -3 14 4q40 37 70.5 60t93 46t133.5 23z M745 63q141 21 215.5 180.5t26.5 377.5q-39 181 -135 264t-219 49q-95 -26 -134.5 -116t-39.5 -263v-133q0 -105 35 -191.5t101.5 -133.5t149.5 -34z" />
<glyph unicode="q" horiz-adv-x="1294" d="M1292 -469q7 -1 11.5 -3.5t8 -13t3.5 -28.5q0 -55 -27 -49q-100 16 -297 16q-87 0 -164 -4t-111 -8l-34 -4q-10 -2 -16.5 10.5t-6.5 36.5q0 41 23 47q40 6 66.5 15t33.5 14l6 6q15 13 26 44t13 58q2 31 5 73.5t4.5 61.5t3 52.5t2 72t0.5 95.5v4q-48 -29 -112 -45.5 t-104 -18.5l-40 -2q-89 0 -168.5 17.5t-153.5 59t-127 103.5t-85 157t-32 214q0 109 41.5 210t114.5 176.5t180 121t230 45.5q54 0 100 -11t83.5 -33t58 -37.5t49.5 -41.5q25 -23 53 0q38 31 61.5 49t60 35.5t64.5 17.5q20 0 28 -10t7 -41q-19 -277 -19.5 -654t15.5 -671 q2 -31 12 -60.5t29 -41.5q28 -25 104 -35zM678 70q51 11 87.5 56t53.5 108.5t24.5 117.5t8.5 107l-2 82q0 86 -22.5 164.5t-64 137.5t-107 84.5t-144.5 4.5q-114 -34 -171.5 -178t-16.5 -355q41 -169 138.5 -263.5t215.5 -65.5z" />
<glyph unicode="r" horiz-adv-x="1058" d="M1032 993q9 -18 6 -42.5t-13 -48t-37.5 -45t-67.5 -32.5q-78 -22 -166 54q-28 22 -46 23q-11 1 -24 -3q-16 -6 -35 -14t-47 -26.5t-50.5 -40t-40.5 -55t-22 -71.5q-7 -156 13 -459q6 -91 47 -124q16 -19 104 -31q19 -5 19 -49q0 -18 -6 -32t-13 -13q-106 16 -307 16 q-90 0 -166.5 -4t-107.5 -8l-31 -4q-5 -1 -9 5.5t-6.5 17t-2.5 22.5q0 45 18 49q38 5 64 13t33 13l7 5q42 37 48 124q6 88 7.5 275.5t-5.5 265.5q-5 51 -16 74.5t-38 32.5q-23 7 -92 0q-20 -3 -20 53q0 42 16 45q207 14 410 61q26 5 40 -6.5t13 -38.5q-4 -46 -4 -65 q4 -20 31 2q43 34 121 76.5t145 52.5q70 11 141.5 -4t89.5 -64z" />
<glyph unicode="s" horiz-adv-x="927" d="M158 -6q-78 41 -70 137q8 54 -4 111q-3 16 9 24t54 15q35 6 43.5 -1t8.5 -40q0 -66 42.5 -122.5t129.5 -56.5q80 0 128 56t48 155q0 41 -24.5 76.5t-63 62.5t-86 53t-94.5 55t-85.5 62t-63 80.5t-24.5 104.5q0 130 104.5 219.5t281.5 89.5q54 0 150 -20.5t122 -20.5 q31 0 47 -12t2 -39q-30 -54 -20 -152q3 -25 -6.5 -35t-41.5 -16q-44 -7 -49 31q-4 24 -15 49t-32 52t-60 44t-89 17q-59 0 -94 -30t-35 -89q0 -44 26 -80.5t68 -64.5t92.5 -55t101.5 -58.5t93 -68.5t68 -91.5t26 -120.5q0 -39 -10 -80t-41.5 -92t-81.5 -90t-138.5 -65.5 t-203.5 -26.5q-151 0 -213 33z" />
<glyph unicode="t" horiz-adv-x="858" d="M545 -39q-144 0 -232 69t-88 197q4 392 -4 672q0 19 -3.5 24.5t-16.5 6.5q-29 3 -68.5 3t-64.5 -1l-25 -2q-11 -2 -17 4.5t-6 21.5v64q0 18 6 23.5t19 5.5q41 0 69.5 3t64 16.5t60.5 37.5t47.5 68.5t35.5 107.5q6 26 12 37q21 35 129 35q29 0 38 -14.5t9 -49.5v-217 q0 -13 5.5 -17.5t21.5 -6.5q56 -3 111.5 -3t82.5 2l27 1q19 2 27 -4.5t8 -24.5v-66q0 -13 -8.5 -19t-17.5 -5h-9q-68 3 -123.5 3t-76.5 -1l-21 -2q-17 0 -22 -4.5t-5 -18.5q-1 -162 3.5 -375t10.5 -276q8 -85 28 -117.5t79 -32.5q32 0 62.5 12.5t44 22.5t44.5 35 q16 10 45 -29q15 -21 4 -49q-30 -63 -105 -100t-181 -37z" />
<glyph unicode="u" horiz-adv-x="1355" d="M1358 78q10 0 14 -10.5t4 -38.5q0 -48 -18 -45q-128 11 -217 10.5t-125 -8.5q-41 -10 -58 -3t-28 37l-10 29q-105 -88 -312 -88q-123 0 -215 34t-149.5 113t-57.5 197q2 168 0 391q0 25 -2.5 60t-14.5 82t-30 61q-22 21 -102 31q-17 3 -17 45q0 28 3.5 39t13.5 10 q272 -14 358 -14q48 0 64.5 -17t13.5 -75q-8 -181 6 -615q4 -128 47.5 -185t130.5 -57q111 0 177.5 74.5t66.5 171.5l-2 449q0 109 -43 143q-22 21 -100 31q-21 4 -21 45q0 52 19 49q158 -14 262 -14q65 0 141 3.5t119 6.5l43 4q18 3 18 -49q0 -42 -14 -45 q-68 -9 -93.5 -23.5t-33.5 -44.5q-9 -32 -11.5 -120t0 -170.5t7 -182.5t4.5 -119q7 -154 57 -172q35 -16 105 -20z" />
<glyph unicode="v" horiz-adv-x="1271" d="M1276 1024q16 0 16 -51q0 -40 -16 -43q-36 -4 -63 -11.5t-35 -12.5l-9 -5q-53 -35 -90 -102q-34 -71 -116 -232.5t-129 -265.5t-97 -240q-8 -16 -22 -20q-100 -22 -152 -59q-29 -21 -45 -21q-28 0 -41 39q-213 678 -311 825q-52 78 -90 90q-32 10 -76 15q-18 4 -18 45 q0 52 18 49q127 -14 250 -14q44 0 117.5 3.5t124.5 6.5l51 4q16 3 16 -49q0 -27 -2 -35t-10 -10q-54 -3 -88 -25q-2 -2 -3.5 -5t-1.5 -7.5v-9.5t1.5 -12t3 -12.5t4 -15t4 -15.5t5 -17t5.5 -18q91 -309 182 -547q45 105 107.5 244t124.5 284q27 63 28 93t-16 44 q-9 9 -21 12.5t-44 6.5q-19 4 -19 43q0 54 19 51q21 -2 113.5 -8t129.5 -6q34 0 110.5 7t84.5 7z" />
<glyph unicode="w" horiz-adv-x="1873" d="M1872 1024q9 2 15.5 -11.5t6.5 -37.5q0 -43 -18 -47q-37 -5 -74 -17q-38 -12 -57 -49q-176 -364 -311 -801q-8 -16 -25 -20q-40 -8 -83 -26t-62 -31q-5 -3 -12.5 -8.5t-12 -8t-11.5 -4.5t-16 -2q-12 0 -21.5 8.5t-12.5 20.5l-17 51q-106 317 -211 561 q-128 -344 -190 -545q-3 -13 -31 -18q-90 -20 -145 -59q-28 -19 -45 -19q-28 0 -37 33l-15 47q-43 143 -120.5 358.5t-153.5 397.5q-37 92 -135 116q-47 12 -82 15q-16 3 -16 47q0 52 20 49q256 -14 311 -14q28 0 91 3.5t112 6.5l49 4q21 0 21 -49q0 -44 -17 -47 q-38 -6 -80 -19q-24 -10 -24 -31.5t24 -76.5q45 -151 197 -547q66 194 166 563q9 38 -8 62q-7 8 -13.5 14.5t-16.5 11t-16.5 7t-21 5.5t-22 4t-27.5 3.5t-29 3.5q-6 1 -9.5 4t-6 13.5t-2.5 29.5q0 49 22 49q113 -14 172 -14h134q21 0 36.5 -7.5t25 -21t14 -23t8.5 -22.5 q32 -95 125.5 -341t134.5 -335q142 426 159 492q46 122 7 153q-17 13 -84 23q-19 4 -19 47q0 52 23 49q190 -14 239 -14q36 0 85.5 3.5t80.5 6.5z" />
<glyph unicode="x" horiz-adv-x="1181" d="M1182 78q20 -4 20 -49q0 -21 -6 -34t-14 -11q-81 16 -226 16q-77 0 -161.5 -4t-130.5 -8l-46 -4q-16 -3 -16 45q0 46 16 49q56 7 72.5 28.5t1.5 47.5q-22 39 -42.5 72t-33.5 51t-37.5 50.5t-39.5 53.5q-10 -15 -51 -74t-65 -95t-34 -56q-17 -33 0 -51t72 -27 q16 -3 16 -49q0 -48 -16 -45q-132 16 -271 16q-27 0 -69.5 -4t-71.5 -8l-29 -4q-8 -2 -14 10.5t-6 34.5q0 45 20 49q72 8 134 35q41 20 84 75q33 47 91.5 117.5t106.5 149.5q10 19 8.5 28t-14.5 29q-40 67 -78.5 122.5t-82 113t-70.5 96.5q-23 31 -37 45t-43 26.5t-70 12.5 q-22 0 -22 47q0 23 6.5 37t15.5 12q115 -14 211 -14q80 0 158.5 3.5t116.5 6.5l38 4q9 0 15 -13.5t6 -35.5q0 -43 -21 -47q-90 -20 -45 -99q36 -65 107 -157q13 18 34 45t31 40.5t23.5 33t24.5 38.5q28 51 17 72.5t-63 26.5q-18 3 -18 47q0 49 18 49q140 -14 244 -14 q31 0 70 3.5t62 6.5l24 4q9 2 15.5 -11.5t6.5 -37.5q0 -44 -22 -47q-63 -12 -103 -30t-69 -54q-120 -153 -197 -266q-14 -21 4 -52q19 -32 112 -148.5t142 -189.5q47 -59 84 -79q33 -19 107 -31z" />
<glyph unicode="y" horiz-adv-x="1443" d="M1386 1024q6 0 11.5 -15.5t5.5 -33.5q0 -42 -17 -45q-36 -4 -62.5 -12t-35.5 -14l-8 -5q-23 -15 -36 -29t-30 -43q-79 -152 -138 -271.5t-172.5 -373.5t-246.5 -577q-41 -93 -97.5 -127.5t-164.5 -34.5q-50 0 -80 27.5t-30 80.5q0 17 11.5 31.5t25 24t37.5 19t39 14 t39.5 11t29.5 7.5q11 3 21 9t15.5 10t12.5 14.5t9 13t8.5 16.5t7.5 15l49 114q23 54 -12 164q-31 100 -146.5 373t-191.5 440q-19 39 -42 58t-59 30q-17 7 -80 15q-18 4 -18 45q0 20 5.5 35t16.5 14q162 -14 228 -14q31 0 114 3.5t153.5 7t72.5 3.5q7 0 12.5 -15t5.5 -34 q0 -41 -18 -45q-66 -7 -84 -31q-9 -11 -11 -19t3 -32t22 -68q48 -127 205 -514q37 80 134.5 280t123.5 259q27 69 6 96q-17 21 -76 29q-18 4 -18 45q0 52 22 49q216 -14 265 -14q33 0 97.5 7t65.5 7z" />
<glyph unicode="z" horiz-adv-x="1058" d="M66 -14q-31 -2 -41.5 20t10.5 47q112 140 305.5 408.5t277.5 404.5q14 27 8 35t-28 10q-164 13 -262 4q-82 -7 -105 -32q-16 -19 -30 -52.5t-15 -64.5q-2 -12 -8 -16.5t-26 -4.5q-44 0 -56 5.5t-10 19.5q8 121 -10 211q-5 22 4 34t29 9q55 -4 165.5 -6.5t193.5 -3.5h83 q76 0 228 4.5t186 5.5q32 0 43 -34t-17 -66q-95 -113 -297.5 -394.5t-271.5 -392.5q-19 -31 12 -33q63 -4 135.5 -6t114.5 -2h41q64 -1 105 8.5t50 19.5l9 9q9 13 19.5 54t15.5 77q1 10 7.5 16.5t22.5 11t24 6t30 5.5q20 3 25.5 -2t2.5 -20q-20 -78 -20 -261q0 -8 -4 -15 t-8 -10l-3 -3q-7 -6 -21 -8t-24 -1l-10 1q-91 5 -437 5.5t-443 -3.5z" />
<glyph unicode="{" horiz-adv-x="686" d="M557 -414q-7 0 -19.5 0.5t-47 5.5t-65.5 13.5t-66.5 27t-57.5 43.5q-6 5 -16.5 20t-25.5 50.5t-25 79t-9.5 110.5t15.5 140q68 267 45 332q-28 83 -179 88q-24 0 -24 24v76q0 27 22 27q157 3 183 94q8 38 -0.5 99t-26.5 136.5t-20 87.5q-15 74 -15.5 141.5t9 111t25 79.5 t25.5 50.5t17 21.5q36 39 100 61t110 25l46 2q29 0 38 -5.5t9 -23.5v-33q0 -17 -7.5 -21t-41.5 -7q-31 -3 -54 -20t-34 -40t-17.5 -45t-7.5 -37l-2 -16q-5 -51 10.5 -162.5t34.5 -212t19 -106.5q7 -73 -33.5 -128.5t-126.5 -115.5q30 -17 51.5 -32.5t52.5 -46t46 -73 t10 -92.5q0 -5 -19.5 -105.5t-34.5 -212.5t-10 -163q0 -6 1 -16t8 -36t18 -46.5t34 -38.5t54 -21q33 -3 41 -8t8 -20v-23q0 -26 -7.5 -32.5t-39.5 -6.5z" />
<glyph unicode="|" horiz-adv-x="409" d="M139 -414q-23 0 -30 9t-7 36v1973q0 23 7 30.5t30 7.5h135q20 0 26.5 -8.5t6.5 -29.5v-1973q0 -26 -6 -35.5t-27 -9.5h-135z" />
<glyph unicode="}" horiz-adv-x="686" d="M129 -414q-32 0 -39.5 6.5t-7.5 32.5v23q0 15 8 20t41 8q31 3 54 20t34 40t17.5 45t7.5 37l2 16q5 51 -10 163t-34.5 212.5t-19.5 105.5q-5 50 10 92.5t46 73t52.5 46t51.5 32.5q-86 60 -126.5 115.5t-33.5 128.5q0 6 19 106.5t34.5 212t10.5 162.5q0 6 -1 16t-8 36 t-18 46.5t-34 38.5t-54 21q-34 3 -41.5 7t-7.5 21v33q0 18 9 23.5t38 5.5q7 0 19.5 -0.5t47 -5.5t65.5 -13t66.5 -26t57.5 -43q7 -7 17 -21.5t25.5 -50.5t25 -79.5t9 -111t-15.5 -141.5q-2 -12 -20 -87.5t-26.5 -136.5t-0.5 -99q26 -91 183 -94q22 0 22 -27v-76 q0 -24 -24 -24q-151 -5 -179 -88q-23 -65 45 -332q15 -73 15.5 -140t-9.5 -110.5t-25 -79t-25.5 -50.5t-16.5 -20q-36 -40 -100 -62.5t-110 -25.5z" />
<glyph unicode="~" horiz-adv-x="1009" d="M649 610q-67 0 -120 21.5t-101 43t-104 21.5q-30 0 -63 -13.5t-52 -37.5q-18 -15 -35 -9.5t-30 20.5l-13 14q-22 26 -27 52t5 36q41 62 101 105.5t134 43.5q57 0 115 -23.5t112.5 -47t102.5 -23.5q36 0 63.5 12.5t38.5 30.5q13 19 28 21.5t26.5 -3t35.5 -22.5 q24 -18 34.5 -37t4.5 -31q-32 -69 -106.5 -121.5t-149.5 -52.5z" />
<glyph unicode="&#xa1;" horiz-adv-x="610" d="M303 1049q59 0 101 -41t42 -101q0 -57 -42.5 -99t-100.5 -42t-98.5 41.5t-40.5 99.5q0 60 40 101t99 41zM301 662q44 0 62 -11t18 -37q16 -544 65 -1067q1 -30 -25.5 -47.5t-53.5 -17.5q-39 0 -105 45t-84 94q-7 17 -10.5 32t-3.5 21v7q17 220 32 453.5t21 356.5l6 123 q0 26 17.5 37t60.5 11z" />
<glyph unicode="&#xa2;" horiz-adv-x="1267" d="M1061 264q33 -21 40 -35t-5 -39q-47 -88 -141 -148.5t-232 -76.5v-92q0 -36 -10 -46.5t-43 -10.5h-84q-34 0 -44 11t-10 46v94q-74 8 -138 27t-131 59.5t-114.5 98.5t-77.5 150.5t-30 209.5q5 195 144.5 351.5t346.5 191.5v92q0 33 9 43t39 10h96q30 0 38.5 -10t8.5 -43 v-86q97 -8 173 -35t118 -63t60.5 -75t10.5 -75q-12 -34 -40 -55.5t-59 -27.5t-59.5 -3.5t-47.5 12.5q-30 15 -47.5 42.5t-33.5 67.5t-32 64q-20 26 -43 35v-860q94 18 159 66t95 110q17 40 84 0zM328 512q0 -165 57.5 -267t146.5 -141v830q-90 -52 -147 -170t-57 -252z" />
<glyph unicode="&#xa3;" horiz-adv-x="1243" d="M989 352q172 0 172 -127q0 -110 -110.5 -184t-272.5 -74q-74 0 -144 21t-115 45.5t-101 45.5t-105 21q-41 0 -65 -12q0 -58 -19.5 -83t-68.5 -25q-37 0 -57.5 23.5t-20.5 55.5q0 12 5 24.5t16 26t19.5 22.5t25.5 25t24 23q66 66 101.5 175t29.5 302h-145q-21 0 -26 7 t-5 36v60q0 29 5 36t26 7h139l-2 22q-10 169 54.5 313.5t188.5 230t279 85.5q193 0 193 -121q0 -66 -24 -97.5t-81 -31.5q-6 0 -12.5 2t-12 5t-13.5 8.5t-12.5 9.5t-12.5 12t-11 11.5t-11.5 12.5t-10.5 11q-45 45 -100 45q-123 0 -123 -406v-2l2 -110h293q17 0 21.5 -7 t4.5 -36v-60q0 -29 -4.5 -36t-21.5 -7h-291v-32q0 -68 -40 -176t-116 -179q69 -8 140.5 -37t120 -59.5t101.5 -55t91 -24.5q41 0 55 19.5t8 42.5t-16 55t-10 45q0 96 65 96z" />
<glyph unicode="&#xa4;" horiz-adv-x="987" d="M813 510l66 -84q7 -9 4.5 -21t-11.5 -20l-110 -86q-10 -8 -23 -6t-20 12l-53 70q-77 -41 -172 -41t-172 41l-54 -70q-7 -10 -19.5 -12t-21.5 6l-114 84q-9 8 -10 20t6 21l63 86q-57 91 -57 203t57 200l-63 86q-7 11 -6 23t10 20l114 84q9 7 21 5t20 -11l54 -69 q77 41 172 41t172 -41l53 69q7 9 20 10.5t23 -4.5l110 -86q9 -8 11.5 -20t-4.5 -23l-66 -82q59 -94 59 -202q0 -112 -59 -203zM299 713q0 -79 57.5 -137t137.5 -58q79 0 136.5 57.5t57.5 137.5q0 79 -57 136.5t-137 57.5t-137.5 -57.5t-57.5 -136.5z" />
<glyph unicode="&#xa5;" horiz-adv-x="1726" d="M1602 1450q22 3 22 -45q0 -44 -18 -47l-52 -6q-93 -14 -118 -45q-214 -309 -328 -490h145q23 0 23 -24v-88q0 -23 -23 -23h-231q-7 -14 -21 -35q-14 -26 -24 -55h276q10 0 16.5 -7t6.5 -18v-88q0 -22 -23 -22h-282l6 -168q0 -17 2.5 -42.5t18 -76t40.5 -66.5 q22 -16 131 -28q19 -3 19 -47q0 -19 -5.5 -32.5t-15.5 -12.5q-139 16 -338 16q-88 0 -170.5 -4t-120.5 -8l-38 -4q-23 -3 -23 45q0 44 17 47q48 5 81 12t41 12l9 4q25 16 40.5 62.5t18.5 84.5l2 38q6 117 6 157v11h-241q-23 0 -23 22v88q0 11 6.5 18t16.5 7h196l-49 90h-147 q-23 0 -23 23v88q0 24 23 24h73q-189 334 -305 500q-20 29 -84 35l-55 6q-19 3 -19 47q0 48 21 45q106 -16 268 -16q71 0 155 4t133 8l48 4q23 3 23 -45q0 -44 -19 -47q-16 -2 -52 -6t-40 -4q-28 -4 -37.5 -23.5t0.5 -36.5q69 -141 262 -471h109q221 332 293 459 q32 59 -37 72q-22 4 -78 10q-20 3 -20 47q0 48 22 45q170 -16 285 -16q51 0 102.5 4t76.5 8z" />
<glyph unicode="&#xa6;" horiz-adv-x="409" d="M139 819q-23 0 -30 9t-7 36v559q0 24 7 31.5t30 7.5h135q19 0 26 -9t7 -30v-559q0 -26 -6 -35.5t-27 -9.5h-135zM139 -29q-23 0 -30 9t-7 36v559q0 24 7 31.5t30 7.5h135q19 0 26 -9t7 -30v-559q0 -26 -6 -35.5t-27 -9.5h-135z" />
<glyph unicode="&#xa7;" horiz-adv-x="1058" d="M629 20q-24 -12 -71.5 -25t-109 -22.5t-117.5 4t-81 52.5q-31 60 -25 111.5t35 66.5q19 9 36.5 10t46.5 -12t65 -43q12 -10 27 -19.5t33 -18t34.5 -8t25.5 12.5q25 44 17 89t-38 87.5t-63 76t-60 53.5l-26 20q-69 56 -117.5 115t-74.5 106.5t-40.5 105.5t-18 95t-5.5 92 q0 126 77.5 238.5t217.5 185.5q16 10 48.5 24.5t82.5 29t98.5 20t96.5 -7t76 -46.5q16 -21 24 -56.5t1 -72.5t-33 -55q-19 -16 -60.5 -7t-87.5 46q-12 10 -29.5 19.5t-41.5 18.5t-46.5 5t-36.5 -23q6 -104 52 -179.5t149 -152.5q146 -105 210 -236t54 -269v-2 q-4 -50 -26 -108t-60.5 -117.5t-101 -114.5t-137.5 -89zM731 266q51 62 51 164q0 45 -22 98.5t-53 97t-62.5 80.5t-53.5 58l-22 20q-228 206 -250 385q-51 -62 -51 -163q0 -46 22 -100t53 -98t62.5 -81.5t53.5 -58.5l22 -21q221 -188 250 -381z" />
<glyph unicode="&#xa8;" horiz-adv-x="770" d="M227 1520q-46 0 -80 34t-34 80t34 80.5t80 34.5t80.5 -34.5t34.5 -80.5t-34.5 -80t-80.5 -34zM541 1520q-46 0 -79.5 34t-33.5 80t33.5 80.5t79.5 34.5q47 0 80.5 -34t33.5 -81t-33.5 -80.5t-80.5 -33.5z" />
<glyph unicode="&#xa9;" horiz-adv-x="1736" d="M868 -49q-209 0 -385 102.5t-278.5 278.5t-102.5 385q0 156 61 298.5t163.5 245t244.5 163.5t297 61t297 -61t244.5 -163.5t163.5 -245t61 -298.5q0 -209 -102.5 -385t-278.5 -278.5t-385 -102.5zM868 115q123 0 235 47.5t193 128t129 192t48 234.5t-48 235t-129 192.5 t-193 128.5t-235 48q-164 0 -303 -81t-219 -220t-80 -303q0 -122 47.5 -233.5t128.5 -192.5t192.5 -128.5t233.5 -47.5zM870 291q-212 0 -326 110.5t-114 315.5q0 178 138.5 303t336.5 125q133 0 277 -37q13 -6 20 -17t4 -22q-10 -58 -4 -145q0 -19 -9.5 -26t-39.5 -7 q-29 0 -39 7.5t-10 25.5q0 48 -17 71q-37 60 -176 60q-60 0 -107.5 -34t-74 -86.5t-40 -108.5t-13.5 -109q0 -80 22 -146.5t57 -107t76 -62.5t82 -22q75 0 127.5 17.5t65.5 47.5q7 16 8.5 44t3.5 38q5 15 14 20t35 5q37 0 47 -7.5t5 -27.5q-19 -93 -19 -137q2 -42 -39 -51 q-16 -3 -52 -10.5t-54.5 -10.5t-50 -7.5t-64 -6.5t-70.5 -2z" />
<glyph unicode="&#xaa;" horiz-adv-x="657" d="M604 1044q15 -4 12 -14q-18 -58 -52 -80t-93 -22q-64 0 -94 43q-62 -45 -158 -45q-78 0 -128 38t-50 117q0 149 309 199v63q0 39 -14 57.5t-49 18.5q-32 0 -48 -10.5t-22 -36.5q-4 -19 -9.5 -32t-24 -26.5t-46.5 -13.5q-32 0 -51.5 17.5t-19.5 44.5q0 43 56.5 78 t178.5 35q69 0 111.5 -9.5t63.5 -32.5t27.5 -50.5t6.5 -73.5v-240q0 -53 22 -53q20 0 27 26q3 12 16 9zM260 989q28 0 60 25.5t32 81.5v100q-69 -15 -116.5 -49.5t-47.5 -81.5q0 -36 18.5 -56t53.5 -20z" />
<glyph unicode="&#xab;" horiz-adv-x="956" d="M442 281q-19 -13 -32 -14t-20.5 5.5t-16.5 20.5q-141 192 -211 262q-38 38 -38.5 61t34.5 58q95 95 209 258q14 20 21 27t20 7.5t32 -12.5q17 -12 21 -25t0.5 -25.5t-17.5 -41.5q-43 -87 -102 -221q-13 -24 0 -51q46 -91 100 -215q14 -28 19 -44t0.5 -28t-19.5 -22z M766 281q-19 -13 -32.5 -14t-21 5.5t-16.5 20.5q-141 192 -211 262q-38 38 -38.5 61t34.5 58q95 95 209 258q14 20 21.5 27.5t20.5 7.5t32 -13q17 -12 21 -25t0.5 -25.5t-17.5 -41.5q-43 -87 -102 -221q-13 -24 0 -51q46 -91 100 -215q14 -28 19 -44t0.5 -28t-19.5 -22z" />
<glyph unicode="&#xac;" horiz-adv-x="1202" d="M944 74q-22 0 -22 22v410h-797q-23 0 -23 22v134q0 9 6.5 15.5t16.5 6.5h952q9 0 16 -6.5t7 -15.5v-566q0 -10 -7 -16t-16 -6h-133z" />
<glyph unicode="&#xad;" horiz-adv-x="763" d="M160 485q-22 0 -29.5 7.5t-7.5 29.5v119q0 22 8 30.5t29 8.5h446q21 0 28 -8.5t7 -30.5v-119q0 -22 -7 -29.5t-28 -7.5h-446z" />
<glyph unicode="&#xae;" horiz-adv-x="1736" d="M868 1485q155 0 297 -61t244.5 -163.5t163.5 -245t61 -298.5q0 -209 -102.5 -385t-278.5 -278.5t-385 -102.5t-385 102.5t-278.5 278.5t-102.5 385q0 156 61 298.5t163.5 245t244.5 163.5t297 61zM1333 332q140 169 140 385q0 123 -48 235t-129 192.5t-193 128.5t-235 48 q-164 0 -303 -81t-219 -220t-80 -303q0 -122 47.5 -233.5t128.5 -192.5t192.5 -128.5t233.5 -47.5q133 0 249.5 53t201.5 147h-137q-46 0 -86 18.5t-57 36.5l-17 19q-25 32 -72 104t-84 115q-20 22 -30 28t-39 13q-19 8 -19 43q0 28 5.5 39.5t23.5 11.5q101 0 137.5 47.5 t36.5 131.5q-4 94 -43 132t-84 38q-39 -1 -68 -9q-33 -11 -38 -75q-7 -87 -7.5 -256t4.5 -271q0 -26 8 -55t25 -41q22 -12 56 -18q10 0 10 -23q0 -7 -1 -14t-3.5 -11.5t-5.5 -3.5q-84 9 -150 9q-46 0 -95.5 -2t-75.5 -4l-26 -3q-5 -2 -9.5 7.5t-4.5 21.5q0 23 14 23 q29 4 54 18q14 9 22 35.5t9 49.5l1 22q5 92 5 248.5t-5 248.5q-1 76 -32 96q-15 11 -52 17q-6 1 -9 2.5t-5 7t-2 16.5q0 28 16 25q78 -10 189 -10q26 0 129 5t145 5q104 0 167 -63t63 -160q-1 -96 -41 -150t-123 -98l24 -31q25 -31 92.5 -122t108.5 -132q11 -11 24.5 -19.5 t22 -11t19.5 -5.5t12 -3q12 -2 12 -20v-6z" />
<glyph unicode="&#xaf;" horiz-adv-x="485" d="M88 1546q-23 0 -30 7.5t-7 29.5v57q0 22 7.5 29.5t29.5 7.5h309q21 0 29 -7.5t8 -29.5v-57q0 -22 -7.5 -29.5t-29.5 -7.5h-309z" />
<glyph unicode="&#xb0;" horiz-adv-x="757" d="M381 1008q-115 0 -197 79.5t-82 192.5q0 114 82.5 197.5t196.5 83.5q108 0 191 -84t83 -197q0 -112 -82.5 -192t-191.5 -80zM381 1159q47 0 83 37t36 84q0 52 -35.5 89.5t-83.5 37.5q-53 0 -90 -37.5t-37 -89.5q0 -48 37.5 -84.5t89.5 -36.5z" />
<glyph unicode="&#xb1;" horiz-adv-x="1054" d="M457 199q-23 0 -23 22v275h-307q-10 0 -17.5 6.5t-7.5 15.5v146q0 9 7.5 15.5t17.5 6.5h307v295q0 23 23 23h143q23 0 23 -23v-295h307q22 0 22 -22v-146q0 -22 -22 -22h-307v-275q0 -22 -23 -22h-143zM127 -31q-11 0 -18 6.5t-7 16.5v121q0 10 7 17t18 7h803 q22 0 22 -24v-121q0 -23 -22 -23h-803z" />
<glyph unicode="&#xb2;" horiz-adv-x="686" d="M623 891q20 3 20 -19q-2 -29 -2 -81q0 -13 -4.5 -18t-15.5 -3q-106 8 -278 8t-292 -8q-25 -2 -31 20.5t19 45.5q29 30 81 82t72.5 73t57.5 60t51 56t37.5 47t31 47.5t18.5 42.5t14.5 47.5t3.5 47.5q0 74 -25.5 122t-77.5 48q-34 0 -63 -22.5t-56.5 -45t-56.5 -22.5 q-28 0 -40 23t-1 35q39 51 98.5 81.5t124.5 30.5q271 0 271 -250q0 -37 -16 -78.5t-38 -76.5t-59.5 -79.5t-66.5 -74t-74.5 -75.5t-67.5 -70q136 -13 365 6z" />
<glyph unicode="&#xb3;" horiz-adv-x="595" d="M250 766q-83 0 -146 27.5t-63 76.5q0 15 7 26t18 11t33 -14.5t53 -29.5t67 -15q68 0 116 48.5t48 133.5q0 45 -14 78t-36.5 49.5t-44 24t-44.5 8.5q-32 1 -46.5 3t-25 9t-10.5 21q0 19 17 32t41 23t48 23.5t41 43t17 72.5q0 56 -24 78.5t-54 22.5t-54 -13t-35.5 -28 t-26.5 -28t-30 -13q-19 0 -28.5 14.5t0.5 36.5q11 35 67 73.5t144 38.5q86 0 145 -38.5t59 -116.5q0 -65 -36 -110.5t-72 -65.5q70 -12 118 -67t48 -154q0 -128 -80.5 -204.5t-216.5 -76.5z" />
<glyph unicode="&#xb4;" horiz-adv-x="565" d="M209 1458q-24 -16 -35 -16.5t-29 16.5q-15 18 -12.5 30.5t21.5 31.5q155 161 235 272q12 18 37.5 22t44.5 -8q60 -43 82 -106q11 -26 5 -42.5t-32 -29.5q-208 -100 -317 -170z" />
<glyph unicode="&#xb6;" horiz-adv-x="1665" d="M569 -408q-6 0 -11 14t-5 32q0 47 16 47q74 0 127 24q26 13 37.5 52t11.5 69q10 488 0 938q-7 180 -59 186q-153 21 -234 -50.5t-81 -205.5q0 -72 32 -130.5t78 -91t95.5 -47t87.5 -7.5q15 3 19.5 -4t4.5 -31q0 -39 -6 -49.5t-29 -15.5q-150 -31 -278 9.5t-200.5 133 t-72.5 211.5q0 157 83.5 256t226.5 123q34 6 74.5 6.5t68 -1t74.5 -6t67 -5.5q53 -7 207 -7h340q223 0 301 13q9 2 14 -9t5 -34q0 -32 -4 -40.5t-15 -10.5q-85 -7 -129 -31q-20 -12 -32.5 -56t-14.5 -82l-2 -38q-10 -290 0 -908q0 -35 12.5 -77.5t36.5 -55.5q47 -22 133 -28 q15 0 15 -43q0 -50 -15 -50l-12 2q-13 2 -37 4t-57 4.5t-83 4.5t-106 2h-366q-66 0 -122 -2t-90 -4.5t-58 -4.5t-35.5 -4t-12.5 -2zM1055 -299q34 0 54.5 43t20.5 111q6 283 5.5 542.5t-5.5 350.5q-6 123 -18 155q-15 39 -53 39q-16 0 -28.5 -7t-20.5 -23t-13 -31t-8 -43 t-4 -45t-2 -50q-10 -428 0 -911q2 -50 22 -90.5t50 -40.5z" />
<glyph unicode="&#xb7;" horiz-adv-x="552" d="M276 565q-69 0 -116 46.5t-47 115.5t47 117.5t116 48.5q70 0 117 -48t47 -118q0 -69 -47 -115.5t-117 -46.5z" />
<glyph unicode="&#xb8;" horiz-adv-x="446" d="M113 -412q-46 26 -57.5 46.5t7.5 50.5q45 61 97 20q43 -37 71 -31q13 3 18 14.5t-1 26.5q-14 45 -86 78q-25 9 -25.5 38t25.5 54q34 37 59 113q9 27 22 40t40 13h112v-16q-33 -9 -72.5 -71.5t-19.5 -80.5q72 -61 85 -129.5t-38 -126.5q-41 -44 -111.5 -55.5t-125.5 16.5z " />
<glyph unicode="&#xb9;" horiz-adv-x="557" d="M90 793q-10 -2 -16 7.5t-6 28.5q0 21 4.5 28t15.5 9q74 11 98 25q9 6 14.5 27t7.5 39l1 18q10 251 -4 416q-5 57 -29 65q-17 2 -27 1t-36.5 -5.5t-40.5 -5.5q-15 -2 -23 5t-8 30q0 15 0.5 22.5t5.5 15t14 9.5q1 0 9.5 1t19 2.5t27.5 5t40 9t50 13t63.5 19.5t75.5 26 q15 6 29 6q25 0 30 -19t-4 -30q0 -1 -3.5 -9.5t-6.5 -17.5t-6.5 -23t-6 -33.5t-3.5 -41.5q-8 -115 -2 -461q0 -77 18 -84q35 -16 101 -25q14 -2 19 -9t5 -30q0 -19 -7 -28t-20 -6q-7 1 -34 4.5t-71.5 6.5t-80.5 3q-42 0 -93 -3.5t-85 -7t-35 -3.5z" />
<glyph unicode="&#xba;" horiz-adv-x="690" d="M338 924q-120 0 -207.5 67t-87.5 193q0 48 20 98t57 94t98.5 71.5t135.5 27.5q121 0 208 -77t87 -190q0 -126 -91 -205t-220 -79zM352 991q55 0 81 57.5t26 149.5q0 102 -35 154.5t-86 52.5q-49 0 -74.5 -54t-25.5 -153q0 -85 32 -146t82 -61z" />
<glyph unicode="&#xbb;" horiz-adv-x="866" d="M145 281q-15 10 -19.5 22t0.5 28t19 44q47 107 101 215q13 27 0 51q-50 113 -103 221q-14 29 -17.5 41.5t0.5 25.5t21 25q19 13 32 13t20.5 -7.5t21.5 -27.5q114 -163 209 -258q35 -35 34.5 -58t-38.5 -61q-70 -70 -211 -262q-9 -14 -16.5 -20.5t-21 -5.5t-32.5 14z M469 281q-15 10 -19.5 22t0.5 28t19 44q54 124 100 215q13 27 0 51q-59 134 -102 221q-14 29 -17.5 41.5t0.5 25.5t21 25q19 13 32 13t20.5 -7.5t21.5 -27.5q114 -163 209 -258q35 -35 34.5 -58t-38.5 -61q-70 -70 -211 -262q-9 -14 -16.5 -20.5t-21 -5.5t-32.5 14z" />
<glyph unicode="&#xbc;" horiz-adv-x="1806" d="M348 -41q-15 0 -17.5 7t7.5 26l934 1460q15 23 33 23h104q32 0 18 -23l-935 -1462q-21 -31 -52 -31h-92zM172 569q-9 -2 -15.5 8t-6.5 29q0 21 4.5 28t15.5 9q74 11 98 25q9 6 14.5 27t7.5 39l1 18q10 250 -4 415q-5 58 -29 66q-17 2 -27 1t-36.5 -5.5t-40.5 -5.5 q-16 -2 -23.5 4.5t-7.5 29.5q0 15 0.5 22.5t5.5 15.5t14 10l11 1q12 2 25 4t38.5 7t53.5 12.5t69.5 20.5t87.5 30q15 6 29 6q25 0 30 -19t-4 -30q0 -1 -3.5 -9.5t-6.5 -17.5t-6.5 -23t-6 -33.5t-3.5 -41.5q-8 -115 -2 -460q0 -77 18 -84q36 -16 100 -25q14 -2 19.5 -9.5 t5.5 -29.5q0 -19 -7 -28.5t-20 -6.5q-75 15 -186 15q-42 0 -93 -4t-85 -7.5t-35 -3.5zM1376 66q-23 -9 -41 4q-8 8 -8.5 20.5t2.5 30.5l4 63q4 62 4 103q-259 0 -333 -4q-16 -1 -26 8t-7 27.5t22 41.5q79 94 196.5 250.5t164.5 239.5q11 20 48.5 31.5t70.5 11.5 q22 0 32.5 -9t5.5 -22q-24 -96 -24 -461q127 0 149 2q26 2 33.5 -3t-0.5 -25q-14 -31 -27 -72q-1 -8 -3 -12t-9 -7.5t-20 -2.5q-73 6 -117 6q-3 -59 6 -164q1 -12 -6 -18t-27 -11q-23 -5 -90 -28zM1155 401q76 -3 176 0q4 91 -2 252q-21 -27 -37.5 -49.5l-27.5 -37.5 t-25.5 -37t-22.5 -34t-28 -43t-33 -51z" />
<glyph unicode="&#xbd;" horiz-adv-x="1925" d="M1462 1475q33 0 19 -23l-936 -1462q-13 -19 -24 -25t-27 -6h-93q-15 0 -17.5 7t7.5 26l934 1460q15 23 33 23h104zM571 569q-75 15 -186 15q-42 0 -93 -4t-85 -7.5t-35 -3.5q-9 -2 -15.5 8t-6.5 29q0 21 4.5 28t15.5 9q74 11 98 25q9 6 14.5 27t7.5 39l1 18 q10 250 -4 415q-5 58 -29 66q-17 2 -27 1t-36.5 -5.5t-40.5 -5.5q-16 -2 -23.5 4.5t-7.5 29.5q0 15 0.5 22.5t5.5 15.5t14 10l11 1q12 2 25 4t38.5 7t53.5 12.5t69.5 20.5t87.5 30q15 6 29 6q25 0 30 -19t-4 -30q0 -1 -3.5 -9.5t-6.5 -17.5t-6.5 -23t-6 -33.5t-3.5 -41.5 q-8 -115 -2 -460q0 -77 18 -84q36 -16 100 -25q14 -2 19.5 -9.5t5.5 -29.5q0 -19 -7 -28.5t-20 -6.5zM1761 195q21 3 21 -19q-2 -29 -2 -82q0 -23 -21 -20q-106 8 -277.5 8t-291.5 -8q-25 -2 -31 20t19 45q27 27 74 74.5t66 67t54 56t49 52.5t37.5 44.5t32.5 44t22.5 39.5 t18 42t8.5 39.5t4 44.5q0 74 -25 122t-77 48q-34 0 -63 -22.5t-56.5 -45t-56.5 -22.5q-28 0 -40 22.5t-1 34.5q39 51 99 82t124 31q270 0 270 -250q0 -44 -18.5 -90.5t-60 -99.5t-71.5 -87t-91 -95.5t-80 -82.5q130 -13 364 7z" />
<glyph unicode="&#xbe;" horiz-adv-x="1781" d="M319 -41q-15 0 -17.5 7t7.5 26l934 1460q15 23 33 23h104q33 0 19 -23l-936 -1462q-13 -19 -24 -25t-27 -6h-93zM332 555q-83 0 -146 27.5t-63 76.5q0 15 6.5 26t17.5 11t33 -15t53.5 -29.5t67.5 -14.5q68 0 116 48.5t48 133.5q0 45 -14 78t-36.5 49.5t-44 24t-44.5 8.5 q-32 1 -46.5 3t-25 9t-10.5 21q0 19 17 32t41 23t48 23.5t41 43t17 72.5q0 56 -24 78.5t-54 22.5t-54 -13t-35.5 -28t-26.5 -28t-30 -13q-19 0 -28.5 14.5t0.5 36.5q11 35 67 74t144 39q86 0 145 -39t59 -117q0 -65 -36 -110.5t-72 -65.5q70 -12 118 -67t48 -154 q0 -128 -80.5 -204.5t-216.5 -76.5zM1352 66q-23 -9 -41 4q-8 8 -8.5 20.5t2.5 30.5l4 63q4 62 4 103q-260 0 -334 -4q-16 -1 -25.5 8t-6.5 27.5t22 41.5q77 92 195 249.5t165 240.5q11 20 48.5 31.5t70.5 11.5q22 0 33 -9t6 -22q-25 -100 -25 -461q128 0 150 2 q26 2 33.5 -3t-0.5 -25q-14 -31 -27 -72q-4 -24 -33 -22q-73 6 -117 6q-3 -52 7 -164q1 -12 -6 -18t-27 -11q-23 -5 -90 -28zM1130 401q76 -3 177 0q4 91 -2 252q-72 -93 -175 -252z" />
<glyph unicode="&#xbf;" horiz-adv-x="1026" d="M582 1034q59 0 99 -40.5t40 -100.5q0 -58 -40.5 -99.5t-98.5 -41.5t-101 42t-43 99q0 59 42.5 100t101.5 41zM571 662q35 0 66 -19q33 -21 63 -57.5t44 -63t12 -26.5q12 -42 6 -73t-20 -49l-13 -18q-198 -204 -283 -336q-44 -71 -57 -134t-2.5 -104t37.5 -73 q42 -43 88.5 -62t85 -15.5t73 17.5t55.5 29.5t30 28.5q6 8 11.5 16.5t9 18t6 17.5t4 19t2.5 17.5t1.5 18t0.5 15.5v15v13q0 39 32 39q90 0 90 -56q0 -88 11 -168q5 -32 -22.5 -62t-70.5 -49.5t-86.5 -34t-74.5 -21.5l-31 -7q-84 -18 -156 -11.5t-127 23t-99 47.5t-72.5 61.5 t-47.5 64.5q-134 267 238 600q172 162 172 233q0 30 -27 68q-14 23 -14 37q0 16 22 28.5t43 12.5z" />
<glyph unicode="&#xc0;" d="M723 1606q-29 6 -38.5 19.5t-6.5 43.5q6 70 53 123q13 17 39 19.5t43 -11.5q47 -38 122 -89t126 -83l51 -31q22 -12 27.5 -24t-4.5 -33q-12 -20 -24 -22.5t-38 6.5q-55 17 -142.5 37.5t-147.5 32.5zM1737 80q20 -3 26 -12t6 -33q0 -54 -24 -51q-139 16 -301 16 q-94 0 -179.5 -4t-124.5 -8l-38 -4q-19 -1 -26 11t-7 40q0 42 18 45q4 1 13.5 2t18.5 2.5t16 3.5q21 5 40.5 24t10.5 50q-40 123 -119 319q-9 20 -16 25t-31 6q-56 3 -187.5 3t-185.5 -3q-25 -1 -32.5 -6.5t-16.5 -28.5q-27 -62 -68 -147.5t-65 -149.5q-15 -39 3 -62t42 -30 q15 -4 53 -8q18 -1 23.5 -10t5.5 -35q0 -29 -5.5 -40.5t-23.5 -10.5q-233 16 -315 16q-31 0 -91 -4t-105 -8l-44 -4q-16 -1 -22 11t-6 40q0 42 24 45q64 9 66 10q174 40 249 184q304 602 465 1074q8 31 61 61t103 45l49 14q22 4 32.5 -6.5t10.5 -27.5q0 -48 17 -97 q95 -272 232.5 -619t226.5 -501q26 -45 53 -74t41 -35l14 -6q27 -12 113 -22zM981 666q18 3 20 9.5t-8 31.5q-11 30 -42 120t-54 153t-43 112q-159 -376 -164 -387q-12 -25 -9.5 -31t24.5 -8q41 -4 137.5 -3.5t138.5 3.5z" />
<glyph unicode="&#xc1;" d="M750 1524q-26 -9 -38 -6.5t-24 22.5q-10 21 -4.5 33t27.5 24q193 117 299 203q17 14 43 11.5t39 -19.5q47 -53 53 -123q3 -30 -6.5 -43.5t-38.5 -19.5q-227 -43 -350 -82zM1737 80q20 -3 26 -12t6 -33q0 -54 -24 -51q-139 16 -301 16q-94 0 -179.5 -4t-124.5 -8l-38 -4 q-19 -1 -26 11t-7 40q0 42 18 45q4 1 13.5 2t18.5 2.5t16 3.5q21 5 40.5 24t10.5 50q-40 123 -119 319q-9 20 -16 25t-31 6q-56 3 -187.5 3t-185.5 -3q-25 -1 -32.5 -6.5t-16.5 -28.5q-27 -62 -68 -147.5t-65 -149.5q-15 -39 3 -62t42 -30q15 -4 53 -8q18 -1 23.5 -10 t5.5 -35q0 -29 -5.5 -40.5t-23.5 -10.5q-233 16 -315 16q-31 0 -91 -4t-105 -8l-44 -4q-16 -1 -22 11t-6 40q0 42 24 45q64 9 66 10q174 40 249 184q304 602 465 1074q8 31 61 61t103 45l49 14q22 4 32.5 -6.5t10.5 -27.5q0 -48 17 -97q95 -272 232.5 -619t226.5 -501 q26 -45 53 -74t41 -35l14 -6q27 -12 113 -22zM981 666q18 3 20 9.5t-8 31.5q-11 30 -42 120t-54 153t-43 112q-159 -376 -164 -387q-12 -25 -9.5 -31t24.5 -8q41 -4 137.5 -3.5t138.5 3.5z" />
<glyph unicode="&#xc2;" d="M694 1507q-42 32 -18 56q146 175 180 215q23 30 66 30q42 0 63 -30l182 -213q20 -20 -12 -56q-35 -32 -57 -14q-92 80 -164 129q-6 4 -15.5 4t-15.5 -4q-59 -40 -155 -129q-17 -17 -54 12zM1737 80q20 -3 26 -12t6 -33q0 -54 -24 -51q-139 16 -301 16q-94 0 -179.5 -4 t-124.5 -8l-38 -4q-19 -1 -26 11t-7 40q0 42 18 45q4 1 13.5 2t18.5 2.5t16 3.5q21 5 40.5 24t10.5 50q-40 123 -119 319q-9 20 -16 25t-31 6q-56 3 -187.5 3t-185.5 -3q-25 -1 -32.5 -6.5t-16.5 -28.5q-27 -62 -68 -147.5t-65 -149.5q-15 -39 3 -62t42 -30q15 -4 53 -8 q18 -1 23.5 -10t5.5 -35q0 -29 -5.5 -40.5t-23.5 -10.5q-233 16 -315 16q-31 0 -91 -4t-105 -8l-44 -4q-16 -1 -22 11t-6 40q0 42 24 45q64 9 66 10q174 40 249 184q304 602 465 1074q8 31 61 61t103 45l49 14q22 4 32.5 -6.5t10.5 -27.5q0 -48 17 -97q95 -272 232.5 -619 t226.5 -501q26 -45 53 -74t41 -35l14 -6q27 -12 113 -22zM981 666q18 3 20 9.5t-8 31.5q-11 30 -42 120t-54 153t-43 112q-159 -376 -164 -387q-12 -25 -9.5 -31t24.5 -8q41 -4 137.5 -3.5t138.5 3.5z" />
<glyph unicode="&#xc3;" d="M737 1577q-19 -16 -28.5 -22t-22.5 -4.5t-27 16.5q-12 14 -16.5 26t0 23.5t6 14.5t10.5 14q29 32 68 67q37 32 77.5 42.5t80 0t62.5 -20.5t54 -28q41 -17 76 -10.5t64 30.5q16 14 23 19t18.5 4t25.5 -14q17 -16 20 -31t-1.5 -26t-16.5 -27q-15 -19 -29.5 -36t-22.5 -25 l-7 -7q-34 -34 -92.5 -36.5t-103 11t-83.5 33.5q-21 9 -42.5 11.5t-36.5 -0.5t-28.5 -9t-19.5 -10t-8 -6zM1737 80q20 -3 26 -12t6 -33q0 -54 -24 -51q-139 16 -301 16q-94 0 -179.5 -4t-124.5 -8l-38 -4q-19 -1 -26 11t-7 40q0 42 18 45q4 1 13.5 2t18.5 2.5t16 3.5 q21 5 40.5 24t10.5 50q-40 123 -119 319q-9 20 -16 25t-31 6q-56 3 -187.5 3t-185.5 -3q-25 -1 -32.5 -6.5t-16.5 -28.5q-27 -62 -68 -147.5t-65 -149.5q-15 -39 3 -62t42 -30q15 -4 53 -8q18 -1 23.5 -10t5.5 -35q0 -29 -5.5 -40.5t-23.5 -10.5q-233 16 -315 16 q-31 0 -91 -4t-105 -8l-44 -4q-16 -1 -22 11t-6 40q0 42 24 45q64 9 66 10q174 40 249 184q304 602 465 1074q8 31 61 61t103 45l49 14q22 4 32.5 -6.5t10.5 -27.5q0 -48 17 -97q95 -272 232.5 -619t226.5 -501q26 -45 53 -74t41 -35l14 -6q27 -12 113 -22zM981 666 q18 3 20 9.5t-8 31.5q-11 30 -42 120t-54 153t-43 112q-159 -376 -164 -387q-12 -25 -9.5 -31t24.5 -8q41 -4 137.5 -3.5t138.5 3.5z" />
<glyph unicode="&#xc4;" d="M752 1540q-46 0 -80.5 34.5t-34.5 80.5t34.5 80t80.5 34t80 -34t34 -80t-34 -80.5t-80 -34.5zM1065 1540q-46 0 -79.5 34.5t-33.5 80.5t33.5 80t79.5 34q47 0 81 -33.5t34 -80.5t-34 -81t-81 -34zM1737 80q20 -3 26 -12t6 -33q0 -54 -24 -51q-139 16 -301 16 q-94 0 -179.5 -4t-124.5 -8l-38 -4q-19 -1 -26 11t-7 40q0 42 18 45q4 1 13.5 2t18.5 2.5t16 3.5q21 5 40.5 24t10.5 50q-40 123 -119 319q-9 20 -16 25t-31 6q-56 3 -187.5 3t-185.5 -3q-25 -1 -32.5 -6.5t-16.5 -28.5q-27 -62 -68 -147.5t-65 -149.5q-15 -39 3 -62t42 -30 q15 -4 53 -8q18 -1 23.5 -10t5.5 -35q0 -29 -5.5 -40.5t-23.5 -10.5q-233 16 -315 16q-31 0 -91 -4t-105 -8l-44 -4q-16 -1 -22 11t-6 40q0 42 24 45q64 9 66 10q174 40 249 184q304 602 465 1074q8 31 61 61t103 45l49 14q22 4 32.5 -6.5t10.5 -27.5q0 -48 17 -97 q95 -272 232.5 -619t226.5 -501q26 -45 53 -74t41 -35l14 -6q27 -12 113 -22zM981 666q18 3 20 9.5t-8 31.5q-11 30 -42 120t-54 153t-43 112q-159 -376 -164 -387q-12 -25 -9.5 -31t24.5 -8q41 -4 137.5 -3.5t138.5 3.5z" />
<glyph unicode="&#xc5;" d="M907 1499q-64 0 -111.5 47.5t-47.5 112.5t47.5 112.5t111.5 47.5q65 0 112.5 -47.5t47.5 -112.5t-47.5 -112.5t-112.5 -47.5zM907 1718q-25 0 -42 -17t-17 -42t17 -42.5t42 -17.5t42.5 17.5t17.5 42.5t-17.5 42t-42.5 17zM1737 80q20 -3 26 -12t6 -33q0 -54 -24 -51 q-139 16 -301 16q-94 0 -179.5 -4t-124.5 -8l-38 -4q-19 -1 -26 11t-7 40q0 42 18 45q4 1 13.5 2t18.5 2.5t16 3.5q21 5 40.5 24t10.5 50q-40 123 -119 319q-9 20 -16 25t-31 6q-56 3 -187.5 3t-185.5 -3q-25 -1 -32.5 -6.5t-16.5 -28.5q-27 -62 -68 -147.5t-65 -149.5 q-15 -39 3 -62t42 -30q15 -4 53 -8q18 -1 23.5 -10t5.5 -35q0 -29 -5.5 -40.5t-23.5 -10.5q-233 16 -315 16q-31 0 -91 -4t-105 -8l-44 -4q-16 -1 -22 11t-6 40q0 42 24 45q64 9 66 10q174 40 249 184q304 602 465 1074q8 31 61 61t103 45l49 14q22 4 32.5 -6.5t10.5 -27.5 q0 -48 17 -97q95 -272 232.5 -619t226.5 -501q26 -45 53 -74t41 -35l14 -6q27 -12 113 -22zM981 666q18 3 20 9.5t-8 31.5q-11 30 -42 120t-54 153t-43 112q-159 -376 -164 -387q-12 -25 -9.5 -31t24.5 -8q41 -4 137.5 -3.5t138.5 3.5z" />
<glyph unicode="&#xc6;" horiz-adv-x="2117" d="M2095 297q-19 -110 -24 -160v-102q1 -10 -3.5 -19.5t-9.5 -13.5l-4 -4q-11 -9 -42 -12t-56 -2l-25 2q-162 14 -598 14q-108 0 -212 -4t-153 -8l-50 -4q-12 -3 -19.5 9t-7.5 36q0 43 22 47q94 10 131 30q24 16 39 72t18 104l3 48q6 113 10 336q-3 16 -10.5 20t-32.5 6 q-142 8 -280 0q-25 -1 -33.5 -6.5t-20.5 -28.5q-40 -80 -134 -249.5t-122 -227.5q-19 -39 -3 -62t40 -30q16 -4 51 -8q18 -1 23.5 -10.5t3.5 -34.5q3 -54 -27 -51q-264 16 -346 16q-31 0 -90.5 -4t-102.5 -8l-44 -4q-17 -1 -22 10t-5 41q0 18 4.5 28.5t9 13t13.5 3.5 q60 8 67 10q181 41 269 184q200 334 327 564.5t240 486.5q12 28 0 33q-2 0 -2 2q-23 3 -23 45q0 24 7.5 37t21.5 10q150 -18 440 -18q342 0 641 18q20 2 29.5 -6.5t5.5 -30.5q-26 -111 -10 -254q2 -16 -7.5 -22.5t-47.5 -5.5q-44 3 -46 20q-3 92 -28 131q-40 59 -213 59 q-125 0 -201 -26q-21 -6 -30.5 -14t-12.5 -25q-14 -223 -16 -383q0 -29 7 -36t32 -9q183 -8 307 2q46 3 51 43q5 24 12 94q1 9 4.5 14t18 8t41.5 3q21 0 27 -7t4 -22q-11 -63 -13 -217q2 -67 5 -119t5 -71l3 -19q2 -14 -4.5 -20.5t-28.5 -6.5q-37 0 -48.5 6t-13.5 17 q-7 76 -14 96q-9 33 -49 39q-119 13 -301 4q-31 -1 -38 -7.5t-7 -31.5q0 -213 14 -475q5 -36 41 -45q37 -9 98 -14.5t104 -6.5l42 -1q176 0 231 24q10 5 18 16t15 32t10.5 34.5t10.5 46t10 43.5q3 9 5.5 13t13.5 7t30 1q38 -3 48.5 -11t6.5 -22zM1075 850q22 3 29.5 10 t7.5 31v10q-4 166 -8 244q-2 45 -10 94q-8 22 -27 18.5t-31 -28.5q-92 -160 -184 -340q-11 -25 -6.5 -31t28.5 -8q78 -10 201 0z" />
<glyph unicode="&#xc7;" horiz-adv-x="1503" d="M1358 379q29 0 43.5 -3.5t17 -9t0.5 -14.5q-33 -158 -33 -264q2 -23 -11 -38t-27 -19l-13 -4q-86 -19 -187 -37.5t-198 -24.5q-40 -65 -20 -82q72 -61 85 -129.5t-38 -126.5q-41 -44 -112 -55.5t-126 16.5q-45 25 -56.5 46t7.5 51q45 61 96 20q43 -37 72 -31 q13 3 17.5 14.5t-1.5 26.5q-14 45 -86 78q-25 9 -25.5 38t25.5 54q28 32 46 76h-27q-77 0 -149 8.5t-152 31t-148 58t-131 94.5t-107 136t-70.5 186.5t-26.5 241.5q0 154 66 294t178.5 242t270 162t332.5 60q263 0 502 -66q30 -9 27 -37q-11 -64 -13.5 -132t0.5 -104l3 -36 q2 -17 -10 -26t-52 -9q-35 0 -46 8.5t-11 24.5q0 95 -35 147q-83 127 -352 127q-113 0 -204.5 -45t-149 -114.5t-96.5 -159t-55 -173.5t-16 -163q0 -104 23.5 -197.5t63.5 -164t92.5 -127.5t111.5 -93t118.5 -55t115.5 -19q151 0 251.5 38.5t131.5 97.5q11 24 16 54t6 64 t2 41q2 13 14 18t50 5z" />
<glyph unicode="&#xc8;" horiz-adv-x="1249" d="M807 1524q-55 17 -142.5 37.5t-147.5 32.5l-60 12q-29 6 -38.5 19.5t-6.5 43.5q6 70 53 123q13 17 39 19.5t43 -11.5q47 -38 122 -89t126 -83l51 -31q22 -12 27 -24.5t-5 -32.5q-12 -20 -23.5 -22.5t-37.5 6.5zM49 -16q-12 -3 -19 8.5t-7 36.5q0 43 22 47q94 10 131 30 q24 16 39 72t18 104l3 48q8 158 8 399t-8 399q-1 18 -3 46t-17.5 83t-39.5 72q-29 18 -127 29q-15 2 -22 11.5t-7 35.5q0 24 7.5 37t21.5 10q126 -18 416 -18q342 0 641 18q20 2 29.5 -6.5t5.5 -30.5q-27 -114 -11 -254q2 -16 -7.5 -22.5t-47.5 -5.5q-43 3 -45 20 q-3 90 -29 131q-40 59 -213 59q-124 0 -200 -26q-21 -6 -30.5 -14t-12.5 -25q-16 -242 -17 -383q0 -29 7 -36t32 -9q183 -8 307 2q47 3 52 43q5 24 12 94q1 9 4.5 13.5t17.5 8t41 3.5q21 0 27 -7t4 -22q-10 -63 -12 -217q2 -67 5 -119t5 -71l2 -19q2 -14 -4.5 -20.5 t-28.5 -6.5q-26 0 -40 3.5t-17 7.5t-4 12q-7 76 -14 96q-9 33 -50 39q-119 13 -301 4q-31 -1 -38 -7.5t-7 -31.5q0 -194 15 -475q5 -36 41 -45q37 -9 98 -14.5t103 -6.5l42 -1q177 0 232 24q10 5 18 16t14.5 31.5t10.5 35t10.5 45.5t9.5 44q3 9 5.5 13t13.5 7t30 1 q38 -3 48.5 -11t7.5 -22q0 -1 -5.5 -25t-10.5 -56.5t-9 -78.5v-102q1 -10 -3 -19.5t-9 -13.5l-4 -4q-11 -9 -42 -12t-56 -2l-25 2q-162 14 -598 14q-108 0 -212 -4t-154 -8z" />
<glyph unicode="&#xc9;" horiz-adv-x="1249" d="M504 1524q-26 -9 -38 -6.5t-24 22.5q-10 21 -4.5 33t27.5 24q193 117 299 203q17 14 43 11.5t39 -19.5q47 -53 53 -123q3 -30 -6.5 -43.5t-38.5 -19.5q-227 -43 -350 -82zM49 -16q-12 -3 -19 8.5t-7 36.5q0 43 22 47q94 10 131 30q24 16 39 72t18 104l3 48q8 158 8 399 t-8 399q-1 18 -3 46t-17.5 83t-39.5 72q-29 18 -127 29q-15 2 -22 11.5t-7 35.5q0 24 7.5 37t21.5 10q126 -18 416 -18q342 0 641 18q20 2 29.5 -6.5t5.5 -30.5q-27 -114 -11 -254q2 -16 -7.5 -22.5t-47.5 -5.5q-43 3 -45 20q-3 90 -29 131q-40 59 -213 59q-124 0 -200 -26 q-21 -6 -30.5 -14t-12.5 -25q-16 -242 -17 -383q0 -29 7 -36t32 -9q183 -8 307 2q47 3 52 43q5 24 12 94q1 9 4.5 13.5t17.5 8t41 3.5q21 0 27 -7t4 -22q-10 -63 -12 -217q2 -67 5 -119t5 -71l2 -19q2 -14 -4.5 -20.5t-28.5 -6.5q-26 0 -40 3.5t-17 7.5t-4 12q-7 76 -14 96 q-9 33 -50 39q-119 13 -301 4q-31 -1 -38 -7.5t-7 -31.5q0 -194 15 -475q5 -36 41 -45q37 -9 98 -14.5t103 -6.5l42 -1q177 0 232 24q10 5 18 16t14.5 31.5t10.5 35t10.5 45.5t9.5 44q3 9 5.5 13t13.5 7t30 1q38 -3 48.5 -11t7.5 -22q0 -1 -5.5 -25t-10.5 -56.5t-9 -78.5 v-102q1 -10 -3 -19.5t-9 -13.5l-4 -4q-11 -9 -42 -12t-56 -2l-25 2q-162 14 -598 14q-108 0 -212 -4t-154 -8z" />
<glyph unicode="&#xca;" horiz-adv-x="1249" d="M424 1507q-42 32 -18 56q146 175 180 215q23 30 65 30q43 0 64 -30l182 -213q20 -20 -12 -56q-36 -32 -58 -14q-96 83 -163 129q-6 4 -15.5 4t-15.5 -4q-63 -43 -156 -129q-6 -6 -12.5 -7t-14 2t-12.5 6.5t-14 10.5zM49 -16q-12 -3 -19 8.5t-7 36.5q0 43 22 47 q94 10 131 30q24 16 39 72t18 104l3 48q8 158 8 399t-8 399q-1 18 -3 46t-17.5 83t-39.5 72q-29 18 -127 29q-15 2 -22 11.5t-7 35.5q0 24 7.5 37t21.5 10q126 -18 416 -18q342 0 641 18q20 2 29.5 -6.5t5.5 -30.5q-27 -114 -11 -254q2 -16 -7.5 -22.5t-47.5 -5.5 q-43 3 -45 20q-3 90 -29 131q-40 59 -213 59q-124 0 -200 -26q-21 -6 -30.5 -14t-12.5 -25q-16 -242 -17 -383q0 -29 7 -36t32 -9q183 -8 307 2q47 3 52 43q5 24 12 94q1 9 4.5 13.5t17.5 8t41 3.5q21 0 27 -7t4 -22q-10 -63 -12 -217q2 -67 5 -119t5 -71l2 -19 q2 -14 -4.5 -20.5t-28.5 -6.5q-26 0 -40 3.5t-17 7.5t-4 12q-7 76 -14 96q-9 33 -50 39q-119 13 -301 4q-31 -1 -38 -7.5t-7 -31.5q0 -194 15 -475q5 -36 41 -45q37 -9 98 -14.5t103 -6.5l42 -1q177 0 232 24q10 5 18 16t14.5 31.5t10.5 35t10.5 45.5t9.5 44q3 9 5.5 13 t13.5 7t30 1q38 -3 48.5 -11t7.5 -22q0 -1 -5.5 -25t-10.5 -56.5t-9 -78.5v-102q1 -10 -3 -19.5t-9 -13.5l-4 -4q-11 -9 -42 -12t-56 -2l-25 2q-162 14 -598 14q-108 0 -212 -4t-154 -8z" />
<glyph unicode="&#xcb;" horiz-adv-x="1249" d="M506 1540q-46 0 -80.5 34.5t-34.5 80.5t34.5 80t80.5 34t80.5 -34t34.5 -80t-34.5 -80.5t-80.5 -34.5zM819 1540q-45 0 -78.5 34.5t-33.5 80.5t33 80t79 34q47 0 81 -33.5t34 -80.5t-34 -81t-81 -34zM49 -16q-12 -3 -19 8.5t-7 36.5q0 43 22 47q94 10 131 30q24 16 39 72 t18 104l3 48q8 158 8 399t-8 399q-1 18 -3 46t-17.5 83t-39.5 72q-29 18 -127 29q-15 2 -22 11.5t-7 35.5q0 24 7.5 37t21.5 10q126 -18 416 -18q342 0 641 18q20 2 29.5 -6.5t5.5 -30.5q-27 -114 -11 -254q2 -16 -7.5 -22.5t-47.5 -5.5q-43 3 -45 20q-3 90 -29 131 q-40 59 -213 59q-124 0 -200 -26q-21 -6 -30.5 -14t-12.5 -25q-16 -242 -17 -383q0 -29 7 -36t32 -9q183 -8 307 2q47 3 52 43q5 24 12 94q1 9 4.5 13.5t17.5 8t41 3.5q21 0 27 -7t4 -22q-10 -63 -12 -217q2 -67 5 -119t5 -71l2 -19q2 -14 -4.5 -20.5t-28.5 -6.5 q-26 0 -40 3.5t-17 7.5t-4 12q-7 76 -14 96q-9 33 -50 39q-119 13 -301 4q-31 -1 -38 -7.5t-7 -31.5q0 -194 15 -475q5 -36 41 -45q37 -9 98 -14.5t103 -6.5l42 -1q177 0 232 24q10 5 18 16t14.5 31.5t10.5 35t10.5 45.5t9.5 44q3 9 5.5 13t13.5 7t30 1q38 -3 48.5 -11 t7.5 -22q0 -1 -5.5 -25t-10.5 -56.5t-9 -78.5v-102q1 -10 -3 -19.5t-9 -13.5l-4 -4q-11 -9 -42 -12t-56 -2l-25 2q-162 14 -598 14q-108 0 -212 -4t-154 -8z" />
<glyph unicode="&#xcc;" horiz-adv-x="843" d="M592 1524q-55 17 -142.5 37.5t-147.5 32.5l-60 12q-29 6 -38.5 19.5t-6.5 43.5q6 70 53 123q13 17 39 19.5t43 -11.5q47 -38 122 -89t126 -83l51 -31q22 -12 27 -24.5t-5 -32.5q-12 -20 -23.5 -22.5t-37.5 6.5zM272 1147q0 16 -2.5 41t-18 75t-40.5 66q-37 22 -131 29 q-19 3 -19 47q0 50 19 47q182 -18 340 -18q68 0 153.5 4.5t136.5 9.5l52 4q20 3 20 -47q0 -25 -3.5 -34.5t-14.5 -12.5q-90 -6 -131 -29q-25 -16 -40 -61.5t-17 -83.5l-3 -37q-7 -162 -7.5 -422t5.5 -436q1 -67 18.5 -115.5t43.5 -64.5q51 -26 131 -31q18 -3 18 -49 q0 -48 -24 -45q-174 16 -338 16q-68 0 -151.5 -4t-132.5 -8l-50 -4q-11 -2 -18 11t-7 34q0 46 19 49q83 6 131 31q25 16 40.5 61t18.5 82l2 37q6 180 6 436t-6 422z" />
<glyph unicode="&#xcd;" horiz-adv-x="843" d="M272 1524q-26 -9 -37.5 -6.5t-23.5 22.5q-10 20 -5 32.5t27 24.5q193 117 299 203q17 14 43 11.5t39 -19.5q48 -54 54 -123q3 -30 -6.5 -43.5t-38.5 -19.5q-228 -43 -351 -82zM272 1147q0 16 -2.5 41t-18 75t-40.5 66q-37 22 -131 29q-19 3 -19 47q0 50 19 47 q182 -18 340 -18q68 0 153.5 4.5t136.5 9.5l52 4q20 3 20 -47q0 -25 -3.5 -34.5t-14.5 -12.5q-90 -6 -131 -29q-25 -16 -40 -61.5t-17 -83.5l-3 -37q-7 -162 -7.5 -422t5.5 -436q1 -67 18.5 -115.5t43.5 -64.5q51 -26 131 -31q18 -3 18 -49q0 -48 -24 -45q-174 16 -338 16 q-68 0 -151.5 -4t-132.5 -8l-50 -4q-11 -2 -18 11t-7 34q0 46 19 49q83 6 131 31q25 16 40.5 61t18.5 82l2 37q6 180 6 436t-6 422z" />
<glyph unicode="&#xce;" horiz-adv-x="843" d="M209 1507q-42 33 -19 56q106 127 181 215q23 30 65 30q43 0 64 -30l182 -213q20 -20 -12 -56q-36 -32 -58 -14q-96 83 -163 129q-6 4 -15.5 4t-15.5 -4q-63 -43 -156 -129q-6 -6 -12.5 -7t-14 2t-12.5 6.5t-14 10.5zM272 1147q0 16 -2.5 41t-18 75t-40.5 66 q-37 22 -131 29q-19 3 -19 47q0 50 19 47q182 -18 340 -18q68 0 153.5 4.5t136.5 9.5l52 4q20 3 20 -47q0 -25 -3.5 -34.5t-14.5 -12.5q-90 -6 -131 -29q-25 -16 -40 -61.5t-17 -83.5l-3 -37q-7 -162 -7.5 -422t5.5 -436q1 -67 18.5 -115.5t43.5 -64.5q51 -26 131 -31 q18 -3 18 -49q0 -48 -24 -45q-174 16 -338 16q-68 0 -151.5 -4t-132.5 -8l-50 -4q-11 -2 -18 11t-7 34q0 46 19 49q83 6 131 31q25 16 40.5 61t18.5 82l2 37q6 180 6 436t-6 422z" />
<glyph unicode="&#xcf;" horiz-adv-x="843" d="M287 1540q-46 0 -80.5 34.5t-34.5 80.5t34.5 80t80.5 34t80 -34t34 -80t-34 -80.5t-80 -34.5zM600 1540q-46 0 -79.5 34.5t-33.5 80.5t33.5 80t79.5 34q47 0 81 -33.5t34 -80.5t-34 -81t-81 -34zM272 1147q0 16 -2.5 41t-18 75t-40.5 66q-37 22 -131 29q-19 3 -19 47 q0 50 19 47q182 -18 340 -18q68 0 153.5 4.5t136.5 9.5l52 4q20 3 20 -47q0 -25 -3.5 -34.5t-14.5 -12.5q-90 -6 -131 -29q-25 -16 -40 -61.5t-17 -83.5l-3 -37q-7 -162 -7.5 -422t5.5 -436q1 -67 18.5 -115.5t43.5 -64.5q51 -26 131 -31q18 -3 18 -49q0 -48 -24 -45 q-174 16 -338 16q-68 0 -151.5 -4t-132.5 -8l-50 -4q-11 -2 -18 11t-7 34q0 46 19 49q83 6 131 31q25 16 40.5 61t18.5 82l2 37q6 180 6 436t-6 422z" />
<glyph unicode="&#xd0;" horiz-adv-x="1705" d="M979 1452q301 -5 483.5 -200t182.5 -531q0 -127 -37 -237t-103.5 -192.5t-159.5 -145.5t-203.5 -101t-236.5 -53q-105 -10 -163.5 -8t-165 9t-168.5 7q-116 0 -201 -4t-112 -8l-27 -4q-11 -2 -18 10.5t-7 36.5q0 48 23 51q76 5 131 41q26 17 41.5 64t17.5 85l2 39 q4 88 8 324h-141q-13 0 -24 10.5t-11 24.5v98q0 14 11 24.5t24 10.5h141q-4 235 -8 327q0 6 -0.5 16t-4.5 37t-9.5 50t-17.5 47.5t-27 36.5q-25 19 -52.5 26.5t-83.5 14.5q-11 2 -15.5 11t-4.5 36q0 50 25 47q119 -18 342 -18q20 0 246.5 10t322.5 8zM948 98q117 25 201 112 t126 217t42 290q0 436 -248 579q-49 26 -110.5 38t-126.5 9.5t-105.5 -7t-92.5 -12.5l-18 -3q-40 -8 -43 -35q-14 -188 -18 -483h340q13 0 24 -10.5t11 -24.5v-98q0 -14 -11 -24.5t-24 -10.5h-340q3 -374 18 -479q2 -23 35 -43q57 -26 142 -30t142 5z" />
<glyph unicode="&#xd1;" horiz-adv-x="1841" d="M778 1577q-19 -16 -28.5 -22t-22.5 -4.5t-27 16.5q-12 14 -16.5 26t0 23.5t6 14.5t10.5 14q29 32 68 67q37 32 77.5 42.5t80 0t62.5 -20.5t54 -28q41 -17 76 -10.5t64 30.5q16 14 23 19t18.5 4t25.5 -14q17 -16 20 -31t-1.5 -26t-16.5 -27q-15 -19 -29.5 -36t-21.5 -25 l-8 -7q-34 -34 -92.5 -36.5t-103 11t-83.5 33.5q-21 9 -42.5 11.5t-36.5 -0.5t-28.5 -9t-19.5 -10t-8 -6zM1821 1452q9 1 14.5 -12.5t5.5 -32.5q0 -32 -3.5 -40.5t-14.5 -10.5q-99 -7 -142 -29q-46 -27 -53 -127q-28 -527 -4 -991q2 -57 8 -80q7 -31 -6 -39 q-94 -48 -162 -104q-5 -4 -14.5 -12.5t-14 -12t-11 -8.5t-12 -6.5t-11.5 -1.5q-11 0 -19.5 7.5t-22 29t-18.5 28.5q-384 525 -843 1041q-6 -607 2 -738q6 -92 16.5 -139t42.5 -65q55 -23 137 -29q13 -2 18 -11.5t5 -39.5q0 -19 -6 -32.5t-17 -12.5q-178 16 -313 16 q-52 0 -125 -4t-120 -8l-48 -4q-24 -3 -24 45q0 31 5 40t19 11q37 3 70 10t47 13l14 6q57 33 64 204q11 407 0 813q-2 65 -30 122.5t-83 80.5q-41 19 -129 29q-20 4 -20 53q0 44 20 41q80 -12 147 -12q31 0 177.5 6t169.5 6q26 0 45 -35q140 -227 823 -1020q5 617 -4 781 q-8 124 -55 149q-44 22 -142 29q-10 2 -13 10.5t-3 40.5q0 48 20 45q173 -18 308 -18q50 0 126.5 4.5t127.5 9.5z" />
<glyph unicode="&#xd2;" horiz-adv-x="1642" d="M997 1524q-55 17 -142.5 37.5t-147.5 32.5l-60 12q-29 6 -38.5 19.5t-6.5 43.5q6 70 53 123q13 17 39 19.5t43 -11.5q47 -38 122 -89t126 -83l51 -31q22 -12 27.5 -24t-4.5 -33q-12 -20 -24 -22.5t-38 6.5zM807 -39q-253 -11 -440 91.5t-267 312.5q-53 136 -58 274.5 t32 258.5t111 226t174.5 182t227 121t263.5 48q170 3 312.5 -54.5t237 -158.5t147.5 -234.5t55 -282.5q0 -341 -215.5 -553t-579.5 -231zM918 74q119 31 206.5 140.5t124.5 273.5t11 346q-41 279 -190.5 425.5t-332.5 96.5q-119 -31 -209.5 -140.5t-130.5 -274t-14 -345.5 q41 -276 196 -424t339 -98z" />
<glyph unicode="&#xd3;" horiz-adv-x="1642" d="M633 1524q-26 -9 -38 -6.5t-24 22.5q-10 21 -4.5 33t27.5 24q193 117 299 203q17 14 43 11.5t39 -19.5q47 -53 53 -123q3 -30 -6.5 -43.5t-38.5 -19.5q-227 -43 -350 -82zM807 -39q-253 -11 -440 91.5t-267 312.5q-53 136 -58 274.5t32 258.5t111 226t174.5 182t227 121 t263.5 48q170 3 312.5 -54.5t237 -158.5t147.5 -234.5t55 -282.5q0 -341 -215.5 -553t-579.5 -231zM918 74q119 31 206.5 140.5t124.5 273.5t11 346q-41 279 -190.5 425.5t-332.5 96.5q-119 -31 -209.5 -140.5t-130.5 -274t-14 -345.5q41 -276 196 -424t339 -98z" />
<glyph unicode="&#xd4;" horiz-adv-x="1642" d="M635 1507q-42 33 -19 56q106 127 181 215q23 30 65 30q43 0 64 -30l182 -213q20 -20 -12 -56q-36 -32 -58 -14q-92 80 -164 129q-15 11 -30 0q-63 -43 -156 -129q-6 -6 -12.5 -7t-14 2t-12.5 6.5t-14 10.5zM807 -39q-253 -11 -440 91.5t-267 312.5q-53 136 -58 274.5 t32 258.5t111 226t174.5 182t227 121t263.5 48q170 3 312.5 -54.5t237 -158.5t147.5 -234.5t55 -282.5q0 -341 -215.5 -553t-579.5 -231zM918 74q119 31 206.5 140.5t124.5 273.5t11 346q-41 279 -190.5 425.5t-332.5 96.5q-119 -31 -209.5 -140.5t-130.5 -274t-14 -345.5 q41 -276 196 -424t339 -98z" />
<glyph unicode="&#xd5;" horiz-adv-x="1642" d="M594 1645q29 32 68 67q37 32 77.5 42.5t80 0t62.5 -20.5t54 -28q72 -35 139 20q15 14 23 19t19.5 4t25.5 -14q17 -16 20 -31t-1.5 -26t-16.5 -27q-15 -19 -30 -36t-23 -25l-7 -7q-34 -34 -92 -36.5t-102.5 11t-83.5 33.5q-21 9 -42.5 11.5t-36.5 -0.5t-28.5 -9t-19.5 -10 t-8 -6q-19 -16 -28.5 -22t-22.5 -4.5t-27 16.5q-12 14 -16.5 26t0 23.5t6 14.5t10.5 14zM807 -39q-253 -11 -440 91.5t-267 312.5q-53 136 -58 274.5t32 258.5t111 226t174.5 182t227 121t263.5 48q170 3 312.5 -54.5t237 -158.5t147.5 -234.5t55 -282.5q0 -341 -215.5 -553 t-579.5 -231zM918 74q119 31 206.5 140.5t124.5 273.5t11 346q-41 279 -190.5 425.5t-332.5 96.5q-119 -31 -209.5 -140.5t-130.5 -274t-14 -345.5q41 -276 196 -424t339 -98z" />
<glyph unicode="&#xd6;" horiz-adv-x="1642" d="M700 1540q-46 0 -80 34.5t-34 80.5t34 80t80 34t80.5 -34t34.5 -80t-34.5 -80.5t-80.5 -34.5zM1014 1540q-46 0 -79.5 34.5t-33.5 80.5t33.5 80t79.5 34q47 0 80.5 -33.5t33.5 -80.5t-33.5 -81t-80.5 -34zM807 -39q-253 -11 -440 91.5t-267 312.5q-53 136 -58 274.5 t32 258.5t111 226t174.5 182t227 121t263.5 48q170 3 312.5 -54.5t237 -158.5t147.5 -234.5t55 -282.5q0 -341 -215.5 -553t-579.5 -231zM918 74q119 31 206.5 140.5t124.5 273.5t11 346q-41 279 -190.5 425.5t-332.5 96.5q-119 -31 -209.5 -140.5t-130.5 -274t-14 -345.5 q41 -276 196 -424t339 -98z" />
<glyph unicode="&#xd7;" horiz-adv-x="1093" d="M221 152l-110 108q-17 18 -2 33l294 291l-292 297q-17 13 0 30l106 113q7 7 17 7.5t16 -5.5l293 -297l297 295q14 14 32 0l111 -109q17 -17 2 -32l-297 -293l293 -295q13 -17 0 -33l-109 -112q-17 -17 -30 0l-295 292l-293 -290q-6 -6 -16 -6t-17 6z" />
<glyph unicode="&#xd8;" horiz-adv-x="1675" d="M1614 1348q12 -11 10.5 -29.5t-12.5 -26.5l-131 -116q130 -187 133 -431q0 -341 -215.5 -553t-579.5 -231q-328 -13 -528 152l-119 -107q-12 -9 -29.5 -8.5t-29.5 10.5l-62 72q-12 15 -10 31.5t14 25.5l119 107q-38 56 -61 121q-53 136 -58 274.5t32 258.5t111 226 t174 182t226.5 121t263.5 48q300 6 502 -170l135 120q30 19 55 -6zM395 596q8 -59 29 -131l750 670q-76 136 -188 195.5t-236 25.5q-119 -31 -209.5 -140t-131 -274t-14.5 -346zM1272 834q-8 59 -29 131l-747 -670q79 -135 195 -194.5t239 -26.5q119 31 206.5 140.5 t124.5 273.5t11 346z" />
<glyph unicode="&#xd9;" horiz-adv-x="1865" d="M727 1606q-29 6 -38.5 19.5t-6.5 43.5q6 70 53 123q13 17 39 19.5t43 -11.5q47 -38 122 -89t126 -83l51 -31q22 -12 27.5 -24t-4.5 -33q-12 -20 -24 -22.5t-38 6.5q-55 17 -142.5 37.5t-147.5 32.5zM1825 76q7 -1 10.5 -4t6.5 -13t3 -30q0 -23 -4.5 -34.5t-15.5 -10.5 q-94 10 -209 10q-6 0 -29 0.5t-34.5 0t-34 -1.5t-38.5 -3.5t-36.5 -8t-38.5 -12.5q-40 -17 -67.5 -2t-22.5 51q8 69 0 125q-200 -182 -557 -182q-118 0 -209.5 30t-149 79t-95 118.5t-52 143t-14.5 157.5q0 477 -5 660q0 7 -0.5 18t-4.5 40t-10 52.5t-18 46t-28 29.5 q-32 13 -133 25q-10 2 -14.5 10.5t-4.5 34.5q0 20 5.5 34.5t13.5 12.5q24 -2 61 -5.5t117 -8.5t117 -4l387 18q22 0 22 -47q0 -43 -22 -47q-81 -10 -133 -31q-25 -12 -40.5 -55t-18.5 -80l-3 -37q-10 -289 0 -657q1 -52 15 -108t43 -111t68.5 -99t97.5 -71t124 -27 q89 0 194.5 45t180.5 117q36 36 48 97.5t12 184.5v168.5v128v83.5t-1 76t-2 62.5t-3 83.5q0 7 -0.5 19t-4.5 44t-10 57.5t-18 50t-29 32.5q-49 18 -135 27q-10 2 -14.5 11t-4.5 36q0 20 5 34t14 13q252 -18 344 -18q59 0 144 4.5t140 9.5l56 4q18 3 18 -47q0 -29 -3.5 -37 t-14.5 -10q-80 -5 -129 -27q-25 -12 -40.5 -62.5t-18.5 -95.5l-3 -45q-18 -568 19 -888q3 -21 11 -47.5t30.5 -58.5t52.5 -40q57 -15 113 -18z" />
<glyph unicode="&#xda;" horiz-adv-x="1865" d="M750 1524q-26 -9 -38 -6.5t-24 22.5q-10 21 -4.5 33t27.5 24q193 117 299 203q17 14 43 11.5t39 -19.5q47 -53 53 -123q3 -30 -6.5 -43.5t-38.5 -19.5q-227 -43 -350 -82zM1825 76q7 -1 10.5 -4t6.5 -13t3 -30q0 -23 -4.5 -34.5t-15.5 -10.5q-94 10 -209 10q-6 0 -29 0.5 t-34.5 0t-34 -1.5t-38.5 -3.5t-36.5 -8t-38.5 -12.5q-40 -17 -67.5 -2t-22.5 51q8 69 0 125q-200 -182 -557 -182q-118 0 -209.5 30t-149 79t-95 118.5t-52 143t-14.5 157.5q0 477 -5 660q0 7 -0.5 18t-4.5 40t-10 52.5t-18 46t-28 29.5q-32 13 -133 25q-10 2 -14.5 10.5 t-4.5 34.5q0 20 5.5 34.5t13.5 12.5q24 -2 61 -5.5t117 -8.5t117 -4l387 18q22 0 22 -47q0 -43 -22 -47q-81 -10 -133 -31q-25 -12 -40.5 -55t-18.5 -80l-3 -37q-10 -289 0 -657q1 -52 15 -108t43 -111t68.5 -99t97.5 -71t124 -27q89 0 194.5 45t180.5 117q36 36 48 97.5 t12 184.5v168.5v128v83.5t-1 76t-2 62.5t-3 83.5q0 7 -0.5 19t-4.5 44t-10 57.5t-18 50t-29 32.5q-49 18 -135 27q-10 2 -14.5 11t-4.5 36q0 20 5 34t14 13q252 -18 344 -18q59 0 144 4.5t140 9.5l56 4q18 3 18 -47q0 -29 -3.5 -37t-14.5 -10q-80 -5 -129 -27 q-25 -12 -40.5 -62.5t-18.5 -95.5l-3 -45q-18 -568 19 -888q3 -21 11 -47.5t30.5 -58.5t52.5 -40q57 -15 113 -18z" />
<glyph unicode="&#xdb;" horiz-adv-x="1865" d="M709 1507q-42 33 -19 56q146 175 180 215q23 30 66 30q42 0 63 -30l183 -213q19 -19 -13 -56q-35 -32 -57 -14q-92 80 -164 129q-15 11 -30 0q-63 -43 -156 -129q-6 -6 -12.5 -7t-14 2t-12.5 6.5t-14 10.5zM1825 76q7 -1 10.5 -4t6.5 -13t3 -30q0 -23 -4.5 -34.5 t-15.5 -10.5q-94 10 -209 10q-6 0 -29 0.5t-34.5 0t-34 -1.5t-38.5 -3.5t-36.5 -8t-38.5 -12.5q-40 -17 -67.5 -2t-22.5 51q8 69 0 125q-200 -182 -557 -182q-118 0 -209.5 30t-149 79t-95 118.5t-52 143t-14.5 157.5q0 477 -5 660q0 7 -0.5 18t-4.5 40t-10 52.5t-18 46 t-28 29.5q-32 13 -133 25q-10 2 -14.5 10.5t-4.5 34.5q0 20 5.5 34.5t13.5 12.5q24 -2 61 -5.5t117 -8.5t117 -4l387 18q22 0 22 -47q0 -43 -22 -47q-81 -10 -133 -31q-25 -12 -40.5 -55t-18.5 -80l-3 -37q-10 -289 0 -657q1 -52 15 -108t43 -111t68.5 -99t97.5 -71t124 -27 q89 0 194.5 45t180.5 117q36 36 48 97.5t12 184.5v168.5v128v83.5t-1 76t-2 62.5t-3 83.5q0 7 -0.5 19t-4.5 44t-10 57.5t-18 50t-29 32.5q-49 18 -135 27q-10 2 -14.5 11t-4.5 36q0 20 5 34t14 13q252 -18 344 -18q59 0 144 4.5t140 9.5l56 4q18 3 18 -47q0 -29 -3.5 -37 t-14.5 -10q-80 -5 -129 -27q-25 -12 -40.5 -62.5t-18.5 -95.5l-3 -45q-18 -568 19 -888q3 -21 11 -47.5t30.5 -58.5t52.5 -40q57 -15 113 -18z" />
<glyph unicode="&#xdc;" horiz-adv-x="1865" d="M776 1540q-46 0 -80 34.5t-34 80.5t34 80t80 34t80.5 -34t34.5 -80t-34.5 -80.5t-80.5 -34.5zM1090 1540q-46 0 -79.5 34.5t-33.5 80.5t33.5 80t79.5 34q47 0 80.5 -33.5t33.5 -80.5t-33.5 -81t-80.5 -34zM1825 76q7 -1 10.5 -4t6.5 -13t3 -30q0 -23 -4.5 -34.5 t-15.5 -10.5q-94 10 -209 10q-6 0 -29 0.5t-34.5 0t-34 -1.5t-38.5 -3.5t-36.5 -8t-38.5 -12.5q-40 -17 -67.5 -2t-22.5 51q8 69 0 125q-200 -182 -557 -182q-118 0 -209.5 30t-149 79t-95 118.5t-52 143t-14.5 157.5q0 477 -5 660q0 7 -0.5 18t-4.5 40t-10 52.5t-18 46 t-28 29.5q-32 13 -133 25q-10 2 -14.5 10.5t-4.5 34.5q0 20 5.5 34.5t13.5 12.5q24 -2 61 -5.5t117 -8.5t117 -4l387 18q22 0 22 -47q0 -43 -22 -47q-81 -10 -133 -31q-25 -12 -40.5 -55t-18.5 -80l-3 -37q-10 -289 0 -657q1 -52 15 -108t43 -111t68.5 -99t97.5 -71t124 -27 q89 0 194.5 45t180.5 117q36 36 48 97.5t12 184.5v168.5v128v83.5t-1 76t-2 62.5t-3 83.5q0 7 -0.5 19t-4.5 44t-10 57.5t-18 50t-29 32.5q-49 18 -135 27q-10 2 -14.5 11t-4.5 36q0 20 5 34t14 13q252 -18 344 -18q59 0 144 4.5t140 9.5l56 4q18 3 18 -47q0 -29 -3.5 -37 t-14.5 -10q-80 -5 -129 -27q-25 -12 -40.5 -62.5t-18.5 -95.5l-3 -45q-18 -568 19 -888q3 -21 11 -47.5t30.5 -58.5t52.5 -40q57 -15 113 -18z" />
<glyph unicode="&#xdd;" horiz-adv-x="1521" d="M659 1524q-26 -9 -37.5 -6.5t-23.5 22.5q-10 21 -4.5 33t27.5 24q193 117 299 203q17 14 42.5 11.5t38.5 -19.5q48 -54 54 -123q3 -30 -6.5 -43.5t-38.5 -19.5q-228 -43 -351 -82zM1520 1450q22 3 22 -45q0 -44 -18 -47l-51 -6q-94 -14 -119 -45q-221 -316 -434 -660 q-31 -51 -31 -106q0 -108 6 -252q0 -17 2.5 -42.5t18 -76t40.5 -66.5q22 -16 131 -28q19 -3 19 -47q0 -19 -5.5 -32.5t-15.5 -12.5q-138 16 -337 16q-88 0 -170.5 -4t-121.5 -8l-38 -4q-23 -3 -23 45q0 44 17 47q48 5 81 12t41 12l9 4q25 16 40.5 62.5t18.5 84.5l2 38 q6 117 6 157q0 59 -28 113q-105 203 -232.5 418.5t-212.5 339.5q-20 29 -84 35l-55 6q-18 3 -18 47q0 20 4.5 33t15.5 12q106 -16 268 -16q71 0 155 4t133 8l48 4q23 3 23 -45q0 -44 -19 -47q-16 -2 -52 -6t-40 -4q-28 -4 -37.5 -23.5t0.5 -36.5q77 -158 314 -557 q272 410 350 545q32 59 -37 72q-22 4 -78 10q-20 3 -20 47q0 48 22 45q170 -16 285 -16q51 0 102.5 4t76.5 8z" />
<glyph unicode="&#xde;" horiz-adv-x="1196" d="M680 463q43 2 77.5 18t56 42t37.5 56t23.5 64t11 61.5t3.5 53.5q0 73 -24 130.5t-61 90t-76 49t-75 16.5q-19 0 -36 -3t-39.5 -12.5t-36 -31.5t-13.5 -55q-6 -352 4 -653q1 -67 18.5 -115.5t43.5 -64.5q51 -26 131 -31q18 -3 18 -49q0 -48 -24 -45q-174 16 -338 16 q-68 0 -151.5 -4t-133.5 -8l-49 -4q-11 -2 -17.5 10.5t-6.5 34.5q0 46 18 49q83 6 131 31q25 16 40.5 61t17.5 82l3 37q6 180 6 436t-6 422q0 16 -2.5 41t-18 75t-40.5 66q-37 22 -131 29q-18 3 -18 47q0 50 18 47q182 -18 340 -18q68 0 153.5 4.5t137.5 9.5l51 4 q20 3 20 -47q0 -25 -3.5 -34.5t-14.5 -12.5q-90 -6 -131 -29q-25 -16 -40 -57.5t-17 -75.5l-2 -33q58 15 137 15q107 0 193 -21.5t143.5 -59.5t95.5 -91.5t55 -115t17 -132.5q0 -95 -47.5 -176t-122.5 -131.5t-162.5 -78.5t-173.5 -28q-27 -2 -37 8.5t-10 48.5q0 37 9.5 48 t47.5 14z" />
<glyph unicode="&#xdf;" horiz-adv-x="1236" d="M905 -39q-65 0 -125.5 19.5t-87.5 39.5l-28 19q-8 27 -10 82.5t-17 103.5q-5 20 5 29.5t42 13.5q39 6 52.5 -1t13.5 -34q4 -83 19.5 -127.5t57.5 -44.5q35 0 64 45t29 105q0 62 -26 115.5t-63 94t-74 81.5t-63 96t-26 119q0 45 15.5 88t39 75.5t51 68.5t51 68.5t39 76.5 t15.5 90q0 44 -11 83t-34 73.5t-65 54.5t-99 20q-42 0 -74.5 -14.5t-54.5 -36.5t-38 -62.5t-24.5 -78.5t-14 -99t-7 -109.5t-2.5 -123.5v-107q2 -264 16 -546q8 -116 31 -134q33 -26 96 -26q9 0 12.5 -9.5t3.5 -39.5q0 -48 -16 -45q-270 16 -340 16q-31 0 -86 -4t-94 -8 l-39 -4q-19 -3 -19 45q0 29 3.5 38t13.5 11q59 0 96 26q27 19 31 134q16 366 16 686q0 105 11 185t45.5 160t92 131.5t156 83.5t232.5 32q91 0 172.5 -18.5t147 -54.5t104.5 -95.5t39 -135.5q0 -45 -15.5 -84.5t-40.5 -68.5t-55.5 -56.5t-60.5 -52.5t-55 -51t-40.5 -58.5 t-15.5 -68.5q0 -41 17.5 -76.5t46 -63.5t62.5 -55t68 -58t62.5 -65.5t46 -84t17.5 -107.5q0 -124 -98.5 -210t-211.5 -91h-2z" />
<glyph unicode="&#xe0;" horiz-adv-x="1232" d="M367 1292q-26 13 -32 29.5t5 42.5q22 63 82 106q19 12 44.5 8t37.5 -22q36 -49 94.5 -117t99.5 -111l41 -44q19 -19 21.5 -31.5t-12.5 -30.5q-18 -17 -29 -16.5t-35 16.5q-48 31 -127.5 73.5t-134.5 69.5zM1192 186q31 -7 37 -16t0 -35q-37 -174 -250 -174 q-180 0 -242 98q-118 -98 -331 -98q-171 0 -258 82.5t-87 206.5q0 64 23 117.5t68 95t101.5 74t134.5 57.5t156 43.5t175 34.5v135q0 78 -32 117t-124 39q-140 0 -164 -134q-8 -37 -27.5 -59.5t-64.5 -38.5q-61 -15 -112.5 8.5t-65.5 73.5q-6 24 2.5 55t39 66t78.5 64 t130 48t184 19q133 0 220.5 -18.5t137.5 -59t69.5 -96t19.5 -137.5q0 -28 -2 -139.5t-2.5 -189.5t2.5 -185q3 -54 13 -84t20 -37.5t24 -7.5q47 0 63 55q7 23 18 26t46 -6zM719 289v233q-125 -22 -203 -63q-178 -93 -178 -232q0 -67 48 -106t126 -39q38 0 83.5 23t68.5 51 q55 67 55 133z" />
<glyph unicode="&#xe1;" horiz-adv-x="1232" d="M463 1130q-24 -16 -35 -16.5t-29 16.5q-15 18 -12.5 30.5t21.5 31.5q155 161 235 272q12 18 37.5 22.5t44.5 -7.5q60 -42 82 -107q11 -26 5 -42.5t-32 -29.5q-208 -100 -317 -170zM1192 186q31 -7 37 -16t0 -35q-37 -174 -250 -174q-180 0 -242 98q-118 -98 -331 -98 q-171 0 -258 82.5t-87 206.5q0 64 23 117.5t68 95t101.5 74t134.5 57.5t156 43.5t175 34.5v135q0 78 -32 117t-124 39q-140 0 -164 -134q-8 -37 -27.5 -59.5t-64.5 -38.5q-61 -15 -112.5 8.5t-65.5 73.5q-6 24 2.5 55t39 66t78.5 64t130 48t184 19q133 0 220.5 -18.5 t137.5 -59t69.5 -96t19.5 -137.5q0 -28 -2 -139.5t-2.5 -189.5t2.5 -185q3 -54 13 -84t20 -37.5t24 -7.5q47 0 63 55q7 23 18 26t46 -6zM719 289v233q-125 -22 -203 -63q-178 -93 -178 -232q0 -67 48 -106t126 -39q38 0 83.5 23t68.5 51q55 67 55 133z" />
<glyph unicode="&#xe2;" horiz-adv-x="1232" d="M334 1159q-42 32 -19 55q140 168 181 216q23 30 65 30q43 0 64 -30l182 -213q20 -20 -12 -56q-36 -32 -58 -14q-92 80 -164 129q-15 11 -30 0q-63 -43 -156 -129q-6 -6 -12.5 -7t-14 2t-12.5 6.5t-14 10.5zM1192 186q31 -7 37 -16t0 -35q-37 -174 -250 -174 q-180 0 -242 98q-118 -98 -331 -98q-171 0 -258 82.5t-87 206.5q0 64 23 117.5t68 95t101.5 74t134.5 57.5t156 43.5t175 34.5v135q0 78 -32 117t-124 39q-140 0 -164 -134q-8 -37 -27.5 -59.5t-64.5 -38.5q-61 -15 -112.5 8.5t-65.5 73.5q-6 24 2.5 55t39 66t78.5 64 t130 48t184 19q133 0 220.5 -18.5t137.5 -59t69.5 -96t19.5 -137.5q0 -28 -2 -139.5t-2.5 -189.5t2.5 -185q3 -54 13 -84t20 -37.5t24 -7.5q47 0 63 55q7 23 18 26t46 -6zM719 289v233q-125 -22 -203 -63q-178 -93 -178 -232q0 -67 48 -106t126 -39q38 0 83.5 23t68.5 51 q55 67 55 133z" />
<glyph unicode="&#xe3;" horiz-adv-x="1232" d="M371 1233q-19 -16 -28.5 -22t-22.5 -4.5t-27 16.5q-5 7 -9 13t-5.5 11.5t-3 10t0 9.5t1.5 7.5t3 7.5t4 6.5t5 6.5l4 5q36 41 67 68q37 32 77.5 42.5t80.5 0t63 -20.5t54 -28q72 -35 139 20q15 14 23 19t19.5 4t25.5 -14q17 -16 20 -31t-1.5 -26t-16.5 -27 q-15 -19 -30 -36t-22 -25l-8 -7q-34 -34 -92 -36.5t-102.5 11t-83.5 33.5q-21 9 -42.5 11.5t-36.5 -0.5t-28.5 -9t-19.5 -10t-8 -6zM1192 186q31 -7 37 -16t0 -35q-37 -174 -250 -174q-180 0 -242 98q-118 -98 -331 -98q-171 0 -258 82.5t-87 206.5q0 64 23 117.5t68 95 t101.5 74t134.5 57.5t156 43.5t175 34.5v135q0 78 -32 117t-124 39q-140 0 -164 -134q-8 -37 -27.5 -59.5t-64.5 -38.5q-61 -15 -112.5 8.5t-65.5 73.5q-6 24 2.5 55t39 66t78.5 64t130 48t184 19q133 0 220.5 -18.5t137.5 -59t69.5 -96t19.5 -137.5q0 -28 -2 -139.5 t-2.5 -189.5t2.5 -185q3 -54 13 -84t20 -37.5t24 -7.5q47 0 63 55q7 23 18 26t46 -6zM719 289v233q-125 -22 -203 -63q-178 -93 -178 -232q0 -67 48 -106t126 -39q38 0 83.5 23t68.5 51q55 67 55 133z" />
<glyph unicode="&#xe4;" horiz-adv-x="1232" d="M422 1264q-46 0 -80.5 34t-34.5 80t34.5 80.5t80.5 34.5t80.5 -34.5t34.5 -80.5t-34.5 -80t-80.5 -34zM735 1264q-46 0 -79 34t-33 80t33.5 80.5t78.5 34.5q47 0 81 -34t34 -81t-34 -80.5t-81 -33.5zM1192 186q31 -7 37 -16t0 -35q-37 -174 -250 -174q-180 0 -242 98 q-118 -98 -331 -98q-171 0 -258 82.5t-87 206.5q0 64 23 117.5t68 95t101.5 74t134.5 57.5t156 43.5t175 34.5v135q0 78 -32 117t-124 39q-140 0 -164 -134q-8 -37 -27.5 -59.5t-64.5 -38.5q-61 -15 -112.5 8.5t-65.5 73.5q-6 24 2.5 55t39 66t78.5 64t130 48t184 19 q133 0 220.5 -18.5t137.5 -59t69.5 -96t19.5 -137.5q0 -28 -2 -139.5t-2.5 -189.5t2.5 -185q3 -54 13 -84t20 -37.5t24 -7.5q47 0 63 55q7 23 18 26t46 -6zM719 289v233q-125 -22 -203 -63q-178 -93 -178 -232q0 -67 48 -106t126 -39q38 0 83.5 23t68.5 51q55 67 55 133z " />
<glyph unicode="&#xe5;" horiz-adv-x="1232" d="M567 1206q-64 0 -111.5 47.5t-47.5 112.5t47.5 112.5t111.5 47.5q65 0 112.5 -48t47.5 -112t-47.5 -112t-112.5 -48zM567 1425q-25 0 -42 -17t-17 -42t17 -42t42 -17t42.5 17t17.5 42t-17.5 42t-42.5 17zM1192 186q31 -7 37 -16t0 -35q-37 -174 -250 -174q-180 0 -242 98 q-118 -98 -331 -98q-171 0 -258 82.5t-87 206.5q0 64 23 117.5t68 95t101.5 74t134.5 57.5t156 43.5t175 34.5v135q0 78 -32 117t-124 39q-140 0 -164 -134q-8 -37 -27.5 -59.5t-64.5 -38.5q-61 -15 -112.5 8.5t-65.5 73.5q-6 24 2.5 55t39 66t78.5 64t130 48t184 19 q133 0 220.5 -18.5t137.5 -59t69.5 -96t19.5 -137.5q0 -28 -2 -139.5t-2.5 -189.5t2.5 -185q3 -54 13 -84t20 -37.5t24 -7.5q47 0 63 55q7 23 18 26t46 -6zM719 289v233q-125 -22 -203 -63q-178 -93 -178 -232q0 -67 48 -106t126 -39q38 0 83.5 23t68.5 51q55 67 55 133z " />
<glyph unicode="&#xe6;" horiz-adv-x="1792" d="M1706 242q34 -23 40.5 -37t-5.5 -37q-61 -92 -179.5 -149.5t-269.5 -57.5q-98 0 -206.5 32t-194.5 99q-32 19 -64 19q-16 0 -36 -9t-31 -20q-59 -59 -161.5 -90t-213.5 -31q-171 0 -257.5 82.5t-86.5 206.5q0 76 34.5 138.5t91.5 106t144.5 78.5t178 57t208.5 42v135 q0 78 -31.5 117t-123.5 39q-140 0 -164 -134q-8 -37 -27.5 -59.5t-64.5 -38.5q-61 -15 -112.5 8.5t-65.5 73.5q-6 24 2.5 55t39 66t78.5 64t130 48t184 19q293 0 383 -100q141 100 338 100q91 0 166.5 -20.5t124.5 -52t86.5 -75t57.5 -85t32.5 -85.5t16 -72.5t3.5 -51.5 q0 -78 -19 -100.5t-79 -22.5h-649q0 -96 27.5 -177t71 -132.5t96.5 -80t106 -28.5q108 0 190 47.5t119 103.5q18 27 36.5 29.5t55.5 -20.5zM1257 963q-209 0 -256 -318q73 -3 236 -3t223 3q13 0 10 12q0 147 -62 226.5t-151 79.5zM698 289v233q-124 -22 -202 -63 q-179 -94 -179 -232q0 -67 48.5 -106t126.5 -39q38 0 83 23t68 51q55 67 55 133z" />
<glyph unicode="&#xe7;" horiz-adv-x="1165" d="M1061 264q33 -21 40 -35t-5 -39q-49 -93 -151 -155t-251 -72q-17 -25 -23 -48t3 -32q72 -61 85 -129.5t-38 -126.5q-41 -44 -112 -55.5t-126 16.5q-45 25 -56.5 46t7.5 51q45 61 96 20q43 -37 72 -31q13 3 17.5 14.5t-1.5 26.5q-14 45 -86 78q-25 9 -25.5 38t25.5 54 q31 34 48 78q-77 5 -146 20.5t-143.5 54.5t-127.5 97.5t-87.5 155.5t-34.5 221q3 144 82.5 271t217 204.5t298.5 77.5q119 0 213 -24.5t145 -62.5t74 -81.5t14 -83.5q-12 -34 -40 -55.5t-59 -27.5t-59.5 -3.5t-47.5 12.5q-30 15 -47.5 42.5t-33.5 67.5t-32 64q-22 28 -50 39 t-75 11q-85 0 -158 -65.5t-114 -169t-41 -216.5q0 -112 28.5 -198.5t75.5 -135t99.5 -72.5t107.5 -24q128 0 214 52.5t124 129.5q17 40 84 0z" />
<glyph unicode="&#xe8;" horiz-adv-x="1155" d="M768 1130q-48 31 -127.5 73.5t-134.5 69.5l-55 27q-26 13 -32 29.5t5 42.5q22 65 82 107q19 12 44.5 7.5t37.5 -22.5q36 -49 94.5 -117t99.5 -111l41 -44q19 -19 21 -31.5t-13 -30.5q-18 -17 -28.5 -16.5t-34.5 16.5zM655 -39q-72 0 -147 15.5t-157 55.5t-145 100 t-104 158.5t-41 221.5q0 76 21 152t66.5 148.5t110 128.5t160 90t208.5 34q90 0 164.5 -21t124 -54t87 -79.5t58 -91.5t33.5 -96t16.5 -87.5t3.5 -70.5q0 -41 -12.5 -53t-63.5 -12l-671 -6q0 -90 27.5 -169t71 -131t96.5 -82t106 -30q108 0 190 47.5t119 103.5 q18 27 36.5 29.5t55.5 -20.5q34 -23 40.5 -37t-5.5 -37q-61 -92 -179.5 -149.5t-269.5 -57.5zM365 641q376 0 456 4q13 0 13 12q0 147 -62 226.5t-151 79.5q-208 0 -256 -322z" />
<glyph unicode="&#xe9;" horiz-adv-x="1155" d="M502 1130q-24 -16 -35 -16.5t-29 16.5q-15 18 -13 30.5t21 31.5q156 161 236 272q12 18 37.5 22.5t44.5 -7.5q60 -42 82 -107q11 -26 5 -42.5t-32 -29.5q-208 -100 -317 -170zM655 -39q-72 0 -147 15.5t-157 55.5t-145 100t-104 158.5t-41 221.5q0 76 21 152t66.5 148.5 t110 128.5t160 90t208.5 34q90 0 164.5 -21t124 -54t87 -79.5t58 -91.5t33.5 -96t16.5 -87.5t3.5 -70.5q0 -41 -12.5 -53t-63.5 -12l-671 -6q0 -90 27.5 -169t71 -131t96.5 -82t106 -30q108 0 190 47.5t119 103.5q18 27 36.5 29.5t55.5 -20.5q34 -23 40.5 -37t-5.5 -37 q-61 -92 -179.5 -149.5t-269.5 -57.5zM365 641q376 0 456 4q13 0 13 12q0 147 -62 226.5t-151 79.5q-208 0 -256 -322z" />
<glyph unicode="&#xea;" horiz-adv-x="1155" d="M428 1159q-41 32 -18 55q24 29 56 68t60 72t64 76q23 30 65 30q43 0 64 -30l182 -213q20 -20 -12 -56q-36 -32 -58 -14q-96 83 -163 129q-6 4 -15.5 4t-15.5 -4q-63 -43 -156 -129q-6 -6 -12.5 -7t-14 2t-12.5 6.5t-14 10.5zM655 -39q-72 0 -147 15.5t-157 55.5t-145 100 t-104 158.5t-41 221.5q0 76 21 152t66.5 148.5t110 128.5t160 90t208.5 34q90 0 164.5 -21t124 -54t87 -79.5t58 -91.5t33.5 -96t16.5 -87.5t3.5 -70.5q0 -41 -12.5 -53t-63.5 -12l-671 -6q0 -90 27.5 -169t71 -131t96.5 -82t106 -30q108 0 190 47.5t119 103.5 q18 27 36.5 29.5t55.5 -20.5q34 -23 40.5 -37t-5.5 -37q-61 -92 -179.5 -149.5t-269.5 -57.5zM365 641q376 0 456 4q13 0 13 12q0 147 -62 226.5t-151 79.5q-208 0 -256 -322z" />
<glyph unicode="&#xeb;" horiz-adv-x="1155" d="M489 1264q-46 0 -80 34t-34 80t34 80.5t80 34.5t80.5 -34.5t34.5 -80.5t-34.5 -80t-80.5 -34zM803 1264q-46 0 -79.5 34t-33.5 80t33.5 80.5t79.5 34.5q47 0 81 -34t34 -81t-34 -80.5t-81 -33.5zM655 -39q-72 0 -147 15.5t-157 55.5t-145 100t-104 158.5t-41 221.5 q0 76 21 152t66.5 148.5t110 128.5t160 90t208.5 34q90 0 164.5 -21t124 -54t87 -79.5t58 -91.5t33.5 -96t16.5 -87.5t3.5 -70.5q0 -41 -12.5 -53t-63.5 -12l-671 -6q0 -90 27.5 -169t71 -131t96.5 -82t106 -30q108 0 190 47.5t119 103.5q18 27 36.5 29.5t55.5 -20.5 q34 -23 40.5 -37t-5.5 -37q-61 -92 -179.5 -149.5t-269.5 -57.5zM365 641q376 0 456 4q13 0 13 12q0 147 -62 226.5t-151 79.5q-208 0 -256 -322z" />
<glyph unicode="&#xec;" horiz-adv-x="679" d="M428 1130q-48 31 -127.5 73.5t-134.5 69.5l-55 27q-26 13 -32 29.5t5 42.5q22 65 82 107q19 12 44.5 7.5t37.5 -22.5q36 -49 94.5 -117t99.5 -111l41 -44q19 -19 21.5 -31.5t-12.5 -30.5q-18 -17 -29 -16.5t-35 16.5zM489 233q6 -90 48 -124q16 -19 104 -31q18 -4 18 -49 q0 -12 -2.5 -22.5t-6.5 -17t-9 -5.5q-104 16 -313 16q-82 0 -154 -4t-104 -8l-31 -4q-7 -1 -13 13t-6 32q0 44 19 49q38 5 64 13t33 13l7 5q24 21 34 49t13 75q7 125 8.5 291t-5.5 250q-5 51 -16 74.5t-38 32.5q-23 7 -92 0q-20 -3 -20 53q0 42 16 45q209 14 399 61 q20 7 38.5 3t17.5 -25q-21 -392 -9 -785z" />
<glyph unicode="&#xed;" horiz-adv-x="679" d="M182 1130q-24 -16 -34.5 -16.5t-28.5 16.5q-15 18 -13 30.5t21 31.5q155 161 235 272q12 18 37.5 22.5t44.5 -7.5q60 -42 82 -107q11 -26 5.5 -42.5t-31.5 -29.5q-209 -100 -318 -170zM489 233q6 -90 48 -124q16 -19 104 -31q18 -4 18 -49q0 -12 -2.5 -22.5t-6.5 -17 t-9 -5.5q-104 16 -313 16q-82 0 -154 -4t-104 -8l-31 -4q-7 -1 -13 13t-6 32q0 44 19 49q38 5 64 13t33 13l7 5q24 21 34 49t13 75q7 125 8.5 291t-5.5 250q-5 51 -16 74.5t-38 32.5q-23 7 -92 0q-20 -3 -20 53q0 42 16 45q209 14 399 61q20 7 38.5 3t17.5 -25 q-21 -392 -9 -785z" />
<glyph unicode="&#xee;" horiz-adv-x="679" d="M88 1159q-41 32 -18 55q24 29 56 68t60 72t64 76q23 30 65 30q43 0 64 -30l182 -213q20 -20 -12 -56q-35 -32 -57 -14q-92 80 -164 129q-6 4 -15.5 4t-15.5 -4q-63 -43 -156 -129q-6 -6 -12.5 -7t-14 2t-12.5 6.5t-14 10.5zM489 233q6 -90 48 -124q16 -19 104 -31 q18 -4 18 -49q0 -12 -2.5 -22.5t-6.5 -17t-9 -5.5q-104 16 -313 16q-82 0 -154 -4t-104 -8l-31 -4q-7 -1 -13 13t-6 32q0 44 19 49q38 5 64 13t33 13l7 5q24 21 34 49t13 75q7 125 8.5 291t-5.5 250q-5 51 -16 74.5t-38 32.5q-23 7 -92 0q-20 -3 -20 53q0 42 16 45 q209 14 399 61q20 7 38.5 3t17.5 -25q-21 -392 -9 -785z" />
<glyph unicode="&#xef;" horiz-adv-x="679" d="M158 1264q-46 0 -80.5 34t-34.5 80t34.5 80.5t80.5 34.5t80 -34.5t34 -80.5t-34 -80t-80 -34zM471 1264q-46 0 -79.5 34t-33.5 80t33.5 80.5t79.5 34.5q47 0 81 -34t34 -81t-34 -80.5t-81 -33.5zM489 233q6 -90 48 -124q16 -19 104 -31q18 -4 18 -49q0 -12 -2.5 -22.5 t-6.5 -17t-9 -5.5q-104 16 -313 16q-82 0 -154 -4t-104 -8l-31 -4q-7 -1 -13 13t-6 32q0 44 19 49q38 5 64 13t33 13l7 5q24 21 34 49t13 75q7 125 8.5 291t-5.5 250q-5 51 -16 74.5t-38 32.5q-23 7 -92 0q-20 -3 -20 53q0 42 16 45q209 14 399 61q20 7 38.5 3t17.5 -25 q-21 -392 -9 -785z" />
<glyph unicode="&#xf0;" horiz-adv-x="1134" d="M768 1350q163 -121 254.5 -340.5t91.5 -458.5q0 -121 -35.5 -226.5t-104 -187t-177.5 -129t-246 -47.5q-252 0 -391.5 142.5t-139.5 371.5q0 116 39 220.5t109.5 183.5t177 125.5t232.5 46.5q93 3 170 -27q-56 148 -154 233l-195 -102q-19 -9 -29 -5t-22 24l-16 30 q-10 22 -7.5 33t19.5 20l150 80q-73 45 -193 76q-31 8 -22 43q4 14 18 49q7 17 14 20.5t23 0.5q219 -47 319 -107l172 92q34 15 52 -16l28 -39q14 -28 -18 -45zM569 82q85 0 143.5 60.5t85.5 162t27 236.5q0 109 -26 202.5t-84 156.5t-137 63q-109 0 -190 -115t-81 -279 q0 -226 73.5 -356.5t188.5 -130.5z" />
<glyph unicode="&#xf1;" horiz-adv-x="1417" d="M442 1300q32 37 68 68q37 32 77.5 42.5t80 0t62.5 -20.5t54 -28q41 -17 76 -10.5t64 30.5q16 14 23 19t18.5 4t25.5 -14q17 -16 20 -31t-1.5 -26t-16.5 -27q-15 -19 -29.5 -36t-21.5 -25l-8 -7q-34 -34 -92.5 -36.5t-103 11t-83.5 33.5q-21 9 -42.5 11.5t-36.5 -0.5 t-28.5 -9t-19.5 -10t-8 -6q-19 -16 -28.5 -22t-22.5 -4.5t-27 16.5q-5 7 -9 13t-5.5 11.5t-3 10t0 9.5t1.5 7.5t3 7.5t4 6.5t5 6.5zM41 -16q-5 -1 -9 5.5t-6.5 17t-2.5 22.5q0 45 18 49q38 5 64 13t33 13l7 5q42 37 48 124q6 88 7.5 275.5t-5.5 265.5q-5 51 -16 74.5 t-38 32.5q-23 7 -92 0q-20 -3 -20 53q0 42 16 45q186 14 379 61q20 7 37.5 3.5t17.5 -25.5v-43q0 -11 5.5 -14t9.5 2q93 102 311 102q56 0 109.5 -9.5t109.5 -34t98 -62.5t68.5 -100.5t26.5 -141.5q0 -302 10 -484q3 -50 13.5 -78.5t33.5 -45.5q16 -19 104 -31q19 -4 19 -49 q0 -18 -6 -32t-13 -13q-157 16 -278 16q-54 0 -134 -4t-133 -8l-53 -4q-7 -1 -12.5 12.5t-5.5 32.5q0 45 18 49q35 5 59 13t31 13l7 5q39 37 45 124q14 208 10 420q-1 26 -3 47.5t-9 59t-22 66t-38 57t-61.5 44t-87.5 15.5q-62 0 -105.5 -25t-66 -70.5t-33 -90t-14.5 -103.5 q-8 -133 2 -420q4 -92 47 -124q16 -19 94 -31q18 -4 18 -49q0 -12 -2.5 -22.5t-6.5 -17t-9 -5.5q-98 16 -295 16q-88 0 -163 -4t-105 -8z" />
<glyph unicode="&#xf2;" horiz-adv-x="1269" d="M741 1130q-48 31 -127.5 73.5t-134.5 69.5l-55 27q-26 13 -32 29.5t5 42.5q22 65 82 107q19 12 44.5 7.5t37.5 -22.5q36 -49 95 -117t100 -111l41 -44q19 -19 21 -31.5t-13 -30.5q-18 -17 -29 -16.5t-35 16.5zM623 -39q-276 0 -429 140.5t-153 410.5q0 64 23 136.5 t73.5 147t120 134.5t172.5 98t221 39q127 0 236 -44t183.5 -119.5t116.5 -177t42 -214.5q0 -156 -87 -284t-225 -197.5t-294 -69.5zM633 61q131 0 210 114.5t79 336.5q0 72 -18 148t-52 145t-92.5 113.5t-130.5 44.5q-140 0 -209 -111t-72 -340q0 -78 19.5 -157t54.5 -145 t90.5 -107.5t120.5 -41.5z" />
<glyph unicode="&#xf3;" horiz-adv-x="1269" d="M512 1130q-24 -16 -34.5 -16.5t-28.5 16.5q-15 18 -13 30.5t21 31.5q155 161 235 272q12 18 37.5 22.5t44.5 -7.5q60 -42 82 -107q11 -26 5 -42.5t-32 -29.5q-208 -100 -317 -170zM623 -39q-276 0 -429 140.5t-153 410.5q0 64 23 136.5t73.5 147t120 134.5t172.5 98 t221 39q127 0 236 -44t183.5 -119.5t116.5 -177t42 -214.5q0 -156 -87 -284t-225 -197.5t-294 -69.5zM633 61q131 0 210 114.5t79 336.5q0 72 -18 148t-52 145t-92.5 113.5t-130.5 44.5q-140 0 -209 -111t-72 -340q0 -78 19.5 -157t54.5 -145t90.5 -107.5t120.5 -41.5z" />
<glyph unicode="&#xf4;" horiz-adv-x="1269" d="M438 1159q-41 32 -18 55q24 29 56 68t60 72t64 76q23 30 66 30q42 0 63 -30l182 -213q20 -20 -12 -56q-35 -32 -57 -14q-92 80 -164 129q-6 4 -15.5 4t-15.5 -4q-59 -40 -155 -129q-17 -17 -54 12zM623 -39q-276 0 -429 140.5t-153 410.5q0 64 23 136.5t73.5 147 t120 134.5t172.5 98t221 39q127 0 236 -44t183.5 -119.5t116.5 -177t42 -214.5q0 -156 -87 -284t-225 -197.5t-294 -69.5zM633 61q131 0 210 114.5t79 336.5q0 72 -18 148t-52 145t-92.5 113.5t-130.5 44.5q-140 0 -209 -111t-72 -340q0 -78 19.5 -157t54.5 -145 t90.5 -107.5t120.5 -41.5z" />
<glyph unicode="&#xf5;" horiz-adv-x="1269" d="M403 1300q32 37 68 68q37 32 77.5 42.5t80 0t62.5 -20.5t54 -28q41 -17 76 -10.5t64 30.5q16 14 23 19t18.5 4t25.5 -14q17 -16 20 -31t-1.5 -26t-16.5 -27q-15 -19 -29.5 -36t-22.5 -25l-7 -7q-34 -34 -92.5 -36.5t-103 11t-83.5 33.5q-21 9 -42.5 11.5t-36.5 -0.5 t-28.5 -9t-19.5 -10t-8 -6q-19 -16 -28.5 -22t-22.5 -4.5t-27 16.5q-5 7 -9 13t-5.5 11.5t-3 10t0 9.5t1.5 7.5t3 7.5t4 6.5t5 6.5zM623 -39q-276 0 -429 140.5t-153 410.5q0 64 23 136.5t73.5 147t120 134.5t172.5 98t221 39q127 0 236 -44t183.5 -119.5t116.5 -177 t42 -214.5q0 -156 -87 -284t-225 -197.5t-294 -69.5zM633 61q131 0 210 114.5t79 336.5q0 72 -18 148t-52 145t-92.5 113.5t-130.5 44.5q-140 0 -209 -111t-72 -340q0 -78 19.5 -157t54.5 -145t90.5 -107.5t120.5 -41.5z" />
<glyph unicode="&#xf6;" horiz-adv-x="1269" d="M498 1264q-46 0 -80.5 34t-34.5 80t34.5 80.5t80.5 34.5t80 -34.5t34 -80.5t-34 -80t-80 -34zM811 1264q-46 0 -79.5 34t-33.5 80t33.5 80.5t79.5 34.5q47 0 81 -34t34 -81t-34 -80.5t-81 -33.5zM623 -39q-276 0 -429 140.5t-153 410.5q0 64 23 136.5t73.5 147t120 134.5 t172.5 98t221 39q127 0 236 -44t183.5 -119.5t116.5 -177t42 -214.5q0 -156 -87 -284t-225 -197.5t-294 -69.5zM633 61q131 0 210 114.5t79 336.5q0 72 -18 148t-52 145t-92.5 113.5t-130.5 44.5q-140 0 -209 -111t-72 -340q0 -78 19.5 -157t54.5 -145t90.5 -107.5 t120.5 -41.5z" />
<glyph unicode="&#xf7;" horiz-adv-x="1110" d="M557 745q-47 0 -83 36t-36 81q0 47 36 83t83 36q46 0 82.5 -36t36.5 -83q0 -44 -36.5 -80.5t-82.5 -36.5zM133 504q-31 0 -31 41v94q0 24 7.5 31.5t23.5 7.5h846q15 0 22 -8t7 -31v-94q0 -25 -6.5 -33t-22.5 -8h-846zM557 205q-45 0 -81 36t-36 81q0 47 35.5 83.5 t81.5 36.5t83.5 -36.5t37.5 -83.5q0 -44 -37.5 -80.5t-83.5 -36.5z" />
<glyph unicode="&#xf8;" horiz-adv-x="1290" d="M1102 868q127 -149 127 -356q0 -156 -87 -284t-225 -197.5t-294 -69.5q-255 0 -402 117l-69 -62q-16 -13 -33 0l-58 60q-16 16 2 30l72 64q-94 133 -94 342q0 64 23 136.5t73.5 147t120 134.5t172.5 98t221 39q216 0 369 -121l94 82q6 7 15.5 6.5t15.5 -6.5l51 -51 q5 -4 4.5 -13.5t-6.5 -13.5zM348 512q0 -61 17 -141l489 430q-83 162 -225 162q-140 0 -209 -111t-72 -340zM633 61q131 0 210 114.5t79 336.5q0 83 -25 172l-491 -440q37 -83 95.5 -133t131.5 -50z" />
<glyph unicode="&#xf9;" horiz-adv-x="1355" d="M475 1300q-26 13 -31.5 29.5t5.5 42.5q22 65 81 107q19 12 44.5 7.5t37.5 -22.5q36 -49 95 -117t100 -111l41 -44q19 -19 21 -31.5t-13 -30.5q-18 -17 -28.5 -16.5t-34.5 16.5q-48 31 -127.5 73.5t-135.5 69.5zM1358 78q10 0 14 -10.5t4 -38.5q0 -48 -18 -45 q-128 11 -217 10.5t-125 -8.5q-41 -10 -58 -3t-28 37l-10 29q-105 -88 -312 -88q-123 0 -215 34t-149.5 113t-57.5 197q2 168 0 391q0 25 -2.5 60t-14.5 82t-30 61q-22 21 -102 31q-17 3 -17 45q0 28 3.5 39t13.5 10q272 -14 358 -14q48 0 64.5 -17t13.5 -75q-8 -181 6 -615 q4 -128 47.5 -185t130.5 -57q111 0 177.5 74.5t66.5 171.5l-2 449q0 109 -43 143q-22 21 -100 31q-21 4 -21 45q0 52 19 49q158 -14 262 -14q65 0 141 3.5t119 6.5l43 4q18 3 18 -49q0 -42 -14 -45q-68 -9 -93.5 -23.5t-33.5 -44.5q-9 -32 -11.5 -120t0 -170.5t7 -182.5 t4.5 -119q7 -154 57 -172q35 -16 105 -20z" />
<glyph unicode="&#xfa;" horiz-adv-x="1355" d="M563 1130q-24 -16 -34.5 -16.5t-28.5 16.5q-15 18 -13 30.5t21 31.5q155 161 235 272q12 18 37.5 22.5t44.5 -7.5q60 -42 82 -107q11 -26 5.5 -42.5t-31.5 -29.5q-209 -100 -318 -170zM1358 78q10 0 14 -10.5t4 -38.5q0 -48 -18 -45q-128 11 -217 10.5t-125 -8.5 q-41 -10 -58 -3t-28 37l-10 29q-105 -88 -312 -88q-123 0 -215 34t-149.5 113t-57.5 197q2 168 0 391q0 25 -2.5 60t-14.5 82t-30 61q-22 21 -102 31q-17 3 -17 45q0 28 3.5 39t13.5 10q272 -14 358 -14q48 0 64.5 -17t13.5 -75q-8 -181 6 -615q4 -128 47.5 -185t130.5 -57 q111 0 177.5 74.5t66.5 171.5l-2 449q0 109 -43 143q-22 21 -100 31q-21 4 -21 45q0 52 19 49q158 -14 262 -14q65 0 141 3.5t119 6.5l43 4q18 3 18 -49q0 -42 -14 -45q-68 -9 -93.5 -23.5t-33.5 -44.5q-9 -32 -11.5 -120t0 -170.5t7 -182.5t4.5 -119q7 -154 57 -172 q35 -16 105 -20z" />
<glyph unicode="&#xfb;" horiz-adv-x="1355" d="M459 1159q-42 32 -19 55q140 168 181 216q23 30 65 30q43 0 64 -30l182 -213q20 -20 -12 -56q-36 -32 -58 -14q-92 80 -164 129q-15 11 -30 0q-63 -43 -156 -129q-6 -6 -12.5 -7t-14 2t-12.5 6.5t-14 10.5zM1358 78q10 0 14 -10.5t4 -38.5q0 -48 -18 -45 q-128 11 -217 10.5t-125 -8.5q-41 -10 -58 -3t-28 37l-10 29q-105 -88 -312 -88q-123 0 -215 34t-149.5 113t-57.5 197q2 168 0 391q0 25 -2.5 60t-14.5 82t-30 61q-22 21 -102 31q-17 3 -17 45q0 28 3.5 39t13.5 10q272 -14 358 -14q48 0 64.5 -17t13.5 -75q-8 -181 6 -615 q4 -128 47.5 -185t130.5 -57q111 0 177.5 74.5t66.5 171.5l-2 449q0 109 -43 143q-22 21 -100 31q-21 4 -21 45q0 52 19 49q158 -14 262 -14q65 0 141 3.5t119 6.5l43 4q18 3 18 -49q0 -42 -14 -45q-68 -9 -93.5 -23.5t-33.5 -44.5q-9 -32 -11.5 -120t0 -170.5t7 -182.5 t4.5 -119q7 -154 57 -172q35 -16 105 -20z" />
<glyph unicode="&#xfc;" horiz-adv-x="1355" d="M532 1264q-46 0 -80 34t-34 80t34 80.5t80 34.5t80.5 -34.5t34.5 -80.5t-34.5 -80t-80.5 -34zM846 1264q-46 0 -79.5 34t-33.5 80t33.5 80.5t79.5 34.5q47 0 81 -34t34 -81t-34 -80.5t-81 -33.5zM1358 78q10 0 14 -10.5t4 -38.5q0 -48 -18 -45q-128 11 -217 10.5 t-125 -8.5q-41 -10 -58 -3t-28 37l-10 29q-105 -88 -312 -88q-123 0 -215 34t-149.5 113t-57.5 197q2 168 0 391q0 25 -2.5 60t-14.5 82t-30 61q-22 21 -102 31q-17 3 -17 45q0 28 3.5 39t13.5 10q272 -14 358 -14q48 0 64.5 -17t13.5 -75q-8 -181 6 -615q4 -128 47.5 -185 t130.5 -57q111 0 177.5 74.5t66.5 171.5l-2 449q0 109 -43 143q-22 21 -100 31q-21 4 -21 45q0 52 19 49q158 -14 262 -14q65 0 141 3.5t119 6.5l43 4q18 3 18 -49q0 -42 -14 -45q-68 -9 -93.5 -23.5t-33.5 -44.5q-9 -32 -11.5 -120t0 -170.5t7 -182.5t4.5 -119 q7 -154 57 -172q35 -16 105 -20z" />
<glyph unicode="&#xfd;" horiz-adv-x="1443" d="M631 1130q-24 -16 -35 -16.5t-29 16.5q-15 18 -13 30.5t21 31.5q156 161 236 272q12 18 37.5 22.5t44.5 -7.5q60 -42 82 -107q11 -26 5 -42.5t-32 -29.5q-208 -100 -317 -170zM1386 1024q6 0 11.5 -15.5t5.5 -33.5q0 -42 -17 -45q-36 -4 -62.5 -12t-35.5 -14l-8 -5 q-23 -15 -36 -29t-30 -43q-79 -152 -138 -271.5t-172.5 -373.5t-246.5 -577q-41 -93 -97.5 -127.5t-164.5 -34.5q-50 0 -80 27.5t-30 80.5q0 17 11.5 31.5t25 24t37.5 19t39 14t39.5 11t29.5 7.5q11 3 21 9t15.5 10t12.5 14.5t9 13t8.5 16.5t7.5 15l49 114q23 54 -12 164 q-31 100 -146.5 373t-191.5 440q-19 39 -42 58t-59 30q-17 7 -80 15q-18 4 -18 45q0 20 5.5 35t16.5 14q162 -14 228 -14q31 0 114 3.5t153.5 7t72.5 3.5q7 0 12.5 -15t5.5 -34q0 -41 -18 -45q-66 -7 -84 -31q-9 -11 -11 -19t3 -32t22 -68q48 -127 205 -514q37 80 134.5 280 t123.5 259q27 69 6 96q-17 21 -76 29q-18 4 -18 45q0 52 22 49q216 -14 265 -14q33 0 97.5 7t65.5 7z" />
<glyph unicode="&#xfe;" horiz-adv-x="1290" d="M-2 -563q-18 -3 -18 49q0 41 16 45q38 5 66.5 13.5t37.5 13.5l9 6q14 11 21 18t13 23t7 39q21 583 22 851t-16 736q-2 49 -10 77t-17.5 38t-26.5 16h-88q-10 0 -15 8t-5 35q0 48 18 53q41 6 398 53q44 6 57 -6.5t8 -50.5q-14 -97 -17 -175.5t-3 -309.5q0 -31 8 -35 q13 -4 31 14q127 117 292 117q74 0 144 -21.5t131.5 -66t108 -107t73.5 -149t27 -186.5q0 -104 -29 -196t-80.5 -160.5t-121.5 -118t-153.5 -74.5t-174.5 -25q-116 0 -215 45q-2 1 -11.5 5.5t-16.5 7t-11 1.5q-8 -5 -8 -16q2 -161 12 -360q1 -23 7.5 -39t12 -22t19.5 -19 q28 -21 116 -33q19 -5 19 -47q0 -47 -19 -47q-163 16 -278 16q-52 0 -137 -4t-144 -8zM707 61q55 0 101.5 25.5t78 67t54 95t32.5 109t10 109.5q0 45 -6 93.5t-19.5 104t-37.5 103.5t-57.5 88t-83 63t-109.5 23q-230 0 -230 -459q0 -422 267 -422z" />
<glyph unicode="&#xff;" horiz-adv-x="1443" d="M612 1264q-46 0 -80 34t-34 80t34 80.5t80 34.5t80.5 -34.5t34.5 -80.5t-34.5 -80t-80.5 -34zM926 1264q-46 0 -79.5 34t-33.5 80t33.5 80.5t79.5 34.5q47 0 80.5 -34t33.5 -81t-33.5 -80.5t-80.5 -33.5zM1386 1024q6 0 11.5 -15.5t5.5 -33.5q0 -42 -17 -45 q-36 -4 -62.5 -12t-35.5 -14l-8 -5q-23 -15 -36 -29t-30 -43q-79 -152 -138 -271.5t-172.5 -373.5t-246.5 -577q-41 -93 -97.5 -127.5t-164.5 -34.5q-50 0 -80 27.5t-30 80.5q0 17 11.5 31.5t25 24t37.5 19t39 14t39.5 11t29.5 7.5q11 3 21 9t15.5 10t12.5 14.5t9 13 t8.5 16.5t7.5 15l49 114q23 54 -12 164q-31 100 -146.5 373t-191.5 440q-19 39 -42 58t-59 30q-17 7 -80 15q-18 4 -18 45q0 20 5.5 35t16.5 14q162 -14 228 -14q31 0 114 3.5t153.5 7t72.5 3.5q7 0 12.5 -15t5.5 -34q0 -41 -18 -45q-66 -7 -84 -31q-9 -11 -11 -19t3 -32 t22 -68q48 -127 205 -514q37 80 134.5 280t123.5 259q27 69 6 96q-17 21 -76 29q-18 4 -18 45q0 52 22 49q216 -14 265 -14q33 0 97.5 7t65.5 7z" />
<glyph unicode="&#x152;" horiz-adv-x="2236" d="M2214 297q0 -1 -5.5 -25t-10.5 -56.5t-9 -78.5v-102q1 -10 -3 -19.5t-8 -13.5l-5 -4q-11 -9 -42 -12t-56 -2l-25 2q-162 14 -598 14q-67 0 -132 -2t-110 -4t-100.5 -6.5t-81.5 -6.5t-77.5 -7.5t-63.5 -6.5l-80 -6q-253 -11 -440 91.5t-267 312.5q-53 136 -58 274.5 t32 258.5t111 226t174.5 182t227 121t263.5 48q78 0 158 -13q7 -1 50.5 -6.5t55.5 -7t54.5 -5.5t75.5 -5t88 -2.5t120 -1.5q342 0 641 18q20 2 29.5 -6.5t5.5 -30.5q-26 -111 -10 -254q2 -16 -8 -22.5t-48 -5.5q-43 3 -45 20q-3 92 -28 131q-40 59 -213 59q-125 0 -201 -26 q-21 -6 -30.5 -14t-12.5 -25q-14 -223 -16 -383q0 -29 6.5 -36t31.5 -9q184 -8 308 2q46 3 51 43q5 24 12 94q1 9 4.5 14t18 8t41.5 3q21 0 26.5 -6.5t3.5 -22.5q-10 -63 -12 -217q2 -67 5 -119t5 -71l2 -19q2 -14 -4.5 -20.5t-27.5 -6.5q-37 0 -48.5 6t-13.5 17 q-7 76 -14 96q-9 33 -49 39q-119 13 -301 4q-31 -1 -38 -7.5t-7 -31.5q0 -213 14 -475q5 -36 41 -45q37 -9 98 -14.5t103 -6.5l43 -1q175 0 231 24q10 5 18 16t14.5 31.5t10.5 35t10.5 45.5t9.5 44q2 9 5.5 13t14.5 7t30 1q38 -3 48.5 -11t6.5 -22zM383 596 q41 -276 196 -424t339 -98q267 69 311 405q3 235 0 479q-11 81 -38.5 148.5t-65.5 113.5t-85 80.5t-97.5 48.5t-103.5 18t-102 -11q-119 -31 -209.5 -140.5t-130.5 -274t-14 -345.5z" />
<glyph unicode="&#x153;" horiz-adv-x="2002" d="M1919 242q34 -23 40.5 -37t-5.5 -37q-61 -92 -179.5 -149.5t-269.5 -57.5q-113 0 -235 41t-211 129q-87 -80 -200.5 -125t-235.5 -45q-276 0 -429 140.5t-153 410.5q0 64 23 136.5t73.5 147t120 134.5t172.5 98t221 39q126 0 233.5 -43.5t184.5 -120.5q155 162 408 162 q90 0 164.5 -21t124 -54t87 -79.5t58 -91.5t33.5 -96t16.5 -87.5t3.5 -70.5q0 -41 -12.5 -53t-63.5 -12l-659 -6q-4 -44 -8 -72q19 -150 108.5 -245t188.5 -95q108 0 190 47.5t119 103.5q18 27 36.5 29.5t55.5 -20.5zM633 61q116 0 192 90.5t93 268.5q-7 51 -7 92q0 32 7 76 q-9 68 -30.5 131.5t-56 119.5t-87 90t-115.5 34q-140 0 -209 -111t-72 -340q0 -78 19.5 -157t54.5 -145t90.5 -107.5t120.5 -41.5zM1470 963q-208 0 -256 -322q377 0 457 4q12 0 12 12q0 147 -62 226.5t-151 79.5z" />
<glyph unicode="&#x178;" horiz-adv-x="1521" d="M686 1540q-46 0 -80.5 34.5t-34.5 80.5t34.5 80t80.5 34t80.5 -34t34.5 -80t-34.5 -80.5t-80.5 -34.5zM999 1540q-45 0 -78.5 34.5t-33.5 80.5t33 80t79 34q47 0 81 -33.5t34 -80.5t-34 -81t-81 -34zM1520 1450q22 3 22 -45q0 -44 -18 -47l-51 -6q-94 -14 -119 -45 q-221 -316 -434 -660q-31 -51 -31 -106q0 -108 6 -252q0 -17 2.5 -42.5t18 -76t40.5 -66.5q22 -16 131 -28q19 -3 19 -47q0 -19 -5.5 -32.5t-15.5 -12.5q-138 16 -337 16q-88 0 -170.5 -4t-121.5 -8l-38 -4q-23 -3 -23 45q0 44 17 47q48 5 81 12t41 12l9 4q25 16 40.5 62.5 t18.5 84.5l2 38q6 117 6 157q0 59 -28 113q-105 203 -232.5 418.5t-212.5 339.5q-20 29 -84 35l-55 6q-18 3 -18 47q0 20 4.5 33t15.5 12q106 -16 268 -16q71 0 155 4t133 8l48 4q23 3 23 -45q0 -44 -19 -47q-16 -2 -52 -6t-40 -4q-28 -4 -37.5 -23.5t0.5 -36.5 q77 -158 314 -557q272 410 350 545q32 59 -37 72q-22 4 -78 10q-20 3 -20 47q0 48 22 45q170 -16 285 -16q51 0 102.5 4t76.5 8z" />
<glyph unicode="&#x2c6;" horiz-adv-x="616" d="M82 1487q-42 32 -19 55q106 127 181 215q24 31 65 31q42 0 64 -31l182 -213q20 -20 -12 -55q-36 -32 -58 -14q-96 83 -163 129q-6 4 -15.5 4t-15.5 -4q-63 -43 -156 -129q-6 -6 -12.5 -7t-14 2t-12.5 6.5t-14 10.5z" />
<glyph unicode="&#x2dc;" horiz-adv-x="688" d="M66 1624q36 41 67 68q37 32 77.5 42.5t80.5 0t63 -20.5t54 -28q72 -35 139 20q15 14 22.5 19t19 3.5t25.5 -14.5q17 -16 20 -31t-1.5 -26t-16.5 -27q-15 -19 -29.5 -36t-22.5 -24l-7 -7q-34 -34 -92 -36.5t-102.5 11t-83.5 33.5q-21 9 -42.5 11t-37 -1t-29 -8.5 t-19.5 -10t-8 -6.5q-19 -16 -28 -22t-22 -4.5t-27 16.5q-12 14 -16.5 26t0 23.5t6 14.5t10.5 14z" />
<glyph unicode="&#x2000;" horiz-adv-x="909" />
<glyph unicode="&#x2001;" horiz-adv-x="1819" />
<glyph unicode="&#x2002;" horiz-adv-x="909" />
<glyph unicode="&#x2003;" horiz-adv-x="1819" />
<glyph unicode="&#x2004;" horiz-adv-x="606" />
<glyph unicode="&#x2005;" horiz-adv-x="454" />
<glyph unicode="&#x2006;" horiz-adv-x="303" />
<glyph unicode="&#x2007;" horiz-adv-x="303" />
<glyph unicode="&#x2008;" horiz-adv-x="227" />
<glyph unicode="&#x2009;" horiz-adv-x="363" />
<glyph unicode="&#x200a;" horiz-adv-x="101" />
<glyph unicode="&#x2010;" horiz-adv-x="763" d="M160 485q-22 0 -29.5 7.5t-7.5 29.5v119q0 22 8 30.5t29 8.5h444q21 0 29 -8.5t8 -30.5v-119q0 -22 -7.5 -29.5t-29.5 -7.5h-444z" />
<glyph unicode="&#x2011;" horiz-adv-x="763" d="M160 485q-22 0 -29.5 7.5t-7.5 29.5v119q0 22 8 30.5t29 8.5h444q21 0 29 -8.5t8 -30.5v-119q0 -22 -7.5 -29.5t-29.5 -7.5h-444z" />
<glyph unicode="&#x2012;" horiz-adv-x="763" d="M160 485q-22 0 -29.5 7.5t-7.5 29.5v119q0 22 8 30.5t29 8.5h444q21 0 29 -8.5t8 -30.5v-119q0 -22 -7.5 -29.5t-29.5 -7.5h-444z" />
<glyph unicode="&#x2013;" horiz-adv-x="1251" d="M160 485q-22 0 -29.5 7.5t-7.5 29.5v119q0 22 8 30.5t29 8.5h932q21 0 28.5 -8.5t7.5 -30.5v-119q0 -22 -7 -29.5t-29 -7.5h-932z" />
<glyph unicode="&#x2014;" horiz-adv-x="1787" d="M98 485q-22 0 -29.5 7.5t-7.5 29.5v119q0 22 8 30.5t29 8.5h1592q21 0 28.5 -8.5t7.5 -30.5v-119q0 -22 -7 -29.5t-29 -7.5h-1592z" />
<glyph unicode="&#x2018;" horiz-adv-x="495" d="M270 1004q-85 0 -136.5 54.5t-51.5 137.5q0 128 79.5 213.5t184.5 85.5q18 0 25 -0.5t15.5 -5.5t12.5 -16q8 -23 3 -34t-29 -18q-45 -12 -77 -48.5t-32 -78.5q0 -65 51 -65q47 0 73 -30t26 -89q0 -55 -43 -80.5t-101 -25.5z" />
<glyph unicode="&#x2019;" horiz-adv-x="454" d="M225 1495q85 0 137 -54.5t52 -137.5q0 -128 -79.5 -213.5t-184.5 -85.5q-18 0 -25 0.5t-16 5.5t-13 16q-8 23 -2.5 33.5t29.5 17.5q45 12 76.5 48.5t31.5 78.5q0 66 -51 66q-47 0 -72.5 30t-25.5 89q0 55 42.5 80.5t100.5 25.5z" />
<glyph unicode="&#x201a;" horiz-adv-x="454" d="M225 242q85 0 137 -55t52 -138q0 -128 -79.5 -213.5t-184.5 -85.5q-17 0 -25 1t-16.5 6t-12.5 16q-8 23 -2.5 33.5t29.5 17.5q45 12 76.5 48.5t31.5 78.5q0 65 -51 65q-47 0 -72.5 30t-25.5 89q0 55 42.5 81t100.5 26z" />
<glyph unicode="&#x201c;" horiz-adv-x="892" d="M270 1004q-85 0 -136.5 54.5t-51.5 137.5q0 128 79.5 213.5t184.5 85.5q18 0 25 -0.5t15.5 -5.5t12.5 -16q8 -23 3 -34t-29 -18q-45 -12 -77 -48.5t-32 -78.5q0 -65 51 -65q47 0 73 -30t26 -89q0 -55 -43 -80.5t-101 -25.5zM688 1004q-85 0 -136.5 54.5t-51.5 137.5 q0 128 79.5 213.5t184.5 85.5q18 0 25 -0.5t15.5 -5.5t12.5 -16q8 -23 3 -34t-29 -18q-45 -12 -77 -48.5t-32 -78.5q0 -65 51 -65q47 0 72.5 -30t25.5 -89q0 -55 -42.5 -80.5t-100.5 -25.5z" />
<glyph unicode="&#x201d;" horiz-adv-x="851" d="M225 1495q85 0 137 -54.5t52 -137.5q0 -128 -79.5 -213.5t-184.5 -85.5q-18 0 -25 0.5t-16 5.5t-13 16q-8 23 -2.5 33.5t29.5 17.5q45 12 76.5 48.5t31.5 78.5q0 66 -51 66q-47 0 -72.5 30t-25.5 89q0 55 42.5 80.5t100.5 25.5zM643 1495q85 0 136.5 -54.5t51.5 -137.5 q0 -128 -79.5 -213.5t-184.5 -85.5q-18 0 -25 0.5t-15.5 5.5t-12.5 16q-8 23 -2.5 33.5t29.5 17.5q45 12 76.5 48.5t31.5 78.5q0 66 -51 66q-47 0 -72.5 30t-25.5 89q0 55 42.5 80.5t100.5 25.5z" />
<glyph unicode="&#x201e;" horiz-adv-x="892" d="M225 242q85 0 137 -55t52 -138q0 -128 -79.5 -213.5t-184.5 -85.5q-17 0 -25 1t-16.5 6t-12.5 16q-8 23 -2.5 33.5t29.5 17.5q45 12 76.5 48.5t31.5 78.5q0 65 -51 65q-47 0 -72.5 30t-25.5 89q0 55 42.5 81t100.5 26zM643 242q85 0 136.5 -55t51.5 -138 q0 -128 -79.5 -213.5t-184.5 -85.5q-17 0 -25 1t-16 6t-12 16q-8 23 -2.5 33.5t29.5 17.5q45 12 76.5 48.5t31.5 78.5q0 65 -51 65q-47 0 -72.5 30t-25.5 89q0 55 42.5 81t100.5 26z" />
<glyph unicode="&#x2022;" horiz-adv-x="532" d="M266 567q-68 0 -116 48.5t-48 115.5t48 115.5t116 48.5t116 -48.5t48 -115.5t-48 -115.5t-116 -48.5z" />
<glyph unicode="&#x2026;" horiz-adv-x="1574" d="M242 -51q-60 0 -105 44.5t-45 104.5t45 105t105 45t104.5 -45t44.5 -105t-44.5 -104.5t-104.5 -44.5zM772 -51q-61 0 -105 44.5t-44 104.5t44 105t105 45q60 0 105 -45t45 -105t-45 -104.5t-105 -44.5zM1303 -51q-61 0 -105.5 44.5t-44.5 104.5t44.5 105t105.5 45 q60 0 104.5 -45t44.5 -105t-44.5 -104.5t-104.5 -44.5z" />
<glyph unicode="&#x202f;" horiz-adv-x="363" />
<glyph unicode="&#x2039;" horiz-adv-x="587" d="M442 281q-19 -13 -32 -14t-20.5 5.5t-16.5 20.5q-141 192 -211 262q-38 38 -38.5 61t34.5 58q95 95 209 258q14 20 21 27t20 7.5t32 -12.5q17 -12 21 -25t0.5 -25.5t-17.5 -41.5q-43 -87 -102 -221q-13 -24 0 -51q46 -91 100 -215q14 -28 19 -44t0.5 -28t-19.5 -22z" />
<glyph unicode="&#x203a;" horiz-adv-x="587" d="M145 281q-15 10 -19.5 22t0.5 28t19 44q47 107 101 215q13 27 0 51q-50 113 -103 221q-14 29 -17.5 41.5t0.5 25.5t21 25q19 13 32 13t20.5 -7.5t21.5 -27.5q114 -163 209 -258q35 -35 34.5 -58t-38.5 -61q-70 -70 -211 -262q-9 -14 -16.5 -20.5t-21 -5.5t-32.5 14z" />
<glyph unicode="&#x205f;" horiz-adv-x="454" />
<glyph unicode="&#x20ac;" horiz-adv-x="1200" d="M1092 397q21 0 25.5 -11.5t-3.5 -39.5q-7 -25 -9.5 -72t3.5 -86q13 -45 -16 -65q-55 -39 -85.5 -58.5t-80 -42.5t-103.5 -32.5t-123 -9.5q-104 0 -188.5 32t-139.5 85.5t-93 127t-55.5 151.5t-20.5 165h-94q-16 0 -21.5 6t-5.5 20v99q0 17 5 21.5t22 4.5h88v80h-84 q-19 0 -25 6t-6 21v98q0 17 5 22t22 5h94q5 68 30 139t75 142t117.5 126t165.5 89t212 34q103 0 192.5 -40.5t89.5 -90.5q-4 -64 -5 -122t0 -83l1 -26q4 -20 0.5 -27.5t-20.5 -7.5q-19 0 -28.5 0.5t-22.5 3.5t-19.5 10t-7.5 19q-8 105 -81.5 179t-178.5 74q-61 0 -109 -39 t-76 -103t-43 -134t-18 -143h436q15 0 20 -5t5 -22v-98q0 -27 -23 -27h-446v-80h444q15 0 20 -4.5t5 -21.5v-99q0 -14 -5.5 -20t-19.5 -6h-436q5 -81 26.5 -158t58.5 -143t96 -106t130 -40q96 0 153.5 78t57.5 190q0 22 22 28.5t71 6.5z" />
<glyph unicode="&#x2122;" horiz-adv-x="1335" d="M512 1454q14 0 12 -14q-10 -61 -6 -88v-15q-3 -8 -22 -8q-18 0 -21 6l-8 39q-9 12 -55 12q-35 0 -58 -4q-10 -2 -10 -24q-6 -168 -2 -275q2 -43 18 -55q15 -10 46 -10q6 0 6 -23q0 -20 -6 -20q-43 6 -121 6q-35 0 -65.5 -1.5t-43.5 -3.5l-14 -1q-3 0 -5.5 7.5t-2.5 12.5 q0 23 6 23q28 0 45 10q7 5 11.5 19t5.5 25l1 11q4 110 -2 275q0 22 -10 24q-23 4 -53 4q-52 0 -60 -12q-6 -6 -10 -39q0 -6 -18 -6q-23 0 -23 6v17q0 51 -6 88q-5 14 10 14q57 -4 213 -4h39q153 0 209 4zM1229 1016q8 -3 8 -23q0 -18 -8 -18q-60 6 -121 6l-98 -6 q-11 0 -11 18q0 20 11 23l26 8q13 8 13 61q-3 86 -21 203q-127 -266 -127 -276q-2 -18 -20 -31q-19 -15 -39 -12q-10 0 -15.5 6t-13.5 31q-64 169 -104 260q-23 -153 -25 -195q0 -43 10 -47q11 -4 31 -8q8 -2 8 -21q0 -20 -8 -20q-51 6 -92 6l-96 -6q-9 0 -9 20q0 19 9 21 l30 8q27 18 31 61q5 33 14.5 84t14 84.5t8.5 83.5q1 17 0.5 29t-8 21t-25.5 16l-31 10q-8 4 -8 21q0 18 8 18q9 0 33.5 -2t38.5 -2q19 0 58.5 2t41.5 2q19 0 23 -16q43 -133 117 -295q100 209 133 295q5 16 20 16q5 0 38 -2t44 -2q28 0 51 2t29 2q8 0 8 -18q0 -21 -8 -21 l-33 -10q-28 -12 -28 -62q8 -129 28 -256q11 -51 31 -61q13 -4 33 -8z" />
<glyph unicode="&#x25fc;" horiz-adv-x="1024" d="M0 1024h1024v-1024h-1024v1024z" />
<glyph unicode="&#xfb03;" horiz-adv-x="2009" d="M1970 78q19 -5 19 -49q0 -18 -6 -32t-13 -13q-108 16 -305 16q-88 0 -157 -4t-94 -8l-25 -4q-7 -1 -13 13t-6 32q0 44 19 49q28 5 49 13t28 13l7 5q24 21 34 49t13 75q6 88 7.5 284t-5.5 274q-10 80 -21 108.5t-43 32.5l-282 -2q-13 -1 -19.5 -8.5t-6.5 -15.5l-1 -7 q-5 -119 -2 -322.5t12 -322.5q9 -114 45 -145q19 -19 99 -31q7 -2 12.5 -15t5.5 -32q0 -12 -2.5 -23.5t-6.5 -18t-9 -5.5q-96 16 -297 16q-90 0 -162.5 -4t-99.5 -8l-27 -4q-5 -1 -9.5 5.5t-7 19t-2.5 26.5q0 38 19 43q24 3 45 10.5t30 13.5l9 7q35 31 47 145 q8 86 12.5 288.5t-2.5 358.5q0 27 -27 29q-75 2 -163 2l-150 -2q-13 -1 -19.5 -8.5t-6.5 -15.5v-7q-5 -119 -2 -322.5t12 -322.5q9 -114 45 -145q33 -23 84 -31q18 -5 18 -45q0 -52 -18 -49q-82 16 -283 16q-90 0 -167.5 -4t-109.5 -8l-32 -4q-5 -1 -9.5 5.5t-7 18 t-2.5 23.5q0 18 5.5 31.5t13.5 15.5q39 5 65 13t32 13l7 5q36 32 47 145q9 87 13 288.5t-2 358.5q0 27 -27 29q-23 6 -119 0q-35 -4 -35 22v78q0 23 35 19q60 -6 119 0q3 0 7.5 0.5t12 7t7.5 18.5q1 39 8.5 77.5t25 89t52.5 93t85 79.5t129.5 58t178.5 21q190 0 309 -61 q142 102 397 102q109 0 186 -18.5t117 -51t57 -69t17 -80.5q0 -62 -31.5 -95.5t-91.5 -33.5q-71 0 -116 45.5t-60 114.5q-27 88 -131 88q-34 0 -63.5 -10.5t-58 -35t-45.5 -74.5t-17 -120v-119q0 -12 6.5 -18.5t13.5 -6.5l7 -1q115 -5 421 -5q17 0 150 5q43 3 60 -10t16 -56 q-13 -486 -13.5 -585t9.5 -165q6 -57 14.5 -80t32.5 -44q16 -19 104 -31zM492 1137v-62q0 -12 6.5 -18.5t13.5 -6.5l6 -1q49 -2 176 -2q117 0 137 2q3 0 7.5 0.5t12 7t7.5 18.5v78q-5 41 -10.5 70.5t-19 64t-31.5 55.5t-49 35.5t-72 14.5q-90 0 -137 -64.5t-47 -191.5z" />
<glyph unicode="&#xfb04;" horiz-adv-x="2029" d="M1989 78q20 -4 20 -49q0 -22 -6 -34.5t-14 -10.5q-183 16 -310 16q-56 0 -127.5 -4t-115.5 -8l-43 -4q-9 -2 -15 10t-6 35q0 46 17 49q68 8 106 43q18 21 24 47t9 86q18 319 12 676q-65 3 -156 3t-150 -1l-58 -2q-13 -1 -19.5 -8.5t-6.5 -15.5l-1 -7q-5 -119 -2 -322.5 t12 -322.5q9 -114 45 -145q19 -19 99 -31q7 -2 12.5 -15t5.5 -32q0 -12 -2.5 -23.5t-6.5 -18t-9 -5.5q-96 16 -297 16q-90 0 -162.5 -4t-99.5 -8l-27 -4q-5 -1 -9.5 5.5t-7 19t-2.5 26.5q0 38 19 43q24 3 45 10.5t30 13.5l9 7q35 31 47 145q8 86 12.5 288.5t-2.5 358.5 q0 27 -27 29q-75 2 -163 2l-150 -2q-13 -1 -19.5 -8.5t-6.5 -15.5v-7q-5 -119 -2 -322.5t12 -322.5q9 -114 45 -145q33 -23 84 -31q18 -5 18 -45q0 -52 -18 -49q-82 16 -283 16q-90 0 -167.5 -4t-109.5 -8l-32 -4q-5 -1 -9.5 5.5t-7 18t-2.5 23.5q0 18 5.5 31.5t13.5 15.5 q39 5 65 13t32 13l7 5q36 32 47 145q9 87 13 288.5t-2 358.5q0 27 -27 29q-23 6 -119 0q-35 -4 -35 22v78q0 23 35 19q60 -6 119 0q3 0 7.5 0.5t12 7t7.5 18.5q1 39 8.5 77.5t25 89t52.5 93t85 79.5t129.5 58t178.5 21q184 0 301 -57q127 98 342 98q82 0 156 -14 q46 -7 112 6.5t193 62.5q29 12 44 -4.5t13 -52.5q-12 -289 -16.5 -445.5t-3 -395t15.5 -437.5q4 -55 13 -89t34 -56q27 -20 105 -31zM1176 1049q113 -5 362 -5q0 3 -6 207q0 17 -2 23q-6 56 -44.5 94.5t-80 52t-80.5 13.5q-30 0 -57.5 -10.5t-56 -35t-45.5 -74.5t-17 -120 v-119q0 -12 6.5 -18.5t13.5 -6.5zM492 1137v-62q0 -12 6.5 -18.5t13.5 -6.5l6 -1q49 -2 176 -2q117 0 137 2q3 0 7.5 0.5t12 7t7.5 18.5v78q-5 41 -10.5 70.5t-19 64t-31.5 55.5t-49 35.5t-72 14.5q-90 0 -137 -64.5t-47 -191.5z" />
</font>
</defs>
</svg>
