<?xml version="1.0" standalone="no"?>
<!DOCTYPE svg PUBLIC "-//W3C//DTD SVG 1.1//EN" "http://www.w3.org/Graphics/SVG/1.1/DTD/svg11.dtd" >
<svg xmlns="http://www.w3.org/2000/svg">
<metadata></metadata>
<defs>
<font id="carrigdisplay" horiz-adv-x="1689" >
<font-face units-per-em="2048" ascent="1638" descent="-410" />
<missing-glyph horiz-adv-x="512" />
<glyph unicode="&#xfb01;" horiz-adv-x="1239" d="M115 -16q-10 -2 -15 5t-4 15v8q1 4 4.5 6t7.5 2h3q39 5 65.5 13t33.5 13l7 5q35 32 45 187q10 242 10 567q0 70 2 113l-1 5q-1 5 -2.5 8t-4.5 7t-8 6t-12 2q-80 6 -150 0q-1 1 -9 -0.5t-17 4.5t-9 19v37q0 3 0.5 6.5t9.5 9t25 2.5q91 -8 150 0q3 0 7.5 0.5t11.5 7.5t7 19 v12q-1 9 -1.5 25t3 62.5t13.5 88.5t35 93.5t62 88.5t100.5 62.5t144.5 25.5q74 0 139 -18t106.5 -45.5t70.5 -58.5t39 -58.5t3 -44.5q-11 -25 -25.5 -37.5t-27.5 -13t-24.5 2.5t-17.5 8l-7 5q-22 16 -41 40.5t-27 41.5l-8 17q-34 64 -103 92t-126 18q-26 -6 -45.5 -12 t-48 -23t-47 -40.5t-32.5 -65.5t-14 -96v-170q0 -12 6.5 -18.5t13.5 -7.5l7 -1q122 -4 262 -4t220 2l79 2q16 3 25 -1.5t10 -10.5v-6v-37v-2q-9 -239 -12 -463q4 -175 8 -266q11 -155 47 -187q16 -19 104 -31q13 0 15 -8q-1 -1 0 -8t-4 -14.5t-15 -5.5q-65 16 -217 16 q-68 0 -123 -4t-75 -8l-21 -4q-10 -2 -14.5 5t-4.5 15l1 8q1 4 4.5 6t6.5 2h3q39 5 65.5 13t33.5 13l7 5q35 32 45 187q9 189 9 274q0 175 -7 322q-6 106 -26 116q-112 2 -207 1t-157 -3l-62 -2q-13 -1 -19.5 -8.5t-6.5 -15.5l-1 -7v-110q0 -383 10 -567q10 -154 46 -187 q18 -19 106 -31q12 0 14 -8q-1 -1 0.5 -8t-3.5 -14.5t-15 -5.5q-65 16 -217 16q-68 0 -123 -4t-75 -8z" />
<glyph unicode="&#xfb02;" horiz-adv-x="1243" d="M1182 14q-1 -1 0 -8t-3.5 -15t-13.5 -7q-65 16 -219 16q-68 0 -122.5 -4t-74.5 -8l-20 -4q-10 -1 -14.5 6.5t-4.5 15.5l1 8q1 3 4.5 5t6.5 3l3 1q38 5 64 12.5t33 12.5l7 5q37 30 48 185q10 245 10 528v180q-113 5 -229 5t-176 -3l-60 -2q-13 -1 -20 -8.5t-8 -15.5l-1 -7 v-110q0 -323 10 -565q11 -156 48 -187q18 -18 104 -30q12 -3 14 -9q-1 -1 0.5 -8t-3.5 -15t-15 -7q-63 16 -217 16q-68 0 -123 -4t-75 -8l-21 -4q-9 -1 -13 6.5t-4 15.5v8q0 3 3 5t7 3l3 1q39 5 65.5 12.5t33.5 12.5l7 5q36 32 47 185q10 245 10 567v110v3q0 28 -28 28 q-80 8 -150 0q-1 1 -9 -0.5t-17 4.5t-9 19v37q0 3 1 6.5t9.5 9t24.5 2.5q93 -8 150 0q3 0 7.5 0.5t12.5 7.5t8 19v14q-1 9 -1.5 25t3 62.5t13 88.5t34.5 93.5t61.5 88.5t100 62.5t144.5 25.5q63 0 121 -10q66 8 202 45l45 10q3 1 8 0.5t12.5 -7.5t6.5 -23q-18 -284 -18 -760 q0 -308 12 -526q2 -56 13 -112.5t32 -74.5q18 -18 106 -30q13 -3 13 -9zM422 1024q269 -9 463 0q0 92 -4 244q-3 54 -42 103.5t-108.5 77t-148.5 13.5q-27 -7 -45.5 -13t-48.5 -23.5t-48.5 -41t-32.5 -65.5t-14 -96v-172q0 -12 7.5 -18.5t14.5 -7.5z" />
<glyph horiz-adv-x="0" />
<glyph horiz-adv-x="682" />
<glyph unicode=" "  horiz-adv-x="512" />
<glyph unicode="&#x09;" horiz-adv-x="512" />
<glyph unicode="&#xa0;" horiz-adv-x="512" />
<glyph unicode="!" horiz-adv-x="532" d="M262 291q-14 0 -23.5 9.5t-9.5 23.5q-12 498 -51 995q-1 16 15 53q18 47 51 83t63 36q21 0 33.5 -12t11.5 -37q-4 -40 -12.5 -171t-22.5 -404.5t-22 -542.5q0 -14 -9.5 -23.5t-23.5 -9.5zM264 -25q-43 0 -71.5 29.5t-28.5 73.5q0 43 28.5 72.5t71.5 29.5q44 0 74.5 -29.5 t30.5 -72.5q0 -44 -30.5 -73.5t-74.5 -29.5z" />
<glyph unicode="&#x22;" horiz-adv-x="686" d="M182 999q-14 0 -24.5 10t-10.5 23q-12 102 -28.5 199.5t-26.5 144.5l-10 47v7q0 25 22 32q33 9 69.5 9t56.5 -5l20 -4q22 -7 22 -32v-7q-18 -76 -32.5 -173.5t-19.5 -157.5l-5 -60q0 -14 -9.5 -23.5t-23.5 -9.5zM514 999q-14 0 -24.5 10t-10.5 23q-12 102 -28.5 199.5 t-26.5 144.5l-10 47v7q0 25 22 32q33 9 69.5 9t56.5 -5l20 -4q22 -7 22 -32v-7q-18 -76 -32.5 -173.5t-19.5 -157.5l-5 -60q0 -14 -9.5 -23.5t-23.5 -9.5z" />
<glyph unicode="#" horiz-adv-x="1138" d="M217 0q-9 0 -14.5 7t-3.5 16l75 413q1 5 -1.5 9t-4.5 5t-4 1h-194q-9 0 -14.5 7t-4.5 17l10 51q1 9 9.5 16t17.5 7h193q8 0 12 5t4 9l68 363q2 14 -11 14h-196q-9 0 -14.5 7.5t-4.5 17.5l11 51q1 9 9 15.5t17 6.5h195q6 0 10 4t5 8l1 3l66 356q3 10 11 17.5t17 7.5h51 q10 0 16.5 -8t4.5 -17l-66 -356q-1 -6 2 -10t6 -5h3h233q11 0 17 13l65 358q2 9 10.5 17t18.5 8h51q10 0 16 -8t4 -17l-67 -356q0 -6 3 -10t6 -5h3h209q10 0 15.5 -6.5t2.5 -15.5l-8 -51q-2 -11 -10 -18t-18 -7h-209q-10 0 -17 -14l-65 -363q-2 -6 0.5 -9.5t5.5 -3.5l4 -1 h211q10 0 15.5 -7t2.5 -16l-8 -51q-1 -10 -9 -17t-19 -7h-209q-6 0 -11 -3.5t-6.5 -6.5t-1.5 -5l-76 -413q-2 -9 -9.5 -16t-16.5 -7h-53q-9 0 -15 7t-4 16l76 413q1 5 -1.5 9t-4.5 5t-4 1h-234q-6 0 -10.5 -3.5t-6 -6.5t-1.5 -5l-76 -413q-1 -9 -9.5 -16t-17.5 -7h-53z M408 549h233q16 0 16 12l68 367q1 6 -3 9t-7 3h-234q-6 0 -10.5 -3.5t-6.5 -6.5l-1 -4l-66 -363q-2 -14 11 -14z" />
<glyph unicode="$" horiz-adv-x="1017" d="M494 -139q-23 0 -23 24v60q0 9 -4 13.5t-8 4.5h-4q-96 -18 -222 45q-50 26 -82 60.5t-41.5 66t-7 58.5t16.5 45q18 23 39 27.5t37 -3.5t30 -24q17 -21 28.5 -50.5t14.5 -49.5l2 -19q7 -60 70 -86.5t111 -12.5q15 5 18 12q2 7 2 19v553q0 48 -27 68q-129 82 -204 176 q-87 110 -91 238.5t74 230t215 135.5q33 7 33 29v53q0 11 6.5 18t16.5 7h43q20 0 20 -25v-47q0 -19 12 -19q91 0 154 -8q108 -14 156 -67.5t34 -102.5q-14 -40 -38.5 -50t-42.5 0l-17 9q-24 14 -45.5 37.5t-31.5 39.5l-9 17q-36 68 -147 68q-25 0 -25 -16v-551 q0 -11 3.5 -19.5t7 -12t8.5 -7.5l6 -4q51 -32 77 -49q93 -62 156.5 -127t85.5 -146q30 -95 -2 -196.5t-108 -176.5q-92 -83 -224 -120q-10 -2 -10 -27v-74q0 -24 -20 -24h-43zM436 905q4 -4 11 -6t15.5 8.5t8.5 40.5v428q0 16 -5.5 20t-16.5 1q-69 -22 -115 -76 q-35 -46 -38 -111t19 -126.5t60 -112.5q21 -31 61 -66zM569 43q37 13 64 29q60 31 97.5 91t39.5 128q0 50 -15 93t-46.5 80t-58.5 60.5t-72 57.5q-5 3 -8.5 4t-8 -7.5t-4.5 -29.5v-477q0 -17 3 -24t9 -5z" />
<glyph unicode="%" horiz-adv-x="1841" d="M483 -61l-41 16q-17 17 -6 35l887 1491q3 8 14 10t19 -6l35 -17q15 -15 6 -34l-885 -1489q-9 -18 -29 -6zM385 584q-87 0 -143 39q-25 16 -45 38t-33 48.5t-20 46t-16 47.5q-2 7 -3 10q-20 82 -22.5 173.5t20.5 186.5t72 158q84 109 241 109h13q104 0 172 -51 q57 -48 98 -146q0 -5 2 -14t2 -15q18 -76 18 -137q12 -146 -22 -248q-45 -134 -150 -194q-77 -51 -184 -51zM436 641q55 5 105 45q39 49 57 127q0 2 3 9t3 14q10 102 10 120q0 144 -16 220q-30 124 -92 172q-52 41 -105 41h-6q-61 -11 -80 -35q-8 -7 -15.5 -16.5t-14 -22.5 t-11 -22.5t-9.5 -26t-7 -23t-6.5 -25t-5.5 -20.5q-21 -113 -10 -270q14 -150 79 -230q40 -57 121 -57zM1380 -10q-87 0 -145 41q-72 48 -115 184q-21 84 -23 175.5t21 186.5t72 160q83 111 242 111h10q93 0 174 -57q60 -46 96 -146q0 -2 3 -10.5t3 -11.5q19 -54 19 -144 q8 -143 -25 -241q-49 -145 -149 -201q-83 -47 -179 -47h-4zM1438 47q49 0 96 47q41 41 57 121q6 6 6 23q13 51 13 127q0 139 -19 219q-25 114 -86 166q-47 41 -108 41q-44 0 -86 -29q-42 -42 -70 -162q-19 -152 -6 -264q9 -155 76 -232q51 -57 127 -57z" />
<glyph unicode="&#x26;" horiz-adv-x="1701" d="M520 -25q-67 -1 -138.5 20.5t-136.5 64t-112.5 104.5t-65 140.5t6.5 172.5q1 9 4.5 25t25 65t54 96.5t99.5 111.5t155 118q25 16 -6 51q-111 119 -111 275q0 46 14 88t44 80t84 60.5t126 22.5q48 0 88.5 -11t67 -28t47 -38t31 -42t17.5 -38t9 -28l2 -11 q13 -98 -33.5 -174.5t-142.5 -143.5q-15 -12 -16 -20t12 -23q53 -50 116 -116.5t99.5 -107.5t92 -106t59.5 -69q13 -15 26.5 -17t23.5 7t15 15.5t8 12.5q110 210 175 367q7 10 2.5 28.5t-23.5 26.5q-42 15 -119 23q-20 2 -24 12q-1 4 -1.5 9.5t5.5 14t22 7.5q74 -12 269 -12 q62 0 126 3t97 6l33 3q14 1 20 -7t5 -16l-1 -8q-1 -3 -3 -5t-4.5 -3t-5 -1.5t-4.5 -0.5h-1q-83 -6 -180 -25q-48 -9 -101 -63.5t-93.5 -123.5t-76 -144t-54 -123.5t-22.5 -63.5q-11 -44 2.5 -92.5t40 -86.5t55 -69t49.5 -48l21 -17q36 -34 81.5 -45t84.5 -2.5t73 22.5t53 28 l20 13q2 2 5.5 1t6.5 -3l4 -2q6 -6 7.5 -11.5t0.5 -7.5l-2 -3q-55 -49 -110.5 -80.5t-95 -41t-71 -12.5t-47.5 1l-16 4q-146 37 -250 211q-20 26 -53 -9q-187 -211 -465 -211zM610 1001q5 3 14 9.5t31 30.5t37.5 52t25 76t3.5 101q0 6 -2 16.5t-12 37.5t-26 47t-49 37 t-77 17q-57 0 -95 -23.5t-52 -62.5q-12 -45 -14 -79t13.5 -71t37.5 -69t59 -73q47 -51 60 -57q17 -8 46 11zM489 115q42 -7 77 -10t90 1.5t100.5 20t97 52t92.5 91.5q15 23 16 37.5t-16 46.5q-47 83 -156.5 211t-207.5 228q-55 52 -76.5 60t-56.5 -11q-163 -109 -205 -250 q-2 -8 -5.5 -22.5t-8 -56.5t-2.5 -81.5t15.5 -91t40.5 -93t79.5 -78t125.5 -54.5z" />
<glyph unicode="'" horiz-adv-x="354" d="M182 999q-14 0 -24.5 10t-10.5 23q-12 102 -28.5 199.5t-26.5 144.5l-10 47v7q0 25 22 32q33 9 69.5 9t56.5 -5l20 -4q22 -7 22 -32v-7q-18 -76 -32.5 -173.5t-19.5 -157.5l-5 -60q0 -14 -9.5 -23.5t-23.5 -9.5z" />
<glyph unicode="(" horiz-adv-x="647" d="M582 -479q-99 61 -179 149t-128.5 179.5t-84.5 187.5t-52 180t-25 151t-10 106l-1 38q0 136 26.5 265t67.5 224.5t93.5 181.5t101.5 142.5t94.5 100t68.5 61.5t28 20l7 1q7 -3 7 -25q0 -17 -14 -35q-69 -80 -124.5 -174.5t-89.5 -182.5t-58.5 -175.5t-35.5 -159t-17 -127 t-7 -86.5v-31q0 -119 18.5 -235t47.5 -206t64.5 -171t71 -138.5t64.5 -100t48 -63.5l18 -20q7 -7 10.5 -15.5t3.5 -12.5v-5q0 -29 -10 -26z" />
<glyph unicode=")" horiz-adv-x="647" d="M63 -479l-5 -2q-7 1 -7 26q-2 17 12 33q13 14 35.5 41t80 119t101 193t79.5 259t36 322q0 11 -0.5 31.5t-6 85t-16.5 129.5t-35.5 157t-58.5 177t-90 180.5t-125 175.5q-6 8 -9 17t-3 13v5q0 27 9 26l3 -2q4 -1 29 -20t69.5 -61.5t94 -100t101.5 -142.5t93.5 -181.5 t68 -225t26.5 -264.5q0 -14 -1 -39.5t-10 -103.5t-25.5 -153.5t-52.5 -177.5t-85 -189.5t-129 -177t-179 -150.5z" />
<glyph unicode="*" horiz-adv-x="655" d="M358 958q-13 0 -21.5 10.5t-8.5 24.5v162q0 8 -6 9.5t-11 -3.5l-139 -80q-26 -13 -41 11q-18 27 12 47l140 80q4 5 4 9.5t-2 6.5l-2 2l-146 80q-13 7 -16 21.5t6 27.5q17 26 45 10l139 -82q7 -4 12 1.5t5 11.5v155q0 35 32 35q13 0 22 -10t9 -25v-155q0 -13 12 -13 l140 82q24 15 43 -10q18 -27 -8 -43l-140 -80q-12 -12 0 -24l140 -80q11 -6 15 -19.5t-3 -25.5q-7 -13 -22 -16.5t-25 3.5l-133 80q-9 5 -13 2.5t-5 -8.5l-1 -6v-156q0 -14 -9.5 -24.5t-23.5 -10.5z" />
<glyph unicode="+" horiz-adv-x="1132" d="M535 127q-9 0 -17 8t-8 17v354q0 13 -8.5 22t-22.5 9h-354q-9 0 -16 7t-7 17v60q0 10 7 17t16 7h356q29 0 29 29v356q0 10 8 17.5t17 7.5h61q22 0 22 -25v-356q0 -29 33 -29h355q9 0 16.5 -7t7.5 -17v-60q0 -10 -7.5 -17t-16.5 -7h-355q-33 0 -33 -31v-354 q0 -10 -6 -17.5t-16 -7.5h-61z" />
<glyph unicode="," horiz-adv-x="395" d="M111 -180q-18 22 4 30q53 21 80.5 52.5t27.5 66.5q0 50 -16 67.5t-53 26.5q-58 14 -58 72q0 23 18.5 39t49.5 16q50 0 99.5 -43t49.5 -120q0 -134 -133 -201q-52 -25 -69 -6z" />
<glyph unicode="-" horiz-adv-x="665" d="M145 553q-9 0 -15.5 6.5t-6.5 15.5v58q0 9 6.5 15.5t15.5 6.5h375q9 0 16 -6.5t7 -15.5v-58q0 -9 -7 -15.5t-16 -6.5h-375z" />
<glyph unicode="." horiz-adv-x="419" d="M195 -14q-43 0 -73 29.5t-30 72.5t30 72.5t73 29.5t72.5 -29.5t29.5 -72.5t-29.5 -72.5t-72.5 -29.5z" />
<glyph unicode="/" horiz-adv-x="552" d="M20 -72q-23 0 -20 27l440 1528q12 24 35 24h37q10 0 16.5 -7.5t3.5 -16.5l-440 -1530q-3 -11 -13 -18t-22 -7h-37z" />
<glyph unicode="0" horiz-adv-x="1222" d="M616 -16q-108 0 -195.5 41t-146 110t-98 164t-57 199t-17.5 219q0 148 32.5 279.5t93.5 233.5t159 162t219 60q91 0 168 -31t132 -85.5t97 -125.5t67 -155.5t37.5 -170.5t12.5 -175q0 -108 -19 -211t-59.5 -196.5t-99 -164t-142.5 -112t-184 -41.5zM618 45q81 0 143 42.5 t98 110t58.5 161.5t29.5 186t5 194q-2 100 -13 189.5t-36.5 176.5t-63.5 149.5t-98 101t-135 37.5q-71 -1 -126 -27.5t-90.5 -75t-59.5 -107.5t-36 -136.5t-17 -148.5t-5 -157q2 -74 7 -136t15.5 -136t26.5 -132.5t42.5 -115.5t61 -94.5t84 -60t109.5 -21.5z" />
<glyph unicode="1" horiz-adv-x="851" d="M209 -16q-4 -1 -7 1.5t-4 6t-1.5 7.5t-0.5 7l1 2q2 12 10 12q44 4 77 12.5t44 14.5l12 6q27 17 43 71t18 99l2 45q24 566 -14 887q-6 43 -17.5 69.5t-24 34.5t-26.5 11.5t-24 -0.5q-7 -1 -33.5 -7.5t-61.5 -13t-69 -10.5q-14 -2 -22.5 6t-8.5 23q0 8 3.5 12.5t7 5.5 t12.5 4q257 57 450 158q7 4 15 4q15 0 16.5 -17t-6.5 -28q-42 -72 -55 -236q-11 -142 -11.5 -450t5.5 -453q0 -20 2.5 -50t18.5 -89t42 -76q31 -23 135 -33q11 0 13 -12q-1 -1 0 -6.5t-3 -12t-12 -5.5q-160 16 -262 16q-44 0 -110 -4t-110 -8z" />
<glyph unicode="2" horiz-adv-x="1089" d="M88 -16q-20 -1 -24.5 9.5t1.5 22.5t15 21q33 33 114 111.5t135 131.5t129.5 142t124 165.5t90.5 177t56 200.5q11 85 4 147.5t-29 106t-50.5 72.5t-59.5 45t-57 23.5t-43 8.5l-17 2q-46 0 -90 -11.5t-74 -27.5t-53.5 -32t-35.5 -27l-11 -12q-11 -11 -29 -11q-36 0 -14 43 q25 48 94 86.5t126 53.5l56 14q96 12 168 2t122.5 -38t83.5 -67.5t51.5 -86.5t27 -95t9 -92.5t-2.5 -79t-7 -55.5l-3 -21q-10 -45 -31.5 -94.5t-45.5 -92t-65 -99t-70.5 -94t-84.5 -99t-84.5 -93t-91.5 -97.5t-86 -92q-12 -10 -10 -22t24 -15q52 -3 136.5 -8t114.5 -7t86 -4 t90.5 -1t85 3.5t110.5 7.5q38 6 46.5 -1.5t6.5 -30.5l-4 -54q3 -39 -29 -36q-224 16 -450.5 16t-340.5 -8z" />
<glyph unicode="3" horiz-adv-x="999" d="M424 -16q-88 0 -165 23.5t-117 54t-40 57.5q0 18 25 18q16 0 40.5 -13.5t49.5 -29.5t73 -29.5t105 -13.5q165 0 266 102t101 263q0 89 -33 159.5t-86 112t-113.5 63t-121.5 21.5h-12h-13h-11.5t-10.5 1t-7.5 2.5t-5.5 4t-2 6.5q0 13 23.5 28.5t58.5 30.5t76 42.5t76 61 t58.5 89t23.5 123.5q0 108 -56 161.5t-157 53.5q-59 0 -107.5 -19t-72.5 -41.5t-46.5 -41.5t-36.5 -19q-24 0 -12 37q8 21 31.5 46t62.5 52t100.5 44.5t131.5 17.5q135 0 216 -64.5t81 -179.5q0 -103 -64 -193.5t-158 -148.5q-19 -11 -6 -14q64 -4 127 -39t112 -91 t79.5 -135t30.5 -165q0 -132 -69 -233t-180.5 -153t-244.5 -52z" />
<glyph unicode="4" horiz-adv-x="1325" d="M825 -37q-12 -4 -20 4q-13 10 -6 25q6 10 8 47q12 270 12 350q0 17 -16 17q-529 0 -686 -7l-10 4q-18 14 26 66q150 169 378.5 474.5t313.5 465.5q8 15 44.5 25.5t68.5 13.5l33 4q19 0 14 -22q-23 -95 -31 -257.5t-8 -455.5q0 -35 1 -91t1 -87q0 -14 7 -20.5t16 -6.5 q240 0 299 4q1 -1 11.5 0.5t18 -6t0.5 -23.5q-24 -49 -30 -77q0 -2 -1 -4.5t-8 -7t-18 -3.5q-135 11 -276 11q-17 -1 -17 -17q8 -288 15 -369q0 -20 -21 -20q-29 0 -119 -37zM717 512h78q26 -3 26 20q0 33 1 92t1 93q0 338 -14 463q-2 22 -27 1q-7 -7 -16 -18 q-43 -54 -78.5 -99t-71.5 -93.5t-57.5 -78t-59 -84.5t-53 -78t-63 -94.5t-66.5 -100.5q-11 -17 7 -19q103 -4 393 -4z" />
<glyph unicode="5" horiz-adv-x="1046" d="M401 -16q-41 -2 -104 5.5t-107 20.5q-27 10 -46.5 24.5t-20.5 28.5q-4 27 31 78q4 6 9 11.5t15 11.5t23.5 0.5t27.5 -23.5q76 -106 183 -108q105 3 211 86q9 7 23.5 21.5t39.5 45.5t43 67.5t35.5 86.5t16 102.5t-16.5 116.5q-1 4 -3 11t-11.5 28t-20.5 41t-32 45.5 t-45 46.5t-59.5 39.5t-75.5 28t-94 9t-114 -14.5q-47 -12 -98 -43q-27 -14 -37 6l-6 14q-4 13 2 21q4 8 6 22q20 99 22 266.5t-12 263.5q-1 5 -3 12.5t-2.5 27t3.5 34t18.5 26t39.5 9.5q78 -6 309.5 -6t310.5 6q21 2 29 -7.5t6 -19.5l-2 -10q-10 -44 -22.5 -59t-32.5 -15 q-22 0 -113.5 17.5t-185.5 17.5h-195q-4 0 -7.5 -1t-5.5 -2t-4 -3.5t-3 -4t-1.5 -6t-1 -6t-1 -7.5t-0.5 -7q-3 -33 -4 -72t-1 -68t1.5 -76t3 -69.5t4.5 -76.5t4 -70q1 -21 8.5 -28.5t19.5 -1.5q60 24 127 24q51 0 97.5 -5.5t67.5 -11.5l20 -5q72 -18 125.5 -55.5t81.5 -82.5 t45 -95.5t19.5 -97.5t1.5 -85t-5 -61l-4 -23q-24 -97 -80 -172t-118.5 -116t-133 -67t-119 -33.5t-82.5 -6.5z" />
<glyph unicode="6" horiz-adv-x="1128" d="M586 -16q-126 0 -219.5 36.5t-151 105.5t-85.5 161t-28 209q0 12 0.5 34.5t10 90.5t27 135.5t58.5 160t97.5 174.5t149.5 168.5t210 151.5q3 2 9 5t22.5 9t31.5 9t33 1.5t31 -10.5q5 -4 6.5 -8.5t-3.5 -11t-19 -12.5q-10 -3 -27.5 -10.5t-67.5 -38t-96 -70.5t-101.5 -113 t-96 -160t-68.5 -216.5t-28 -278.5q0 -112 26.5 -202t72 -146t102.5 -85.5t120 -29.5q81 0 141 34.5t95 88.5q39 61 47.5 144t-20.5 175t-95 164q-75 75 -180.5 88t-183.5 -39q-12 -3 -19 4.5t2 22.5q3 3 8 7.5t22.5 18.5t36 24t48.5 24.5t60 20.5t70.5 11t80.5 -4 q7 0 18 -2t43 -11.5t61.5 -25t65.5 -46.5t62 -72t43.5 -105.5t17.5 -142.5q0 -206 -124.5 -322t-315.5 -116z" />
<glyph unicode="7" horiz-adv-x="1062" d="M152 -37q-16 0 -21 8q-3 6 0.5 13.5t20.5 35.5q321 551 651 1289q20 40 16 55.5t-43 15.5h-235q-107 0 -233 -17t-161 -17q-25 0 -36 11t-9 23l2 11q7 34 14.5 48t24.5 13q173 -6 446.5 -6.5t411.5 6.5q31 2 39 -14q8 -15 -8 -37q-137 -189 -368 -654.5t-330 -723.5 q-14 -40 -45 -50q-27 -10 -137 -10z" />
<glyph unicode="8" horiz-adv-x="1077" d="M451 -14q-221 12 -316 184q-22 40 -32.5 80t-11.5 75t10 72.5t24 66.5t39 64t46.5 59t54.5 56.5t55.5 51t56.5 48.5q10 9 3.5 20.5t-34.5 35.5q-34 31 -49.5 46.5t-38.5 46.5t-37 66q-41 107 -11.5 204t103.5 170.5t166 101.5q51 16 106 17t106 -11t96 -39t77 -64.5 t47.5 -90t8.5 -113.5q-11 -95 -66 -162t-162 -148q-9 -8 -8 -17t12 -15q48 -24 85 -46.5t81 -57.5t74 -72t52 -87t26 -106q5 -79 -24.5 -150.5t-84.5 -124.5t-128 -91.5t-157.5 -56.5t-168.5 -13zM567 844q30 -14 38.5 -12.5t35.5 20.5q60 51 90 113q43 85 44.5 176.5 t-47.5 163t-144 86.5q-105 16 -168.5 -47t-71.5 -158q-6 -76 27.5 -153.5t107.5 -133.5q40 -28 88 -55zM371 123q67 -51 154.5 -62.5t174 23.5t140.5 113q42 60 43.5 121.5t-27 113t-85.5 104t-119.5 93t-141.5 82.5q-43 23 -57 23.5t-39 -19.5q-81 -67 -123 -153.5 t-42 -167.5t31.5 -153.5t90.5 -117.5z" />
<glyph unicode="9" horiz-adv-x="1089" d="M264 -2q-14 18 15 33q13 6 34.5 18.5t83 57.5t116.5 97t120.5 138.5t110 182t69.5 227t14 272.5q0 8 -1.5 21t-9 52t-19 74t-35 77.5t-53 73.5t-77 52t-104.5 21q-98 0 -170.5 -47.5t-105 -120.5t-29.5 -163.5t47 -174.5q33 -74 135 -138.5t205 -43.5q14 5 21.5 -0.5 t-2.5 -26.5q-2 -3 -6 -8t-20.5 -19t-41 -20t-67.5 -11.5t-99 5.5q-7 1 -18 3.5t-43.5 14.5t-62 28.5t-65.5 47.5t-62 69t-44 96.5t-18 127.5v24.5t7.5 61t22 86.5t47.5 91.5t78.5 86.5t121.5 61t171 25q241 0 359.5 -138.5t118.5 -393.5q1 -11 0.5 -31t-10.5 -83t-29.5 -126 t-65 -152.5t-108.5 -171.5t-168 -173.5t-236 -166.5q-4 -2 -10.5 -5.5t-24.5 -11t-33.5 -11t-32.5 -1.5t-26 13z" />
<glyph unicode=":" horiz-adv-x="450" d="M215 745q-41 0 -71.5 30.5t-30.5 72.5q0 41 30.5 71.5t71.5 30.5q42 0 72 -30t30 -72q0 -43 -29.5 -73t-72.5 -30zM215 -14q-41 0 -71.5 30.5t-30.5 71.5q0 42 30 72t72 30q43 0 72.5 -29.5t29.5 -72.5q0 -42 -30 -72t-72 -30z" />
<glyph unicode=";" horiz-adv-x="401" d="M195 745q-42 0 -72.5 31.5t-30.5 71.5q0 42 30 72t73 30q40 0 71 -30.5t31 -71.5q0 -40 -31 -71.5t-71 -31.5zM109 -182q-18 22 4 30q53 21 80.5 52.5t27.5 66.5q0 50 -16 67.5t-53 26.5q-58 14 -58 72q0 23 18.5 39t49.5 16q50 0 99.5 -43t49.5 -120q0 -134 -133 -201 q-52 -25 -69 -6z" />
<glyph unicode="&#x3c;" horiz-adv-x="1159" d="M1032 119l-868 420l-35 16q-10 4 -18.5 16t-8.5 21v4q0 23 25 37l893 434q12 7 18 -2.5t6 -22.5l3 -59q0 -12 -25 -27l-696 -338q-5 -3 -12 -7.5t-8.5 -17.5t20.5 -24l706 -340q21 -6 23 -14q1 -2 0 -6l2 -64q0 -10 -8 -19.5t-17 -6.5z" />
<glyph unicode="=" horiz-adv-x="1056" d="M123 694q-21 0 -21 23v55q0 23 21 23h809q9 0 15.5 -6.5t6.5 -16.5v-55q0 -10 -6.5 -16.5t-15.5 -6.5h-809zM123 373q-9 0 -15 6t-6 14v58q0 10 6 17t15 7h809q9 0 15.5 -7t6.5 -17v-58q0 -8 -6.5 -14t-15.5 -6h-809z" />
<glyph unicode="&#x3e;" horiz-adv-x="1153" d="M127 127q-12 -7 -18.5 2.5t-6.5 22.5v61q0 13 25 25l700 327q5 3 12 7.5t8.5 17.5t-20.5 24l-700 351q-2 1 -6.5 3t-6.5 2.5t-5 2.5t-4 3.5t-2 4.5t-1 6v64q0 10 8.5 19t16.5 5l864 -430l35 -18q10 -4 17.5 -16t7.5 -21v-4q0 -23 -25 -37z" />
<glyph unicode="?" horiz-adv-x="907" d="M414 328q-16 0 -31 10q-31 20 -56 51t-35 53l-9 21q-10 38 -4.5 65.5t17.5 43.5l13 16q104 112 176.5 203.5t93.5 126.5l21 36q33 64 43.5 125t2 103t-21 74.5t-25.5 48.5l-13 16q-32 44 -79 61t-91.5 10t-84 -20t-63.5 -27l-24 -14q-21 -13 -37 -41q-29 -57 -37 -145 q0 -25 -10 -29q-2 0 -5 -0.5t-11 -0.5t-14.5 2.5t-11.5 9.5t-5 18q0 39 -2.5 81.5t-5.5 65.5l-3 23q-4 28 19 53t59.5 41.5t73.5 28.5t64 17l26 5q96 17 168.5 7t122 -38t80.5 -58t45 -53l14 -24q37 -82 30 -162.5t-45 -153.5t-81.5 -129t-77.5 -89l-35 -33 q-47 -48 -81.5 -90t-50.5 -68.5t-25 -46t-10 -27.5l-1 -8q-1 -24 7.5 -49.5t17.5 -39.5l8 -13q12 -20 12 -31q0 -26 -28 -26zM403 -39q-44 0 -77 34t-33 77q0 47 33 81.5t77 34.5q47 0 81 -34.5t34 -81.5q0 -43 -34 -77t-81 -34z" />
<glyph unicode="@" horiz-adv-x="1486" d="M1065 918q11 0 20 -9.5t5 -27.5q-31 -150 -68 -375t-41 -297q0 -59 47 -59q48 0 97 25.5t93.5 75t72.5 136t28 195.5q0 120 -31.5 218.5t-83 164t-119.5 110.5t-139 64.5t-143 19.5q-172 0 -314 -90.5t-221.5 -242.5t-79.5 -330q0 -187 69 -333t201.5 -230.5t307.5 -84.5 q86 3 159.5 23t123.5 51t82 60t55 61q12 16 31 8l10 -6q17 -8 4 -31q-86 -119 -208.5 -172t-291.5 -53q-101 0 -198 27t-182.5 83t-150 134t-102 187.5t-37.5 236.5q0 113 31.5 222t95 205t151.5 169.5t209.5 116t260.5 42.5q154 0 273.5 -50.5t193.5 -140t111.5 -205 t37.5 -251.5q0 -105 -39 -203t-102 -167t-146 -110.5t-169 -41.5q-37 0 -74 26.5t-51 69.5q-99 -96 -211 -96q-72 0 -128 29.5t-88.5 80t-48.5 110.5t-16 126q0 121 27.5 218.5t71.5 158.5t101.5 102t114 57.5t113.5 16.5q73 0 111.5 -23.5t60.5 -70.5q2 4 9 19t10 24 q9 27 35 27h59zM903 547q10 94 6.5 170t-32.5 124t-80 48q-125 0 -210 -147.5t-85 -379.5q0 -108 44.5 -180.5t108.5 -72.5q113 0 164 93.5t84 344.5z" />
<glyph unicode="A" d="M20 -16q-12 -1 -17 6t-4 14l1 8q0 4 4 6t8 2h4q54 8 66 11q19 4 42 15t59.5 35.5t76 74.5t72.5 118q276 589 454 1108q4 18 35 39.5t59 34.5l29 12h13q4 -2 6 -5.5t2 -6.5v-2q0 -71 16 -117q67 -181 239 -575.5t263 -583.5q26 -55 53 -88.5t41 -39.5l14 -7 q30 -13 113 -23q17 0 19 -8q0 -6 0.5 -12.5t-5.5 -11.5t-18 -4q-137 16 -215 16q-44 0 -101 -4t-93 -8l-35 -4q-12 -1 -17.5 6t-5.5 14v8q1 4 5 6t7 2h4l58 9q20 2 33 18t0 55q-74 198 -183 457q-6 16 -15.5 23t-31.5 8q-55 4 -236 4t-235 -4q-16 -1 -28 -9.5t-16 -16.5 l-5 -9q-109 -265 -166 -414q-10 -27 -8 -47t8.5 -32.5t17.5 -19.5t18 -10t9 -3q20 -6 53 -9q15 0 17 -8q-1 -1 0 -7.5t-5 -14t-18 -6.5q-131 16 -229 16q-42 0 -100 -4t-95 -8zM637 664q46 -6 202 -6t203 6q21 3 24 10q5 11 -7 39q-116 265 -207 458q-6 13 -15.5 13 t-15.5 -13q-32 -71 -99 -226t-101 -232q-17 -41 16 -49z" />
<glyph unicode="B" horiz-adv-x="1208" d="M84 -16q-12 -2 -17 5t-5 15l1 8q1 3 5 5t8 3h4q49 5 82.5 12.5t41.5 11.5l9 5q25 12 40.5 66.5t18.5 103.5l2 49q6 157 6.5 459t-6.5 438q0 20 -2.5 51.5t-18 92t-40.5 77.5q-22 17 -133 27q-15 2 -17 10q1 1 -0.5 8.5t4 15t17.5 5.5q108 -18 268 -18q70 0 166 8 q87 10 219 10t210.5 -75t78.5 -228q0 -127 -52 -214.5t-175 -137.5q-6 -3 -6 -6t6 -5q46 -11 88.5 -28.5t87 -47.5t77 -68t53.5 -93.5t21 -120.5q0 -168 -81 -281t-246 -147q-54 -12 -118 -14.5t-101 -1t-109 7.5q-72 8 -131 8q-64 0 -128 -4t-96 -8zM688 43q69 0 121.5 30 t84 83.5t47 122t15.5 149.5q0 153 -121.5 232t-328.5 79q-10 0 -16.5 6.5t-6.5 18.5q0 10 7 16t16 6q43 0 83 5.5t94 27.5t92 58.5t65.5 106.5t27.5 163q0 88 -32 145.5t-88.5 81.5t-126.5 24t-152 -22q-35 -10 -39 -78q-11 -241 -12 -567.5t10 -570.5q1 -16 11.5 -33 t36 -37.5t80.5 -33.5t132 -13z" />
<glyph unicode="C" horiz-adv-x="1495" d="M817 -39q-113 0 -207.5 15.5t-180 51.5t-151 93t-115 143t-77.5 199q-51 205 6.5 412.5t207.5 361.5t353 205q109 28 228 28q190 0 462 -75q24 -8 21 -25q-5 -67 -6.5 -122t-0.5 -77l1 -22q1 -12 -11 -17.5t-24 -4.5l-12 1q-4 1 -7 5.5t-4 8.5v5q-1 49 -5.5 83t-8.5 43 l-4 9q-5 8 -12 16t-13 13t-15.5 10.5t-14.5 8t-15.5 7.5t-13.5 6q-147 61 -304 66.5t-269 -39.5q-157 -58 -256.5 -182t-130.5 -278.5t0 -323.5q48 -256 217 -411t413 -155q217 0 375 68q43 18 62 49q18 22 26 133q3 19 21 19q21 0 32.5 -5t8.5 -18q-23 -84 -23 -203 q2 -17 -11 -29.5t-27 -15.5l-13 -4q-263 -53 -502 -53z" />
<glyph unicode="D" horiz-adv-x="1669" d="M80 -16q-10 -1 -14.5 6t-3.5 14l1 8q0 8 15 8q23 2 42.5 5.5t32.5 6t23.5 5.5t16.5 5.5t10 4.5t5.5 3t0.5 1q26 17 41.5 71.5t17.5 99.5l2 46q8 161 8 449t-8 448q0 8 -0.5 21.5t-4.5 49t-9.5 63.5t-17.5 54.5t-27 32.5q-22 15 -135 27q-13 0 -13 8q0 1 -0.5 3.5t0 8 t1.5 9.5t5.5 7.5t10.5 2.5q119 -18 260 -18q20 0 246.5 10t322.5 8q298 -5 476.5 -208t158.5 -523q-20 -330 -204.5 -514t-503.5 -215q-119 -10 -177.5 -8t-158.5 9t-162 7q-79 0 -143.5 -4t-89.5 -8zM909 63q73 12 136.5 40t108 66t81 83.5t60 93.5t41 94.5t26 88t13.5 73 t6 50.5l1 18q4 102 -11 193.5t-43 157t-62.5 121t-69.5 90.5t-64.5 59.5t-47.5 34.5l-19 11q-158 97 -565 27q-51 -8 -54 -39q-17 -250 -19 -520.5t4 -434.5t15 -241q5 -30 41 -49q68 -32 173.5 -36t177.5 8z" />
<glyph unicode="E" horiz-adv-x="1165" d="M84 -16q-12 -2 -17 5t-5 15l1 8q1 4 5 6t8 2h4q48 5 81 13t41 13l9 5q24 16 39 71.5t18 103.5l2 48q8 158 8 444.5t-8 444.5q0 7 -0.5 19.5t-4.5 46t-9.5 61.5t-17.5 55.5t-27 38.5q-22 17 -131 29q-15 2 -17 8q-6 7 -1.5 21t22.5 10q125 -18 266 -18q304 -2 592 18h9 t11.5 -6.5t2.5 -20.5q-25 -71 -19 -172l6 -47q2 -12 -5 -17t-15 -4l-8 1q-4 1 -6 5t-2 7l-1 4q-4 48 -11 81t-12 41l-5 9q-40 60 -213 60q-122 0 -201 -27q-21 -6 -30.5 -14t-12.5 -25q-13 -206 -16 -471q0 -20 11.5 -31.5t27.5 -13.5q208 -9 346 2q46 3 51 43q7 33 12 86 q0 14 10 16q7 2 12 2t11 -5t4 -17q-10 -55 -12 -170q2 -49 5 -89.5t5 -56.5l2 -16q1 -11 -3 -16t-9.5 -4.5t-9.5 0.5q-5 1 -9 5t-5 7l-1 4q-6 65 -14 88q-9 36 -49 39q-133 10 -340 4q-45 -3 -45 -39q0 -309 14 -571q5 -36 41 -45q37 -9 98 -14.5t103 -7.5l43 -1 q206 0 291 25q15 5 26 20q19 20 37 129q2 17 10 17h1q7 0 11.5 -0.5t10.5 -6.5t4 -18q-15 -45 -25 -147v-39q1 -10 -3 -19.5t-8 -13.5l-5 -4q-11 -9 -36.5 -12t-45.5 -2l-20 2q-151 7 -304 10.5t-230 3.5h-77q-82 0 -148.5 -4t-91.5 -8z" />
<glyph unicode="F" horiz-adv-x="1030" d="M84 -16q-12 -2 -17 5t-5 15l1 8q1 4 3.5 6t5.5 2h2q48 5 82.5 13t44.5 13l10 5q25 16 40 71.5t17 102.5l2 47q8 160 8 446.5t-8 444.5q0 21 -2 52.5t-17 92t-40 76.5q-27 19 -131 29q-17 2 -17 8q1 1 -0.5 8.5t4 15.5t17.5 7q139 -18 266 -18q327 0 592 18h10t13 -6.5 t2 -20.5l-4 -8q-30 -69 -15 -164l6 -47q3 -16 -8.5 -20.5t-17.5 0.5q-4 2 -6.5 6t-3.5 7v3q-5 48 -13 81t-13 41l-5 9q-23 34 -75 47t-138 13q-109 0 -199 -25q-42 -9 -45 -39q-13 -219 -16 -506q3 -41 39 -45q199 -9 321 2q4 0 11 2t21 13t19 28q8 38 15 86q0 17 8 17 q1 -1 7.5 0.5t13.5 -4t5 -17.5q-10 -51 -12 -166q2 -51 5 -92.5t5 -57.5l2 -16q2 -12 -3.5 -17.5t-12.5 -5.5l-6 1q-4 1 -7 5.5t-4 8.5l-1 4q-10 66 -17 88q-9 34 -49 39q-121 10 -315 4q-45 -3 -45 -38q0 -172 8 -410q13 -172 59 -201q28 -19 137 -31q9 0 11 -8 q-1 -1 0.5 -8t-4 -14.5t-17.5 -5.5q-80 14 -262 16q-81 -1 -146.5 -5t-90.5 -7z" />
<glyph unicode="G" horiz-adv-x="1619" d="M786 -37q-103 3 -186.5 17t-161 44.5t-137.5 77.5t-109.5 117.5t-82.5 163.5q-45 123 -47.5 252.5t36.5 247t109 220.5t172 182t223 124q119 44 252 56t259 -3.5t253 -54.5q18 -5 23 -14q6 -8 6 -29q-4 -57 -4 -115.5t2 -88.5l2 -30q0 -12 -12.5 -16.5t-24.5 -3.5l-12 2 q-3 1 -4.5 5t-1.5 7l-1 4q-4 78 -16 119q-34 90 -166 127q-245 65 -467 6q-216 -57 -350 -243.5t-121 -431.5q8 -151 61.5 -281t155 -229.5t240.5 -145.5q63 -21 141 -27t138 -2t145 15q85 15 106 41q8 10 13.5 25t8 27.5t4 34.5t2 32.5t0 36.5t-0.5 32q0 109 -18.5 188.5 t-51.5 96.5q-38 19 -192 33q-15 2 -19 12q-4 11 1.5 23.5t21.5 11.5q86 -15 303 -17q80 -1 145 3.5t90 8.5l25 5q12 1 17 -7.5t5 -17.5l-1 -8q-1 -5 -5 -8.5t-8 -4.5l-4 -1q-48 -5 -81.5 -13.5t-42.5 -14.5l-9 -5q-62 -44 -59 -285q3 -82 28 -162q13 -44 -2 -63 q-6 -6 -26 -14q-229 -73 -564 -62z" />
<glyph unicode="H" horiz-adv-x="1665" d="M102 -16q-12 -2 -17 5t-4 15l1 8q0 3 4 5t8 3h4q48 5 81 13t41 13l9 5q25 16 40 71.5t17 102.5l3 47q7 160 7 446.5t-7 444.5q0 21 -2 52.5t-17.5 92t-40.5 76.5q-22 17 -131 29q-16 2 -16 8q-1 4 -1.5 9.5t4.5 14t17 7.5q81 -18 263 -18q81 0 146.5 4.5t90.5 9.5l25 4 q12 1 17.5 -7t5.5 -16l-1 -8q-1 -3 -5.5 -5t-8.5 -2l-4 -1q-48 -5 -81 -12.5t-42 -12.5l-8 -4q-24 -16 -39 -71.5t-18 -102.5l-3 -47q-2 -43 -3 -135t-3 -141q-1 -23 16 -35.5t34 -13.5l18 -2q330 -14 661 0q3 0 7.5 0.5t16 3t20.5 7.5t16.5 15.5t7.5 24.5q0 24 -6 276 q-1 21 -3 52.5t-18 92t-41 76.5q-20 17 -131 29q-14 2 -16 8q1 1 0 8.5t4.5 15.5t17.5 7q80 -18 262 -18q80 0 145 4.5t91 9.5l25 4q13 1 18.5 -7t4.5 -16l-1 -8q-1 -3 -5 -5t-8 -2l-3 -1q-48 -5 -81 -12.5t-42 -12.5l-8 -4q-25 -16 -40 -71.5t-18 -102.5l-2 -47 q-8 -152 -8 -423t8 -468q0 -21 2 -52.5t17.5 -92t40.5 -76.5q22 -19 131 -31q14 -2 16 -8q-1 -1 0.5 -8t-4 -14.5t-18.5 -5.5q-81 14 -261 16q-81 -1 -146.5 -5t-90.5 -7l-25 -4q-12 -2 -17.5 5t-4.5 15v8q1 3 5 5t7 3h4q49 5 82 13t41 13l8 5q25 16 40.5 71.5t18.5 102.5 l3 47q8 246 8 414q0 2 -0.5 5t-4 11.5t-10.5 15t-21 12.5t-34 7q-329 11 -661 0q-20 -1 -34 -6t-21 -11.5t-10.5 -15t-4 -12t-0.5 -6.5q0 -168 8 -414q1 -21 3 -52.5t17.5 -92t39.5 -76.5q22 -19 131 -31q16 -2 18 -8q-1 -1 0 -8t-4.5 -14.5t-17.5 -5.5q-80 14 -262 16 q-81 -1 -146.5 -5t-90.5 -7z" />
<glyph unicode="I" horiz-adv-x="772" d="M123 -16q-12 -2 -17.5 4.5t-4.5 13.5l1 8q0 4 4 6.5t8 3.5h5q48 5 81 13t42 13l8 5q25 16 40 71.5t17 102.5l2 47q7 160 7 446.5t-7 444.5q0 21 -2 52.5t-17 92t-40 76.5q-22 17 -131 29q-17 2 -17 8q1 1 -0.5 8.5t4 15.5t17.5 7q80 -18 262 -18q81 0 146.5 4.5t90.5 9.5 l25 4q12 1 17.5 -7t5.5 -16v-8q-1 -3 -5.5 -5t-8.5 -2l-5 -1q-48 -5 -81 -12.5t-42 -12.5l-8 -4q-24 -16 -39 -71.5t-17 -102.5l-3 -47q-7 -158 -7 -444.5t7 -446.5q0 -21 2.5 -52.5t17.5 -92t39 -76.5q22 -19 131 -31q17 -2 19 -10q-1 -1 0 -7.5t-5 -13.5t-18 -5 q-80 14 -262 16q-81 -1 -146.5 -5t-90.5 -7z" />
<glyph unicode="J" horiz-adv-x="669" d="M-29 -477q-32 0 -32 37q0 14 16 14q17 1 44 4.5t84 22t83 45.5q53 53 85.5 136.5t33.5 229.5q1 348 0.5 433.5t-6.5 302t-9 413.5q-1 22 -3.5 54.5t-17 93.5t-38.5 75q-22 19 -135 29q-17 0 -17 10q1 1 0 8t4.5 14.5t16.5 6.5q82 -18 264 -18q81 0 147 4.5t91 9.5l26 4 q12 1 17 -6.5t5 -15.5l-1 -7q-1 -3 -2.5 -5t-3.5 -3t-4 -1.5t-3 -0.5h-2q-50 -4 -83.5 -11.5t-41.5 -12.5l-8 -5q-25 -13 -40.5 -68.5t-18.5 -105.5l-2 -49q-4 -87 -6 -239.5t-1.5 -282t1 -333.5t0.5 -292q0 -122 -62 -241q-5 -10 -14 -27t-43.5 -60t-74.5 -76t-107.5 -60 t-141.5 -27z" />
<glyph unicode="K" horiz-adv-x="1531" d="M84 -16q-12 -2 -17 4.5t-5 13.5l1 8q1 3 2.5 5t4 3t5 1.5t3.5 0.5h2q48 5 81 13t41 13l9 5q25 16 40 71.5t17 102.5l2 47q8 160 8 446.5t-8 444.5q0 20 -2 51.5t-17 91.5t-40 76q-22 19 -131 31q-15 2 -17 10q1 1 -0.5 7.5t4 13.5t17.5 6q80 -16 262 -16q81 0 146.5 4 t90.5 8l25 4q12 1 18 -6t6 -14l-1 -7q-1 -3 -3 -5t-4.5 -3t-5 -1.5t-4.5 -0.5h-2q-48 -5 -81 -13t-41 -13l-9 -5q-24 -16 -39 -71t-18 -101l-2 -47q-8 -158 -8 -444.5t8 -446.5q0 -21 2.5 -52.5t17.5 -92t39 -76.5q22 -19 131 -31q17 0 19 -10q-1 -1 0 -7.5t-5 -13.5t-18 -5 q-80 14 -262 16q-81 -1 -146.5 -5t-90.5 -7zM1292 -16q-34 0 -65 6.5t-50.5 15.5t-34 18.5t-20.5 15.5l-6 7q-52 63 -218.5 258.5t-244.5 290.5q-118 131 -143 133q-6 0 -18 12q-12 13 0 25q255 241 481 485q29 38 41.5 67t11 45t-12.5 27t-20 14t-20 5q-5 1 -18 2t-19 2 q-12 2 -14 10q-2 7 -2 11.5t5 10.5t17 5q72 -14 234 -16q71 1 129 5t80 7l22 4q9 1 14.5 -3t7 -9.5t1.5 -12.5q0 -5 -4 -8t-8 -3l-5 -1q-33 -2 -63 -10q-88 -24 -187 -109q-17 -15 -103 -88.5t-129.5 -112t-120 -109t-142.5 -136.5q-24 -24 -15 -35q36 -44 226 -262 q91 -107 266 -303q172 -183 305 -217q32 -8 66 -11q14 0 16 -10q3 -26 -16 -26h-224z" />
<glyph unicode="L" horiz-adv-x="1126" d="M84 -16q-12 -2 -17 4.5t-5 13.5l1 8q1 3 2.5 5t4 3t5 1.5t3.5 0.5h2q48 5 81 13t41 13l9 5q24 10 39 66t18 107l2 50q8 158 8 444.5t-8 444.5q0 8 -0.5 20.5t-4.5 47t-9.5 62.5t-17.5 55t-27 36q-22 17 -131 29q-15 2 -17 12q1 1 -0.5 7.5t4 13.5t17.5 6q121 -18 262 -18 q65 0 130 4.5t98 9.5l32 4q13 1 18.5 -6t5.5 -14l-1 -7q-1 -5 -5 -8t-8 -3l-4 -1q-48 -5 -81 -12.5t-41 -12.5l-9 -4q-25 -15 -40 -70t-17 -103l-2 -48q-9 -202 -7 -513.5t13 -526.5q5 -33 39 -43q37 -9 98 -14.5t103 -7.5l43 -1q103 0 170.5 10.5t85.5 20t24 18.5 q21 31 35 125q2 13 12 15q5 0 11.5 0.5t11.5 -6t2 -17.5q-15 -45 -25 -147v-41q3 -24 -14 -37q-13 -9 -39.5 -12.5t-46.5 -2.5l-20 1q-309 16 -568 16q-58 0 -124.5 -4t-103.5 -8z" />
<glyph unicode="M" horiz-adv-x="2091" d="M971 -59q-16 0 -19 18q-2 21 -8 41q-77 236 -194 532t-224 529q-4 8 -12 8q-6 0 -8 -10q-23 -142 -55.5 -410t-42.5 -418q-11 -159 30 -182q22 -17 131 -29q13 -2 15 -12q-1 -1 0.5 -7t-4 -12.5t-17.5 -4.5q-108 16 -239 16q-59 0 -119 -4t-91 -8l-30 -4q-12 -2 -17.5 4 t-4.5 13l1 7q0 4 3.5 7t6.5 4l3 1q47 5 80.5 12.5t43.5 11.5l9 5q64 36 92 223q79 522 115 893q2 25 -2 60q-10 67 -30.5 104.5t-68.5 56.5q-43 17 -129 27q-14 0 -16 12q1 1 0 8.5t5 14.5t18 4q115 -18 182 -18q38 0 86.5 9t58.5 9q25 0 37 -33q153 -457 469 -1157 q3 -6 8 -6q9 0 13 8q405 835 524 1157q5 14 15 21.5t17 8.5l7 1q15 0 59.5 -9t73.5 -9q58 0 168 18q12 3 17.5 -3.5t5.5 -14.5l-1 -7q-1 -5 -5.5 -8.5t-8.5 -4.5l-4 -1q-38 -4 -69.5 -11t-43.5 -12l-12 -4q-31 -13 -51.5 -40.5t-28 -60.5t-9.5 -57.5t-1 -47.5 q12 -276 90 -910q34 -198 92 -221q22 -17 131 -29q15 0 17 -12q-1 -1 0 -7t-5 -12.5t-18 -4.5q-149 16 -276 16q-52 0 -114 -4t-98 -8l-36 -4q-13 -2 -19 4t-6 13v7q1 5 4.5 8t7.5 4h3q47 5 79.5 12.5t41.5 11.5l8 5q42 22 33 211q-1 9 -1 12q-7 149 -31 405.5t-44 409.5 q-2 11 -11 11q-6 0 -12 -11q-113 -239 -158.5 -335.5t-117 -261.5t-150.5 -359q-14 -42 -14 -57q0 -11 -19 -31t-46.5 -46.5t-39.5 -45.5q-7 -10 -20 -10z" />
<glyph unicode="N" horiz-adv-x="1679" d="M1366 -55q-12 0 -18 14q-6 16 -19 35q-348 488 -883 1104q-7 7 -14 4q-6 -3 -6 -10q-5 -146 -5.5 -403.5t7.5 -414.5q4 -65 7.5 -98.5t16.5 -72.5t35 -54q20 -19 129 -29q17 0 19 -12q-1 -1 0 -7t-5 -12.5t-18 -4.5q-122 16 -237 16q-50 0 -110.5 -4t-96.5 -8l-35 -4 q-13 -2 -19 4t-6 13l1 7q1 4 5.5 7t8.5 4l4 1q44 4 76.5 11.5t43.5 12.5l11 5q56 32 64 225q4 163 4 443.5t-4 443.5q-2 68 -30 134t-83 89q-41 19 -129 29q-15 0 -17 12q1 1 -0.5 8t4 14t17.5 5q14 -2 44.5 -7.5t51.5 -8t47 -2.5q33 0 77 9t56 9q18 0 39 -35 q65 -101 274.5 -358t370.5 -446t279 -324q9 -9 16 -6q4 2 4 10q5 143 4.5 457t-8.5 464q-10 146 -55 170q-23 17 -127 29q-14 0 -16 12q-1 4 -1.5 9t4.5 13t17 5q111 -18 236 -18q54 0 114 4.5t93 9.5l34 4q12 3 17 -4t5 -15l-1 -8q-1 -5 -5 -8t-8 -3l-4 -1 q-49 -5 -82.5 -12.5t-41.5 -12.5l-9 -4q-22 -13 -36 -55t-17 -92q-12 -226 -11 -555t13 -561q2 -25 8 -41q5 -14 -6 -25q-42 -39 -76 -100q-5 -10 -18 -10z" />
<glyph unicode="O" horiz-adv-x="1665" d="M817 -39q-243 -11 -418.5 89t-257.5 315q-53 136 -58.5 274t31 257.5t109 225t169.5 181t218.5 120t251.5 47.5q162 3 298 -53t227 -154.5t142.5 -232t53.5 -285.5q0 -342 -209 -554.5t-557 -229.5zM961 39q161 33 276 149.5t162 287.5t12 360q-35 186 -137.5 327.5 t-249.5 205.5t-303 30q-161 -34 -279.5 -152t-168 -291.5t-15.5 -361.5q34 -184 141 -324.5t256.5 -202.5t305.5 -28z" />
<glyph unicode="P" horiz-adv-x="1206" d="M84 -16q-12 -2 -17.5 4t-4.5 13l1 7q1 5 5 8t8 4h4q48 5 81 13t41 13l9 5q24 16 39 71.5t18 102.5l2 47q8 160 8 445.5t-8 443.5q0 21 -2.5 52.5t-17.5 92t-39 76.5q-22 19 -131 31q-15 0 -17 12q1 1 -0.5 7.5t4 13.5t17.5 6q119 -18 229 -18q80 0 240.5 9t232.5 9 q80 0 143 -21.5t103 -57t66 -85t36.5 -102t10.5 -111.5q0 -170 -120 -311t-323 -178q-108 -18 -200 0q-21 5 -23 20q-1 14 6.5 21.5t18.5 5.5q30 -5 73.5 -7.5t119 11t124.5 49.5q48 36 86.5 91.5t62.5 126.5t18 159t-48 174q-46 89 -118 122.5t-208 33.5q-104 -5 -149 -21 q-31 -13 -39 -125q-10 -177 -11 -491.5t7 -483.5q5 -191 59 -221q22 -19 131 -31q15 0 17 -12q-1 -1 0.5 -7t-4.5 -12.5t-19 -4.5q-80 14 -260 16q-81 -1 -146.5 -5t-90.5 -7z" />
<glyph unicode="Q" horiz-adv-x="1671" d="M1778 -117q16 -5 16 -22q0 -12 -12 -21q-28 -24 -65.5 -45.5t-60.5 -30.5l-24 -10q-67 -21 -158 -1t-159 61q-36 19 -81 47t-68 41t-66 28t-101 25q-32 5 -149 10q-18 -2 -55 -2q-515 -3 -674 402q-53 135 -58.5 273.5t31 258.5t109.5 226t170 181.5t218 120t249 45.5 q161 4 296 -51.5t225.5 -154.5t141.5 -233t53 -286q0 -235 -100 -415.5t-280 -276.5q-14 -11 -16.5 -22.5t11.5 -18.5q62 -19 152 -61q68 -31 104 -46.5t91.5 -31.5t101.5 -18q102 -4 137 22q15 9 21 6zM238 598q34 -184 140 -325.5t254.5 -206t303.5 -31.5 q159 33 274 151.5t161 290t11 357.5q-25 138 -93 254.5t-161.5 191.5t-210 106.5t-233.5 6.5q-159 -35 -273 -152t-160.5 -286.5t-12.5 -356.5z" />
<glyph unicode="R" horiz-adv-x="1380" d="M84 -16q-12 -1 -17.5 5t-4.5 13l1 6q1 5 5 8t8 4h4q48 5 81 13t41 13l9 5q24 16 39 71t18 102l2 46q8 161 8 447t-8 446q0 21 -2.5 52.5t-17.5 92t-39 76.5q-22 17 -131 29q-17 0 -17 14q0 12 5 19t16 6q116 -18 268 -18q53 0 208.5 9t227.5 9q90 0 162 -33.5t117 -89.5 t68.5 -125t23.5 -143q0 -76 -26 -140t-74.5 -112t-103.5 -83.5t-128 -68.5q-30 -16 -10 -39l57 -69q259 -319 402 -477q40 -45 82 -52q22 -2 22 -16q0 -20 -22 -20h-94q-32 0 -61.5 6.5t-48.5 15.5t-33 18.5t-21 15.5l-6 7q-259 330 -400 502q-25 30 -45.5 46t-46.5 17 q-43 2 -82 9q-22 5 -22 22t6 23t20 4q18 -2 47.5 -2t74 3.5t93 18.5t84.5 39q83 56 127.5 133t44 174.5t-52.5 202.5q-41 83 -120.5 118.5t-205.5 35.5q-65 -1 -139 -21q-39 -12 -47 -80q-13 -149 -13.5 -506t7.5 -534q2 -56 16 -118.5t43 -82.5q22 -19 131 -31q15 0 17 -12 q-1 -1 0.5 -6.5t-4.5 -12t-19 -5.5q-125 16 -262 16q-58 0 -123.5 -4t-102.5 -8z" />
<glyph unicode="S" horiz-adv-x="1052" d="M444 -37q-79 -6 -172 8.5t-118 36.5q-17 14 -24.5 36t-7 39t3.5 43.5t3 37.5q0 17 -2 42.5t-2 31.5q0 11 7.5 16.5t14.5 5.5h7q7 0 11 -4t5 -8v-4l4 -56q4 -66 68 -118q75 -53 197 -49.5t218 59.5q63 36 102.5 111.5t39.5 152.5q0 55 -22 100t-72 91q-33 31 -99 73.5 t-128 78t-126 81.5t-96 84q-67 80 -86.5 176.5t6.5 181t98 151.5t177 91q131 37 344 0q67 -12 112 0q1 -1 8 0.5t12.5 -5.5t0.5 -22q-31 -81 -21 -184q0 -9 -4.5 -14t-8.5 -5l-5 -1q-9 0 -14.5 3t-6.5 6l-2 3l-6 31q-16 80 -90.5 114.5t-175.5 34.5q-184 0 -248 -90 q-57 -72 -53.5 -169t65.5 -165q43 -48 112.5 -95.5t135 -85t129.5 -79.5t112.5 -97t67.5 -120q29 -98 0.5 -214t-98.5 -185q-139 -133 -373 -150z" />
<glyph unicode="T" horiz-adv-x="1507" d="M492 -16q-12 -2 -18 4t-6 13l1 7q2 5 5.5 8t5.5 4h3q48 5 81.5 13t42.5 13l9 5q25 16 40.5 71.5t18.5 102.5l3 47q19 575 -6 1008v8t-2 17.5t-5 22.5t-10 19t-16 11q-65 12 -151.5 16t-125.5 2q-21 0 -52.5 -2.5t-92.5 -18t-78 -40.5q-18 -19 -28 -117q-3 -16 -13 -16 q-6 0 -9 0.5t-8 2t-6.5 6t-0.5 11.5q4 20 6 47q11 117 -19 178q-4 12 2 18.5t13 7.5l8 1q296 -20 588 -20h162q294 0 587 20h3.5t8 -0.5t8 -4.5t4.5 -11t-3 -19q-25 -73 -15 -170l7 -47q1 -9 -5 -14t-12 -6h-6q-6 0 -9.5 4t-3.5 8l-1 4q-5 42 -13 71t-13 37l-5 9 q-17 25 -73 40.5t-103 18.5l-47 2q-159 9 -275 -18q-15 -4 -23.5 -24.5t-9.5 -33t-1 -20.5q-11 -194 -12.5 -509.5t7.5 -498.5q0 -21 2 -52.5t17.5 -92t40.5 -76.5q24 -19 133 -31q12 0 14 -12q1 -3 1.5 -7.5t-4.5 -11.5t-17 -5q-143 16 -262 16q-58 0 -123.5 -4t-102.5 -8z " />
<glyph unicode="U" horiz-adv-x="1867" d="M1405 -39q-15 9 -8 27q6 18 6 55q0 86 -10 122.5t-45 8.5q-46 -42 -112 -82t-156 -73.5t-182.5 -49.5t-198 -4t-197.5 58q-115 62 -169 172.5t-54 293.5q0 19 1 187t0 279t-6 210q0 8 -0.5 21t-4.5 48t-10 63t-18 54.5t-28 34.5q-22 15 -133 27q-17 0 -19 12q1 1 0 9 t5 15t18 3q145 -18 264 -18q55 0 121 4.5t105 9.5l38 4q12 4 18 -3t6 -15l-1 -9q-1 -5 -5.5 -8t-9.5 -3l-4 -1q-49 -5 -82.5 -12t-41.5 -11l-9 -4q-25 -12 -40.5 -67t-18.5 -105l-2 -49q-7 -249 -6.5 -347t6.5 -341q1 -57 8.5 -103.5t29.5 -100.5t58 -94t98.5 -74t147.5 -50 q288 -58 539 178q77 79 90 271q6 113 4 308t-11 353q0 22 -2 55t-17.5 93.5t-41.5 72.5q-24 15 -133 27q-16 0 -18 12q1 1 0 8.5t4.5 14.5t17.5 4q145 -18 266 -18q54 0 119 4.5t103 9.5l38 4q13 3 18.5 -4t5.5 -15l-1 -8q-1 -5 -5.5 -8t-9.5 -3l-4 -1q-47 -5 -79.5 -12 t-40.5 -11l-9 -4q-25 -12 -40.5 -67t-18.5 -105l-2 -49q-22 -708 18 -1001q3 -21 10 -43t29.5 -49t55.5 -33q55 -9 141 -19q12 -2 14 -12q0 -1 0.5 -3t0.5 -6.5t-1.5 -8t-6.5 -5.5t-13 -1q-117 16 -232 16q-69 0 -122 -39q-12 -8 -25 0z" />
<glyph unicode="V" horiz-adv-x="1712" d="M776 -39q-12 0 -16 14q-8 31 -39 129q-105 287 -256.5 657t-251.5 548q-21 35 -41.5 56t-30.5 25l-10 3q-32 12 -115 20q-14 2 -16 12q-1 3 -1.5 8.5t4.5 13t17 5.5q127 -18 242 -18q60 0 136 4.5t122 9.5l47 4q12 2 17.5 -5t5.5 -15v-7q-1 -5 -5.5 -8t-8.5 -3l-5 -1 q-96 -11 -116 -20q-60 -26 -4 -193q51 -157 173 -456.5t216 -512.5q19 -43 41 0q220 454 448 994q14 45 15.5 80t-5.5 53.5t-21 30.5t-24.5 15.5t-21.5 4.5l-53 4q-15 0 -17 10q1 1 -0.5 8.5t4 15t17.5 5.5q147 -18 235 -18q46 0 104 4.5t93 9.5l35 4q12 2 17.5 -5.5 t4.5 -15.5v-8q-1 -3 -2.5 -5t-4 -3t-4.5 -1.5t-3 -0.5h-2q-56 -4 -62 -6q-8 -2 -19 -6.5t-34 -21.5t-47 -42t-57.5 -72t-65.5 -108q-81 -162 -269.5 -571t-236.5 -541q-5 -13 -33 -25q-44 -20 -73 -47q-12 -12 -23 -12z" />
<glyph unicode="W" horiz-adv-x="2435" d="M803 -39q-15 0 -19 14l-12 54q-31 137 -187.5 567.5t-230.5 607.5q-24 55 -55 94.5t-61 59t-43.5 25.5t-26.5 10q-28 5 -152 18q-14 0 -16 10q-1 4 -1.5 9t4.5 13.5t17 6.5q202 -18 306 -18q78 0 158.5 5t121.5 10l41 5q12 2 17.5 -5.5t4.5 -15.5l-1 -8q-1 -3 -2.5 -5 t-4 -3t-5 -1.5t-4.5 -0.5h-1q-66 -5 -102 -16q-5 -2 -11 -6t-14 -17t-12 -32t-2.5 -53t10.5 -77q52 -166 158.5 -466.5t165.5 -446.5q2 -5 7 -12t15 -6.5t19 18.5q107 297 270 831q3 12 6 35t5.5 66t-11 82t-43.5 57q-45 33 -156 43q-14 0 -16 10q1 1 -0.5 8.5t4 15 t17.5 5.5q84 -18 262 -18h55q10 0 17.5 -5t9.5 -9l2 -5q55 -179 204 -558t242 -589q4 -9 11 -14.5t15 -2.5t15 17q61 173 160.5 479.5t142.5 460.5q14 44 10 77.5t-11 54t-22.5 34.5t-25 19t-18.5 8q-14 5 -88 12q-15 0 -17 10q1 1 -0.5 8.5t4 15t17.5 5.5q137 -18 235 -18 q48 0 106 4.5t92 9.5l34 4q12 2 17.5 -5.5t5.5 -15.5l-1 -8q-1 -3 -2.5 -5t-4 -3t-4.5 -1.5t-4 -0.5h-1q-92 -10 -107 -16q-33 -13 -47 -49q-75 -177 -234 -654t-200 -649q-4 -17 -25 -27q-42 -18 -65 -41q-16 -16 -25 -16t-13 4.5t-7 16.5q-2 10 -10 34q-46 144 -183 486.5 t-223 546.5q-8 21 -23 22.5t-24 -22.5q-278 -812 -324 -1004q-8 -23 -24 -31q-37 -16 -58 -37q-16 -16 -24 -16z" />
<glyph unicode="X" horiz-adv-x="1552" d="M49 -16q-11 -1 -15.5 5.5t-3.5 13.5l1 7q1 3 3 5t4.5 3t4 1.5t3.5 0.5h1q49 5 119 17q67 10 94 47q49 68 115.5 168t178.5 275.5t138 215.5q20 31 0 62q-262 414 -364 559q-23 31 -80 37l-119 12q-14 0 -16 10q-1 3 -1.5 8.5t4.5 13.5t17 7q173 -18 277 -18q48 0 118 4.5 t116 9.5l46 4q12 1 18 -6t6 -14l-1 -7q-1 -5 -5.5 -8t-9.5 -3l-4 -1l-116 -12q-60 -8 -37 -60q88 -189 233 -399q21 -30 43 2q84 125 232 387q16 29 4 49t-41 23l-92 10q-15 0 -17 10q1 1 -0.5 8t4 14.5t17.5 6.5q131 -18 233 -18q44 0 102.5 4.5t94.5 9.5l37 4 q12 1 17.5 -6.5t5.5 -15.5l-1 -7q-1 -3 -3 -5t-4.5 -3t-5 -1.5t-4.5 -0.5h-1l-92 -10q-78 -9 -105 -45q-27 -35 -56.5 -76.5t-67.5 -98.5l-63 -94.5t-76 -116.5t-73 -112q-21 -31 -2 -59q42 -74 196.5 -310t272.5 -409q11 -16 34.5 -27.5t41.5 -15.5l18 -4l101 -15 q16 0 18 -10q-1 -1 0 -7.5t-4 -13.5t-16 -5q-136 16 -234 16q-42 0 -100 -4t-96 -8l-37 -4q-11 -2 -16.5 4.5t-4.5 13.5v8q1 3 2.5 5t4 3t5 1.5t4.5 0.5h1l45 9q25 5 36.5 19t0.5 34q-19 32 -83.5 148t-125.5 218.5t-129 208.5q-2 3 -4.5 6t-11.5 6.5t-17 -10.5 q-185 -234 -375 -569q-12 -22 1.5 -35.5t37.5 -17.5q73 -12 117 -17q14 0 16 -10q1 -3 1.5 -8t-4 -12.5t-15.5 -5.5q-141 16 -258 16q-42 0 -100.5 -4t-96.5 -8z" />
<glyph unicode="Y" horiz-adv-x="1415" d="M424 -16q-12 -2 -18 4.5t-6 13.5l1 8q1 3 3 5t4.5 3t4.5 1.5t3 0.5h2q48 5 81 13t41 13l9 5q25 16 40.5 71.5t18.5 102.5l2 47q6 234 6 250q0 30 -10 53q-252 463 -459 797q-17 27 -73 35l-58 6q-14 0 -16 10q-1 3 -1.5 8t4.5 12.5t17 6.5q105 -16 218 -16q41 0 98 4 t94 8l37 4q12 1 17.5 -6t5.5 -14l-1 -7q-1 -3 -3 -5t-4.5 -3t-5 -1.5t-4.5 -0.5h-1q-14 -2 -46 -5t-46 -5q-29 -4 -38.5 -19t-4.5 -28l6 -13q104 -213 320 -604q11 -19 32 -19.5t35 19.5q250 392 365 592q15 28 4.5 47t-41.5 25q-14 2 -41.5 5t-40.5 5q-15 0 -17 10 q1 1 0 7.5t5 13.5t18 6q141 -16 231 -16q33 0 78 4t74 8l29 4q12 1 17.5 -6t5.5 -14l-1 -7q-1 -3 -3 -5t-4.5 -3t-5 -1.5t-4.5 -0.5h-1l-51 -6q-94 -14 -119 -45q-52 -73 -114 -169t-165.5 -260t-179.5 -282q-14 -25 -14 -61q0 -174 6 -318q0 -21 2.5 -52.5t18 -92 t40.5 -76.5q22 -19 131 -31q13 0 17 -10q-1 -1 0.5 -7.5t-4.5 -13.5t-19 -5q-135 16 -260 16q-54 0 -119.5 -4t-104.5 -8z" />
<glyph unicode="Z" horiz-adv-x="1337" d="M84 -16q-21 0 -24 15t14 40q70 101 221.5 317.5t214 308.5t174.5 264t225 357q21 35 12 55.5t-42 22.5q-246 16 -469 8q-66 -2 -130.5 -16t-82.5 -43q-27 -40 -23 -109q2 -16 -16 -18q-6 -1 -12.5 -0.5t-10.5 6t-2 16.5q7 32 4.5 102.5t-16.5 116.5q-4 13 2 21t20 6 q160 -20 441 -20q150 0 353 9t222 9q18 0 21 -16t-15 -39q-178 -236 -432 -618.5t-420 -657.5q-11 -17 0 -30.5t39 -14.5q116 -6 269.5 -10.5t249.5 -5.5l96 -1q240 0 270 45q21 34 35 123q0 17 16 17q14 0 23 -5.5t6 -15.5q-15 -47 -25 -147v-41q1 -10 -3 -19t-9 -12l-4 -4 q-12 -7 -37.5 -11t-44.5 -5h-20q-70 0 -287 4t-269 4q-43 0 -261.5 -4t-272.5 -4z" />
<glyph unicode="[" horiz-adv-x="575" d="M502 -385q-15 2 -41 4t-108 5.5t-152 -1.5l-14 -1q-14 -2 -29.5 -3.5t-30 -1.5t-16.5 2q-1 1 -3 2.5t-4.5 8t-1.5 14.5q5 12 7 32q12 251 12 893q0 621 -10 826l-2 32l-7 50q-1 8 1.5 14t4.5 8l3 2q2 2 16.5 2t30 -1.5t29.5 -3.5l14 -1q85 -3 152 -1.5t108 5.5l41 4 q13 1 18.5 -8t4.5 -18l-1 -9q-1 -3 -5 -5t-7 -3h-4q-86 -8 -139 -17t-63 -15l-11 -5q-43 -27 -57 -161q-15 -349 -15 -695t15 -712q14 -135 57 -162q20 -21 213 -37q14 -2 16 -8q-1 -1 0.5 -10t-4 -18t-18.5 -7z" />
<glyph unicode="\" horiz-adv-x="512" d="M492 -72h-37q-12 0 -22 7t-13 18l-440 1530q-3 9 3.5 16.5t16.5 7.5h37q23 0 35 -24l440 -1528q3 -27 -20 -27z" />
<glyph unicode="]" horiz-adv-x="575" d="M74 -385q-12 -2 -17.5 6.5t-5.5 17.5v9q1 4 5.5 6t9.5 2h4q84 8 137.5 17t64.5 15l11 5q41 29 55 164q16 309 16 712q0 397 -16 695q-14 132 -55 161q-23 19 -213 37q-17 0 -19 8q1 1 0 9.5t5 17t18 6.5q15 -2 41 -3.5t108 -4.5t152 2l14 1q14 2 29.5 3.5t30 1.5t16.5 -2 q1 -1 3 -2.5t4.5 -8t0.5 -15.5q-4 -19 -6 -48l-2 -32q-10 -256 -10 -826q0 -651 14 -895l4 -30q2 -9 0 -15.5t-5 -8.5l-3 -3q-2 -2 -16.5 -2t-30 1.5t-29.5 3.5l-14 1q-85 3 -152 2t-108 -5z" />
<glyph unicode="^" horiz-adv-x="962" d="M131 764q-11 0 -21 4.5t-6 15.5l310 664q18 33 30 45t29 12q14 0 24.5 -11t32.5 -46l328 -664q4 -10 -5.5 -15t-23.5 -5h-63q-12 0 -21 20l-243 492q-7 16 -15 22t-14 3t-11 -8.5t-8 -10.5l-3 -6l-230 -492q-10 -20 -26 -20h-64z" />
<glyph unicode="_" horiz-adv-x="1175" d="M145 -250q-9 0 -15.5 7t-6.5 16v57q0 9 6.5 16t15.5 7h883q9 0 17 -7t8 -16v-57q0 -9 -8 -16t-17 -7h-883z" />
<glyph unicode="`" horiz-adv-x="509" d="M389 1475q-49 32 -128.5 77.5t-134.5 75.5l-54 29q-2 1 -5 3.5t-8 11.5t0 20q12 24 30.5 46.5t30.5 33.5l13 10q9 6 20.5 4t16.5 -10q36 -50 97.5 -118t104.5 -110l44 -43q14 -14 0 -28q-10 -10 -27 -2z" />
<glyph unicode="a" horiz-adv-x="1110" d="M354 -39q-118 0 -195 64.5t-77 167.5q0 79 34 144t89 110t143.5 83.5t178.5 63.5t212 51v178q0 80 -52.5 131.5t-174.5 51.5q-95 0 -145.5 -22t-63.5 -73q0 -4 -1.5 -10t-6.5 -22.5t-11.5 -30.5t-19.5 -27.5t-28 -19.5q-8 -3 -20.5 -7t-39.5 2t-39 31q-8 20 -0.5 48 t35.5 59t71 57.5t113 44t154 17.5q80 0 140.5 -10.5t99.5 -32t64.5 -46t38.5 -60.5t18 -67.5t6 -74.5q1 -53 -1 -262.5t-2 -274.5q0 -78 21 -127t63 -49q70 0 95 74q6 17 24 10q7 -3 9.5 -9t1.5 -10l-1 -5q-52 -146 -174 -146q-137 0 -161 115q-6 31 -19 37t-37 -9 q-21 -12 -63.5 -39.5t-67 -41t-61.5 -31t-73.5 -25.5t-76.5 -8zM475 41q23 4 48.5 14.5t41.5 20.5t45 28.5t41 26.5q60 41 75 58t15 47v352q-161 -21 -288 -82q-111 -54 -164 -113.5t-53 -146.5q0 -106 68 -164t171 -41z" />
<glyph unicode="b" horiz-adv-x="1214" d="M743 -20q-228 -50 -364 36q-50 29 -78 13l-72 -41q-13 -8 -23.5 -2.5t-10.5 22.5q16 384 -7 1295q-10 117 -53 131q-24 10 -94 0q-14 -2 -18 6q-13 26 14 30q86 11 225 48l45 10q1 -1 7.5 0.5t13.5 -7t6 -24.5q-12 -196 -15 -506q0 -17 11 -22q15 -7 37 10 q42 34 111.5 54t148.5 20q109 0 191 -27t136 -80t87 -119.5t53 -156.5q27 -154 13.5 -272t-65.5 -204.5t-127 -139t-172 -74.5zM719 31q67 17 118 59t87.5 118t41 185t-21.5 260q-6 26 -12 47.5t-15.5 50t-20.5 51.5t-26 49t-34 46t-42 39t-52 31t-62 19.5t-74.5 7 t-87.5 -8.5q-103 -20 -153 -142t-50 -321l2 -73q0 -57 8 -110.5t26.5 -108.5t49 -96t75 -72.5t105 -38t138.5 7.5z" />
<glyph unicode="c" horiz-adv-x="1093" d="M604 -39q-178 -3 -310 68t-190 221q-70 163 -26.5 352.5t182.5 308.5q75 63 170.5 100.5t194.5 41.5q84 3 151 -11t106 -37t63 -51.5t30 -53.5t0 -44q-13 -36 -38.5 -45t-44.5 -1l-20 9q-22 13 -40.5 38t-26.5 44l-8 19q-22 46 -73.5 65t-98.5 19q-66 0 -132 -26.5 t-123.5 -77t-98 -122.5t-55 -163.5t4.5 -200.5q23 -129 97.5 -226t177.5 -138.5t209 -18.5q83 18 144 65.5t95 100.5q5 7 14 8t15 -1l6 -3l6 -4q7 -6 6 -15t-5 -18l-5 -8q-123 -188 -377 -195z" />
<glyph unicode="d" horiz-adv-x="1271" d="M606 -39q-85 0 -158 21t-121.5 55t-87.5 75.5t-60.5 82.5t-36 75t-18.5 55l-5 21q-23 126 -16 224.5t38.5 171.5t74 125t91 85.5t89 53t66.5 26.5l27 8q249 49 394 -100q17 -17 32 -12q17 4 17 20q-3 207 -8 350q-11 122 -54 136q-24 10 -94 0q-14 -2 -18 6q-13 26 14 30 q86 11 225 48l45 10q29 0 27 -29q-14 -184 -16 -409q1 -34 4.5 -360.5t5.5 -428.5q0 -9 0.5 -24.5t3 -56t7.5 -72t16 -59.5t26 -32q28 -12 94 0q16 3 19 -6q9 -28 -15 -31q-118 -7 -233 -36q-8 -2 -17.5 5.5t-9.5 26.5q0 31 -6 52q-5 17 -14 22q-19 9 -35 -10 q-47 -53 -120.5 -82.5t-122.5 -33.5zM711 29q213 46 213 444l-2 125q0 -9 -1 -1q-14 165 -87 275q-110 163 -320 123q-4 -1 -11.5 -3t-30 -12t-43.5 -24t-48 -40t-48.5 -58t-40.5 -81.5t-28.5 -107.5t-7.5 -137.5t18 -169.5q3 -16 10.5 -43t41 -93t77.5 -112.5t126 -75.5 t182 -9z" />
<glyph unicode="e" horiz-adv-x="1124" d="M614 -39q-157 0 -280 76t-184 211q-44 93 -46.5 205.5t35 216.5t101.5 191t158 139.5t198 52.5q84 0 153 -22.5t112 -56t75.5 -80t48 -87t25 -84t11 -64t1.5 -34.5q0 -29 -16.5 -44t-33.5 -15l-16 -1l-700 -4q0 -127 24.5 -228.5t75.5 -178t138.5 -110.5t205.5 -15 q169 27 271 161q6 8 15 9t14 -1l6 -3l6 -5q7 -6 6 -14.5t-6 -15.5l-4 -8q-58 -89 -171 -140t-223 -51zM262 639q478 -2 580 2q19 0 26.5 3.5t8.5 14.5q0 89 -23.5 156t-64.5 105t-89.5 56.5t-103.5 18.5q-89 0 -164.5 -55.5t-118 -135.5t-51.5 -165z" />
<glyph unicode="f" horiz-adv-x="899" d="M115 -16q-10 -2 -15 4t-4 13v7q1 5 4.5 8t7.5 4h3q39 5 65 13t32 13l7 5q36 32 47 187q10 242 10 688q0 28 -26 28q-82 6 -150 0q-1 1 -9 -0.5t-17 4.5t-9 19v29q0 3 0.5 6.5t9.5 9t25 2.5q91 -6 150 0q3 0 7.5 0.5t11.5 7.5t7 19v129q-1 7 -1 19t3 46t11.5 65t29 69 t50.5 65.5t80.5 46t115.5 18.5q54 0 101 -8t79.5 -21.5t60 -30.5t41.5 -35.5t24.5 -37.5t10 -35t-3.5 -28q-10 -25 -24.5 -37.5t-27 -13.5t-24 2t-18.5 8l-6 4q-23 16 -42.5 41t-27.5 42l-8 17q-34 62 -78.5 77.5t-103.5 4.5q-59 -12 -90 -54t-31 -149v-204q0 -12 6.5 -18.5 t13.5 -7.5l7 -1q68 -3 136 -3t102 1l34 2q16 2 24 -2.5t8 -9.5l1 -6v-29q0 -13 -8.5 -18.5t-16.5 -4.5h-8q-65 3 -133 3t-103 -1l-36 -2q-13 -1 -19.5 -8.5t-6.5 -14.5l-1 -7q-3 -49 0 -305t10 -381q2 -56 13.5 -113t32.5 -74q18 -19 106 -31q12 0 12 -12q-1 -1 0 -7 t-3 -12.5t-13 -4.5q-131 16 -219 16q-37 0 -91.5 -4t-90.5 -8z" />
<glyph unicode="g" horiz-adv-x="1157" d="M545 -569q-70 0 -132 7.5t-105.5 20t-79.5 27t-58.5 29.5t-38 27.5t-21.5 19.5l-6 8q-90 108 -49 229q36 91 98 124t103 9q22 -14 32.5 -30.5t8.5 -29t-6.5 -23.5t-10.5 -17l-6 -6q-21 -21 -45 -33q-46 -29 -63 -72q-11 -42 -4 -74.5t29 -57.5t51 -42.5t60 -29.5 t57.5 -18.5t43.5 -9.5l17 -3q85 -9 153.5 -4t120.5 20t91 34.5t65 41.5t42 40t23 30l7 12q25 66 14 117.5t-51.5 89.5t-94.5 65.5t-113.5 45t-109.5 27.5t-83 14l-33 4q-85 10 -150 26t-97 32t-52 31t-24 24l-5 9q-14 26 -7.5 52t20.5 46.5t39 40t47 33t46 23.5l7 4 q5 7 -17 18q-103 52 -149 156q-48 105 -30 200.5t78 169t154 118.5t197 47q148 3 270 -84q9 -7 19.5 -9.5t16.5 -1t7 2.5q19 9 39 19.5t31.5 16.5t13.5 7q70 34 123.5 31t85.5 -24t39 -50q9 -41 -6.5 -63t-34.5 -24l-20 -2q-27 0 -57.5 9t-46.5 19l-17 9q-45 22 -103 -4 q-19 -8 -10 -22q41 -65 50.5 -146t-19.5 -163.5t-94 -139.5q-122 -112 -336 -112q-61 -1 -106 -11.5t-65.5 -24t-32.5 -27t-13 -23.5l-2 -9q-2 -25 29.5 -43.5t63.5 -23.5l32 -6q52 -7 124.5 -14t131 -15t133.5 -23q63 -12 113.5 -34.5t80.5 -48.5t51.5 -55t30.5 -55.5 t13.5 -47.5t4.5 -34l-1 -13q0 -78 -28 -141.5t-72.5 -102.5t-98 -67.5t-107 -41.5t-97.5 -20.5t-72 -8.5zM553 375q111 22 175.5 129.5t39.5 236.5t-124 205t-210 53q-113 -22 -176.5 -130t-38.5 -238q25 -128 124 -203.5t210 -52.5z" />
<glyph unicode="h" horiz-adv-x="1290" d="M82 -16q-10 -2 -15 4.5t-5 13.5l1 8q1 3 2.5 5t3.5 3t4 1.5t3 0.5h2q38 5 64 13t33 13l7 5q36 32 47 187q9 202 9.5 528t-7.5 537q-10 117 -53 131q-24 8 -92 -2q-16 -2 -20 4q-1 1 -1.5 3t-1 7.5t0.5 10t5.5 8.5t12.5 5q84 11 223 48l45 10q1 -1 7.5 0.5t13.5 -6 t6 -23.5q-14 -227 -17 -541q0 -14 5 -16q6 -3 14 2q54 40 131 74.5t162 34.5q38 0 70 -2.5t72.5 -10.5t72.5 -21t64 -37t53.5 -56.5t35 -80.5t13.5 -108q0 -271 10 -499q11 -157 47 -187q16 -19 104 -31q13 0 15 -10q-1 -1 0 -7.5t-4 -13.5t-15 -5q-125 16 -217 16 q-38 0 -93 -4t-90 -8l-36 -4q-10 -2 -14.5 4.5t-3.5 13.5v8l14 10q39 5 66 13t34 13l7 5q35 32 45 187q10 167 10 356q0 48 -1 79t-6.5 77.5t-15 76.5t-29 65t-46.5 55.5t-69 34t-95 13.5q-148 0 -225 -88.5t-80 -218.5q-3 -238 4 -450q11 -157 47 -187q18 -19 106 -31 q13 0 13 -10q-1 -1 0 -7.5t-3.5 -13.5t-13.5 -5q-129 16 -219 16q-38 0 -92.5 -4t-89.5 -8z" />
<glyph unicode="i" horiz-adv-x="589" d="M299 1313q-40 0 -68 28.5t-28 69.5q0 40 28 69t68 29q41 0 69.5 -29t28.5 -69q0 -41 -28.5 -69.5t-69.5 -28.5zM80 -16q-10 -2 -15 4.5t-5 13.5l1 8q1 3 2.5 5t3.5 3t4 1.5t3 0.5h2q39 5 65 13t33 13l6 5q36 32 47 187q11 243 2 573q-10 117 -51 131q-24 8 -94 0 q-14 -2 -18 6q-1 1 -1.5 3t-1.5 7t-0.5 9t5 7.5t12.5 4.5q80 12 221 49l43 10q3 1 8 0.5t12.5 -7.5t6.5 -23q-22 -426 -6 -770q2 -57 13 -113.5t32 -73.5q18 -19 106 -31q12 0 12 -10q-1 -1 0 -7.5t-3 -13.5t-13 -5q-127 16 -213 16q-39 0 -94 -4t-90 -8z" />
<glyph unicode="j" horiz-adv-x="477" d="M276 1313q-40 0 -68 28.5t-28 69.5q0 40 28 69t68 29q41 0 70 -29t29 -69q0 -41 -29 -69.5t-70 -28.5zM-68 -565q-16 0 -22 4q-12 10 -12 26q0 21 14 21q137 0 194 57q52 52 77 124.5t28 213.5q6 328 5.5 477t-9.5 453q-10 117 -51 131q-25 8 -95 0q-14 -2 -18 6 q-1 1 -1.5 3t-1.5 7t-0.5 9t5 7.5t12.5 4.5q85 12 224 49h2l43 10q3 1 7.5 0.5t12 -7.5t6.5 -23q-16 -272 -16 -961q2 -49 2 -164t-57 -225q-26 -47 -52.5 -81t-67.5 -69t-99 -54t-130 -19z" />
<glyph unicode="k" horiz-adv-x="1181" d="M80 -16q-9 -2 -13 4.5t-4 13.5v8l13 10q39 5 65.5 13t33.5 13l7 5q37 34 47 187q18 411 2 1065q-2 43 -15 83t-38 48q-24 10 -94 0q-12 -4 -18 6q-13 26 14 30q86 11 225 48l45 10q1 -1 7.5 0.5t13.5 -6t6 -23.5q-16 -242 -17.5 -632t9.5 -629q11 -155 47 -187 q18 -19 104 -31q13 0 15 -10q-1 -1 0 -7.5t-4 -13.5t-15 -5q-129 16 -217 16q-37 0 -92 -4t-91 -8zM1010 -16q-109 0 -166 57q-36 44 -87 105.5t-90.5 108.5t-73 86t-34.5 40q-7 7 -24 26t-30 33t-29 29.5t-27.5 24t-18.5 8.5q-10 0 -15 7.5t-5 16.5q0 7 6 13q37 36 64 62 t52.5 51t37.5 37t34.5 36t28 30.5t34.5 38.5t38 42q61 74 45 114q-14 33 -72 33q-14 0 -19 12q-5 14 5 23q6 6 18 6q1 0 30.5 -3.5t73.5 -7t80 -3.5q85 0 183 14q10 2 16 -6q3 -4 4 -9.5t1 -9.5l-1 -4q-3 -12 -16 -12q-20 -2 -43 -8q-60 -17 -146 -92q-147 -126 -309 -277 q-19 -19 -8 -35l76 -84q225 -260 305 -342q101 -112 217 -122q13 0 16 -9q3 -8 -4 -24q-2 -6 -12 -6h-135z" />
<glyph unicode="l" horiz-adv-x="595" d="M80 -16q-9 -2 -13 4.5t-4 13.5v8l13 10q39 5 65.5 13t33.5 13l7 5q37 34 47 187q20 524 0 1065q-2 44 -14 83.5t-37 47.5q-24 10 -94 0q-14 -2 -18 6q-13 26 14 30q86 11 225 48l43 10q1 -1 8 0.5t14.5 -6t6.5 -23.5q-16 -242 -17.5 -632t9.5 -629q11 -160 47 -187 q18 -19 104 -31q13 0 15 -10q-1 -1 0 -7.5t-4 -13.5t-15 -5q-133 16 -217 16q-36 0 -90.5 -4t-91.5 -8z" />
<glyph unicode="m" horiz-adv-x="1902" d="M82 -16q-10 -2 -15 4.5t-5 13.5l1 8q1 3 2.5 5t3.5 3t4 1.5t3 0.5h2q38 5 64 13t33 13l7 5q36 32 47 187q8 245 8 286.5t-6 286.5q-2 45 -15 84t-38 47q-24 8 -92 0q-16 -2 -20 6q-1 1 -1.5 3t-1 7t0.5 9t5.5 7.5t12.5 4.5q84 12 223 49l45 10q3 1 8 0.5t12.5 -7.5 t6.5 -23l-2 -41q0 -11 4 -13q8 -4 16 4q52 55 144 78q12 3 33 7t79.5 7.5t109.5 -3.5t108.5 -36.5t91.5 -80.5q17 -17 34 0q70 80 197 106q10 2 27 5.5t66 7.5t94 1t99.5 -20.5t93.5 -50t66 -94.5t27 -146q0 -273 10 -501q11 -157 47 -187q17 -19 105 -31q12 0 14 -10 q-1 -1 0.5 -7.5t-3.5 -13.5t-15 -5q-133 16 -217 16q-39 0 -94 -4t-90 -8l-36 -4q-9 -2 -13.5 4.5t-4.5 13.5v8l14 10q39 5 66 13t34 13l7 5q35 32 45 187q10 222 10 438q0 30 -4 63.5t-24 89.5t-53.5 94t-102 58.5t-160.5 1.5q-49 -10 -83 -30.5t-54 -47.5t-31.5 -70 t-15 -85t-4.5 -105q2 -191 10 -407q11 -157 47 -187q19 -19 105 -31q12 0 14 -10q-1 -1 0 -7.5t-4 -13.5t-15 -5q-127 16 -217 16q-39 0 -94 -4t-90 -8l-35 -4q-9 -2 -13 4.5t-4 13.5l1 8l12 10q39 5 66 13t34 13l7 5q37 34 47 187q10 303 10 438q0 12 -1 25.5t-4 37 t-8.5 44.5t-14.5 47.5t-22.5 47.5t-32.5 43.5t-44 36t-57 25t-71.5 9.5t-88.5 -9q-94 -19 -134 -75t-48 -152q-3 -66 -4.5 -116t-1 -102t1 -81.5t3 -102.5t3.5 -116q11 -158 47 -187q18 -19 106 -31q11 0 13 -10q-1 -1 0 -7.5t-3.5 -13.5t-13.5 -5q-139 16 -219 16 q-39 0 -93.5 -4t-89.5 -8z" />
<glyph unicode="n" horiz-adv-x="1290" d="M82 -16q-10 -2 -15 4.5t-5 13.5l1 8q1 3 2.5 5t3.5 3t4 1.5t3 0.5h2q38 5 64 13t33 13l7 5q36 32 47 187q7 138 7.5 173t-5.5 400q-10 117 -53 131q-24 8 -92 0q-16 -2 -20 6q-1 1 -1.5 3t-1 7t0.5 9t5.5 7.5t12.5 4.5q84 12 223 47l45 12q3 1 8 0.5t12.5 -7.5t6.5 -23 l-2 -56q0 -24 16 -10q71 74 184 96q10 2 27 5.5t66.5 7t94 0t99.5 -21.5t95 -50t67.5 -93.5t28.5 -144.5q0 -275 10 -503q11 -159 47 -187q16 -19 104 -31q13 0 15 -10q-1 -1 0 -7.5t-4 -13.5t-15 -5q-127 16 -217 16q-36 0 -91 -4t-92 -8l-36 -4q-10 -2 -14.5 4.5 t-3.5 13.5v8l14 10q39 5 66 13t34 13l7 5q35 32 45 187q10 208 10 448q0 15 -1.5 31.5t-5.5 42.5t-12 49.5t-20.5 51.5t-31 49t-44 41.5t-59 29.5t-76.5 13t-96 -9q-118 -23 -164.5 -87t-54.5 -173q-4 -73 -5 -138.5t-0.5 -98.5t3.5 -121t4 -129q11 -158 47 -187 q18 -19 106 -31q11 0 13 -10q-1 -1 0 -7.5t-3.5 -13.5t-13.5 -5q-125 16 -219 16q-38 0 -92.5 -4t-89.5 -8z" />
<glyph unicode="o" horiz-adv-x="1292" d="M635 -37q-176 -6 -313 69t-195 226q-40 96 -44 195t23.5 184.5t82.5 161.5t128 130.5t164 87.5t187 36q242 3 392 -146.5t150 -378.5q0 -247 -159 -399t-416 -166zM735 25q107 22 188.5 106t117 207.5t12.5 253.5q-24 133 -100 233t-180.5 143.5t-211.5 20.5 q-107 -22 -188.5 -106t-117 -207.5t-11.5 -253.5q23 -129 99 -229.5t181 -145.5t211 -22z" />
<glyph unicode="p" horiz-adv-x="1208" d="M59 -563q-10 -2 -14.5 5t-4.5 15l1 8q1 4 4.5 6.5t6.5 3.5l3 1q38 5 64.5 12.5t33.5 12.5l7 5q17 13 28 46t13 71q12 239 15 596t-5 551q0 6 -0.5 16.5t-3.5 38t-8 49.5t-16.5 42t-26.5 24q-25 8 -93 0q-18 -2 -20 6q-13 27 16 31q84 12 217 49l46 10q3 1 7.5 0.5 t12 -7.5t6.5 -23q0 -7 -1 -21.5t-1 -21.5q0 -12 6 -15t13 4q37 29 79 50t76 30.5t62 14.5t44 5l15 1q67 0 126.5 -13t103.5 -35.5t82 -51t63.5 -60.5t46 -63.5t32.5 -60t19.5 -51t10.5 -35.5l3 -13q24 -121 17 -216.5t-38.5 -167.5t-74.5 -124.5t-91 -87.5t-89 -56t-68 -30 l-26 -8q-64 -16 -125 -17.5t-109 9t-81.5 23.5t-59.5 28q-29 16 -39 14q-8 -5 -8 -17q3 -210 12 -397q1 -37 12.5 -70t26.5 -47q19 -18 107 -30q10 -3 12 -11q-1 -1 0 -8t-3.5 -14.5t-13.5 -5.5q-137 16 -219 16q-37 0 -90 -4t-87 -8zM694 29l3 1q13 3 23.5 6.5t38 16 t49.5 27t52 41t51.5 58t41.5 78t29.5 100.5t8 126t-17.5 154q-4 17 -12 45t-42.5 96.5t-78 117t-122 78.5t-171.5 9q-49 -11 -86.5 -37.5t-59.5 -64t-36 -75.5t-19.5 -84.5t-7 -78.5t-2.5 -69v-15v-151q0 -18 2.5 -48t22.5 -104t53.5 -126.5t107 -86.5t172.5 -14z" />
<glyph unicode="q" horiz-adv-x="1200" d="M725 -563q-9 -2 -13 5t-4 15l1 8q0 4 3 6t6 3h3q39 5 65.5 12.5t33.5 12.5l7 5q27 24 39 117q13 184 15 424q0 19 -9 21q-10 1 -17 -2t-21 -15q-43 -39 -109.5 -61t-112.5 -24l-45 -3q-85 0 -158 22t-121.5 56.5t-87.5 77t-60.5 84.5t-36 76.5t-19.5 56.5l-4 22 q-23 123 -16 219.5t38.5 168t74.5 122t91 83.5t89 52t67 26l27 7q218 52 366 -39q49 -30 76 -14q14 8 36 22t31 19.5t21 10.5t20 5q12 0 17.5 -4t5.5 -8v-4q-19 -284 -19.5 -692.5t15.5 -708.5q16 -95 41 -117q18 -18 104 -30q13 -1 15 -9q-1 -1 0 -8t-4 -14.5t-15 -5.5 q-63 14 -217 16q-68 -1 -123 -5t-75 -8zM668 29q210 45 217 420l-2 153q0 19 -2 49.5t-23 106t-58.5 129t-122 87t-200.5 11.5l-12 -3t-30.5 -11t-44 -22t-49 -38t-49.5 -56t-41.5 -78.5t-29 -104t-8 -134t17.5 -165.5q3 -17 10.5 -44.5t41 -95.5t77.5 -116t126 -78t182 -10 z" />
<glyph unicode="r" horiz-adv-x="884" d="M82 -16q-10 -2 -15 4.5t-5 13.5l1 8q1 3 2.5 5t3.5 3t4 1.5t3 0.5h2q39 5 65 13t33 13l6 5q36 32 47 187q7 138 7.5 172.5t-5.5 396.5q-10 121 -51 135q-26 8 -94 0q-16 -2 -20 6q-13 27 16 31q84 12 223 49l45 10q3 1 8 0.5t12.5 -7.5t6.5 -23q-4 -62 -4 -111 q0 -14 4 -17.5t8 0.5l4 3q47 45 122.5 93t162.5 71q58 15 116.5 -2.5t69.5 -63.5q5 -27 1 -44.5t-14 -26.5t-20.5 -12.5t-18.5 -3.5l-9 -1q-27 0 -57.5 9.5t-47.5 18.5l-16 9q-55 29 -84 20q-20 -7 -53 -24.5t-72.5 -44.5t-68.5 -64.5t-31 -73.5q-5 -119 -5 -276.5t7 -228.5 q16 -162 45 -187q18 -19 106 -31q11 0 13 -10q-1 -1 0 -7.5t-3.5 -13.5t-13.5 -5q-137 16 -219 16q-38 0 -92.5 -4t-89.5 -8z" />
<glyph unicode="s" horiz-adv-x="884" d="M176 -12q-34 15 -44 42t-5 83q5 53 2 69l-6 39q0 23 24 23q11 0 14 -5.5t3 -21.5q0 -21 4 -45q9 -56 38.5 -85.5t84.5 -45.5q89 -23 163.5 -3.5t123.5 81t49 141.5q0 98 -78 156q-35 27 -153 92t-160 106q-84 78 -81.5 180.5t89.5 178.5q45 42 115.5 62.5t156.5 11.5 q162 -17 178 -17q17 2 23 -10q4 -6 0 -19q-26 -67 -19 -161q0 -12 -4.5 -16.5t-17.5 -4.5q-12 0 -12 17q0 48 -33 93.5t-99 59.5q-7 1 -20 3t-47.5 3t-64 -3.5t-61 -21t-48.5 -44.5q-28 -57 -17.5 -110t48.5 -93q30 -33 82 -64t103.5 -56t102.5 -54.5t89.5 -71.5t52.5 -94 q32 -111 -30 -211.5t-159 -151.5q-55 -30 -115 -44t-106.5 -13t-85 6t-59.5 12z" />
<glyph unicode="t" horiz-adv-x="753" d="M469 -27q-112 0 -184 50.5t-72 150.5v481l-4 269q0 13 -5.5 20t-10.5 8h-5q-42 3 -83 3t-61 -1l-21 -2q-10 0 -16 6t-7 12v5v22q0 12 6 18.5t12 7.5l7 1h36q51 0 90.5 13t63.5 32.5t39 46.5t21 52.5t6 52.5v45q0 7 8 11t16 5h8q17 0 22 -6.5t5 -24.5v-202q0 -11 7 -17.5 t13 -7.5h7q65 -3 133 -3t104 1l35 2q16 2 24.5 -2.5t9.5 -9.5l1 -6v-29q0 -13 -9 -19t-17 -6h-9q-68 3 -136 3t-102 -1l-34 -2q-27 0 -27 -22v-262q0 -314 14 -457q6 -46 23.5 -80t39 -49.5t42 -24t33.5 -9.5l14 -1q90 0 143 35q17 12 33 -8l6 -8q3 -6 3 -10t-3 -6l-2 -3 q-36 -32 -90 -50.5t-90 -20.5z" />
<glyph unicode="u" horiz-adv-x="1286" d="M702 -20q-67 -17 -132 -19t-128 15t-110 52t-76 99.5t-29 151.5q2 229 0 452q0 26 -2.5 65t-14.5 91.5t-30 66.5q-18 19 -106 31q-11 2 -13 14q1 1 0 7t3.5 12.5t13.5 5.5q137 -14 262 -14q9 0 13.5 -1t8.5 -7.5t3 -20.5q-5 -63 -5 -84q-7 -327 0 -618q0 -14 1 -26 t5.5 -35.5t10.5 -43.5t18.5 -44.5t29 -43t42 -35t56.5 -24t74.5 -7t94.5 12.5q45 11 81 27t62.5 39.5t46 48.5t32 62t20 70.5t11.5 82.5t4.5 91.5t0.5 102.5q1 52 0.5 97t-1.5 97.5t-1 59.5q0 109 -43 143q-18 19 -106 31q-13 0 -15 10q1 1 0 8t4 14.5t15 6.5 q131 -14 203 -14q38 0 89 3.5t83 6.5l32 4q10 1 15 -6.5t5 -15.5l-1 -7q-1 -3 -2.5 -5t-3.5 -3t-4 -1.5t-3 -0.5h-2q-39 -5 -65.5 -13t-33.5 -13l-7 -5q-15 -12 -21 -36q-12 -41 -14 -206t1 -285.5t7 -211.5q4 -90 19 -128.5t45 -43.5q69 -12 104 -20q17 -3 17 -15 q0 -3 -0.5 -8t-6.5 -12t-18 -4q-5 1 -14.5 3t-37.5 6.5t-56 6t-66.5 -1t-71.5 -10.5q-12 -4 -18 -4q-12 0 -16 8q-4 6 0 28q9 33 2 60q-4 12 -11 14q-10 3 -18 -2q-114 -90 -232 -112z" />
<glyph unicode="v" horiz-adv-x="1230" d="M557 -39q-11 0 -14 12q-16 62 -44 145t-65 178t-65 163.5t-67.5 161t-47.5 112.5q-93 225 -158 238q-17 6 -80 14q-12 2 -14 10q1 1 -0.5 8t3.5 14.5t15 6.5q113 -14 191 -14q33 0 88 3.5t94 6.5l39 4q9 1 13 -6.5t4 -15.5v-7q0 -4 -3.5 -6.5t-6.5 -2.5l-3 -1 q-43 -5 -69.5 -14t-31.5 -15l-5 -6q-9 -11 -0.5 -40t30.5 -84q5 -11 7 -17q231 -587 256 -647q5 -11 14.5 -11.5t15.5 11.5q236 511 285 629q31 79 32 107q2 33 -16 54q-16 23 -69 33q-9 2 -13 10q-2 4 -2 11q0 18 15 18q4 0 68.5 -7t99.5 -7q30 0 93.5 7t72.5 7t12 -14v-15 l-12 -10q-36 -4 -63 -12t-36 -13l-8 -6q-14 -9 -28 -27t-22 -33.5t-20.5 -41t-19.5 -37.5q-69 -138 -192.5 -410t-161.5 -380q-5 -13 -17 -17q-42 -16 -63 -33q-17 -14 -31 -14z" />
<glyph unicode="w" horiz-adv-x="1742" d="M575 -39q-11 0 -14 12l-14 50q-22 80 -281 790q-52 127 -172 158q-19 6 -82 14q-12 2 -12 10q1 1 0 8t3 14.5t13 6.5q138 -14 220 -14q36 0 98.5 3.5t106.5 6.5l44 4q9 1 13 -6.5t4 -15.5v-7q0 -4 -3 -6.5t-7 -2.5l-3 -1q-24 -3 -43.5 -7.5t-27.5 -7.5l-8 -3 q-41 -15 0 -150q30 -101 101.5 -301.5t111.5 -300.5q5 -9 13 -8t11 10q128 368 195 617q9 32 -11 65q-14 26 -19.5 35.5t-17.5 21.5t-26 15q-17 6 -80 14q-12 0 -14 10q1 1 -0.5 8t3.5 14.5t15 6.5q113 -14 172 -14h72q21 0 27 -19q41 -126 144.5 -390t160.5 -394 q5 -9 14 -9.5t14 9.5q28 83 97 297t82 264q45 155 0 190q-19 17 -78 27q-13 2 -15 8q1 1 0 8.5t4 15.5t15 7q111 -14 160 -14q24 0 64.5 3.5t69.5 6.5l29 4q10 1 15 -7t5 -16l-1 -8q-1 -3 -4.5 -5t-6.5 -2l-3 -1l-74 -16q-39 -10 -58 -60q-55 -137 -156 -445t-132 -439 q-5 -13 -17 -19q-26 -13 -49 -33q-12 -12 -24 -12q-14 0 -17 12l-14 50q-56 169 -277 714q-5 11 -13 11.5t-13 -9.5q-38 -103 -114 -340t-105 -346l-7 -28q-3 -13 -16 -19q-27 -17 -45 -35q-10 -10 -23 -10z" />
<glyph unicode="x" horiz-adv-x="1177" d="M80 -16q-10 -2 -15 4.5t-5 13.5l1 8q1 3 2.5 5t3.5 3t4 1.5t3 0.5h2q32 5 61.5 13t42.5 13l13 5q33 16 83 80q75 113 252 391q14 19 0 39q-107 180 -217 340q-43 57 -98 70q-17 6 -80 14q-12 2 -14 10v8.5t4.5 13.5t13.5 7q131 -14 199 -14q38 0 93.5 3.5t91.5 6.5l36 4 q9 1 13 -6.5t4 -15.5l-1 -7q0 -4 -3 -6.5t-6 -2.5l-3 -1l-80 -18q-33 -8 4 -80q43 -78 125 -217q9 -15 19 -15q8 0 18 13q16 27 54.5 86.5t54.5 89.5q8 15 19.5 36t16.5 30.5t9 20.5t3 17t-7 10q-25 19 -78 27q-12 2 -14 10q1 1 -0.5 8t3.5 14.5t15 6.5q94 -14 160 -14 q34 0 75.5 3.5t65.5 6.5l25 4q9 1 13.5 -6.5t4.5 -15.5v-7q0 -4 -3.5 -6.5t-7.5 -2.5l-3 -1l-74 -16q-31 -7 -58.5 -26t-43.5 -42q-54 -80 -199 -301q-8 -12 -8 -19.5t8 -19.5q7 -15 113.5 -180.5t162.5 -249.5q49 -61 84 -80q33 -19 107 -31q10 0 12 -10q-1 -1 0 -7.5 t-3 -13.5t-13 -5q-125 16 -195 16q-31 0 -81.5 -4t-84.5 -8l-35 -4q-10 -2 -14.5 3.5t-4.5 12.5l1 6q0 5 3.5 8.5t7.5 4.5l3 1q48 11 65.5 30t11.5 32l-7 14q-10 15 -82 147t-135 216q-8 10 -16 10q-10 0 -17 -10l-29 -45q-113 -174 -192 -316q-1 -2 -2.5 -6t-1.5 -14.5 t5.5 -19.5t23.5 -20t47 -18q10 0 12 -10q-1 -1 0 -7.5t-3 -13.5t-13 -5q-120 16 -179 16q-24 0 -61 -4t-62 -8z" />
<glyph unicode="y" horiz-adv-x="1345" d="M334 -557q-22 14 -32.5 30.5t-9 29t6 23.5t10.5 17l6 6q19 19 47 34t46 21l18 5q22 6 41.5 27t26.5 33t20 38l86 203q2 4 3.5 16t0 37t-9.5 51q-32 104 -155.5 408.5t-182.5 433.5q-24 48 -46.5 76.5t-53.5 38.5q-17 6 -80 14q-15 2 -15 16v5q0 7 5.5 13t13.5 5 q114 -14 180 -14q31 0 88.5 3.5t102.5 7t47 3.5q12 0 12 -16v-9q0 -6 -3 -9.5t-6 -3.5l-3 -1q-43 -5 -69.5 -14t-32.5 -15l-5 -6q-7 -8 -8 -17.5t3.5 -23.5t10 -26.5t15 -34t16.5 -39.5q190 -502 244 -631q7 -13 20 -13.5t23 15.5q48 111 159.5 355t135.5 299q25 66 0 118 q-11 23 -70 33q-14 2 -14 12v9q0 8 5 13.5t13 4.5q117 -14 166 -14q28 0 65.5 3.5t65 7t31.5 3.5q12 0 12 -14v-9q0 -6 -3 -10t-6 -5l-3 -1q-36 -4 -63 -12t-35 -13l-9 -6q-14 -9 -24 -23t-22.5 -39t-18.5 -36q-214 -411 -576 -1292q-38 -86 -94.5 -115t-95.5 -6z" />
<glyph unicode="z" horiz-adv-x="1046" d="M877 -16q-317 16 -443 16q-28 0 -66 -1.5t-93 -4.5t-93 -4q-28 -1 -60 -4t-33 -2.5t-17 2.5q-2 1 -4 3t-5.5 9t3.5 16q111 148 322.5 457t281.5 432q12 26 6.5 34.5t-27.5 10.5q-202 16 -332 4q-104 -8 -120 -32q-29 -25 -35 -103q0 -12 -10 -12h-8t-12.5 4t-6.5 12 q5 39 2 79t-5.5 55t-10.5 49q-4 11 0.5 16.5t10.5 5.5h7q55 -6 131.5 -10t125.5 -5l50 -1q73 0 215.5 6.5t188.5 7.5q28 1 35.5 -20.5t-7.5 -40.5q-92 -125 -294.5 -426t-284.5 -435q-7 -12 1 -21t27 -11q60 -5 166 -9t182 -5l76 -1q64 -1 106.5 8.5t52.5 18.5l11 10 q22 32 29 90q3 39 16 39q1 -1 9 0t15.5 -4.5t4.5 -17.5q-3 -10 -7 -26.5t-10.5 -56.5t-4.5 -67l2 -29q0 -8 -3.5 -15t-7.5 -10l-4 -3q-7 -6 -25.5 -8t-32.5 -1z" />
<glyph unicode="{" horiz-adv-x="620" d="M518 -389q-5 0 -14.5 0.5t-36.5 5t-52 12.5t-55 25t-51 41l-5.5 5.5t-12.5 18.5t-17 33t-16 50t-12 69t-3 91t9 114q1 12 3 32t6.5 74t7 99t2 91t-4.5 66q0 3 -1.5 9t-11 21t-25 26.5t-49.5 22.5t-79 13q-18 1 -18 19v22v1q0 1 0.5 2.5l1 3t2 3.5t3 3.5t4.5 2.5t7 1 q45 2 79 12.5t50 23.5t25 26t10 22l2 8q7 45 3.5 125t-10.5 159l-7 78q-11 88 -9 153t12.5 108.5t22.5 70t22 38.5l9 11q34 37 86 58t87 23l36 3q8 0 13 -4.5t7 -8.5l1 -5v-33q0 -6 -5.5 -9.5t-10.5 -4.5h-5q-43 -5 -74.5 -23t-46.5 -40.5t-23.5 -44t-9.5 -36.5l-2 -14 q-5 -51 4 -172t21 -216l12 -95q5 -47 -6.5 -88t-29.5 -66t-44 -45.5t-41.5 -28.5t-29.5 -14q14 -6 29.5 -14t41.5 -28.5t44 -45.5t29.5 -66t6.5 -88q-5 -41 -13 -105.5t-18.5 -195.5t-5.5 -182q0 -6 1.5 -15.5t10 -34.5t23.5 -45t46.5 -39t74.5 -24q21 0 21 -14v-33 q-3 -18 -21 -18z" />
<glyph unicode="|" horiz-adv-x="305" d="M129 -408q-12 0 -19.5 8t-7.5 19v1997q0 20 27 20h51q23 0 23 -20v-1997q0 -27 -23 -27h-51z" />
<glyph unicode="}" horiz-adv-x="620" d="M102 -389q-8 0 -13 4.5t-6 8.5l-1 5v33q0 6 5 9.5t10 4.5h5q42 5 73.5 23t46.5 40.5t24 44t10 36.5l2 14q4 51 -5.5 172t-21.5 216l-12 95q-5 47 7 88t30.5 66.5t44 45.5t42 28.5t30.5 13.5q-14 5 -30.5 13.5t-42 28.5t-44 45.5t-30.5 66.5t-7 88q5 41 13 105.5t19 195.5 t7 182q0 6 -1.5 15.5t-10.5 34.5t-24 45t-46.5 39t-73.5 24q-20 0 -20 14v33q2 18 20 18q5 0 14.5 -0.5t36.5 -5t52 -12.5t55 -25t51 -41l5.5 -5.5t12.5 -18.5t17 -33t16 -50t12 -69t2.5 -91t-9.5 -114q-1 -12 -3 -32t-6 -74t-6.5 -99t-2 -91t4.5 -66q0 -3 1 -9t10.5 -21 t25 -26.5t49.5 -22.5t80 -13q8 0 13 -4t5 -8l1 -5v-22q0 -8 -4.5 -12.5t-9.5 -5.5l-5 -1q-46 -2 -80 -12.5t-49.5 -23.5t-25 -26t-10.5 -22l-1 -8q-7 -45 -4 -125t10 -159l7 -78q11 -88 9.5 -153t-11.5 -108.5t-22 -70t-22 -38.5l-10 -11q-34 -37 -86 -58t-87 -23z" />
<glyph unicode="~" horiz-adv-x="958" d="M616 670q-63 0 -115 20t-97 40t-93 20q-43 0 -81 -22.5t-62 -53.5q-9 -7 -17.5 -5t-14.5 7l-7 6l-16 18q-18 21 -2 37q36 49 96 82t127 33q68 0 161 -40t146 -40q82 0 131 68q7 10 18.5 12.5t19.5 -0.5l7 -2l19 -10q12 -5 16.5 -14t3.5 -15l-2 -6q-33 -59 -98 -97 t-140 -38z" />
<glyph unicode="&#xa1;" horiz-adv-x="532" d="M268 834q-44 -1 -74 28t-30 72q0 44 29 73t73 31q43 0 73 -29t30 -73q0 -43 -29 -72.5t-72 -29.5zM225 -473q-19 -2 -32 10t-13 31v6q0 3 4 72.5t9.5 170t11.5 233t12 304t10 340.5q0 14 9.5 23.5t23.5 9.5t23.5 -9.5t9.5 -23.5q26 -498 69 -995q2 -16 -14 -53 q-27 -69 -100 -113q-9 -6 -23 -6z" />
<glyph unicode="&#xa2;" horiz-adv-x="1134" d="M985 197q7 -6 6 -15t-5 -18l-5 -8q-119 -182 -363 -195v-84q0 -27 -22 -27h-51q-12 0 -19.5 8t-7.5 19v86q-148 14 -255.5 85t-158.5 202q-70 163 -26.5 352.5t182.5 308.5q110 91 258 127v107q0 20 27 20h51q12 0 17 -4t5 -16v-92h7q84 3 151 -11t106 -37t63 -51.5 t30 -53.5t0 -44q-13 -36 -38.5 -45t-44.5 -1l-20 9q-22 13 -40.5 38t-26.5 44l-8 19q-22 46 -73.5 65t-98.5 19h-7v-981q48 0 87 8q83 18 144 65.5t95 100.5q5 7 14 8t15 -1l6 -3zM221 414q24 -136 105.5 -235.5t191.5 -137.5v946q-71 -24 -132 -73t-107 -123t-61.5 -168.5 t3.5 -208.5z" />
<glyph unicode="&#xa3;" horiz-adv-x="1206" d="M119 18q-2 2 -4.5 5.5t-7 14.5t-4.5 22t7 26t23 29q9 6 24 18t52.5 50t64.5 79q3 4 8.5 13.5t19.5 44.5t24 78t17 118t5 160q0 10 -14 10h-193q-9 0 -15.5 7.5t-6.5 17.5v39q0 10 6.5 17t15.5 7h185q18 0 18 12q-1 6 -2 17t-2 16q-1 8 -2.5 23t-1.5 60.5t5.5 89.5 t24 103.5t47.5 111t82 104t123 88.5q9 5 24.5 11.5t59 20t81 18t80.5 -6.5t69 -43q2 -3 5 -8t7.5 -20.5t-0.5 -29.5q-11 -63 -31 -73q-3 -2 -9.5 -3t-29.5 9.5t-49 36.5q-4 4 -11.5 10.5t-31 19.5t-48 18t-60.5 -3.5t-70 -34.5q-3 -2 -7 -6t-17 -19t-22.5 -34t-23 -51.5 t-19 -70.5t-10.5 -90.5t3 -113.5l2 -152q0 -10 16 -10h353q11 0 17.5 -7t6.5 -17v-39q0 -11 -7 -18t-17 -7h-351q-7 -1 -11 -4t-5 -6v-2v-39q0 -10 -0.5 -26.5t-9 -66t-24.5 -96.5t-52 -107t-86 -108q-8 -7 -9 -11t1 -4.5t8 -0.5q2 0 4 2q160 23 387 -106q2 -1 6.5 -3.5 t18.5 -9.5t28 -12.5t33 -11.5t36.5 -9t36.5 -2t34 7q1 0 2.5 1t6 3.5t9 6t10 9t10 11.5t8.5 15t5.5 19t0.5 22.5t-5 26.5q-18 74 0 101l5.5 5.5t16 8.5t25.5 4t32.5 -12t39.5 -35q3 -3 7 -9t7 -27.5t-4.5 -46t-38 -63.5t-82.5 -81q-9 -6 -24.5 -15t-67.5 -24.5t-106 -17.5 t-134.5 20.5t-159.5 75.5q-4 3 -11.5 8t-33 18.5t-52.5 19.5t-69.5 10.5t-84.5 -7.5q-15 -2 -15 -15q10 -24 -14 -63q-2 -3 -5.5 -7.5t-14.5 -14.5t-21 -15t-23.5 -2t-23.5 18z" />
<glyph unicode="&#xa4;" horiz-adv-x="868" d="M168 367l-51 34q-8 6 -10 16.5t4 16.5l39 51q8 13 8.5 27t-2.5 22l-4 7q-50 79 -50 168q0 91 50 170q16 26 -2 55l-39 51q-6 6 -4 16.5t10 16.5l51 35q6 5 16.5 3t16.5 -9l26 -37q9 -13 19.5 -16t17.5 0l6 3q73 43 164 43q96 0 170 -45q21 -14 39 15l27 37q13 17 35 6 l49 -35q7 -6 8.5 -16.5t-4.5 -16.5l-33 -51q-9 -13 -10 -26.5t3 -21.5l3 -7q45 -71 45 -170q0 -97 -45 -168q-16 -27 4 -56l33 -51q6 -6 4.5 -16.5t-8.5 -16.5l-49 -34q-9 -7 -19 -5t-16 11l-27 37q-8 11 -18.5 14t-16.5 0l-6 -2q-71 -43 -168 -43q-91 0 -164 43 q-23 13 -43 -12l-26 -37q-6 -9 -16.5 -11t-16.5 5zM432 465q103 0 175.5 72.5t72.5 173.5q0 102 -72.5 172.5t-175.5 70.5q-100 0 -171 -70.5t-71 -172.5q0 -101 71 -173.5t171 -72.5z" />
<glyph unicode="&#xa5;" horiz-adv-x="1619" d="M526 -16q-12 -2 -17.5 5t-4.5 15v8q1 3 5 5t7 3h4q48 5 81 13t41 13l9 5q25 16 40.5 71.5t18.5 102.5l3 47l6 205h-293q-9 0 -16 7t-7 16v41q0 9 7 15.5t16 6.5h289q-60 117 -68 129h-221q-9 0 -16 7.5t-7 17.5v39q0 9 7 15.5t16 6.5h174q-192 347 -350 596 q-17 26 -74 35l-57 6q-17 2 -17 8q1 1 -0.5 8t4 14.5t17.5 6.5q69 -14 227 -16q70 1 131 5t87 7l26 4q12 1 17.5 -6.5t4.5 -15.5v-7q-1 -3 -5.5 -5t-8.5 -2l-4 -1q-14 -2 -46 -5t-46 -5q-29 -4 -38.5 -19t-3.5 -28l5 -12q126 -258 297 -568h92q202 321 338 555l2 3q1 4 2 7 t2 8.5t1 10t-0.5 10.5t-4 10.5t-8 9t-12.5 8t-19 5.5q-14 2 -41.5 5t-40.5 5q-14 2 -16 8q1 1 0 8t4.5 14.5t17.5 6.5q72 -16 232 -16q53 0 98 4t63 8l19 4q12 1 17.5 -6.5t5.5 -15.5v-7q-1 -3 -5.5 -5t-8.5 -2l-5 -1l-51 -6q-68 -11 -102 -45q-180 -251 -394 -586h197 q10 0 17.5 -6.5t7.5 -15.5v-39q0 -11 -7 -18t-18 -7h-252l-41 -61v-68h293q10 0 17.5 -6.5t7.5 -15.5v-41q0 -9 -7.5 -16t-17.5 -7h-291q0 -79 4 -205q1 -21 3 -52.5t18 -92t41 -76.5q22 -19 131 -31q14 -2 16 -8q-1 -1 0.5 -8t-4 -14.5t-18.5 -5.5q-81 14 -261 16 q-81 -1 -146.5 -5t-90.5 -7z" />
<glyph unicode="&#xa6;" horiz-adv-x="305" d="M121 848q-7 0 -13 6t-6 14v541q0 11 6 18t13 7h59q23 0 23 -25v-541q0 -20 -23 -20h-59zM121 2q-6 0 -12.5 5.5t-6.5 12.5v541q0 11 6 18t13 7h59q23 0 23 -25v-541q0 -18 -23 -18h-59z" />
<glyph unicode="&#xa7;" horiz-adv-x="933" d="M238 45q-2 2 -5 7t-7 19t-1 29q9 48 27 54q2 2 7 3.5t26 -8t49 -34.5q6 -4 15.5 -11t38.5 -19t56 -15.5t60.5 9.5t58.5 46q24 54 12 108t-49 103t-76 87t-70 61l-30 22q-80 64 -135 140t-76 138.5t-30.5 116t-6.5 83.5l2 30q15 99 91.5 204t203.5 171q8 4 22.5 10.5 t55 19t76 16.5t76 -6t65.5 -40l5 -7.5t8 -20t0 -28.5q-7 -47 -25 -55q-2 -2 -7 -3.5t-26.5 8t-50.5 34.5q-6 5 -15.5 11.5t-38.5 19t-56 16t-60.5 -9.5t-58.5 -47q-24 -53 -11.5 -106.5t49.5 -103t76 -87.5t70 -61l31 -23q78 -59 132 -132.5t75.5 -136.5t31.5 -118t8 -87 l-2 -32q-10 -64 -44.5 -130.5t-99.5 -133t-150 -111.5q-9 -4 -23.5 -10.5t-55 -19t-76.5 -16.5t-76.5 6t-65.5 40zM668 215q80 72 80 205q0 48 -23 105t-55.5 104.5t-65 87.5t-55.5 63l-23 23q-139 126 -191 230.5t-52 176.5q0 3 -1 6t-5 8t-13 -5q-80 -76 -80 -205 q0 -49 23 -106.5t55.5 -105t65 -87.5t55.5 -63l23 -23q239 -215 245 -410q0 -6 3.5 -8.5t13.5 4.5z" />
<glyph unicode="&#xa8;" horiz-adv-x="681" d="M197 1550q-35 0 -59.5 24.5t-24.5 59.5t24.5 59.5t59.5 24.5q34 0 59 -24.5t25 -59.5t-25 -59.5t-59 -24.5zM483 1550q-35 0 -58.5 24.5t-23.5 59.5t23.5 59.5t58.5 24.5q36 0 60 -24t24 -60t-24 -60t-60 -24z" />
<glyph unicode="&#xa9;" horiz-adv-x="1658" d="M829 -12q-196 0 -363.5 98.5t-265.5 266.5t-98 364q0 198 98 366t265.5 265.5t363.5 97.5q149 0 284 -57.5t232 -155.5t154 -232.5t57 -283.5q0 -147 -57 -281.5t-154 -233t-232 -156.5t-284 -58zM829 80q130 0 247.5 50.5t202.5 135.5t135 203t50 248q0 129 -50 246.5 t-135 202.5t-202.5 135.5t-247.5 50.5q-172 0 -318 -85t-231 -231.5t-85 -318.5q0 -130 50 -248t135 -203t202.5 -135.5t246.5 -50.5zM754 326q-85 6 -140 30q-70 29 -119 91.5t-71 146.5q-40 169 47 319q44 74 110 126t148 73q53 16 119 16q93 0 246 -36l28 -13l-4 -26 q-6 -68 -6 -107q0 -24 -12 -26q-13 -2 -21 -2q-21 0 -28 7t-7 21q0 22 -1.5 38t-2.5 21l-2 5q-3 14 -37 24q-61 23 -118 29q-86 18 -156 -19q-100 -34 -156 -155q-47 -89 -20 -227q24 -125 108 -209q82 -70 181 -70h20q19 1 40 4t37 7t34 9t28.5 9t23.5 8.5t15 5.5 q18 9 23 74q0 7 7 15.5t15 8.5h7q30 0 32 -12q4 -6 4 -18q0 -1 -2 -15.5t-4 -39t-2 -48.5q0 -18 -14 -27.5t-29 -11.5q-140 -26 -256 -26h-65z" />
<glyph unicode="&#xaa;" horiz-adv-x="595" d="M188 936q-69 0 -108 33t-39 80q0 95 98 155q80 46 215 78v18q0 25 -1 40.5t-6 35.5t-15 31t-28 19t-44 8q-29 0 -45 -7.5t-27 -31.5q-9 -29 -36 -54q-6 -4 -16 -9t-31.5 -2.5t-32.5 26.5q-2 9 -2.5 22t12.5 29t31.5 30t53.5 23t79 10h2q68 -1 112 -12.5t65.5 -35 t28.5 -49t7 -64.5v-240q0 -36 5.5 -55t11.5 -20l5 -1q10 0 33 29q6 11 15 11t15 -5l5 -6q3 -3 4 -6t1 -4l-1 -2q-14 -33 -39 -51.5t-43 -20.5l-18 -2q-39 0 -59.5 18t-24.5 39q-3 12 -9 6q-30 -31 -80 -47t-94 -16zM242 989q33 0 80 29q31 19 34 53v141v23q-73 -16 -112 -37 q-99 -45 -99 -119q0 -90 97 -90z" />
<glyph unicode="&#xab;" horiz-adv-x="768" d="M344 311q-86 136 -209 275q-12 12 -12 30t12 33q55 62 107 130t77 105l25 38q5 7 13 7t13 -3l5 -4q10 -5 10 -17t-5 -21l-5 -10q-24 -49 -54 -105.5t-49 -88.5l-18 -31q-4 -4 -4 -8q-4 -11 -4 -25t4 -22q0 -4 4 -8q68 -115 121 -226q23 -35 0 -49q-19 -16 -31 0zM606 311 q-88 136 -209 275q-12 12 -12 30t12 33q54 62 106 130t77 105l26 38q5 7 13 7t13 -3l5 -4q9 -5 9 -17t-4 -21l-5 -10q-24 -49 -54.5 -105.5t-49.5 -88.5l-19 -31l-2 -8q-6 -11 -6 -25q0 -6 2 -13.5t2 -8.5q4 -4 4 -8q70 -115 123 -226q20 -35 0 -49q-19 -16 -31 0z" />
<glyph unicode="&#xac;" horiz-adv-x="1144" d="M965 113q-10 0 -17.5 6t-7.5 12v389q0 25 -25 25h-792q-8 0 -14.5 7t-6.5 17v56q0 7 6.5 13.5t14.5 6.5h901q7 0 12.5 -6t5.5 -14v-494q0 -6 -5.5 -12t-12.5 -6h-59z" />
<glyph unicode="&#xad;" horiz-adv-x="665" d="M145 553q-9 0 -15.5 6.5t-6.5 15.5v58q0 9 6.5 15.5t15.5 6.5h375q9 0 16 -6.5t7 -15.5v-58q0 -9 -7 -15.5t-16 -6.5h-375z" />
<glyph unicode="&#xae;" horiz-adv-x="1662" d="M831 -12q-197 0 -365 98t-266 266t-98 365t98 365t266 266t365 98q148 0 283 -58t233 -155.5t156 -232.5t58 -283t-58 -283t-156 -232.5t-233 -155.5t-283 -58zM831 80q130 0 248 50.5t203 135.5t135.5 203t50.5 248t-50.5 248t-135.5 203t-203 135.5t-248 50.5 t-247.5 -50.5t-202.5 -135.5t-135.5 -203t-50.5 -248t50.5 -248t135.5 -203t202.5 -135.5t247.5 -50.5zM514 303q-12 0 -20 8q-9 9 -9 25v2q5 16 29 16h-2q45 4 66 15q9 11 14.5 46.5t5.5 59.5v8q4 140 4 234q0 93 -4 237v2q0 25 -5.5 61.5t-14.5 45.5q-1 0 -7.5 2l-13 4 t-19 4.5t-26.5 3.5h2q-7 0 -16.5 4.5t-12.5 12.5v2q0 15 9 24q8 8 24 8q1 0 7 -1t18 -2t27.5 -2t39 -2t49.5 -1q10 0 22 0.5t23 1.5t20 2t15 2h6h-2q48 5 154 2q12 0 31 -1.5t63.5 -18.5t71.5 -47q56 -59 47 -160q0 -6 -2 -17t-13 -42t-28 -58.5t-53 -59.5t-84 -52l28 -35 q96 -122 216 -260q11 -13 18 -17l29 -10q10 -5 12 -12v-2q0 -12 -6 -23q-4 -8 -10 -8h-72q-30 0 -51.5 6t-29.5 12.5t-9 12.5q-126 170 -221 278l-13 17q-9 11 -22 14h-8q-17 0 -41 4h2q-12 0 -21.5 9t-9.5 18q0 13 9.5 19.5t18.5 6.5h9q12 0 31.5 -1t28.5 -0.5t23.5 2.5 t28 8t29.5 16q42 42 62 78q46 98 2 186l-2 4q-2 4 -5 8.5t-8 11t-11.5 12.5t-15.5 12.5t-21 12t-26 10t-32.5 7t-38.5 2.5q-33 -2 -76 -12q-2 -9 -4 -29v-2q-2 -6 -2 -24v-48l-2 2q-4 -144 -4 -241q0 -164 4 -234v-16q4 -86 22 -98q13 -9 64 -15h-2q23 0 28 -16v-2 q0 -17 -8 -25t-22 -8h-2l-8 2q-40 6 -134 6q-52 0 -95 -4t-48 -4z" />
<glyph unicode="&#xaf;" horiz-adv-x="456" d="M74 1561q-9 0 -16 7t-7 15v57q0 9 7 16t16 7h309q8 0 15.5 -7t7.5 -16v-57q0 -7 -7.5 -14.5t-15.5 -7.5h-309z" />
<glyph unicode="&#xb0;" horiz-adv-x="677" d="M342 1047q-100 0 -170 67t-70 166q0 100 70 170t170 70q94 0 163.5 -70.5t69.5 -169.5q0 -98 -69 -165.5t-164 -67.5zM342 1137q58 0 99.5 42t41.5 101q0 63 -41 106.5t-100 43.5q-63 0 -106 -43.5t-43 -106.5q0 -59 43 -101t106 -42z" />
<glyph unicode="&#xb1;" horiz-adv-x="1017" d="M479 186q-10 0 -17 7t-7 16v295q0 15 -11 24t-26 9h-291q-10 0 -17.5 7.5t-7.5 16.5v62q0 10 7 17t18 7h291q37 0 37 35v293q0 11 6.5 17.5t17.5 6.5h62q9 0 16.5 -7t7.5 -17v-293q0 -15 11 -25t26 -10h291q9 0 15.5 -7t6.5 -17v-62q0 -9 -6.5 -16.5t-15.5 -7.5h-291 q-15 0 -26 -9t-11 -24v-295q0 -9 -7.5 -16t-16.5 -7h-62zM127 0q-11 0 -18 7t-7 18v61q0 9 7.5 17t17.5 8h766q9 0 15.5 -8t6.5 -17v-61q0 -10 -6.5 -17.5t-15.5 -7.5h-766z" />
<glyph unicode="&#xb2;" horiz-adv-x="628" d="M66 786q-14 -2 -21 7t-5.5 20.5t9.5 17.5q199 183 269 283t85 191q13 114 -25 165.5t-104 51.5q-76 0 -129 -66q-11 -8 -26 -8q-22 0 -28.5 12.5t5.5 24.5q29 33 69 55t65 28l26 5q55 8 99 -0.5t71.5 -30t48 -51.5t27.5 -65.5t9.5 -71.5t-5.5 -70q-9 -38 -27 -75 t-57 -85.5t-57.5 -70t-79.5 -85t-72 -75.5q-19 -19 0 -19q144 -21 354 -4h-2q21 3 21 -16q-3 -25 0 -47q0 -13 -5 -18t-16 -3q-103 8 -255.5 8t-243.5 -8z" />
<glyph unicode="&#xb3;" horiz-adv-x="542" d="M236 797q-82 0 -138.5 27.5t-56.5 52.5q0 11 3.5 14.5t14.5 3.5q14 0 61.5 -22.5t92.5 -22.5q85 0 132.5 49t47.5 135q0 82 -52 127t-122 45q-31 0 -40 3t-9 14t27 25.5t59 30t59 49t27 77.5q0 62 -27.5 92.5t-74.5 30.5q-27 0 -49.5 -11t-34.5 -25t-26 -25t-26 -11 q-14 0 -20.5 10t-3.5 19q15 35 61 63.5t135 28.5q62 0 114 -38.5t52 -98.5q0 -99 -118 -176q75 -10 126.5 -62t51.5 -143q0 -70 -22.5 -122.5t-61 -82t-84 -43.5t-98.5 -14z" />
<glyph unicode="&#xb4;" horiz-adv-x="503" d="M164 1475q-17 -8 -27 2q-14 14 0 28q164 158 246 271q5 8 16.5 10t20.5 -4q47 -35 74 -90q3 -12 0 -20t-8 -12l-5 -3q-206 -110 -317 -182z" />
<glyph unicode="&#xb6;" horiz-adv-x="1452" d="M557 -408q-12 0 -12 21q0 16 12 16q38 5 66 12.5t37 12.5l8 4q26 13 37.5 52.5t11.5 70.5q11 524 0 1007q-7 178 -60 187q-61 9 -121 9.5t-120.5 -21.5t-98.5 -64q-59 -59 -76 -140.5t17 -166.5q30 -69 77.5 -115t105 -65t100.5 -25t94 -6q8 0 12 -9.5t0 -19.5 q-6 -11 -22 -14q-156 -26 -296.5 45.5t-195.5 208.5q-46 113 -22 205.5t98 156t174 80.5q27 3 55 4t63.5 0t52 -2t62 -4.5t52.5 -3.5q45 -6 125 -6h319q149 0 221 12q17 3 17 -16q0 -15 -17 -17q-38 -5 -65 -11.5t-35 -10.5l-8 -4q-20 -9 -32.5 -55t-14.5 -88l-2 -41 q-3 -100 -3.5 -402t3.5 -598q0 -102 49 -133q44 -25 112 -29q13 0 13 -18q0 -19 -13 -19l-10 2q-10 2 -28 4t-42 4.5t-60 4.5t-75 2h-346q-43 0 -80.5 -2t-61 -4.5t-40.5 -4.5t-26.5 -4t-10.5 -2zM944 -354q96 0 96 135q6 283 5.5 601t-5.5 409q-2 41 -3 57.5t-4.5 45.5 t-9 40.5t-15.5 26t-24.5 19.5t-35.5 5q-17 0 -30 -4t-22.5 -14t-16.5 -18t-11.5 -26.5t-7 -29t-4.5 -35t-2.5 -34.5t-1.5 -38q-11 -474 0 -1009q2 -52 25 -91.5t67 -39.5z" />
<glyph unicode="&#xb7;" horiz-adv-x="450" d="M225 616q-46 0 -79 32.5t-33 78.5t33.5 80.5t78.5 34.5q47 0 80 -34.5t33 -80.5t-33 -78.5t-80 -32.5z" />
<glyph unicode="&#xb8;" horiz-adv-x="380" d="M102 -401q-8 4 -19 12t-24.5 27.5t-3.5 35.5q1 1 2.5 3.5t7 7t11.5 6.5t16 0t21 -10q5 -4 12.5 -9.5t29.5 -14t40 -5.5q3 0 6.5 1.5t14.5 6.5t15.5 13.5t9 23.5t-4.5 35q-3 7 -9 18.5t-31.5 36t-58.5 37.5l-13 2q-5 4 1 10q7 5 18.5 16t37.5 50t42 84q13 28 29 28h47 l-12 -10q-3 -4 -7.5 -12t-14.5 -28.5t-15 -38.5t-4 -37t12 -29q5 -3 13 -9t25.5 -26.5t26 -42t4.5 -54t-28 -65.5l-6 -6t-16 -15t-24.5 -20t-31.5 -18.5t-37 -13.5t-40 -2t-42 12z" />
<glyph unicode="&#xb9;" horiz-adv-x="452" d="M102 799q-6 0 -8 3t-2 13q0 21 10 21q47 0 72 18q11 6 18.5 33t9.5 51l1 23q11 273 0 454q-1 28 -10 42.5t-21 12.5q-82 -16 -119 -20q-6 -2 -9 3t-3 20q0 21 10 24q1 0 29 7t59.5 15.5t75.5 25t78 36.5q6 4 16 4q19 0 22.5 -14.5t-3.5 -22.5l-3 -6q-3 -7 -6 -16 t-6.5 -22.5t-6.5 -34.5t-5 -46q-12 -171 -2 -462q2 -93 25 -107q32 -18 77 -18q11 0 11 -21q0 -16 -11 -16q-100 8 -155 8z" />
<glyph unicode="&#xba;" horiz-adv-x="661" d="M324 938q-92 -3 -160.5 34t-100.5 107q-21 57 -21.5 112t24.5 104.5t63 87.5t93.5 60.5t117.5 22.5q119 3 198 -66t83 -188q0 -120 -82.5 -194t-214.5 -80zM369 985q68 14 106 89t23 167q-17 93 -76 144t-129 36q-68 -14 -107 -89.5t-22 -166.5q17 -93 77 -144t128 -36z " />
<glyph unicode="&#xbb;" horiz-adv-x="768" d="M133 311q-10 6 -10 18.5t5 21.5l5 9q23 49 53 105.5t49 88.5l19 32q1 1 2 4t2 4q4 8 4 22l-4 25q-1 1 -2 4t-2 4q-70 114 -121 225q-23 36 0 48q17 16 29 0q88 -134 211 -273q12 -20 12 -33q0 -14 -12 -30q-55 -62 -107.5 -130.5t-77.5 -106.5l-26 -38q-5 -7 -12.5 -7 t-11.5 4zM393 311q-9 6 -9 18.5t4 21.5l5 9q24 49 54.5 105.5t49.5 88.5l19 32q0 4 4 8q0 1 2 8.5t2 13.5l-6 25l-2 8q-70 114 -123 225q-20 36 0 48q19 16 31 0q88 -134 209 -273q12 -15 12 -33t-12 -30q-54 -62 -106 -130.5t-77 -106.5l-26 -38q-5 -7 -13 -7t-13 4z" />
<glyph unicode="&#xbc;" horiz-adv-x="1718" d="M1323 1454q9 0 11.5 -6.5t-3.5 -15.5l-915 -1430q-15 -22 -39 -22h-35q-10 0 -12 6.5t4 15.5l915 1430q15 22 37 22h37zM524 594q-100 8 -155 8l-144 -8q-6 0 -8 3t-2 13q0 21 10 21q47 0 72 18q11 6 18.5 33t8.5 50l2 24q11 273 0 454q-3 59 -31 56q-92 -18 -119 -21 q-6 -2 -9 3.5t-3 19.5q0 22 10 24q1 0 29 7t59.5 15.5t75.5 25t78 36.5q6 4 16 4q19 0 22.5 -15t-3.5 -22l-3 -6q-3 -6 -6 -15t-6.5 -22.5t-6.5 -34.5t-5 -46q-12 -171 -2 -463q1 -93 24 -107q13 -7 38 -12.5t40 -5.5q11 0 11 -21q0 -16 -11 -16zM1518 367q1 -1 12 0.5 t19 -5.5t1 -22q-11 -23 -14 -41v2q0 -2 -1.5 -5t-10 -7.5t-21.5 -3.5q-73 6 -137 6q3 -133 8 -189q0 -8 -5 -12t-23 -8q-8 -2 -43 -16q-21 -8 -33 4q-7 7 -4 20q2 5 2 21q6 147 6 180q-291 0 -369 -4q-5 0 -10.5 2t-11.5 13t18 36q79 89 200.5 251.5t166.5 248.5 q5 9 27.5 15.5t42.5 8.5l20 2q14 1 21 -5.5t5 -16.5q-20 -87 -20 -377q0 -15 -0.5 -41t-0.5 -41t1 -18q132 0 154 2zM1276 365v100q0 188 -4 254q-123 -156 -254 -352q68 -2 207 -2h51z" />
<glyph unicode="&#xbd;" horiz-adv-x="1779" d="M342 -20q-10 0 -12 6.5t4 15.5l915 1430q15 22 37 22h37q9 0 11.5 -6.5t-3.5 -15.5l-915 -1430q-15 -22 -39 -22h-35zM225 594q-6 0 -8 3t-2 13q0 21 10 21q47 0 72 18q11 6 18.5 33t8.5 50l2 24q11 273 0 454q-3 59 -31 56q-92 -18 -119 -21q-6 -2 -9 3.5t-3 19.5 q0 22 10 24q1 0 29 7t59.5 15.5t75.5 25t78 36.5q6 4 16 4q19 0 22.5 -15t-3.5 -22l-3 -6q-3 -6 -6 -15t-6.5 -22.5t-6.5 -34.5t-5 -46q-12 -171 -2 -463q1 -93 24 -107q13 -7 38 -12.5t40 -5.5q11 0 11 -21q0 -16 -11 -16q-100 8 -155 8zM1096 90q-14 -2 -21 7t-5.5 20.5 t9.5 17.5q199 183 269.5 283t85.5 190q13 114 -25 165.5t-104 51.5q-77 0 -129 -65q-11 -8 -27 -8q-22 0 -28.5 12t5.5 24q29 33 69 55t65 28l26 6q55 8 99 -0.5t71.5 -30t48 -51.5t27.5 -65.5t9.5 -71.5t-5.5 -70q-9 -38 -27 -75t-57 -85.5t-57.5 -70t-79.5 -85t-72 -75.5 q-19 -19 0 -19q144 -21 354 -4h-2q21 3 21 -16q-3 -25 0 -47q0 -13 -5 -18t-16 -3q-103 8 -255.5 8t-243.5 -8z" />
<glyph unicode="&#xbe;" horiz-adv-x="1835" d="M1413 1454q9 0 11.5 -6.5t-3.5 -15.5l-915 -1430q-15 -22 -39 -22h-35q-10 0 -12 6.5t4 15.5l915 1430q15 22 37 22h37zM625 854q0 -70 -22.5 -122.5t-61.5 -82t-84.5 -43.5t-98.5 -14q-82 0 -138 27.5t-56 52.5q0 10 4 14t14 4q14 0 61.5 -22.5t92.5 -22.5 q85 0 132.5 49t47.5 135q0 82 -52 127t-122 45q-31 0 -40 3t-9 14t27 25.5t59 30t59 49t27 77.5q0 62 -28 92.5t-75 30.5q-27 0 -49.5 -11.5t-34.5 -24.5t-25.5 -24.5t-25.5 -11.5q-14 0 -20.5 10t-3.5 19q15 35 61 63.5t135 28.5q62 0 114 -38.5t52 -98.5q0 -99 -119 -176 q75 -10 127 -62.5t52 -142.5zM1634 367q1 -1 12 0.5t19.5 -5.5t1.5 -22q-11 -23 -14 -41v2q0 -2 -1.5 -5t-10 -7.5t-21.5 -3.5q-74 6 -137 6q3 -133 8 -189q0 -8 -5.5 -12t-23.5 -8q-8 -2 -43 -16q-21 -8 -33 4q-7 7 -4 20q2 5 2 21q7 172 7 180q-291 0 -369 -4 q-5 0 -10.5 2t-11.5 13t18 36q78 88 199 251t167 249q5 9 28 15.5t43 8.5l20 2q14 1 21 -5.5t5 -16.5q-20 -87 -20 -377q0 -15 -0.5 -41t-0.5 -41t1 -18q131 0 153 2zM1393 365v100q0 188 -4 254q-123 -156 -254 -352q68 -2 206 -2h52z" />
<glyph unicode="&#xbf;" horiz-adv-x="907" d="M504 1036q44 0 77 -33.5t33 -76.5q0 -47 -33 -82t-77 -35q-47 0 -81 35t-34 82q0 43 34 76.5t81 33.5zM494 670q14 0 30 -11q31 -20 56.5 -51t35.5 -52l9 -21q10 -38 4 -65.5t-19 -43.5l-12 -16q-104 -112 -176.5 -204t-93.5 -128l-21 -35q-33 -64 -43.5 -125t-2 -103 t21.5 -74.5t26 -48.5l13 -16q32 -44 79 -61t91.5 -10t84 20t63.5 27l24 14q20 12 36 41q29 58 37 146q1 24 11 28q2 0 5 0.5t11 0.5t14.5 -2t11.5 -9t5 -18q0 -39 2.5 -81.5t4.5 -65.5l3 -23q7 -44 -53.5 -80.5t-124.5 -50.5l-64 -15q-96 -17 -168.5 -7t-122 38t-80.5 58 t-45 54l-14 23q-37 82 -30 162.5t45 153.5t81.5 129t78.5 89l34 33q47 48 81.5 90t50.5 68.5t25 46t10 27.5l1 8q1 24 -7.5 49.5t-16.5 38.5l-9 14q-12 20 -12 31q0 27 29 27z" />
<glyph unicode="&#xc0;" d="M1040 1518q-56 17 -144.5 40t-149.5 38l-60 14q-2 1 -6 2.5t-9.5 9t-4.5 18.5q4 27 16 54t22 40l9 13q7 7 19 8.5t18 -4.5q48 -39 125 -89t129 -80l53 -30q17 -10 8 -26q-7 -14 -25 -8zM20 -16q-12 -1 -17 6t-4 14l1 8q0 4 4 6t8 2h4q54 8 66 11q19 4 42 15t59.5 35.5 t76 74.5t72.5 118q276 589 454 1108q4 18 35 39.5t59 34.5l29 12h13q4 -2 6 -5.5t2 -6.5v-2q0 -71 16 -117q67 -181 239 -575.5t263 -583.5q26 -55 53 -88.5t41 -39.5l14 -7q30 -13 113 -23q17 0 19 -8q0 -6 0.5 -12.5t-5.5 -11.5t-18 -4q-137 16 -215 16q-44 0 -101 -4 t-93 -8l-35 -4q-12 -1 -17.5 6t-5.5 14v8q1 4 5 6t7 2h4l58 9q20 2 33 18t0 55q-74 198 -183 457q-6 16 -15.5 23t-31.5 8q-55 4 -236 4t-235 -4q-16 -1 -28 -9.5t-16 -16.5l-5 -9q-109 -265 -166 -414q-10 -27 -8 -47t8.5 -32.5t17.5 -19.5t18 -10t9 -3q20 -6 53 -9 q15 0 17 -8q-1 -1 0 -7.5t-5 -14t-18 -6.5q-131 16 -229 16q-42 0 -100 -4t-95 -8zM637 664q46 -6 202 -6t203 6q21 3 24 10q5 11 -7 39q-116 265 -207 458q-6 13 -15.5 13t-15.5 -13q-32 -71 -99 -226t-101 -232q-17 -41 16 -49z" />
<glyph unicode="&#xc1;" d="M686 1518q-17 -6 -24 8q-9 16 8 26q198 111 307 199q6 6 18 4.5t19 -8.5q37 -46 47 -107q1 -11 -4.5 -18.5t-10.5 -9.5l-6 -2q-229 -53 -354 -92zM20 -16q-12 -1 -17 6t-4 14l1 8q0 4 4 6t8 2h4q54 8 66 11q19 4 42 15t59.5 35.5t76 74.5t72.5 118q276 589 454 1108 q4 18 35 39.5t59 34.5l29 12h13q4 -2 6 -5.5t2 -6.5v-2q0 -71 16 -117q67 -181 239 -575.5t263 -583.5q26 -55 53 -88.5t41 -39.5l14 -7q30 -13 113 -23q17 0 19 -8q0 -6 0.5 -12.5t-5.5 -11.5t-18 -4q-137 16 -215 16q-44 0 -101 -4t-93 -8l-35 -4q-12 -1 -17.5 6t-5.5 14 v8q1 4 5 6t7 2h4l58 9q20 2 33 18t0 55q-74 198 -183 457q-6 16 -15.5 23t-31.5 8q-55 4 -236 4t-235 -4q-16 -1 -28 -9.5t-16 -16.5l-5 -9q-109 -265 -166 -414q-10 -27 -8 -47t8.5 -32.5t17.5 -19.5t18 -10t9 -3q20 -6 53 -9q15 0 17 -8q-1 -1 0 -7.5t-5 -14t-18 -6.5 q-131 16 -229 16q-42 0 -100 -4t-95 -8zM637 664q46 -6 202 -6t203 6q21 3 24 10q5 11 -7 39q-116 265 -207 458q-6 13 -15.5 13t-15.5 -13q-32 -71 -99 -226t-101 -232q-17 -41 16 -49z" />
<glyph unicode="&#xc2;" d="M659 1507q-17 14 0 31q86 104 170 219q14 17 39 17q13 0 22 -4t12 -8l3 -5q37 -51 80.5 -106t68.5 -84l25 -29q6 -6 6 -15.5t-6 -15.5t-15 -6t-15 6q-48 55 -154 125q-30 16 -59 0q-96 -66 -150 -125q-4 -5 -12.5 -5t-14.5 5zM20 -16q-12 -1 -17 6t-4 14l1 8q0 4 4 6t8 2 h4q54 8 66 11q19 4 42 15t59.5 35.5t76 74.5t72.5 118q276 589 454 1108q4 18 35 39.5t59 34.5l29 12h13q4 -2 6 -5.5t2 -6.5v-2q0 -71 16 -117q67 -181 239 -575.5t263 -583.5q26 -55 53 -88.5t41 -39.5l14 -7q30 -13 113 -23q17 0 19 -8q0 -6 0.5 -12.5t-5.5 -11.5t-18 -4 q-137 16 -215 16q-44 0 -101 -4t-93 -8l-35 -4q-12 -1 -17.5 6t-5.5 14v8q1 4 5 6t7 2h4l58 9q20 2 33 18t0 55q-74 198 -183 457q-6 16 -15.5 23t-31.5 8q-55 4 -236 4t-235 -4q-16 -1 -28 -9.5t-16 -16.5l-5 -9q-109 -265 -166 -414q-10 -27 -8 -47t8.5 -32.5t17.5 -19.5 t18 -10t9 -3q20 -6 53 -9q15 0 17 -8q-1 -1 0 -7.5t-5 -14t-18 -6.5q-131 16 -229 16q-42 0 -100 -4t-95 -8zM637 664q46 -6 202 -6t203 6q21 3 24 10q5 11 -7 39q-116 265 -207 458q-6 13 -15.5 13t-15.5 -13q-32 -71 -99 -226t-101 -232q-17 -41 16 -49z" />
<glyph unicode="&#xc3;" d="M602 1567q-9 11 6 30q16 21 31 38.5t22 24.5l7 7q21 22 53.5 30.5t64 4t60 -11.5t46.5 -15l17 -8q51 -17 88.5 -9.5t59.5 24.5l22 18q20 20 37 6q10 -8 -10 -39q-13 -19 -25.5 -35.5t-18.5 -23.5l-7 -6q-21 -22 -54 -30.5t-65 -4t-60.5 11.5t-46.5 15l-18 8 q-47 18 -84.5 12t-60.5 -22l-23 -17q-13 -13 -23 -15t-14 2zM20 -16q-12 -1 -17 6t-4 14l1 8q0 4 4 6t8 2h4q54 8 66 11q19 4 42 15t59.5 35.5t76 74.5t72.5 118q276 589 454 1108q4 18 35 39.5t59 34.5l29 12h13q4 -2 6 -5.5t2 -6.5v-2q0 -71 16 -117q67 -181 239 -575.5 t263 -583.5q26 -55 53 -88.5t41 -39.5l14 -7q30 -13 113 -23q17 0 19 -8q0 -6 0.5 -12.5t-5.5 -11.5t-18 -4q-137 16 -215 16q-44 0 -101 -4t-93 -8l-35 -4q-12 -1 -17.5 6t-5.5 14v8q1 4 5 6t7 2h4l58 9q20 2 33 18t0 55q-74 198 -183 457q-6 16 -15.5 23t-31.5 8 q-55 4 -236 4t-235 -4q-16 -1 -28 -9.5t-16 -16.5l-5 -9q-109 -265 -166 -414q-10 -27 -8 -47t8.5 -32.5t17.5 -19.5t18 -10t9 -3q20 -6 53 -9q15 0 17 -8q-1 -1 0 -7.5t-5 -14t-18 -6.5q-131 16 -229 16q-42 0 -100 -4t-95 -8zM637 664q46 -6 202 -6t203 6q21 3 24 10 q5 11 -7 39q-116 265 -207 458q-6 13 -15.5 13t-15.5 -13q-32 -71 -99 -226t-101 -232q-17 -41 16 -49z" />
<glyph unicode="&#xc4;" d="M715 1550q-35 0 -59.5 24.5t-24.5 59.5t24.5 59.5t59.5 24.5q34 0 59 -24.5t25 -59.5t-25 -59.5t-59 -24.5zM1001 1550q-35 0 -58 24t-23 60t23 60t58 24q36 0 60 -24t24 -60t-24 -60t-60 -24zM20 -16q-12 -1 -17 6t-4 14l1 8q0 4 4 6t8 2h4q54 8 66 11q19 4 42 15 t59.5 35.5t76 74.5t72.5 118q276 589 454 1108q4 18 35 39.5t59 34.5l29 12h13q4 -2 6 -5.5t2 -6.5v-2q0 -71 16 -117q67 -181 239 -575.5t263 -583.5q26 -55 53 -88.5t41 -39.5l14 -7q30 -13 113 -23q17 0 19 -8q0 -6 0.5 -12.5t-5.5 -11.5t-18 -4q-137 16 -215 16 q-44 0 -101 -4t-93 -8l-35 -4q-12 -1 -17.5 6t-5.5 14v8q1 4 5 6t7 2h4l58 9q20 2 33 18t0 55q-74 198 -183 457q-6 16 -15.5 23t-31.5 8q-55 4 -236 4t-235 -4q-16 -1 -28 -9.5t-16 -16.5l-5 -9q-109 -265 -166 -414q-10 -27 -8 -47t8.5 -32.5t17.5 -19.5t18 -10t9 -3 q20 -6 53 -9q15 0 17 -8q-1 -1 0 -7.5t-5 -14t-18 -6.5q-131 16 -229 16q-42 0 -100 -4t-95 -8zM637 664q46 -6 202 -6t203 6q21 3 24 10q5 11 -7 39q-116 265 -207 458q-6 13 -15.5 13t-15.5 -13q-32 -71 -99 -226t-101 -232q-17 -41 16 -49z" />
<glyph unicode="&#xc5;" d="M854 1493q-62 0 -104.5 42.5t-42.5 104.5t43 105t104 43t104 -43t43 -105t-42.5 -104.5t-104.5 -42.5zM854 1561q32 0 56 23.5t24 55.5t-24 56t-56 24t-56 -24t-24 -56t24 -55.5t56 -23.5zM20 -16q-12 -1 -17 6t-4 14l1 8q0 4 4 6t8 2h4q54 8 66 11q19 4 42 15t59.5 35.5 t76 74.5t72.5 118q276 589 454 1108q4 18 35 39.5t59 34.5l29 12h13q4 -2 6 -5.5t2 -6.5v-2q0 -71 16 -117q67 -181 239 -575.5t263 -583.5q26 -55 53 -88.5t41 -39.5l14 -7q30 -13 113 -23q17 0 19 -8q0 -6 0.5 -12.5t-5.5 -11.5t-18 -4q-137 16 -215 16q-44 0 -101 -4 t-93 -8l-35 -4q-12 -1 -17.5 6t-5.5 14v8q1 4 5 6t7 2h4l58 9q20 2 33 18t0 55q-74 198 -183 457q-6 16 -15.5 23t-31.5 8q-55 4 -236 4t-235 -4q-16 -1 -28 -9.5t-16 -16.5l-5 -9q-109 -265 -166 -414q-10 -27 -8 -47t8.5 -32.5t17.5 -19.5t18 -10t9 -3q20 -6 53 -9 q15 0 17 -8q-1 -1 0 -7.5t-5 -14t-18 -6.5q-131 16 -229 16q-42 0 -100 -4t-95 -8zM637 664q46 -6 202 -6t203 6q21 3 24 10q5 11 -7 39q-116 265 -207 458q-6 13 -15.5 13t-15.5 -13q-32 -71 -99 -226t-101 -232q-17 -41 16 -49z" />
<glyph unicode="&#xc6;" horiz-adv-x="1994" d="M20 -14q-12 -2 -17 5t-4 15l1 8q0 3 4 5t8 3l4 1q5 0 66 8q15 3 31 9.5t45.5 24.5t57 43t60.5 70t60 101q46 79 118.5 206t229.5 419.5t234 465.5q13 39 -13 45q-12 0 -12 8q-1 3 -1.5 8.5t4.5 13.5t17 7q83 -22 267 -22q304 2 592 22q1 0 3 -0.5t7.5 -2t8 -4.5t5 -8 t-1.5 -12q0 -4 -2 -6v-4q-24 -67 -14 -162q0 -5 1 -13.5t1 -12.5l4 -21q1 -12 -6.5 -17t-15.5 -4l-7 1q-4 0 -6 4t-2 8v4q-5 48 -13 81t-13 41l-5 9q-34 50 -213 60q-65 0 -198 -27q-37 -8 -45 -39q-14 -224 -17 -475q5 -38 39 -45q86 -4 129 -4h51q86 0 166 6l6 1 q5 2 10.5 4.5t12.5 7t13 12.5t9 18q8 38 15 86q0 16 8 16q3 1 8.5 1.5t13 -4.5t5.5 -17q-9 -51 -13 -162q2 -49 5 -89.5t5 -56.5l3 -16q2 -12 -5 -17t-14 -4l-8 1q-4 0 -6 4t-2 8v4q-10 66 -17 88q-1 7 -5 14.5t-15.5 15.5t-28.5 9q-106 8 -170 8h-49q-43 0 -121 -4 q-22 -5 -33 -13.5t-12 -25.5q0 -313 14 -575q5 -34 41 -45q37 -9 98 -14.5t104 -7.5l42 -1q210 0 291 25q17 7 27 20q18 20 36 129q3 15 11 17q3 0 8 -0.5t12.5 -6.5t5.5 -18q-14 -45 -24 -147v-39q1 -10 -3.5 -19.5t-9.5 -13.5l-4 -4q-10 -8 -35.5 -11t-46.5 -2l-20 1 q-128 7 -280.5 10.5t-241.5 3.5h-88q-82 0 -148.5 -3.5t-92.5 -6.5l-26 -4q-12 -2 -17 5t-4 15l1 8q1 3 5 5t8 3l3 1q48 5 81 12t42 11l8 5q25 17 40 73t18 103l2 47q8 161 8 414q0 20 -10 32t-18 14.5t-13 2.5q-90 4 -145 4q-60 0 -154 -4q-5 0 -15 -2.5t-29 -14.5t-30 -32 q-153 -285 -286 -551q-41 -84 30 -108l54 -6q14 -3 16 -9q-1 -1 0 -8t-5 -14.5t-18 -5.5q-71 12 -231 14q-72 -1 -130.5 -4.5t-81.5 -6.5zM922 801q100 0 145 2q6 0 14 3t17.5 15t9.5 31q-4 214 -8 311q-1 70 -17 133q0 7 -6 21t-16.5 19.5t-26.5 -23.5q-133 -239 -254 -461 q-13 -22 -5.5 -33t14.5 -13.5t14 -2.5q37 -2 119 -2z" />
<glyph unicode="&#xc7;" horiz-adv-x="1495" d="M1352 289q21 0 32.5 -5t8.5 -18q-23 -84 -23 -203q2 -17 -11 -29.5t-27 -15.5l-13 -4q-246 -50 -467 -53q-36 -78 -6 -102q5 -3 13 -9t25.5 -26.5t26 -42t4.5 -54t-28 -65.5l-6 -6t-16 -15t-24.5 -20t-31.5 -18.5t-37 -13.5t-40 -2t-42 12q-8 4 -19 12t-24.5 27.5 t-3.5 35.5q1 1 2.5 3.5t6.5 7t11 6.5t16 0t21 -10q5 -4 12.5 -9.5t29.5 -14t40 -5.5q3 0 6.5 1.5t14.5 6.5t15.5 13.5t9 23.5t-4.5 35q-3 7 -9 18.5t-31 36t-58 37.5l-13 2q-5 4 1 10q6 4 15.5 13t33 41.5t39.5 70.5q-111 1 -203 17.5t-176 53t-147.5 93t-112.5 142 t-76 196.5q-51 205 6.5 412.5t207.5 361.5t353 205q109 28 228 28q190 0 462 -75q24 -8 21 -25q-5 -67 -6.5 -122t-0.5 -77l1 -22q1 -12 -11 -17.5t-24 -4.5l-12 1q-4 1 -7 5.5t-4 8.5v5q-1 49 -5.5 83t-8.5 43l-4 9q-5 8 -12 16t-13 13t-15.5 10.5t-14.5 8t-15.5 7.5 t-13.5 6q-147 61 -304 66.5t-269 -39.5q-157 -58 -256.5 -182t-130.5 -278.5t0 -323.5q48 -256 217 -411t413 -155q217 0 375 68q43 18 62 49q18 22 26 133q3 19 21 19z" />
<glyph unicode="&#xc8;" horiz-adv-x="1165" d="M782 1518q-56 17 -144.5 40t-149.5 38l-60 14q-2 1 -6 2.5t-9.5 9t-4.5 18.5q4 27 16 54t22 40l9 13q7 7 19 8.5t18 -4.5q48 -39 125 -89t129 -80l53 -30q17 -10 8 -26q-7 -14 -25 -8zM84 -16q-12 -2 -17 5t-5 15l1 8q1 4 5 6t8 2h4q48 5 81 13t41 13l9 5q24 16 39 71.5 t18 103.5l2 48q8 158 8 444.5t-8 444.5q0 7 -0.5 19.5t-4.5 46t-9.5 61.5t-17.5 55.5t-27 38.5q-22 17 -131 29q-15 2 -17 8q-6 7 -1.5 21t22.5 10q125 -18 266 -18q304 -2 592 18h9t11.5 -6.5t2.5 -20.5q-25 -71 -19 -172l6 -47q2 -12 -5 -17t-15 -4l-8 1q-4 1 -6 5t-2 7 l-1 4q-4 48 -11 81t-12 41l-5 9q-40 60 -213 60q-122 0 -201 -27q-21 -6 -30.5 -14t-12.5 -25q-13 -206 -16 -471q0 -20 11.5 -31.5t27.5 -13.5q208 -9 346 2q46 3 51 43q7 33 12 86q0 14 10 16q7 2 12 2t11 -5t4 -17q-10 -55 -12 -170q2 -49 5 -89.5t5 -56.5l2 -16 q1 -11 -3 -16t-9.5 -4.5t-9.5 0.5q-5 1 -9 5t-5 7l-1 4q-6 65 -14 88q-9 36 -49 39q-133 10 -340 4q-45 -3 -45 -39q0 -309 14 -571q5 -36 41 -45q37 -9 98 -14.5t103 -7.5l43 -1q206 0 291 25q15 5 26 20q19 20 37 129q2 17 10 17h1q7 0 11.5 -0.5t10.5 -6.5t4 -18 q-15 -45 -25 -147v-39q1 -10 -3 -19.5t-8 -13.5l-5 -4q-11 -9 -36.5 -12t-45.5 -2l-20 2q-151 7 -304 10.5t-230 3.5h-77q-82 0 -148.5 -4t-91.5 -8z" />
<glyph unicode="&#xc9;" horiz-adv-x="1165" d="M459 1518q-18 -6 -25 8q-9 16 8 26q199 111 308 199q6 6 17 4.5t19 -8.5q38 -46 48 -107q1 -11 -4.5 -18.5t-11.5 -9.5l-5 -2q-229 -53 -354 -92zM84 -16q-12 -2 -17 5t-5 15l1 8q1 4 5 6t8 2h4q48 5 81 13t41 13l9 5q24 16 39 71.5t18 103.5l2 48q8 158 8 444.5 t-8 444.5q0 7 -0.5 19.5t-4.5 46t-9.5 61.5t-17.5 55.5t-27 38.5q-22 17 -131 29q-15 2 -17 8q-6 7 -1.5 21t22.5 10q125 -18 266 -18q304 -2 592 18h9t11.5 -6.5t2.5 -20.5q-25 -71 -19 -172l6 -47q2 -12 -5 -17t-15 -4l-8 1q-4 1 -6 5t-2 7l-1 4q-4 48 -11 81t-12 41l-5 9 q-40 60 -213 60q-122 0 -201 -27q-21 -6 -30.5 -14t-12.5 -25q-13 -206 -16 -471q0 -20 11.5 -31.5t27.5 -13.5q208 -9 346 2q46 3 51 43q7 33 12 86q0 14 10 16q7 2 12 2t11 -5t4 -17q-10 -55 -12 -170q2 -49 5 -89.5t5 -56.5l2 -16q1 -11 -3 -16t-9.5 -4.5t-9.5 0.5 q-5 1 -9 5t-5 7l-1 4q-6 65 -14 88q-9 36 -49 39q-133 10 -340 4q-45 -3 -45 -39q0 -309 14 -571q5 -36 41 -45q37 -9 98 -14.5t103 -7.5l43 -1q206 0 291 25q15 5 26 20q19 20 37 129q2 17 10 17h1q7 0 11.5 -0.5t10.5 -6.5t4 -18q-15 -45 -25 -147v-39q1 -10 -3 -19.5 t-8 -13.5l-5 -4q-11 -9 -36.5 -12t-45.5 -2l-20 2q-151 7 -304 10.5t-230 3.5h-77q-82 0 -148.5 -4t-91.5 -8z" />
<glyph unicode="&#xca;" horiz-adv-x="1165" d="M373 1507q-17 14 0 31q86 104 170 219q14 17 39 17q13 0 22 -4t12 -8l2 -5q37 -51 81 -106t69 -84l25 -29q6 -6 6 -15.5t-6 -15.5t-15.5 -6t-15.5 6q-48 55 -154 125q-30 16 -59 0q-96 -66 -150 -125q-11 -11 -26 0zM84 -16q-12 -2 -17 5t-5 15l1 8q1 4 5 6t8 2h4 q48 5 81 13t41 13l9 5q24 16 39 71.5t18 103.5l2 48q8 158 8 444.5t-8 444.5q0 7 -0.5 19.5t-4.5 46t-9.5 61.5t-17.5 55.5t-27 38.5q-22 17 -131 29q-15 2 -17 8q-6 7 -1.5 21t22.5 10q125 -18 266 -18q304 -2 592 18h9t11.5 -6.5t2.5 -20.5q-25 -71 -19 -172l6 -47 q2 -12 -5 -17t-15 -4l-8 1q-4 1 -6 5t-2 7l-1 4q-4 48 -11 81t-12 41l-5 9q-40 60 -213 60q-122 0 -201 -27q-21 -6 -30.5 -14t-12.5 -25q-13 -206 -16 -471q0 -20 11.5 -31.5t27.5 -13.5q208 -9 346 2q46 3 51 43q7 33 12 86q0 14 10 16q7 2 12 2t11 -5t4 -17 q-10 -55 -12 -170q2 -49 5 -89.5t5 -56.5l2 -16q1 -11 -3 -16t-9.5 -4.5t-9.5 0.5q-5 1 -9 5t-5 7l-1 4q-6 65 -14 88q-9 36 -49 39q-133 10 -340 4q-45 -3 -45 -39q0 -309 14 -571q5 -36 41 -45q37 -9 98 -14.5t103 -7.5l43 -1q206 0 291 25q15 5 26 20q19 20 37 129 q2 17 10 17h1q7 0 11.5 -0.5t10.5 -6.5t4 -18q-15 -45 -25 -147v-39q1 -10 -3 -19.5t-8 -13.5l-5 -4q-11 -9 -36.5 -12t-45.5 -2l-20 2q-151 7 -304 10.5t-230 3.5h-77q-82 0 -148.5 -4t-91.5 -8z" />
<glyph unicode="&#xcb;" horiz-adv-x="1165" d="M432 1550q-35 0 -59.5 24.5t-24.5 59.5t24.5 59.5t59.5 24.5q34 0 59 -24.5t25 -59.5t-25 -59.5t-59 -24.5zM719 1550q-35 0 -58.5 24.5t-23.5 59.5t23.5 59.5t58.5 24.5q36 0 60 -24t24 -60t-24 -60t-60 -24zM84 -16q-12 -2 -17 5t-5 15l1 8q1 4 5 6t8 2h4q48 5 81 13 t41 13l9 5q24 16 39 71.5t18 103.5l2 48q8 158 8 444.5t-8 444.5q0 7 -0.5 19.5t-4.5 46t-9.5 61.5t-17.5 55.5t-27 38.5q-22 17 -131 29q-15 2 -17 8q-6 7 -1.5 21t22.5 10q125 -18 266 -18q304 -2 592 18h9t11.5 -6.5t2.5 -20.5q-25 -71 -19 -172l6 -47q2 -12 -5 -17 t-15 -4l-8 1q-4 1 -6 5t-2 7l-1 4q-4 48 -11 81t-12 41l-5 9q-40 60 -213 60q-122 0 -201 -27q-21 -6 -30.5 -14t-12.5 -25q-13 -206 -16 -471q0 -20 11.5 -31.5t27.5 -13.5q208 -9 346 2q46 3 51 43q7 33 12 86q0 14 10 16q7 2 12 2t11 -5t4 -17q-10 -55 -12 -170 q2 -49 5 -89.5t5 -56.5l2 -16q1 -11 -3 -16t-9.5 -4.5t-9.5 0.5q-5 1 -9 5t-5 7l-1 4q-6 65 -14 88q-9 36 -49 39q-133 10 -340 4q-45 -3 -45 -39q0 -309 14 -571q5 -36 41 -45q37 -9 98 -14.5t103 -7.5l43 -1q206 0 291 25q15 5 26 20q19 20 37 129q2 17 10 17h1 q7 0 11.5 -0.5t10.5 -6.5t4 -18q-15 -45 -25 -147v-39q1 -10 -3 -19.5t-8 -13.5l-5 -4q-11 -9 -36.5 -12t-45.5 -2l-20 2q-151 7 -304 10.5t-230 3.5h-77q-82 0 -148.5 -4t-91.5 -8z" />
<glyph unicode="&#xcc;" horiz-adv-x="772" d="M584 1518q-56 17 -144.5 40t-149.5 38l-61 14q-2 1 -6 2.5t-9.5 9t-4.5 18.5q4 27 16 54t21 40l10 13q7 7 19 8.5t18 -4.5q48 -39 125 -89t130 -80l52 -30q17 -10 8 -26q-7 -14 -24 -8zM123 -16q-12 -2 -17.5 4.5t-4.5 13.5l1 8q0 4 4 6.5t8 3.5h5q48 5 81 13t42 13l8 5 q25 16 40 71.5t17 102.5l2 47q7 160 7 446.5t-7 444.5q0 21 -2 52.5t-17 92t-40 76.5q-22 17 -131 29q-17 2 -17 8q1 1 -0.5 8.5t4 15.5t17.5 7q80 -18 262 -18q81 0 146.5 4.5t90.5 9.5l25 4q12 1 17.5 -7t5.5 -16v-8q-1 -3 -5.5 -5t-8.5 -2l-5 -1q-48 -5 -81 -12.5 t-42 -12.5l-8 -4q-24 -16 -39 -71.5t-17 -102.5l-3 -47q-7 -158 -7 -444.5t7 -446.5q0 -21 2.5 -52.5t17.5 -92t39 -76.5q22 -19 131 -31q17 -2 19 -10q-1 -1 0 -7.5t-5 -13.5t-18 -5q-80 14 -262 16q-81 -1 -146.5 -5t-90.5 -7z" />
<glyph unicode="&#xcd;" horiz-adv-x="772" d="M262 1518q-17 -6 -24 8q-9 16 8 26q198 111 307 199q6 6 18 4.5t19 -8.5q37 -46 47 -107q1 -11 -4.5 -18.5t-10.5 -9.5l-6 -2q-229 -53 -354 -92zM123 -16q-12 -2 -17.5 4.5t-4.5 13.5l1 8q0 4 4 6.5t8 3.5h5q48 5 81 13t42 13l8 5q25 16 40 71.5t17 102.5l2 47 q7 160 7 446.5t-7 444.5q0 21 -2 52.5t-17 92t-40 76.5q-22 17 -131 29q-17 2 -17 8q1 1 -0.5 8.5t4 15.5t17.5 7q80 -18 262 -18q81 0 146.5 4.5t90.5 9.5l25 4q12 1 17.5 -7t5.5 -16v-8q-1 -3 -5.5 -5t-8.5 -2l-5 -1q-48 -5 -81 -12.5t-42 -12.5l-8 -4q-24 -16 -39 -71.5 t-17 -102.5l-3 -47q-7 -158 -7 -444.5t7 -446.5q0 -21 2.5 -52.5t17.5 -92t39 -76.5q22 -19 131 -31q17 -2 19 -10q-1 -1 0 -7.5t-5 -13.5t-18 -5q-80 14 -262 16q-81 -1 -146.5 -5t-90.5 -7z" />
<glyph unicode="&#xce;" horiz-adv-x="772" d="M180 1507q-17 14 0 31q86 104 170 219q14 17 39 17q13 0 22 -4t12 -8l3 -5q37 -51 80.5 -106t68.5 -84l25 -29q6 -6 6 -15.5t-6 -15.5t-15.5 -6t-15.5 6q-49 57 -153 125q-31 16 -60 0q-93 -64 -149 -125q-5 -5 -13 -5t-14 5zM123 -16q-12 -2 -17.5 4.5t-4.5 13.5l1 8 q0 4 4 6.5t8 3.5h5q48 5 81 13t42 13l8 5q25 16 40 71.5t17 102.5l2 47q7 160 7 446.5t-7 444.5q0 21 -2 52.5t-17 92t-40 76.5q-22 17 -131 29q-17 2 -17 8q1 1 -0.5 8.5t4 15.5t17.5 7q80 -18 262 -18q81 0 146.5 4.5t90.5 9.5l25 4q12 1 17.5 -7t5.5 -16v-8 q-1 -3 -5.5 -5t-8.5 -2l-5 -1q-48 -5 -81 -12.5t-42 -12.5l-8 -4q-24 -16 -39 -71.5t-17 -102.5l-3 -47q-7 -158 -7 -444.5t7 -446.5q0 -21 2.5 -52.5t17.5 -92t39 -76.5q22 -19 131 -31q17 -2 19 -10q-1 -1 0 -7.5t-5 -13.5t-18 -5q-80 14 -262 16q-81 -1 -146.5 -5 t-90.5 -7z" />
<glyph unicode="&#xcf;" horiz-adv-x="772" d="M236 1550q-35 0 -59.5 24.5t-24.5 59.5t24.5 59.5t59.5 24.5q34 0 58.5 -24.5t24.5 -59.5t-24.5 -59.5t-58.5 -24.5zM522 1550q-35 0 -58.5 24.5t-23.5 59.5t23.5 59.5t58.5 24.5q36 0 60 -24t24 -60t-24 -60t-60 -24zM123 -16q-12 -2 -17.5 4.5t-4.5 13.5l1 8q0 4 4 6.5 t8 3.5h5q48 5 81 13t42 13l8 5q25 16 40 71.5t17 102.5l2 47q7 160 7 446.5t-7 444.5q0 21 -2 52.5t-17 92t-40 76.5q-22 17 -131 29q-17 2 -17 8q1 1 -0.5 8.5t4 15.5t17.5 7q80 -18 262 -18q81 0 146.5 4.5t90.5 9.5l25 4q12 1 17.5 -7t5.5 -16v-8q-1 -3 -5.5 -5t-8.5 -2 l-5 -1q-48 -5 -81 -12.5t-42 -12.5l-8 -4q-24 -16 -39 -71.5t-17 -102.5l-3 -47q-7 -158 -7 -444.5t7 -446.5q0 -21 2.5 -52.5t17.5 -92t39 -76.5q22 -19 131 -31q17 -2 19 -10q-1 -1 0 -7.5t-5 -13.5t-18 -5q-80 14 -262 16q-81 -1 -146.5 -5t-90.5 -7z" />
<glyph unicode="&#xd0;" horiz-adv-x="1607" d="M909 1452q298 -5 476.5 -208t158.5 -523q-20 -330 -204.5 -514t-503.5 -215q-119 -10 -177.5 -8t-158.5 9t-162 7q-79 0 -143.5 -4t-89.5 -8l-25 -4q-10 -1 -14.5 6t-3.5 14l1 8q0 8 15 8q23 2 42.5 5.5t32.5 6t23.5 5.5t16.5 5.5t10 4.5t5.5 3t0.5 1q26 17 41.5 71.5 t17.5 99.5l2 46q6 133 9 400h-134q-9 0 -15.5 6.5t-6.5 15.5v58q0 9 6.5 15.5t15.5 6.5h134q-3 260 -9 395q0 8 -0.5 21.5t-4.5 49t-9.5 63.5t-17.5 54.5t-27 32.5q-22 15 -135 27q-13 0 -13 8q0 1 -0.5 3.5t0 8t1.5 9.5t5.5 7.5t10.5 2.5q119 -18 260 -18q20 0 246.5 10 t322.5 8zM1382 670q4 102 -11 193.5t-43 157t-62.5 121t-69.5 90.5t-64.5 59.5t-47.5 34.5l-19 11q-158 97 -565 27q-51 -8 -54 -39q-17 -271 -20 -555h469q9 0 16 -6.5t7 -15.5v-58q0 -9 -7 -15.5t-16 -6.5h-469q3 -381 20 -539q5 -30 41 -49q68 -32 173.5 -36t177.5 8 l71 11q73 12 136.5 40t108 66t81 83.5t60 93.5t41 94.5t26 88t13.5 73t6 50.5z" />
<glyph unicode="&#xd1;" horiz-adv-x="1679" d="M651 1567q-9 11 6 30q16 21 31 38.5t22 24.5l7 7q21 22 53.5 30.5t64 4t60 -11.5t45.5 -15l18 -8q51 -17 88.5 -9.5t59.5 24.5l22 18q20 20 37 6q10 -8 -10 -39q-13 -19 -25.5 -35.5t-19.5 -23.5l-6 -6q-21 -22 -54 -30.5t-65 -4t-60.5 11.5t-46.5 15l-18 8 q-47 18 -84.5 12t-60.5 -22l-23 -17q-13 -13 -23 -15t-14 2zM1366 -55q-12 0 -18 14q-6 16 -19 35q-348 488 -883 1104q-7 7 -14 4q-6 -3 -6 -10q-5 -146 -5.5 -403.5t7.5 -414.5q4 -65 7.5 -98.5t16.5 -72.5t35 -54q20 -19 129 -29q17 0 19 -12q-1 -1 0 -7t-5 -12.5 t-18 -4.5q-122 16 -237 16q-50 0 -110.5 -4t-96.5 -8l-35 -4q-13 -2 -19 4t-6 13l1 7q1 4 5.5 7t8.5 4l4 1q44 4 76.5 11.5t43.5 12.5l11 5q56 32 64 225q4 163 4 443.5t-4 443.5q-2 68 -30 134t-83 89q-41 19 -129 29q-15 0 -17 12q1 1 -0.5 8t4 14t17.5 5q14 -2 44.5 -7.5 t51.5 -8t47 -2.5q33 0 77 9t56 9q18 0 39 -35q65 -101 274.5 -358t370.5 -446t279 -324q9 -9 16 -6q4 2 4 10q5 143 4.5 457t-8.5 464q-10 146 -55 170q-23 17 -127 29q-14 0 -16 12q-1 4 -1.5 9t4.5 13t17 5q111 -18 236 -18q54 0 114 4.5t93 9.5l34 4q12 3 17 -4t5 -15 l-1 -8q-1 -5 -5 -8t-8 -3l-4 -1q-49 -5 -82.5 -12.5t-41.5 -12.5l-9 -4q-22 -13 -36 -55t-17 -92q-12 -226 -11 -555t13 -561q2 -25 8 -41q5 -14 -6 -25q-42 -39 -76 -100q-5 -10 -18 -10z" />
<glyph unicode="&#xd2;" horiz-adv-x="1665" d="M1022 1518q-56 17 -144.5 40t-149.5 38l-60 14q-3 1 -6.5 2.5t-9.5 9t-5 18.5q4 27 16 54t21 40l10 13q7 7 19 8.5t18 -4.5q48 -39 125 -89t130 -80l52 -30q18 -11 9 -26q-7 -14 -25 -8zM817 -39q-243 -11 -418.5 89t-257.5 315q-53 136 -58.5 274t31 257.5t109 225 t169.5 181t218.5 120t251.5 47.5q162 3 298 -53t227 -154.5t142.5 -232t53.5 -285.5q0 -342 -209 -554.5t-557 -229.5zM961 39q161 33 276 149.5t162 287.5t12 360q-35 186 -137.5 327.5t-249.5 205.5t-303 30q-161 -34 -279.5 -152t-168 -291.5t-15.5 -361.5 q34 -184 141 -324.5t256.5 -202.5t305.5 -28z" />
<glyph unicode="&#xd3;" horiz-adv-x="1665" d="M666 1518q-18 -6 -25 8q-9 16 8 26q198 111 307 199q6 6 18 4.5t19 -8.5q37 -46 47 -107q1 -11 -4 -18.5t-10 -9.5l-6 -2q-229 -53 -354 -92zM817 -39q-243 -11 -418.5 89t-257.5 315q-53 136 -58.5 274t31 257.5t109 225t169.5 181t218.5 120t251.5 47.5q162 3 298 -53 t227 -154.5t142.5 -232t53.5 -285.5q0 -342 -209 -554.5t-557 -229.5zM961 39q161 33 276 149.5t162 287.5t12 360q-35 186 -137.5 327.5t-249.5 205.5t-303 30q-161 -34 -279.5 -152t-168 -291.5t-15.5 -361.5q34 -184 141 -324.5t256.5 -202.5t305.5 -28z" />
<glyph unicode="&#xd4;" horiz-adv-x="1665" d="M623 1507q-17 14 0 31q86 104 170 219q14 17 38 17q13 0 22 -4t12 -8l3 -5q37 -51 80.5 -106t68.5 -84l25 -29q6 -6 6 -15.5t-6 -15.5t-15 -6t-15 6q-48 55 -154 125q-30 16 -59 0q-96 -66 -150 -125q-11 -11 -26 0zM817 -39q-243 -11 -418.5 89t-257.5 315 q-53 136 -58.5 274t31 257.5t109 225t169.5 181t218.5 120t251.5 47.5q162 3 298 -53t227 -154.5t142.5 -232t53.5 -285.5q0 -342 -209 -554.5t-557 -229.5zM961 39q161 33 276 149.5t162 287.5t12 360q-35 186 -137.5 327.5t-249.5 205.5t-303 30q-161 -34 -279.5 -152 t-168 -291.5t-15.5 -361.5q34 -184 141 -324.5t256.5 -202.5t305.5 -28z" />
<glyph unicode="&#xd5;" horiz-adv-x="1665" d="M590 1567q-9 11 6 30q16 21 30.5 38.5t21.5 24.5l7 7q21 22 53.5 30.5t64 4t60.5 -11.5t47 -15l17 -8q51 -17 88.5 -9.5t59.5 24.5l22 18q20 20 37 6q10 -8 -10 -39q-13 -19 -26 -35.5t-20 -23.5l-6 -6q-21 -22 -54 -30.5t-64.5 -4t-60.5 11.5t-47 15l-17 8 q-47 18 -84.5 12t-60.5 -22l-23 -17q-13 -13 -23 -15t-14 2zM817 -39q-243 -11 -418.5 89t-257.5 315q-53 136 -58.5 274t31 257.5t109 225t169.5 181t218.5 120t251.5 47.5q162 3 298 -53t227 -154.5t142.5 -232t53.5 -285.5q0 -342 -209 -554.5t-557 -229.5zM961 39 q161 33 276 149.5t162 287.5t12 360q-35 186 -137.5 327.5t-249.5 205.5t-303 30q-161 -34 -279.5 -152t-168 -291.5t-15.5 -361.5q34 -184 141 -324.5t256.5 -202.5t305.5 -28z" />
<glyph unicode="&#xd6;" horiz-adv-x="1665" d="M698 1550q-35 0 -59.5 24.5t-24.5 59.5t24.5 59.5t59.5 24.5q34 0 59 -24.5t25 -59.5t-25 -59.5t-59 -24.5zM985 1550q-35 0 -58.5 24.5t-23.5 59.5t23.5 59.5t58.5 24.5q36 0 60 -24t24 -60t-24 -60t-60 -24zM817 -39q-243 -11 -418.5 89t-257.5 315q-53 136 -58.5 274 t31 257.5t109 225t169.5 181t218.5 120t251.5 47.5q162 3 298 -53t227 -154.5t142.5 -232t53.5 -285.5q0 -342 -209 -554.5t-557 -229.5zM961 39q161 33 276 149.5t162 287.5t12 360q-35 186 -137.5 327.5t-249.5 205.5t-303 30q-161 -34 -279.5 -152t-168 -291.5 t-15.5 -361.5q34 -184 141 -324.5t256.5 -202.5t305.5 -28z" />
<glyph unicode="&#xd7;" horiz-adv-x="995" d="M152 197l-43 43q-14 14 0 32l290 291q9 11 9 25t-11 26l-288 287q-6 7 -6 17t6 16l43 41q4 7 13 7t17 -7l287 -287q29 -28 57 0l285 287q17 17 35 0l41 -41q6 -6 6 -16t-6 -17l-287 -285q-28 -28 0 -57l287 -287q14 -18 0 -32l-41 -43q-18 -11 -35 0l-287 290 q-29 24 -53 0l-289 -290q-19 -11 -30 0z" />
<glyph unicode="&#xd8;" horiz-adv-x="1636" d="M1452 1198q140 -191 143 -453q0 -342 -209 -554.5t-557 -229.5q-355 -16 -546 193l-148 -131q-16 -13 -33 0l-34 40q-14 18 2 31l151 135q-39 59 -67 136q-53 136 -58.5 274t31 257.5t108.5 225t169 181t218.5 120t251.5 47.5q159 3 291 -49t226 -149l88 78q6 7 15 6.5 t15 -6.5l37 -43q5 -4 4.5 -13.5t-6.5 -13.5zM270 594q23 -127 88 -244l922 821q-104 137 -248 199t-299 29q-161 -34 -279.5 -152t-168 -291.5t-15.5 -361.5zM973 39q161 33 276 149.5t162 287.5t12 360q-23 134 -92 256l-919 -822q105 -139 254.5 -202.5t306.5 -28.5z" />
<glyph unicode="&#xd9;" horiz-adv-x="1867" d="M1081 1518q-56 17 -144.5 40t-148.5 38l-61 14q-2 1 -6 2.5t-9.5 9t-4.5 18.5q4 27 16 54t21 40l10 13q7 7 19 8.5t18 -4.5q48 -39 125 -89t130 -80l52 -30q17 -10 8 -26q-7 -14 -25 -8zM1405 -39q-15 9 -8 27q6 18 6 55q0 86 -10 122.5t-45 8.5q-46 -42 -112 -82 t-156 -73.5t-182.5 -49.5t-198 -4t-197.5 58q-115 62 -169 172.5t-54 293.5q0 19 1 187t0 279t-6 210q0 8 -0.5 21t-4.5 48t-10 63t-18 54.5t-28 34.5q-22 15 -133 27q-17 0 -19 12q1 1 0 9t5 15t18 3q145 -18 264 -18q55 0 121 4.5t105 9.5l38 4q12 4 18 -3t6 -15l-1 -9 q-1 -5 -5.5 -8t-9.5 -3l-4 -1q-49 -5 -82.5 -12t-41.5 -11l-9 -4q-25 -12 -40.5 -67t-18.5 -105l-2 -49q-7 -249 -6.5 -347t6.5 -341q1 -57 8.5 -103.5t29.5 -100.5t58 -94t98.5 -74t147.5 -50q288 -58 539 178q77 79 90 271q6 113 4 308t-11 353q0 22 -2 55t-17.5 93.5 t-41.5 72.5q-24 15 -133 27q-16 0 -18 12q1 1 0 8.5t4.5 14.5t17.5 4q145 -18 266 -18q54 0 119 4.5t103 9.5l38 4q13 3 18.5 -4t5.5 -15l-1 -8q-1 -5 -5.5 -8t-9.5 -3l-4 -1q-47 -5 -79.5 -12t-40.5 -11l-9 -4q-25 -12 -40.5 -67t-18.5 -105l-2 -49q-22 -708 18 -1001 q3 -21 10 -43t29.5 -49t55.5 -33q55 -9 141 -19q12 -2 14 -12q0 -1 0.5 -3t0.5 -6.5t-1.5 -8t-6.5 -5.5t-13 -1q-117 16 -232 16q-69 0 -122 -39q-12 -8 -25 0z" />
<glyph unicode="&#xda;" horiz-adv-x="1867" d="M739 1518q-17 -6 -24 8q-9 16 8 26q198 111 307 199q6 6 18 4.5t19 -8.5q37 -46 47 -107q1 -11 -4 -18.5t-10 -9.5l-6 -2q-230 -53 -355 -92zM1405 -39q-15 9 -8 27q6 18 6 55q0 86 -10 122.5t-45 8.5q-46 -42 -112 -82t-156 -73.5t-182.5 -49.5t-198 -4t-197.5 58 q-115 62 -169 172.5t-54 293.5q0 19 1 187t0 279t-6 210q0 8 -0.5 21t-4.5 48t-10 63t-18 54.5t-28 34.5q-22 15 -133 27q-17 0 -19 12q1 1 0 9t5 15t18 3q145 -18 264 -18q55 0 121 4.5t105 9.5l38 4q12 4 18 -3t6 -15l-1 -9q-1 -5 -5.5 -8t-9.5 -3l-4 -1q-49 -5 -82.5 -12 t-41.5 -11l-9 -4q-25 -12 -40.5 -67t-18.5 -105l-2 -49q-7 -249 -6.5 -347t6.5 -341q1 -57 8.5 -103.5t29.5 -100.5t58 -94t98.5 -74t147.5 -50q288 -58 539 178q77 79 90 271q6 113 4 308t-11 353q0 22 -2 55t-17.5 93.5t-41.5 72.5q-24 15 -133 27q-16 0 -18 12q1 1 0 8.5 t4.5 14.5t17.5 4q145 -18 266 -18q54 0 119 4.5t103 9.5l38 4q13 3 18.5 -4t5.5 -15l-1 -8q-1 -5 -5.5 -8t-9.5 -3l-4 -1q-47 -5 -79.5 -12t-40.5 -11l-9 -4q-25 -12 -40.5 -67t-18.5 -105l-2 -49q-22 -708 18 -1001q3 -21 10 -43t29.5 -49t55.5 -33q55 -9 141 -19 q12 -2 14 -12q0 -1 0.5 -3t0.5 -6.5t-1.5 -8t-6.5 -5.5t-13 -1q-117 16 -232 16q-69 0 -122 -39q-12 -8 -25 0z" />
<glyph unicode="&#xdb;" horiz-adv-x="1867" d="M709 1507q-17 14 0 31q86 104 170 219q14 17 39 17q13 0 22 -4t12 -8l2 -5q37 -51 80.5 -106t68.5 -84l25 -29q6 -6 6 -15.5t-6 -15.5t-15 -6t-15 6q-48 55 -154 125q-30 16 -59 0q-96 -66 -150 -125q-11 -11 -26 0zM1405 -39q-15 9 -8 27q6 18 6 55q0 86 -10 122.5 t-45 8.5q-46 -42 -112 -82t-156 -73.5t-182.5 -49.5t-198 -4t-197.5 58q-115 62 -169 172.5t-54 293.5q0 19 1 187t0 279t-6 210q0 8 -0.5 21t-4.5 48t-10 63t-18 54.5t-28 34.5q-22 15 -133 27q-17 0 -19 12q1 1 0 9t5 15t18 3q145 -18 264 -18q55 0 121 4.5t105 9.5l38 4 q12 4 18 -3t6 -15l-1 -9q-1 -5 -5.5 -8t-9.5 -3l-4 -1q-49 -5 -82.5 -12t-41.5 -11l-9 -4q-25 -12 -40.5 -67t-18.5 -105l-2 -49q-7 -249 -6.5 -347t6.5 -341q1 -57 8.5 -103.5t29.5 -100.5t58 -94t98.5 -74t147.5 -50q288 -58 539 178q77 79 90 271q6 113 4 308t-11 353 q0 22 -2 55t-17.5 93.5t-41.5 72.5q-24 15 -133 27q-16 0 -18 12q1 1 0 8.5t4.5 14.5t17.5 4q145 -18 266 -18q54 0 119 4.5t103 9.5l38 4q13 3 18.5 -4t5.5 -15l-1 -8q-1 -5 -5.5 -8t-9.5 -3l-4 -1q-47 -5 -79.5 -12t-40.5 -11l-9 -4q-25 -12 -40.5 -67t-18.5 -105l-2 -49 q-22 -708 18 -1001q3 -21 10 -43t29.5 -49t55.5 -33q55 -9 141 -19q12 -2 14 -12q0 -1 0.5 -3t0.5 -6.5t-1.5 -8t-6.5 -5.5t-13 -1q-117 16 -232 16q-69 0 -122 -39q-12 -8 -25 0z" />
<glyph unicode="&#xdc;" horiz-adv-x="1867" d="M760 1550q-35 0 -59.5 24.5t-24.5 59.5t24.5 59.5t59.5 24.5q34 0 59 -24.5t25 -59.5t-25 -59.5t-59 -24.5zM1047 1550q-35 0 -58.5 24.5t-23.5 59.5t23.5 59.5t58.5 24.5q36 0 59.5 -24t23.5 -60t-23.5 -60t-59.5 -24zM1405 -39q-15 9 -8 27q6 18 6 55q0 86 -10 122.5 t-45 8.5q-46 -42 -112 -82t-156 -73.5t-182.5 -49.5t-198 -4t-197.5 58q-115 62 -169 172.5t-54 293.5q0 19 1 187t0 279t-6 210q0 8 -0.5 21t-4.5 48t-10 63t-18 54.5t-28 34.5q-22 15 -133 27q-17 0 -19 12q1 1 0 9t5 15t18 3q145 -18 264 -18q55 0 121 4.5t105 9.5l38 4 q12 4 18 -3t6 -15l-1 -9q-1 -5 -5.5 -8t-9.5 -3l-4 -1q-49 -5 -82.5 -12t-41.5 -11l-9 -4q-25 -12 -40.5 -67t-18.5 -105l-2 -49q-7 -249 -6.5 -347t6.5 -341q1 -57 8.5 -103.5t29.5 -100.5t58 -94t98.5 -74t147.5 -50q288 -58 539 178q77 79 90 271q6 113 4 308t-11 353 q0 22 -2 55t-17.5 93.5t-41.5 72.5q-24 15 -133 27q-16 0 -18 12q1 1 0 8.5t4.5 14.5t17.5 4q145 -18 266 -18q54 0 119 4.5t103 9.5l38 4q13 3 18.5 -4t5.5 -15l-1 -8q-1 -5 -5.5 -8t-9.5 -3l-4 -1q-47 -5 -79.5 -12t-40.5 -11l-9 -4q-25 -12 -40.5 -67t-18.5 -105l-2 -49 q-22 -708 18 -1001q3 -21 10 -43t29.5 -49t55.5 -33q55 -9 141 -19q12 -2 14 -12q0 -1 0.5 -3t0.5 -6.5t-1.5 -8t-6.5 -5.5t-13 -1q-117 16 -232 16q-69 0 -122 -39q-12 -8 -25 0z" />
<glyph unicode="&#xdd;" horiz-adv-x="1415" d="M584 1518q-18 -6 -25 8q-9 16 8 26q198 111 307 199q6 6 18 4.5t19 -8.5q37 -46 47 -107q1 -11 -4 -18.5t-10 -9.5l-6 -2q-229 -53 -354 -92zM424 -16q-12 -2 -18 4.5t-6 13.5l1 8q1 3 3 5t4.5 3t4.5 1.5t3 0.5h2q48 5 81 13t41 13l9 5q25 16 40.5 71.5t18.5 102.5l2 47 q6 234 6 250q0 30 -10 53q-252 463 -459 797q-17 27 -73 35l-58 6q-14 0 -16 10q-1 3 -1.5 8t4.5 12.5t17 6.5q105 -16 218 -16q41 0 98 4t94 8l37 4q12 1 17.5 -6t5.5 -14l-1 -7q-1 -3 -3 -5t-4.5 -3t-5 -1.5t-4.5 -0.5h-1q-14 -2 -46 -5t-46 -5q-29 -4 -38.5 -19t-4.5 -28 l6 -13q104 -213 320 -604q11 -19 32 -19.5t35 19.5q250 392 365 592q15 28 4.5 47t-41.5 25q-14 2 -41.5 5t-40.5 5q-15 0 -17 10q1 1 0 7.5t5 13.5t18 6q141 -16 231 -16q33 0 78 4t74 8l29 4q12 1 17.5 -6t5.5 -14l-1 -7q-1 -3 -3 -5t-4.5 -3t-5 -1.5t-4.5 -0.5h-1l-51 -6 q-94 -14 -119 -45q-52 -73 -114 -169t-165.5 -260t-179.5 -282q-14 -25 -14 -61q0 -174 6 -318q0 -21 2.5 -52.5t18 -92t40.5 -76.5q22 -19 131 -31q13 0 17 -10q-1 -1 0.5 -7.5t-4.5 -13.5t-19 -5q-135 16 -260 16q-54 0 -119.5 -4t-104.5 -8z" />
<glyph unicode="&#xde;" horiz-adv-x="1128" d="M84 -16q-12 -2 -17 5t-5 15l1 8q0 3 4.5 5t8.5 3h4q48 5 81 13t41 13l9 5q25 16 40 71.5t17 102.5l2 47q9 193 9 447q0 253 -9 444q0 21 -2 52.5t-17 92t-40 76.5q-22 19 -131 31q-17 2 -17 8q1 1 -0.5 8t4 14.5t17.5 6.5q80 -16 262 -16q81 0 146.5 4t90.5 8l25 4 q12 1 18 -6.5t6 -15.5l-1 -7q-1 -3 -5.5 -5t-9.5 -2l-4 -1q-48 -5 -81 -13t-41 -13l-9 -5q-45 -31 -59 -200q0 -16 6 -25t10 -9.5t10 -0.5h1q88 21 258 4q8 0 22 -1.5t54 -10.5t75.5 -23.5t78 -44.5t71.5 -69.5t46 -103t11 -140.5q-1 -6 -2.5 -17.5t-12 -45.5t-26 -66 t-47.5 -74t-73.5 -76t-107.5 -65.5t-145 -48.5q-22 -5 -53 -7q-25 10 -25 21q0 2 1 5.5t8 9.5t20 7q90 11 156 54q5 3 13 9.5t30 29t39 49t33.5 69.5t20.5 90.5t-7.5 112t-42.5 133.5q-3 6 -8.5 16t-27.5 35t-50 44t-77.5 35t-107.5 16q-76 2 -133 -35q-22 -17 -22 -41 q-4 -184 -4 -301q0 -275 8 -447q0 -21 2.5 -52.5t17.5 -92t39 -76.5q22 -19 131 -31q17 -2 19 -8q-1 -1 0 -8t-5 -14.5t-18 -5.5q-80 14 -262 16q-81 -1 -146.5 -5t-90.5 -7z" />
<glyph unicode="&#xdf;" horiz-adv-x="1054" d="M743 -31q-37 0 -65 6.5t-41.5 16t-21.5 19t-9 15.5l-2 7q-4 54 -9.5 97.5t-8.5 59.5l-4 17q-2 15 4.5 22t13.5 7h8q4 -2 6.5 -7t3.5 -9v-5q7 -56 16.5 -94.5t15.5 -48.5l5 -11q8 -11 27 -22q18 -8 61 -8h5q49 0 87.5 45t38.5 127q0 114 -137 243q-143 126 -143 271 q0 42 18.5 84t40 70t66.5 81q115 127 115 248q0 97 -67 166.5t-173 69.5t-170.5 -152t-67.5 -393v-107q2 -285 19 -620q11 -89 39 -111q18 -18 104 -30q12 -3 14 -9q-1 -1 0.5 -8t-3.5 -15t-15 -7q-65 16 -217 16q-68 0 -123 -4t-76 -8l-20 -4q-9 -1 -13 6.5t-4 15.5v8 q0 3 3.5 5t6.5 3l3 1q39 5 65.5 12.5t33.5 12.5l7 5q29 23 41 129q14 313 17 658v84q8 207 51 305q45 117 136 198.5t216 81.5q100 0 174 -42.5t107.5 -105t33.5 -132.5q0 -35 -5.5 -63.5t-22 -56.5t-24.5 -40t-36 -43.5t-34 -38.5l-43 -49q-82 -88 -82 -166 q0 -58 32.5 -107t100.5 -112q45 -42 73.5 -76t53 -94t24.5 -129q0 -123 -75 -201.5t-175 -83.5z" />
<glyph unicode="&#xe0;" horiz-adv-x="1110" d="M655 1139q-49 32 -128.5 77.5t-134.5 75.5l-54 29q-2 1 -5 3.5t-7.5 11.5t0.5 20q12 24 30 46.5t30 33.5l13 10q9 6 20.5 4t16.5 -10q36 -50 97.5 -118t104.5 -110l44 -43q14 -14 0 -28q-10 -10 -27 -2zM354 -39q-118 0 -195 64.5t-77 167.5q0 79 34 144t89 110 t143.5 83.5t178.5 63.5t212 51v178q0 80 -52.5 131.5t-174.5 51.5q-95 0 -145.5 -22t-63.5 -73q0 -4 -1.5 -10t-6.5 -22.5t-11.5 -30.5t-19.5 -27.5t-28 -19.5q-8 -3 -20.5 -7t-39.5 2t-39 31q-8 20 -0.5 48t35.5 59t71 57.5t113 44t154 17.5q80 0 140.5 -10.5t99.5 -32 t64.5 -46t38.5 -60.5t18 -67.5t6 -74.5q1 -53 -1 -262.5t-2 -274.5q0 -78 21 -127t63 -49q70 0 95 74q6 17 24 10q7 -3 9.5 -9t1.5 -10l-1 -5q-52 -146 -174 -146q-137 0 -161 115q-6 31 -19 37t-37 -9q-21 -12 -63.5 -39.5t-67 -41t-61.5 -31t-73.5 -25.5t-76.5 -8zM475 41 q23 4 48.5 14.5t41.5 20.5t45 28.5t41 26.5q60 41 75 58t15 47v352q-161 -21 -288 -82q-111 -54 -164 -113.5t-53 -146.5q0 -106 68 -164t171 -41z" />
<glyph unicode="&#xe1;" horiz-adv-x="1110" d="M373 1147q-17 -8 -27 2q-14 15 0 29q164 157 246 270q5 8 16.5 10t20.5 -4q46 -35 73 -90q3 -12 0.5 -20t-7.5 -12l-5 -3q-206 -110 -317 -182zM354 -39q-118 0 -195 64.5t-77 167.5q0 79 34 144t89 110t143.5 83.5t178.5 63.5t212 51v178q0 80 -52.5 131.5t-174.5 51.5 q-95 0 -145.5 -22t-63.5 -73q0 -4 -1.5 -10t-6.5 -22.5t-11.5 -30.5t-19.5 -27.5t-28 -19.5q-8 -3 -20.5 -7t-39.5 2t-39 31q-8 20 -0.5 48t35.5 59t71 57.5t113 44t154 17.5q80 0 140.5 -10.5t99.5 -32t64.5 -46t38.5 -60.5t18 -67.5t6 -74.5q1 -53 -1 -262.5t-2 -274.5 q0 -78 21 -127t63 -49q70 0 95 74q6 17 24 10q7 -3 9.5 -9t1.5 -10l-1 -5q-52 -146 -174 -146q-137 0 -161 115q-6 31 -19 37t-37 -9q-21 -12 -63.5 -39.5t-67 -41t-61.5 -31t-73.5 -25.5t-76.5 -8zM475 41q23 4 48.5 14.5t41.5 20.5t45 28.5t41 26.5q60 41 75 58t15 47v352 q-161 -21 -288 -82q-111 -54 -164 -113.5t-53 -146.5q0 -106 68 -164t171 -41z" />
<glyph unicode="&#xe2;" horiz-adv-x="1110" d="M309 1180q-17 13 0 30q86 105 170 220q13 16 39 16q13 0 22 -4t12 -8l3 -4q37 -51 80.5 -106t68.5 -84l25 -30q6 -6 6 -15t-6 -15t-15.5 -6t-15.5 6q-49 57 -153 125q-31 16 -60 0q-93 -64 -149 -125q-4 -4 -12.5 -4t-14.5 4zM354 -39q-118 0 -195 64.5t-77 167.5 q0 79 34 144t89 110t143.5 83.5t178.5 63.5t212 51v178q0 80 -52.5 131.5t-174.5 51.5q-95 0 -145.5 -22t-63.5 -73q0 -4 -1.5 -10t-6.5 -22.5t-11.5 -30.5t-19.5 -27.5t-28 -19.5q-8 -3 -20.5 -7t-39.5 2t-39 31q-8 20 -0.5 48t35.5 59t71 57.5t113 44t154 17.5 q80 0 140.5 -10.5t99.5 -32t64.5 -46t38.5 -60.5t18 -67.5t6 -74.5q1 -53 -1 -262.5t-2 -274.5q0 -78 21 -127t63 -49q70 0 95 74q6 17 24 10q7 -3 9.5 -9t1.5 -10l-1 -5q-52 -146 -174 -146q-137 0 -161 115q-6 31 -19 37t-37 -9q-21 -12 -63.5 -39.5t-67 -41t-61.5 -31 t-73.5 -25.5t-76.5 -8zM475 41q23 4 48.5 14.5t41.5 20.5t45 28.5t41 26.5q60 41 75 58t15 47v352q-161 -21 -288 -82q-111 -54 -164 -113.5t-53 -146.5q0 -106 68 -164t171 -41z" />
<glyph unicode="&#xe3;" horiz-adv-x="1110" d="M268 1243q-9 12 6 31q16 21 31 38t22 24l7 7q21 22 53.5 30.5t64 4t60 -11.5t46.5 -15l17 -8q51 -17 88.5 -9.5t59.5 24.5l22 18q20 20 37 6q10 -8 -10 -39q-13 -19 -25.5 -35.5t-18.5 -23.5l-7 -6q-21 -22 -54 -30.5t-65 -4t-60.5 11.5t-46.5 15l-18 8q-47 18 -84.5 12 t-60.5 -22l-23 -17q-13 -13 -23 -15t-14 2zM354 -39q-118 0 -195 64.5t-77 167.5q0 79 34 144t89 110t143.5 83.5t178.5 63.5t212 51v178q0 80 -52.5 131.5t-174.5 51.5q-95 0 -145.5 -22t-63.5 -73q0 -4 -1.5 -10t-6.5 -22.5t-11.5 -30.5t-19.5 -27.5t-28 -19.5 q-8 -3 -20.5 -7t-39.5 2t-39 31q-8 20 -0.5 48t35.5 59t71 57.5t113 44t154 17.5q80 0 140.5 -10.5t99.5 -32t64.5 -46t38.5 -60.5t18 -67.5t6 -74.5q1 -53 -1 -262.5t-2 -274.5q0 -78 21 -127t63 -49q70 0 95 74q6 17 24 10q7 -3 9.5 -9t1.5 -10l-1 -5q-52 -146 -174 -146 q-137 0 -161 115q-6 31 -19 37t-37 -9q-21 -12 -63.5 -39.5t-67 -41t-61.5 -31t-73.5 -25.5t-76.5 -8zM475 41q23 4 48.5 14.5t41.5 20.5t45 28.5t41 26.5q60 41 75 58t15 47v352q-161 -21 -288 -82q-111 -54 -164 -113.5t-53 -146.5q0 -106 68 -164t171 -41z" />
<glyph unicode="&#xe4;" horiz-adv-x="1110" d="M358 1294q-35 0 -59.5 24.5t-24.5 59.5t24.5 59.5t59.5 24.5q34 0 59 -24.5t25 -59.5t-25 -59.5t-59 -24.5zM645 1294q-35 0 -58.5 24.5t-23.5 59.5t23.5 59.5t58.5 24.5q36 0 60 -24t24 -60t-24 -60t-60 -24zM354 -39q-118 0 -195 64.5t-77 167.5q0 79 34 144t89 110 t143.5 83.5t178.5 63.5t212 51v178q0 80 -52.5 131.5t-174.5 51.5q-95 0 -145.5 -22t-63.5 -73q0 -4 -1.5 -10t-6.5 -22.5t-11.5 -30.5t-19.5 -27.5t-28 -19.5q-8 -3 -20.5 -7t-39.5 2t-39 31q-8 20 -0.5 48t35.5 59t71 57.5t113 44t154 17.5q80 0 140.5 -10.5t99.5 -32 t64.5 -46t38.5 -60.5t18 -67.5t6 -74.5q1 -53 -1 -262.5t-2 -274.5q0 -78 21 -127t63 -49q70 0 95 74q6 17 24 10q7 -3 9.5 -9t1.5 -10l-1 -5q-52 -146 -174 -146q-137 0 -161 115q-6 31 -19 37t-37 -9q-21 -12 -63.5 -39.5t-67 -41t-61.5 -31t-73.5 -25.5t-76.5 -8zM475 41 q23 4 48.5 14.5t41.5 20.5t45 28.5t41 26.5q60 41 75 58t15 47v352q-161 -21 -288 -82q-111 -54 -164 -113.5t-53 -146.5q0 -106 68 -164t171 -41z" />
<glyph unicode="&#xe5;" horiz-adv-x="1110" d="M522 1237q-62 0 -104.5 42.5t-42.5 104.5t43 105t104 43q62 0 105 -43t43 -105q0 -61 -43 -104t-105 -43zM522 1305q32 0 56 23.5t24 55.5t-24 56t-56 24t-56 -24t-24 -56t24 -55.5t56 -23.5zM354 -39q-118 0 -195 64.5t-77 167.5q0 79 34 144t89 110t143.5 83.5 t178.5 63.5t212 51v178q0 80 -52.5 131.5t-174.5 51.5q-95 0 -145.5 -22t-63.5 -73q0 -4 -1.5 -10t-6.5 -22.5t-11.5 -30.5t-19.5 -27.5t-28 -19.5q-8 -3 -20.5 -7t-39.5 2t-39 31q-8 20 -0.5 48t35.5 59t71 57.5t113 44t154 17.5q80 0 140.5 -10.5t99.5 -32t64.5 -46 t38.5 -60.5t18 -67.5t6 -74.5q1 -53 -1 -262.5t-2 -274.5q0 -78 21 -127t63 -49q70 0 95 74q6 17 24 10q7 -3 9.5 -9t1.5 -10l-1 -5q-52 -146 -174 -146q-137 0 -161 115q-6 31 -19 37t-37 -9q-21 -12 -63.5 -39.5t-67 -41t-61.5 -31t-73.5 -25.5t-76.5 -8zM475 41 q23 4 48.5 14.5t41.5 20.5t45 28.5t41 26.5q60 41 75 58t15 47v352q-161 -21 -288 -82q-111 -54 -164 -113.5t-53 -146.5q0 -106 68 -164t171 -41z" />
<glyph unicode="&#xe6;" horiz-adv-x="1718" d="M1647 195q7 -6 6 -14.5t-6 -16.5l-5 -8q-58 -90 -171.5 -141.5t-223.5 -51.5q-122 0 -224 44.5t-171 127.5q-28 26 -76 6q-92 -56 -94 -57q-103 -59 -117 -66q-120 -57 -229 -57q-106 0 -195 64q-80 65 -80 170q0 81 45.5 160t143.5 137q151 94 446 167q3 1 8 2.5 t13 10.5t8 22v127q0 77 -51.5 127.5t-149.5 50.5q-111 0 -168.5 -20.5t-70.5 -71.5q-1 -4 -2 -10t-6 -23t-12 -31t-20 -28t-28 -20q-8 -3 -21 -7t-40 2t-39 31q-8 20 0 48t36 59.5t71.5 58.5t114 44.5t155.5 17.5q96 0 165 -15.5t109 -45.5t60 -64.5t28 -81.5q18 26 55 63 q126 117 250 137q81 11 145.5 4t115 -35t87.5 -62.5t63 -78.5t42.5 -83.5t26 -77.5t13 -60t3.5 -31q0 -29 -16.5 -44t-32.5 -15h-17l-702 -4q0 -122 24 -221.5t75 -176t139 -110.5t206 -16q168 27 273 164q6 8 14.5 9t13.5 -2l6 -3zM1155 989q-109 -22 -181 -124t-83 -230 q482 -2 584 2q20 0 27.5 3.5t8.5 14.5q0 90 -29.5 161.5t-79 113t-113.5 57.5t-134 2zM729 236v339q0 34 -35 25q-180 -44 -258 -80q-219 -107 -219 -272q0 -49 20.5 -96.5t59.5 -75.5q69 -47 147 -35q108 16 191 70q57 37 75.5 64.5t18.5 60.5z" />
<glyph unicode="&#xe7;" horiz-adv-x="1093" d="M985 197q7 -6 6 -15t-5 -18l-5 -8q-123 -188 -377 -195h-20q-36 -78 -6 -102q5 -3 13 -9t25 -26.5t25.5 -42t4.5 -54t-28 -65.5l-6 -6t-16 -15t-24.5 -20t-31 -18.5t-36.5 -13.5t-40 -2t-42 12q-8 4 -19 12t-24.5 27.5t-3.5 35.5q1 1 2.5 3.5t6.5 7t11 6.5t16 0t21 -10 q5 -4 12.5 -9.5t29.5 -14t40 -5.5q3 0 6.5 1.5t14.5 6.5t15.5 13.5t9 23.5t-4.5 35q-3 7 -9 18.5t-31 36t-58 37.5l-14 3q-5 3 1 9q6 5 16 14t34.5 42t40.5 71q-153 9 -266 80.5t-165 206.5q-70 163 -26.5 352.5t182.5 308.5q75 63 170.5 100.5t194.5 41.5q84 3 151 -11 t106 -37t63 -51.5t30 -53.5t0 -44q-13 -36 -38.5 -45t-44.5 -1l-20 9q-22 13 -40.5 38t-26.5 44l-8 19q-22 46 -73.5 65t-98.5 19q-66 0 -132 -26.5t-123.5 -77t-98 -122.5t-55 -163.5t4.5 -200.5q23 -129 97.5 -226t177.5 -138.5t209 -18.5q83 18 144 65.5t95 100.5 q5 7 14 8t15 -1l6 -3z" />
<glyph unicode="&#xe8;" horiz-adv-x="1124" d="M750 1151q-49 32 -128.5 77.5t-134.5 75.5l-55 29q-2 1 -5 3.5t-7.5 11.5t0.5 20q12 24 30.5 46.5t31.5 33.5l12 10q9 6 20 4t16 -10q36 -50 97.5 -117.5t104.5 -110.5l44 -42q14 -14 0 -29q-10 -10 -26 -2zM614 -39q-157 0 -280 76t-184 211q-44 93 -46.5 205.5 t35 216.5t101.5 191t158 139.5t198 52.5q84 0 153 -22.5t112 -56t75.5 -80t48 -87t25 -84t11 -64t1.5 -34.5q0 -29 -16.5 -44t-33.5 -15l-16 -1l-700 -4q0 -127 24.5 -228.5t75.5 -178t138.5 -110.5t205.5 -15q169 27 271 161q6 8 15 9t14 -1l6 -3l6 -5q7 -6 6 -14.5 t-6 -15.5l-4 -8q-58 -89 -171 -140t-223 -51zM262 639q478 -2 580 2q19 0 26.5 3.5t8.5 14.5q0 89 -23.5 156t-64.5 105t-89.5 56.5t-103.5 18.5q-89 0 -164.5 -55.5t-118 -135.5t-51.5 -165z" />
<glyph unicode="&#xe9;" horiz-adv-x="1124" d="M459 1147q-17 -8 -27 2q-14 15 0 29q164 157 246 270q5 8 16.5 10t20.5 -4q46 -35 73 -90q3 -12 0.5 -20t-7.5 -12l-5 -3q-206 -110 -317 -182zM614 -39q-157 0 -280 76t-184 211q-44 93 -46.5 205.5t35 216.5t101.5 191t158 139.5t198 52.5q84 0 153 -22.5t112 -56 t75.5 -80t48 -87t25 -84t11 -64t1.5 -34.5q0 -29 -16.5 -44t-33.5 -15l-16 -1l-700 -4q0 -127 24.5 -228.5t75.5 -178t138.5 -110.5t205.5 -15q169 27 271 161q6 8 15 9t14 -1l6 -3l6 -5q7 -6 6 -14.5t-6 -15.5l-4 -8q-58 -89 -171 -140t-223 -51zM262 639q478 -2 580 2 q19 0 26.5 3.5t8.5 14.5q0 89 -23.5 156t-64.5 105t-89.5 56.5t-103.5 18.5q-89 0 -164.5 -55.5t-118 -135.5t-51.5 -165z" />
<glyph unicode="&#xea;" horiz-adv-x="1124" d="M401 1180q-17 13 0 30q86 105 170 220q13 16 39 16q13 0 22 -4t12 -8l3 -4q37 -51 80.5 -106t68.5 -84l25 -30q6 -6 6 -15t-6 -15t-15 -6t-15 6q-48 55 -154 125q-30 16 -59 0q-96 -66 -150 -125q-4 -4 -12.5 -4t-14.5 4zM614 -39q-157 0 -280 76t-184 211 q-44 93 -46.5 205.5t35 216.5t101.5 191t158 139.5t198 52.5q84 0 153 -22.5t112 -56t75.5 -80t48 -87t25 -84t11 -64t1.5 -34.5q0 -29 -16.5 -44t-33.5 -15l-16 -1l-700 -4q0 -127 24.5 -228.5t75.5 -178t138.5 -110.5t205.5 -15q169 27 271 161q6 8 15 9t14 -1l6 -3l6 -5 q7 -6 6 -14.5t-6 -15.5l-4 -8q-58 -89 -171 -140t-223 -51zM262 639q478 -2 580 2q19 0 26.5 3.5t8.5 14.5q0 89 -23.5 156t-64.5 105t-89.5 56.5t-103.5 18.5q-89 0 -164.5 -55.5t-118 -135.5t-51.5 -165z" />
<glyph unicode="&#xeb;" horiz-adv-x="1124" d="M453 1294q-35 0 -59.5 24.5t-24.5 59.5t24.5 59.5t59.5 24.5q34 0 59 -24.5t25 -59.5t-25 -59.5t-59 -24.5zM739 1294q-35 0 -58.5 24.5t-23.5 59.5t23.5 59.5t58.5 24.5q36 0 60 -24t24 -60t-24 -60t-60 -24zM614 -39q-157 0 -280 76t-184 211q-44 93 -46.5 205.5 t35 216.5t101.5 191t158 139.5t198 52.5q84 0 153 -22.5t112 -56t75.5 -80t48 -87t25 -84t11 -64t1.5 -34.5q0 -29 -16.5 -44t-33.5 -15l-16 -1l-700 -4q0 -127 24.5 -228.5t75.5 -178t138.5 -110.5t205.5 -15q169 27 271 161q6 8 15 9t14 -1l6 -3l6 -5q7 -6 6 -14.5 t-6 -15.5l-4 -8q-58 -89 -171 -140t-223 -51zM262 639q478 -2 580 2q19 0 26.5 3.5t8.5 14.5q0 89 -23.5 156t-64.5 105t-89.5 56.5t-103.5 18.5q-89 0 -164.5 -55.5t-118 -135.5t-51.5 -165z" />
<glyph unicode="&#xec;" horiz-adv-x="589" d="M403 1147q-49 32 -128.5 77.5t-134.5 75.5l-54 29q-2 1 -5 3.5t-7.5 11.5t0.5 20q12 24 30 46.5t30 33.5l13 10q9 6 20.5 4t16.5 -10q36 -50 97.5 -117.5t104.5 -110.5l44 -42q14 -14 0 -29q-10 -10 -27 -2zM80 -16q-10 -2 -15 4t-5 13l1 7q1 5 4.5 8t6.5 4h4q39 5 65 13 t33 13l6 5q36 32 47 187q6 129 9 274q0 5 -7 299q-2 43 -14.5 83t-36.5 48t-94 0q-14 -2 -18 10q-1 1 -1.5 2.5t-1.5 6t-0.5 8t5 6.5t12.5 4q80 12 221 49l43 10q3 1 8 0.5t12.5 -7.5t6.5 -23q-12 -220 -15 -504q0 -81 9 -266q2 -56 13 -111.5t32 -75.5q18 -19 106 -31 q10 0 12 -12q-1 -1 0 -7t-3 -12.5t-13 -4.5q-129 16 -213 16q-37 0 -92 -4t-91 -8z" />
<glyph unicode="&#xed;" horiz-adv-x="589" d="M106 1147q-16 -8 -26 2q-14 15 0 29q164 157 246 270q5 8 16 10t20 -4q47 -35 74 -90q3 -12 0.5 -20t-7.5 -12l-5 -3q-207 -110 -318 -182zM80 -16q-10 -2 -15 4t-5 13l1 7q1 5 4.5 8t6.5 4h4q39 5 65 13t33 13l6 5q36 32 47 187q6 129 9 274q0 5 -7 299q-2 43 -14.5 83 t-36.5 48t-94 0q-14 -2 -18 10q-1 1 -1.5 2.5t-1.5 6t-0.5 8t5 6.5t12.5 4q80 12 221 49l43 10q3 1 8 0.5t12.5 -7.5t6.5 -23q-12 -220 -15 -504q0 -81 9 -266q2 -56 13 -111.5t32 -75.5q18 -19 106 -31q10 0 12 -12q-1 -1 0 -7t-3 -12.5t-13 -4.5q-129 16 -213 16 q-37 0 -92 -4t-91 -8z" />
<glyph unicode="&#xee;" horiz-adv-x="589" d="M63 1180q-17 13 0 30q86 105 170 220q13 16 39 16q13 0 22 -4t12 -8l3 -4q37 -51 80.5 -106t68.5 -84l25 -30q6 -6 6 -15t-6 -15t-15 -6t-15 6q-48 55 -154 125q-30 16 -59 0q-96 -66 -150 -125q-4 -4 -12.5 -4t-14.5 4zM80 -16q-10 -2 -15 4t-5 13l1 7q1 5 4.5 8t6.5 4 h4q39 5 65 13t33 13l6 5q36 32 47 187q6 129 9 274q0 5 -7 299q-2 43 -14.5 83t-36.5 48t-94 0q-14 -2 -18 10q-1 1 -1.5 2.5t-1.5 6t-0.5 8t5 6.5t12.5 4q80 12 221 49l43 10q3 1 8 0.5t12.5 -7.5t6.5 -23q-12 -220 -15 -504q0 -81 9 -266q2 -56 13 -111.5t32 -75.5 q18 -19 106 -31q10 0 12 -12q-1 -1 0 -7t-3 -12.5t-13 -4.5q-129 16 -213 16q-37 0 -92 -4t-91 -8z" />
<glyph unicode="&#xef;" horiz-adv-x="589" d="M137 1294q-35 0 -59.5 24.5t-24.5 59.5t24.5 59.5t59.5 24.5q34 0 59 -24.5t25 -59.5t-25 -59.5t-59 -24.5zM424 1294q-35 0 -58.5 24.5t-23.5 59.5t23.5 59.5t58.5 24.5q36 0 60 -24t24 -60t-24 -60t-60 -24zM80 -16q-10 -2 -15 4t-5 13l1 7q1 5 4.5 8t6.5 4h4 q39 5 65 13t33 13l6 5q36 32 47 187q6 129 9 274q0 5 -7 299q-2 43 -14.5 83t-36.5 48t-94 0q-14 -2 -18 10q-1 1 -1.5 2.5t-1.5 6t-0.5 8t5 6.5t12.5 4q80 12 221 49l43 10q3 1 8 0.5t12.5 -7.5t6.5 -23q-12 -220 -15 -504q0 -81 9 -266q2 -56 13 -111.5t32 -75.5 q18 -19 106 -31q10 0 12 -12q-1 -1 0 -7t-3 -12.5t-13 -4.5q-129 16 -213 16q-37 0 -92 -4t-91 -8z" />
<glyph unicode="&#xf0;" horiz-adv-x="1077" d="M528 -39q-156 -7 -266.5 70.5t-163.5 230.5q-33 94 -36.5 191.5t18 183t66.5 162t106 131t140 87.5t165 34q109 3 213 -52q12 -4 14 0q5 5 0 23q-67 167 -192 274l-213 -110q-16 -8 -23 6l-18 37q-8 15 6 22l182 97q-110 76 -219 98q-22 4 -18 22l8 29q5 19 25 14 q166 -36 294 -118l201 106q14 7 23 -6l18 -37q8 -15 -6 -22l-170 -88q70 -57 126 -132t90 -145t58.5 -150.5t35.5 -138t17 -119.5t6.5 -84t0.5 -41v-1q0 -158 -57 -284t-168.5 -203.5t-262.5 -86.5zM608 29q55 15 100.5 52t74 85.5t49.5 107t27.5 116t9 112t-6.5 94.5 q-19 130 -79.5 228.5t-143.5 142t-168 20.5q-85 -22 -150 -104t-93.5 -203.5t-10.5 -251.5q29 -197 146 -315.5t245 -83.5z" />
<glyph unicode="&#xf1;" horiz-adv-x="1290" d="M414 1243q-9 12 6 31q16 21 30.5 38t21.5 24l7 7q21 22 53.5 30.5t64 4t60.5 -11.5t47 -15l17 -8q51 -17 88.5 -9.5t59.5 24.5l22 18q20 20 37 6q10 -8 -10 -39q-13 -19 -26 -35.5t-20 -23.5l-6 -6q-21 -22 -54 -30.5t-64.5 -4t-60.5 11.5t-47 15l-17 8q-47 18 -84.5 12 t-60.5 -22l-23 -17q-13 -13 -23 -15t-14 2zM82 -16q-10 -2 -15 4.5t-5 13.5l1 8q1 3 2.5 5t3.5 3t4 1.5t3 0.5h2q38 5 64 13t33 13l7 5q36 32 47 187q7 138 7.5 173t-5.5 400q-10 117 -53 131q-24 8 -92 0q-16 -2 -20 6q-1 1 -1.5 3t-1 7t0.5 9t5.5 7.5t12.5 4.5 q84 12 223 47l45 12q3 1 8 0.5t12.5 -7.5t6.5 -23l-2 -56q0 -24 16 -10q71 74 184 96q10 2 27 5.5t66.5 7t94 0t99.5 -21.5t95 -50t67.5 -93.5t28.5 -144.5q0 -275 10 -503q11 -159 47 -187q16 -19 104 -31q13 0 15 -10q-1 -1 0 -7.5t-4 -13.5t-15 -5q-127 16 -217 16 q-36 0 -91 -4t-92 -8l-36 -4q-10 -2 -14.5 4.5t-3.5 13.5v8l14 10q39 5 66 13t34 13l7 5q35 32 45 187q10 208 10 448q0 15 -1.5 31.5t-5.5 42.5t-12 49.5t-20.5 51.5t-31 49t-44 41.5t-59 29.5t-76.5 13t-96 -9q-118 -23 -164.5 -87t-54.5 -173q-4 -73 -5 -138.5 t-0.5 -98.5t3.5 -121t4 -129q11 -158 47 -187q18 -19 106 -31q11 0 13 -10q-1 -1 0 -7.5t-3.5 -13.5t-13.5 -5q-125 16 -219 16q-38 0 -92.5 -4t-89.5 -8z" />
<glyph unicode="&#xf2;" horiz-adv-x="1292" d="M791 1147q-49 32 -128.5 77.5t-134.5 75.5l-55 29q-2 1 -5 3.5t-7.5 11.5t0.5 20q12 24 30.5 46.5t30.5 33.5l13 10q9 6 20 4t16 -10q36 -50 97.5 -117.5t105.5 -110.5l43 -42q6 -6 6 -14.5t-6 -14.5q-10 -10 -26 -2zM635 -37q-176 -6 -313 69t-195 226q-40 96 -44 195 t23.5 184.5t82.5 161.5t128 130.5t164 87.5t187 36q242 3 392 -146.5t150 -378.5q0 -247 -159 -399t-416 -166zM735 25q107 22 188.5 106t117 207.5t12.5 253.5q-24 133 -100 233t-180.5 143.5t-211.5 20.5q-107 -22 -188.5 -106t-117 -207.5t-11.5 -253.5 q23 -129 99 -229.5t181 -145.5t211 -22z" />
<glyph unicode="&#xf3;" horiz-adv-x="1292" d="M498 1147q-17 -8 -27 2q-6 6 -6 14.5t6 14.5q164 157 246 270q5 8 16.5 10t20.5 -4q46 -35 73 -90q3 -12 0.5 -20t-7.5 -12l-5 -3q-206 -110 -317 -182zM635 -37q-176 -6 -313 69t-195 226q-40 96 -44 195t23.5 184.5t82.5 161.5t128 130.5t164 87.5t187 36 q242 3 392 -146.5t150 -378.5q0 -247 -159 -399t-416 -166zM735 25q107 22 188.5 106t117 207.5t12.5 253.5q-24 133 -100 233t-180.5 143.5t-211.5 20.5q-107 -22 -188.5 -106t-117 -207.5t-11.5 -253.5q23 -129 99 -229.5t181 -145.5t211 -22z" />
<glyph unicode="&#xf4;" horiz-adv-x="1292" d="M442 1180q-17 13 0 30q86 105 170 220q13 16 39 16q13 0 22 -4t12 -8l3 -4q37 -51 80.5 -106t68.5 -84l25 -30q6 -6 6 -15t-6 -15t-15.5 -6t-15.5 6q-49 57 -153 125q-31 16 -60 0q-93 -64 -149 -125q-5 -4 -13 -4t-14 4zM635 -37q-176 -6 -313 69t-195 226 q-40 96 -44 195t23.5 184.5t82.5 161.5t128 130.5t164 87.5t187 36q242 3 392 -146.5t150 -378.5q0 -247 -159 -399t-416 -166zM735 25q107 22 188.5 106t117 207.5t12.5 253.5q-24 133 -100 233t-180.5 143.5t-211.5 20.5q-107 -22 -188.5 -106t-117 -207.5t-11.5 -253.5 q23 -129 99 -229.5t181 -145.5t211 -22z" />
<glyph unicode="&#xf5;" horiz-adv-x="1292" d="M408 1243q-9 12 6 31q16 21 30.5 38t21.5 24l7 7q21 22 53.5 30.5t64 4t60.5 -11.5t47 -15l17 -8q51 -17 88.5 -9.5t59.5 24.5l22 18q20 20 37 6q10 -8 -11 -39q-13 -19 -25.5 -35.5t-19.5 -23.5l-6 -6q-21 -22 -54 -30.5t-65 -4t-60.5 11.5t-46.5 15l-18 8 q-47 18 -84 12t-60 -22l-23 -17q-13 -13 -23 -15t-14 2zM635 -37q-176 -6 -313 69t-195 226q-40 96 -44 195t23.5 184.5t82.5 161.5t128 130.5t164 87.5t187 36q242 3 392 -146.5t150 -378.5q0 -247 -159 -399t-416 -166zM735 25q107 22 188.5 106t117 207.5t12.5 253.5 q-24 133 -100 233t-180.5 143.5t-211.5 20.5q-107 -22 -188.5 -106t-117 -207.5t-11.5 -253.5q23 -129 99 -229.5t181 -145.5t211 -22z" />
<glyph unicode="&#xf6;" horiz-adv-x="1292" d="M508 1294q-35 0 -59.5 24.5t-24.5 59.5t24.5 59.5t59.5 24.5q34 0 59 -24.5t25 -59.5t-25 -59.5t-59 -24.5zM795 1294q-35 0 -58.5 24.5t-23.5 59.5t23.5 59.5t58.5 24.5q36 0 60 -24t24 -60t-24 -60t-60 -24zM635 -37q-176 -6 -313 69t-195 226q-40 96 -44 195 t23.5 184.5t82.5 161.5t128 130.5t164 87.5t187 36q242 3 392 -146.5t150 -378.5q0 -247 -159 -399t-416 -166zM735 25q107 22 188.5 106t117 207.5t12.5 253.5q-24 133 -100 233t-180.5 143.5t-211.5 20.5q-107 -22 -188.5 -106t-117 -207.5t-11.5 -253.5 q23 -129 99 -229.5t181 -145.5t211 -22z" />
<glyph unicode="&#xf7;" horiz-adv-x="1052" d="M528 782q-33 0 -56 23.5t-23 54.5q0 34 22.5 57t56.5 23q33 0 56.5 -23.5t23.5 -56.5q0 -31 -24 -54.5t-56 -23.5zM125 543q-9 0 -16 6.5t-7 15.5v53q0 9 7 15t16 6h805q20 0 20 -21v-53q0 -9 -5.5 -15.5t-14.5 -6.5h-805zM528 244q-32 0 -54.5 23.5t-22.5 54.5 q0 34 22.5 56.5t54.5 22.5q33 0 56.5 -23t23.5 -56q0 -31 -24 -54.5t-56 -23.5z" />
<glyph unicode="&#xf8;" horiz-adv-x="1304" d="M1094 885q129 -145 129 -357q0 -247 -159 -399t-417 -166q-124 -5 -232.5 32.5t-183.5 115.5l-96 -88q-16 -13 -33 0l-34 40q-14 18 2 31l104 92q-18 30 -35 72q-40 96 -44 195t23.5 184.5t82.5 161.5t128 130.5t164 87.5t187 36q198 3 342 -103l68 60q6 7 15 6.5 t15 -6.5l37 -43q5 -4 4.5 -13.5t-6.5 -13.5zM256 422q12 -66 39 -125l635 569q-73 78 -167.5 111t-189.5 12q-107 -22 -188.5 -106t-117 -207.5t-11.5 -253.5zM748 25q107 22 188.5 106t116.5 207.5t12 253.5q-21 109 -76 199l-645 -582q73 -106 183 -157t221 -27z" />
<glyph unicode="&#xf9;" horiz-adv-x="1286" d="M750 1147q-49 32 -128.5 77.5t-134.5 75.5l-55 29q-2 1 -5 3.5t-7.5 11.5t0.5 20q12 24 30.5 46.5t31.5 33.5l12 10q9 6 20 4t16 -10q36 -50 97.5 -117.5t104.5 -110.5l44 -42q14 -14 0 -29q-10 -10 -26 -2zM702 -20q-67 -17 -132 -19t-128 15t-110 52t-76 99.5 t-29 151.5q2 229 0 452q0 26 -2.5 65t-14.5 91.5t-30 66.5q-18 19 -106 31q-11 2 -13 14q1 1 0 7t3.5 12.5t13.5 5.5q137 -14 262 -14q9 0 13.5 -1t8.5 -7.5t3 -20.5q-5 -63 -5 -84q-7 -327 0 -618q0 -14 1 -26t5.5 -35.5t10.5 -43.5t18.5 -44.5t29 -43t42 -35t56.5 -24 t74.5 -7t94.5 12.5q45 11 81 27t62.5 39.5t46 48.5t32 62t20 70.5t11.5 82.5t4.5 91.5t0.5 102.5q1 52 0.5 97t-1.5 97.5t-1 59.5q0 109 -43 143q-18 19 -106 31q-13 0 -15 10q1 1 0 8t4 14.5t15 6.5q131 -14 203 -14q38 0 89 3.5t83 6.5l32 4q10 1 15 -6.5t5 -15.5l-1 -7 q-1 -3 -2.5 -5t-3.5 -3t-4 -1.5t-3 -0.5h-2q-39 -5 -65.5 -13t-33.5 -13l-7 -5q-15 -12 -21 -36q-12 -41 -14 -206t1 -285.5t7 -211.5q4 -90 19 -128.5t45 -43.5q69 -12 104 -20q17 -3 17 -15q0 -3 -0.5 -8t-6.5 -12t-18 -4q-5 1 -14.5 3t-37.5 6.5t-56 6t-66.5 -1 t-71.5 -10.5q-12 -4 -18 -4q-12 0 -16 8q-4 6 0 28q9 33 2 60q-4 12 -11 14q-10 3 -18 -2q-114 -90 -232 -112z" />
<glyph unicode="&#xfa;" horiz-adv-x="1286" d="M524 1147q-16 -8 -26 2q-14 15 0 29q163 157 245 270q5 8 16.5 10t20.5 -4q47 -35 74 -90q3 -12 0.5 -20t-7.5 -12l-5 -3q-207 -110 -318 -182zM702 -20q-67 -17 -132 -19t-128 15t-110 52t-76 99.5t-29 151.5q2 229 0 452q0 26 -2.5 65t-14.5 91.5t-30 66.5 q-18 19 -106 31q-11 2 -13 14q1 1 0 7t3.5 12.5t13.5 5.5q137 -14 262 -14q9 0 13.5 -1t8.5 -7.5t3 -20.5q-5 -63 -5 -84q-7 -327 0 -618q0 -14 1 -26t5.5 -35.5t10.5 -43.5t18.5 -44.5t29 -43t42 -35t56.5 -24t74.5 -7t94.5 12.5q45 11 81 27t62.5 39.5t46 48.5t32 62 t20 70.5t11.5 82.5t4.5 91.5t0.5 102.5q1 52 0.5 97t-1.5 97.5t-1 59.5q0 109 -43 143q-18 19 -106 31q-13 0 -15 10q1 1 0 8t4 14.5t15 6.5q131 -14 203 -14q38 0 89 3.5t83 6.5l32 4q10 1 15 -6.5t5 -15.5l-1 -7q-1 -3 -2.5 -5t-3.5 -3t-4 -1.5t-3 -0.5h-2 q-39 -5 -65.5 -13t-33.5 -13l-7 -5q-15 -12 -21 -36q-12 -41 -14 -206t1 -285.5t7 -211.5q4 -90 19 -128.5t45 -43.5q69 -12 104 -20q17 -3 17 -15q0 -3 -0.5 -8t-6.5 -12t-18 -4q-5 1 -14.5 3t-37.5 6.5t-56 6t-66.5 -1t-71.5 -10.5q-12 -4 -18 -4q-12 0 -16 8q-4 6 0 28 q9 33 2 60q-4 12 -11 14q-10 3 -18 -2q-114 -90 -232 -112z" />
<glyph unicode="&#xfb;" horiz-adv-x="1286" d="M430 1180q-17 13 0 30q86 105 170 220q13 16 39 16q13 0 22 -4t12 -8l3 -4q37 -51 80.5 -106t68.5 -84l25 -30q6 -6 6 -15t-6 -15t-15.5 -6t-15.5 6q-49 57 -153 125q-31 16 -60 0q-93 -64 -149 -125q-5 -4 -13 -4t-14 4zM702 -20q-67 -17 -132 -19t-128 15t-110 52 t-76 99.5t-29 151.5q2 229 0 452q0 26 -2.5 65t-14.5 91.5t-30 66.5q-18 19 -106 31q-11 2 -13 14q1 1 0 7t3.5 12.5t13.5 5.5q137 -14 262 -14q9 0 13.5 -1t8.5 -7.5t3 -20.5q-5 -63 -5 -84q-7 -327 0 -618q0 -14 1 -26t5.5 -35.5t10.5 -43.5t18.5 -44.5t29 -43t42 -35 t56.5 -24t74.5 -7t94.5 12.5q45 11 81 27t62.5 39.5t46 48.5t32 62t20 70.5t11.5 82.5t4.5 91.5t0.5 102.5q1 52 0.5 97t-1.5 97.5t-1 59.5q0 109 -43 143q-18 19 -106 31q-13 0 -15 10q1 1 0 8t4 14.5t15 6.5q131 -14 203 -14q38 0 89 3.5t83 6.5l32 4q10 1 15 -6.5 t5 -15.5l-1 -7q-1 -3 -2.5 -5t-3.5 -3t-4 -1.5t-3 -0.5h-2q-39 -5 -65.5 -13t-33.5 -13l-7 -5q-15 -12 -21 -36q-12 -41 -14 -206t1 -285.5t7 -211.5q4 -90 19 -128.5t45 -43.5q69 -12 104 -20q17 -3 17 -15q0 -3 -0.5 -8t-6.5 -12t-18 -4q-5 1 -14.5 3t-37.5 6.5t-56 6 t-66.5 -1t-71.5 -10.5q-12 -4 -18 -4q-12 0 -16 8q-4 6 0 28q9 33 2 60q-4 12 -11 14q-10 3 -18 -2q-114 -90 -232 -112z" />
<glyph unicode="&#xfc;" horiz-adv-x="1286" d="M461 1294q-35 0 -59.5 24.5t-24.5 59.5t24.5 59.5t59.5 24.5q34 0 59 -24.5t25 -59.5t-25 -59.5t-59 -24.5zM748 1294q-35 0 -58.5 24.5t-23.5 59.5t23.5 59.5t58.5 24.5q36 0 59.5 -24t23.5 -60t-23.5 -60t-59.5 -24zM702 -20q-67 -17 -132 -19t-128 15t-110 52 t-76 99.5t-29 151.5q2 229 0 452q0 26 -2.5 65t-14.5 91.5t-30 66.5q-18 19 -106 31q-11 2 -13 14q1 1 0 7t3.5 12.5t13.5 5.5q137 -14 262 -14q9 0 13.5 -1t8.5 -7.5t3 -20.5q-5 -63 -5 -84q-7 -327 0 -618q0 -14 1 -26t5.5 -35.5t10.5 -43.5t18.5 -44.5t29 -43t42 -35 t56.5 -24t74.5 -7t94.5 12.5q45 11 81 27t62.5 39.5t46 48.5t32 62t20 70.5t11.5 82.5t4.5 91.5t0.5 102.5q1 52 0.5 97t-1.5 97.5t-1 59.5q0 109 -43 143q-18 19 -106 31q-13 0 -15 10q1 1 0 8t4 14.5t15 6.5q131 -14 203 -14q38 0 89 3.5t83 6.5l32 4q10 1 15 -6.5 t5 -15.5l-1 -7q-1 -3 -2.5 -5t-3.5 -3t-4 -1.5t-3 -0.5h-2q-39 -5 -65.5 -13t-33.5 -13l-7 -5q-15 -12 -21 -36q-12 -41 -14 -206t1 -285.5t7 -211.5q4 -90 19 -128.5t45 -43.5q69 -12 104 -20q17 -3 17 -15q0 -3 -0.5 -8t-6.5 -12t-18 -4q-5 1 -14.5 3t-37.5 6.5t-56 6 t-66.5 -1t-71.5 -10.5q-12 -4 -18 -4q-12 0 -16 8q-4 6 0 28q9 33 2 60q-4 12 -11 14q-10 3 -18 -2q-114 -90 -232 -112z" />
<glyph unicode="&#xfd;" horiz-adv-x="1345" d="M588 1147q-17 -8 -27 2q-6 6 -6 14.5t6 14.5q164 157 246 270q5 8 16.5 10t20.5 -4q47 -35 74 -90q3 -12 0 -20t-8 -12l-5 -3q-206 -110 -317 -182zM334 -557q-22 14 -32.5 30.5t-9 29t6 23.5t10.5 17l6 6q19 19 47 34t46 21l18 5q22 6 41.5 27t26.5 33t20 38l86 203 q2 4 3.5 16t0 37t-9.5 51q-32 104 -155.5 408.5t-182.5 433.5q-24 48 -46.5 76.5t-53.5 38.5q-17 6 -80 14q-15 2 -15 16v5q0 7 5.5 13t13.5 5q114 -14 180 -14q31 0 88.5 3.5t102.5 7t47 3.5q12 0 12 -16v-9q0 -6 -3 -9.5t-6 -3.5l-3 -1q-43 -5 -69.5 -14t-32.5 -15l-5 -6 q-7 -8 -8 -17.5t3.5 -23.5t10 -26.5t15 -34t16.5 -39.5q190 -502 244 -631q7 -13 20 -13.5t23 15.5q48 111 159.5 355t135.5 299q25 66 0 118q-11 23 -70 33q-14 2 -14 12v9q0 8 5 13.5t13 4.5q117 -14 166 -14q28 0 65.5 3.5t65 7t31.5 3.5q12 0 12 -14v-9q0 -6 -3 -10 t-6 -5l-3 -1q-36 -4 -63 -12t-35 -13l-9 -6q-14 -9 -24 -23t-22.5 -39t-18.5 -36q-214 -411 -576 -1292q-38 -86 -94.5 -115t-95.5 -6z" />
<glyph unicode="&#xfe;" horiz-adv-x="1259" d="M59 -592q-9 -2 -13.5 5.5t-4.5 15.5v8q1 4 4.5 6.5t6.5 2.5l3 1q39 5 66 13t34 13l7 5q23 19 39 110q18 298 18 781q0 712 -10 966q-10 117 -51 131q-25 8 -95 0q-16 -4 -18 4q-1 1 -1.5 3t-1.5 7.5t-0.5 10t5 8t12.5 4.5q85 10 224 49h2l43 11h8t12.5 -7.5t5.5 -23.5 q-11 -202 -14 -586q0 -12 4 -16t8 0q60 54 145 83t140 31l55 3q86 0 159 -21t121.5 -55t87.5 -74.5t60.5 -81.5t36 -75t19.5 -55l4 -21q23 -123 16 -219.5t-38.5 -167.5t-74.5 -121.5t-91 -83t-89 -51.5t-67 -26l-27 -7q-282 -55 -428 51q-20 12 -31 8q-10 -3 -10 -12 q8 -323 16 -449q11 -86 39 -108q17 -19 105 -31q12 -2 14 -10q-1 -1 0.5 -8.5t-3.5 -15t-15 -5.5q-66 17 -220 17q-68 0 -122 -4.5t-74 -8.5zM745 27q5 1 13.5 3t33.5 12.5t49 24t55 39t55.5 56.5t47 78t33.5 101.5t10 129.5t-18 160q-4 17 -12.5 45t-45 96.5t-84.5 117 t-135.5 78.5t-193.5 9q-31 -6 -57.5 -19.5t-45.5 -30t-35 -41t-26.5 -45.5t-18.5 -51.5t-12.5 -52t-7.5 -53.5t-4 -48.5t-2.5 -45.5t-1.5 -37v-152q0 -19 2 -49t23 -104t58.5 -126.5t121 -85t198.5 -9.5z" />
<glyph unicode="&#xff;" horiz-adv-x="1345" d="M594 1294q-35 0 -59.5 24.5t-24.5 59.5t24.5 59.5t59.5 24.5q34 0 59 -24.5t25 -59.5t-25 -59.5t-59 -24.5zM881 1294q-35 0 -58.5 24.5t-23.5 59.5t23.5 59.5t58.5 24.5q36 0 60 -24t24 -60t-24 -60t-60 -24zM334 -557q-22 14 -32.5 30.5t-9 29t6 23.5t10.5 17l6 6 q19 19 47 34t46 21l18 5q22 6 41.5 27t26.5 33t20 38l86 203q2 4 3.5 16t0 37t-9.5 51q-32 104 -155.5 408.5t-182.5 433.5q-24 48 -46.5 76.5t-53.5 38.5q-17 6 -80 14q-15 2 -15 16v5q0 7 5.5 13t13.5 5q114 -14 180 -14q31 0 88.5 3.5t102.5 7t47 3.5q12 0 12 -16v-9 q0 -6 -3 -9.5t-6 -3.5l-3 -1q-43 -5 -69.5 -14t-32.5 -15l-5 -6q-7 -8 -8 -17.5t3.5 -23.5t10 -26.5t15 -34t16.5 -39.5q190 -502 244 -631q7 -13 20 -13.5t23 15.5q48 111 159.5 355t135.5 299q25 66 0 118q-11 23 -70 33q-14 2 -14 12v9q0 8 5 13.5t13 4.5 q117 -14 166 -14q28 0 65.5 3.5t65 7t31.5 3.5q12 0 12 -14v-9q0 -6 -3 -10t-6 -5l-3 -1q-36 -4 -63 -12t-35 -13l-9 -6q-14 -9 -24 -23t-22.5 -39t-18.5 -36q-214 -411 -576 -1292q-38 -86 -94.5 -115t-95.5 -6z" />
<glyph unicode="&#x152;" horiz-adv-x="2029" d="M795 -33q-241 -14 -410 80q-90 52 -158.5 133.5t-109.5 181.5q-92 228 -34 479t243 414q103 93 237 144.5t273 54.5q52 0 104 -6l35 -6q123 -12 237 -12q306 2 592 22q4 0 9 -1t12.5 -8t3.5 -18q0 -1 -1 -3t-1 -3q0 -2 -2 -4q-21 -55 -15 -162q5 -23 5 -24l2 -21 q2 -13 -5.5 -18.5t-15.5 -4.5l-8 1q-3 1 -5 5t-3 7v4q-5 48 -13 81t-13 41l-5 9q-33 50 -211 60q-68 0 -201 -25q-40 -12 -45 -39q-13 -205 -16 -477q3 -38 39 -45q65 -6 129 -6h51q109 4 168 8q3 0 11.5 2.5t21.5 13t18 27.5q6 29 12 86q1 14 9 16q1 -1 7.5 0t14 -4.5 t6.5 -17.5q-10 -49 -14 -160q2 -50 5.5 -90.5t5.5 -55.5l3 -16q1 -12 -6 -17.5t-15 -4.5h-7q-4 1 -6 5.5t-3 8.5v4q-6 63 -14 88q-2 12 -14 25t-35 14q-110 8 -172 8h-49q-43 0 -121 -4q-42 -9 -45 -41q0 -311 14 -573q5 -34 41 -45v-2q38 -9 99 -14.5t103 -7.5l42 -1 q208 0 293 25q21 15 24 20q21 23 39 129q2 17 8 17q1 -1 8.5 0t15 -5t5.5 -18q-14 -45 -24 -147v-41q1 -9 -3.5 -17.5t-8.5 -13.5l-5 -4q-10 -8 -35.5 -11t-45.5 -2l-21 1q-128 7 -281.5 10.5t-242.5 3.5h-89q-82 0 -148.5 -3.5t-91.5 -6.5l-26 -4q-83 -16 -151 -19zM938 29 q43 7 113 37q15 9 27.5 22t20.5 25.5t13.5 24t8.5 18.5l3 8l9 108q8 172 8 447q0 190 -8 444q-1 16 -3 43q-1 8 -3.5 20t-18 41t-39.5 46q-185 119 -387 76q-92 -19 -172 -71.5t-137 -129t-95 -173.5t-46 -204t10 -221q35 -185 141 -326t253.5 -204t301.5 -31z" />
<glyph unicode="&#x153;" horiz-adv-x="2125" d="M2015 190q7 -6 6 -14.5t-5 -15.5l-5 -8q-58 -89 -170.5 -140t-222.5 -51q-157 0 -280.5 76t-184.5 211q-4 8 -4 10q-69 -132 -203 -209t-311 -86q-176 -6 -313 69t-195 226q-40 96 -44 195t23.5 184.5t82.5 161.5t128 130.5t164 87.5t187 36q179 1 311 -83.5t190 -228.5 q66 139 179.5 225.5t250.5 86.5q84 0 153 -22.5t112 -56t75.5 -80t48 -87t25 -84t11 -64t1.5 -34.5q0 -29 -16.5 -44t-32.5 -15l-16 -1l-700 -4q0 -127 24.5 -228.5t75.5 -178t138.5 -110.5t205.5 -15q168 27 270 161q6 8 15 9t15 -1l5 -3zM735 20q107 22 188.5 107.5 t117 210t12.5 254.5q-24 133 -100 234t-180.5 145.5t-211.5 21.5q-107 -22 -188.5 -107t-117 -209.5t-11.5 -254.5q23 -129 99 -230.5t181 -148t211 -23.5zM1599 995q-68 0 -128.5 -32.5t-102.5 -84.5t-68.5 -114t-33.5 -125q477 -2 579 2q19 0 26.5 3.5t8.5 14.5 q0 89 -23.5 156t-64.5 105t-89.5 56.5t-103.5 18.5z" />
<glyph unicode="&#x178;" horiz-adv-x="1415" d="M580 1550q-35 0 -59.5 24.5t-24.5 59.5t24.5 59.5t59.5 24.5q34 0 59 -24.5t25 -59.5t-25 -59.5t-59 -24.5zM866 1550q-35 0 -58.5 24.5t-23.5 59.5t23.5 59.5t58.5 24.5q36 0 60 -24t24 -60t-24 -60t-60 -24zM424 -16q-12 -2 -18 4.5t-6 13.5l1 8q1 3 3 5t4.5 3t4.5 1.5 t3 0.5h2q48 5 81 13t41 13l9 5q25 16 40.5 71.5t18.5 102.5l2 47q6 234 6 250q0 30 -10 53q-252 463 -459 797q-17 27 -73 35l-58 6q-14 0 -16 10q-1 3 -1.5 8t4.5 12.5t17 6.5q105 -16 218 -16q41 0 98 4t94 8l37 4q12 1 17.5 -6t5.5 -14l-1 -7q-1 -3 -3 -5t-4.5 -3 t-5 -1.5t-4.5 -0.5h-1q-14 -2 -46 -5t-46 -5q-29 -4 -38.5 -19t-4.5 -28l6 -13q104 -213 320 -604q11 -19 32 -19.5t35 19.5q250 392 365 592q15 28 4.5 47t-41.5 25q-14 2 -41.5 5t-40.5 5q-15 0 -17 10q1 1 0 7.5t5 13.5t18 6q141 -16 231 -16q33 0 78 4t74 8l29 4 q12 1 17.5 -6t5.5 -14l-1 -7q-1 -3 -3 -5t-4.5 -3t-5 -1.5t-4.5 -0.5h-1l-51 -6q-94 -14 -119 -45q-52 -73 -114 -169t-165.5 -260t-179.5 -282q-14 -25 -14 -61q0 -174 6 -318q0 -21 2.5 -52.5t18 -92t40.5 -76.5q22 -19 131 -31q13 0 17 -10q-1 -1 0.5 -7.5t-4.5 -13.5 t-19 -5q-135 16 -260 16q-54 0 -119.5 -4t-104.5 -8z" />
<glyph unicode="&#x2c6;" horiz-adv-x="538" d="M61 1507q-17 14 0 31q86 104 170 219q14 17 39 17q13 0 22 -4t12 -8l3 -5q37 -51 80.5 -106t68.5 -84l25 -29q6 -6 6 -15.5t-6 -15.5t-15 -6t-15 6q-48 55 -154 125q-30 16 -59 0q-96 -66 -150 -125q-4 -5 -12.5 -5t-14.5 5z" />
<glyph unicode="&#x2dc;" horiz-adv-x="620" d="M51 1567q-9 11 6 30q16 21 31 38.5t22 24.5l7 7q21 22 53.5 30.5t64 4t60 -11.5t45.5 -15l18 -8q51 -17 88.5 -9.5t59.5 24.5l22 18q20 20 37 6q10 -8 -10 -39q-13 -19 -25.5 -35.5t-19.5 -23.5l-6 -6q-21 -22 -54 -30.5t-65 -4t-60.5 11.5t-46.5 15l-18 8 q-47 18 -84.5 12t-60.5 -22l-23 -17q-13 -13 -23 -15t-14 2z" />
<glyph unicode="&#x2000;" horiz-adv-x="894" />
<glyph unicode="&#x2001;" horiz-adv-x="1788" />
<glyph unicode="&#x2002;" horiz-adv-x="894" />
<glyph unicode="&#x2003;" horiz-adv-x="1788" />
<glyph unicode="&#x2004;" horiz-adv-x="596" />
<glyph unicode="&#x2005;" horiz-adv-x="447" />
<glyph unicode="&#x2006;" horiz-adv-x="298" />
<glyph unicode="&#x2007;" horiz-adv-x="298" />
<glyph unicode="&#x2008;" horiz-adv-x="223" />
<glyph unicode="&#x2009;" horiz-adv-x="357" />
<glyph unicode="&#x200a;" horiz-adv-x="99" />
<glyph unicode="&#x2010;" horiz-adv-x="665" d="M145 553q-9 0 -15.5 6.5t-6.5 15.5v58q0 9 6.5 15.5t15.5 6.5h375q9 0 16 -6.5t7 -15.5v-58q0 -9 -7 -15.5t-16 -6.5h-375z" />
<glyph unicode="&#x2011;" horiz-adv-x="665" d="M145 553q-9 0 -15.5 6.5t-6.5 15.5v58q0 9 6.5 15.5t15.5 6.5h375q9 0 16 -6.5t7 -15.5v-58q0 -9 -7 -15.5t-16 -6.5h-375z" />
<glyph unicode="&#x2012;" horiz-adv-x="665" d="M145 553q-9 0 -15.5 6.5t-6.5 15.5v58q0 9 6.5 15.5t15.5 6.5h375q9 0 16 -6.5t7 -15.5v-58q0 -9 -7 -15.5t-16 -6.5h-375z" />
<glyph unicode="&#x2013;" horiz-adv-x="1118" d="M145 553q-9 0 -15.5 6.5t-6.5 15.5v58q0 9 6.5 15.5t15.5 6.5h828q9 0 15.5 -6.5t6.5 -15.5v-58q0 -9 -6.5 -15.5t-15.5 -6.5h-828z" />
<glyph unicode="&#x2014;" horiz-adv-x="1636" d="M84 553q-9 0 -16 6.5t-7 15.5v58q0 9 7 15.5t16 6.5h1468q9 0 16 -6.5t7 -15.5v-58q0 -9 -7 -15.5t-16 -6.5h-1468z" />
<glyph unicode="&#x2018;" horiz-adv-x="430" d="M340 1473q22 -27 -2 -35q-152 -46 -152 -158q0 -40 19 -67.5t51 -38.5q35 -12 54.5 -28.5t19.5 -43.5q0 -28 -23.5 -53t-75.5 -25q-59 0 -104 55t-45 135q0 75 41 144t137 108q64 26 80 7z" />
<glyph unicode="&#x2019;" horiz-adv-x="391" d="M92 1032q-22 27 2 35q152 46 152 158q0 40 -19 67.5t-51 38.5q-35 12 -54.5 28.5t-19.5 43.5q0 28 23.5 53t75.5 25q59 0 104 -55.5t45 -135.5q0 -75 -41 -144t-137 -108q-63 -25 -80 -6z" />
<glyph unicode="&#x201a;" horiz-adv-x="432" d="M92 -254q-22 27 2 35q152 46 152 158q0 40 -19 67.5t-51 38.5q-35 12 -54.5 28.5t-19.5 43.5q0 28 23.5 53t75.5 25q59 0 104 -55.5t45 -135.5q0 -75 -41 -144t-137 -108q-63 -25 -80 -6z" />
<glyph unicode="&#x201c;" horiz-adv-x="778" d="M340 1473q22 -27 -2 -35q-152 -46 -152 -158q0 -40 19 -67.5t51 -38.5q35 -12 54.5 -28.5t19.5 -43.5q0 -28 -23.5 -53t-75.5 -25q-59 0 -104 55t-45 135q0 75 41 144t137 108q64 26 80 7zM688 1473q22 -27 -2 -35q-151 -46 -151 -158q0 -82 69 -106q35 -12 54.5 -28.5 t19.5 -43.5q0 -29 -23 -53.5t-75 -24.5q-59 0 -104.5 55t-45.5 135q0 75 41 144t137 108q64 26 80 7z" />
<glyph unicode="&#x201d;" horiz-adv-x="778" d="M92 1032q-22 27 2 35q152 46 152 158q0 40 -19 67.5t-51 38.5q-35 12 -54.5 28.5t-19.5 43.5q0 28 23.5 53t75.5 25q59 0 104 -55.5t45 -135.5q0 -75 -41 -144t-137 -108q-63 -25 -80 -6zM440 1032q-22 27 2 35q152 46 152 158q0 40 -19 67.5t-51 38.5q-73 26 -73 72 q0 29 23 53.5t75 24.5q59 0 104 -55.5t45 -135.5q0 -75 -41 -144t-137 -108q-63 -25 -80 -6z" />
<glyph unicode="&#x201e;" horiz-adv-x="821" d="M113 -254q-22 27 2 35q151 46 151 158q0 82 -69 106q-35 12 -54.5 28.5t-19.5 43.5q0 29 23 53.5t75 24.5q59 0 104.5 -55.5t45.5 -135.5q0 -75 -41 -144t-137 -108q-63 -25 -80 -6zM461 -254q-22 27 2 35q151 46 151 158q0 82 -69 106q-35 12 -54.5 28.5t-19.5 43.5 q0 29 23 53.5t75 24.5q59 0 104.5 -55.5t45.5 -135.5q0 -75 -41 -144t-137 -108q-63 -25 -80 -6z" />
<glyph unicode="&#x2022;" horiz-adv-x="565" d="M283 551q-74 0 -127.5 53.5t-53.5 126.5t53.5 126.5t127.5 53.5q73 0 126.5 -53.5t53.5 -126.5t-53.5 -126.5t-126.5 -53.5z" />
<glyph unicode="&#x2026;" horiz-adv-x="1230" d="M195 -14q-41 0 -72 30.5t-31 71.5t31 71.5t72 30.5t71.5 -30.5t30.5 -71.5t-30.5 -71.5t-71.5 -30.5zM606 -14q-42 0 -72 30t-30 72t30 72t72 30q41 0 72 -30.5t31 -71.5t-31 -71.5t-72 -30.5zM1006 -14q-42 0 -72.5 30t-30.5 72t30.5 72t72.5 30q41 0 71.5 -30.5 t30.5 -71.5t-30.5 -71.5t-71.5 -30.5z" />
<glyph unicode="&#x202f;" horiz-adv-x="357" />
<glyph unicode="&#x2039;" horiz-adv-x="507" d="M344 311q-86 136 -209 275q-12 12 -12 30t12 33q55 62 107 130t77 105l25 38q5 7 13 7t13 -3l5 -4q10 -5 10 -17t-5 -21l-5 -10q-24 -49 -54 -105.5t-49 -88.5l-18 -31q-4 -4 -4 -8q-4 -11 -4 -25t4 -22q0 -4 4 -8q68 -115 121 -226q23 -35 0 -49q-19 -16 -31 0z" />
<glyph unicode="&#x203a;" horiz-adv-x="505" d="M131 311q-9 6 -9 18.5t4 21.5l5 9q24 49 54.5 105.5t49.5 88.5l19 32q0 4 4 8q0 1 2 8.5t2 13.5l-6 25l-2 8q-70 114 -123 225q-20 36 0 48q19 16 31 0q88 -134 209 -273q12 -15 12 -33t-12 -30q-54 -62 -106 -130.5t-77 -106.5l-26 -38q-5 -7 -13 -7t-13 4z" />
<glyph unicode="&#x205f;" horiz-adv-x="447" />
<glyph unicode="&#x20ac;" horiz-adv-x="1198" d="M702 -16q-74 0 -135.5 18.5t-105.5 49t-78.5 76.5t-56 93.5t-38 107.5t-24.5 110.5t-14 111.5q0 3 -1 8t-8.5 13t-19.5 8h-94q-10 0 -17.5 7.5t-7.5 16.5v39q0 11 7 18t18 7h86q14 0 21.5 6.5t8.5 13.5l1 6q0 51 2 76l-1 4q-1 4 -2 6t-3 5.5t-5 6t-8.5 4t-11.5 1.5h-84 q-13 0 -21 7t-8 17v39q0 10 7 17.5t18 7.5h104q18 0 29 22q15 91 42 170t72 149.5t104.5 120t143 77t183.5 24.5q128 -3 235 -66q12 -7 18 -15.5t6 -13.5l1 -5q-4 -65 -5 -119t0 -75l1 -21q1 -12 -8.5 -16.5t-18.5 -3.5l-10 1q-3 1 -4.5 5t-1.5 7v4q-6 102 -87 180.5 t-206 78.5q-95 0 -156 -58q-67 -63 -100 -189t-37 -231q0 -26 27 -26h497q9 0 16 -7.5t7 -17.5v-39q0 -9 -6.5 -16.5t-14.5 -7.5h-507q-12 0 -18.5 -7.5t-7.5 -14.5l-1 -7v-74q0 -3 1 -8t8 -11.5t18 -6.5h505q9 0 16 -7.5t7 -17.5v-39q0 -9 -7 -16.5t-16 -7.5h-495 q-29 0 -29 -27q11 -108 37 -197.5t68 -162.5t107.5 -113t148.5 -37q110 7 182 88q15 15 25.5 30t17 35t9.5 33t8.5 43t8.5 47q3 19 19 19q22 -2 29 -6.5t4 -16.5q-13 -44 -21 -112q0 -35 8 -49q13 -19 -10 -39q-145 -131 -371 -131z" />
<glyph unicode="&#x2122;" horiz-adv-x="1263" d="M172 977q-10 0 -10 18q0 15 10 15q29 0 39 10q6 4 9.5 17.5t3.5 25.5l1 12q2 41 2 135l-4 168q-24 9 -77 6.5t-64 -16.5q-5 -5 -8 -27q-1 -12 -4.5 -15t-12.5 -3q-8 0 -10 3t-2 15q0 2 1 16.5t0.5 29t-3.5 30.5q-4 10 -0.5 16t9.5 7h5q82 -6 179 -6h67q96 0 176 6h2.5 t6 -1.5t6 -3.5t3.5 -6.5t-1 -11.5q-9 -35 -4 -76q0 -11 -3 -14.5t-12 -3.5q-8 0 -10.5 3t-3.5 15q0 19 -8 27q-16 14 -66 16t-74 -6q-6 -99 -6 -168q0 -94 2 -135q1 -47 13 -55q9 -6 41 -10q8 0 8 -15q0 -18 -8 -18q-3 0 -16 1.5t-35 3t-46 1.5q-23 0 -45 -1.5t-35 -3 t-16 -1.5zM813 973q-19 0 -22 10q0 8 -30 86t-56 137q-6 17 -18 43.5t-15 34.5l-13 -76q-13 -115 -14 -145q-5 -41 4 -47q8 -4 41 -8q8 0 8 -13q0 -12 -2 -15t-8 -3q-5 0 -28.5 2t-51.5 2q-30 0 -55.5 -2t-26.5 -2q-6 0 -8 3t-2 15q0 13 6 13l37 8q5 4 10.5 18.5t8.5 27.5 l2 13q15 74 20 135q2 21 8 62.5t8 64.5q5 32 -18 52q-13 10 -39 14q-10 2 -13 5.5t-3 16.5q0 15 10 15q23 -6 74 -6q8 0 31 3t26 3q12 -1 18 -17q38 -110 80 -209l49 -116h3q5 11 24.5 50.5t30.5 65.5q39 75 92 209q3 7 8 11.5t9 5.5h3q3 0 25.5 -3t30.5 -3q29 0 65 6 q11 0 11 -15q0 -19 -13 -22l-35 -10q-22 -11 -22 -54q1 -13 5 -56.5t7 -72.5q3 -41 17 -135q10 -51 20 -57q9 -6 41 -10q8 0 8 -13q0 -18 -8 -18q-6 0 -37 2t-53 2q-26 0 -59 -2t-37 -2q-11 0 -11 18q0 13 9 13q36 5 41 10q4 4 4 39q-2 77 -11 151l-10 92l-43 -94 q-49 -99 -74 -170q-4 -12 -4 -20q0 -12 -20 -27.5t-35 -15.5z" />
<glyph unicode="&#x25fc;" horiz-adv-x="1024" d="M0 1024h1024v-1024h-1024v1024z" />
<glyph unicode="&#xfb03;" horiz-adv-x="1835" d="M115 -16q-10 -2 -15 5t-4 15v8q1 4 4.5 6t7.5 2h3q39 5 65 13t32 13l7 5q36 32 47 187q10 242 10 567v121q0 28 -26 28q-82 6 -150 0q-1 1 -9 -0.5t-17 4.5t-9 19v29q0 3 0.5 6.5t9.5 9t25 2.5q91 -8 150 0q3 0 7.5 0.5t11.5 7.5t7 19v20q0 393 369 393q115 0 183 -37.5 t94 -91.5q89 174 307 174q74 0 139 -18t106.5 -45.5t70.5 -58.5t39 -58.5t3 -44.5q-11 -25 -25.5 -37.5t-27.5 -13t-24.5 2.5t-17.5 8l-7 5q-22 16 -41 40.5t-27 41.5l-8 17q-34 64 -103 92t-126 18q-26 -6 -45.5 -12t-48 -23t-47 -40.5t-32.5 -65.5t-14 -96v-170 q0 -12 6.5 -18.5t13.5 -7.5l7 -1q122 -4 262 -4t220 2l79 2q16 3 25 -1.5t10 -10.5v-6v-39q-11 -280 -13 -463q3 -140 9 -266q11 -155 47 -187q16 -19 104 -31q13 0 15 -8q-1 -1 0 -8t-4 -14.5t-15 -5.5q-65 16 -217 16q-68 0 -123 -4t-75 -8l-21 -4q-10 -2 -15 5t-4 15v8 q1 4 4.5 6t7.5 2h3q39 5 65.5 13t33.5 13l7 5q35 32 45 187q9 189 9 274q0 175 -7 322q-6 106 -26 116q-113 2 -207.5 1t-156.5 -3l-62 -2q-13 -1 -19.5 -8.5t-6.5 -15.5l-1 -7v-110q0 -383 10 -567q10 -155 45 -187q19 -19 107 -31q12 0 14 -8q-1 -1 0.5 -8t-3.5 -14.5 t-15 -5.5q-65 16 -217 16q-68 0 -123 -4t-75 -8l-21 -4q-10 -2 -15 5t-4 15v8q1 4 4.5 6t7.5 2h3q39 5 65.5 13t33.5 13l7 5q35 32 45 187q10 242 10 567q0 70 2 113q0 32 -22 34h-6q-76 4 -181.5 4.5t-172.5 -0.5l-68 -2q-13 -1 -19.5 -8.5t-6.5 -14.5l-1 -7 q-2 -35 -2 -119q0 -347 12 -567q2 -55 13.5 -111t32.5 -76q18 -19 106 -31q12 0 12 -8q-1 -1 0 -8t-3 -14.5t-13 -5.5q-65 16 -219 16q-68 0 -122 -4t-74 -8zM420 1024q88 -4 193.5 -4t166.5 2l62 2h6q20 5 20 27v12q-2 22 0 57q-4 92 -30.5 155t-68 92t-84.5 38.5t-91 3.5 q-201 -22 -201 -256v-102q0 -12 6.5 -18.5t13.5 -7.5z" />
<glyph unicode="&#xfb04;" horiz-adv-x="1837" d="M1776 14q-1 -1 0 -8t-3.5 -15t-13.5 -7q-65 16 -219 16q-68 0 -122.5 -4t-74.5 -8l-20 -4q-10 -1 -14.5 6.5t-4.5 15.5l1 8q1 3 4.5 5t6.5 3l3 1q38 5 64 12.5t33 12.5l7 5q36 30 47 185q11 269 11 528v180q-113 5 -229 5t-176 -3l-60 -2q-13 -1 -20 -8.5t-8 -15.5l-1 -7 v-110q0 -323 10 -565q11 -157 47 -187q19 -18 105 -30q12 -3 14 -9q-1 -1 0.5 -8t-3.5 -15t-15 -7q-63 16 -217 16q-68 0 -123 -4t-75 -8l-21 -4q-9 -1 -13 6.5t-4 15.5v8q0 3 3 5t7 3l3 1q39 5 65.5 12.5t33.5 12.5l7 5q36 32 47 185q10 245 10 567v110v3q0 10 -1 16 t-7.5 11t-19.5 5q-76 4 -181 4.5t-172 -0.5l-67 -2q-13 -1 -19.5 -8.5t-6.5 -14.5l-1 -7q-2 -35 -2 -119q0 -345 12 -565q2 -55 13.5 -111t32.5 -76q18 -19 106 -31q12 0 12 -8q-1 -1 0 -8t-3 -14.5t-13 -5.5q-65 16 -219 16q-68 0 -122 -4t-74 -8l-21 -4q-10 -2 -15 5 t-4 15v8q1 4 4.5 6t7.5 2h3q39 5 65 13t32 13l7 5q36 32 47 187q10 242 10 565v121q0 28 -26 28q-82 6 -150 0q-1 1 -9 -0.5t-17 4.5t-9 19v29q0 3 0.5 6.5t9.5 9t25 2.5q91 -8 150 0q3 0 7.5 0.5t11.5 7.5t7 19v22q0 393 369 393q110 0 176.5 -34.5t95.5 -86.5 q82 168 310 168q62 0 120 -10q68 8 203 45l45 10q3 1 8 0.5t12.5 -7.5t6.5 -23q-19 -300 -19 -760q0 -290 13 -526q2 -56 13 -112.5t32 -74.5q18 -18 106 -30q13 -3 13 -9zM1016 1024q274 -9 463 0q0 92 -4 244q-3 54 -42 103.5t-108.5 77t-148.5 13.5q-27 -7 -45.5 -13 t-48.5 -23.5t-48.5 -41t-32.5 -65.5t-14 -96v-172q0 -12 7.5 -18.5t14.5 -7.5zM420 1022q159 -10 424 -4q14 2 19 8.5t5 24.5q0 4 -1 24t-1 37q-3 84 -19 143.5t-41 90.5t-58 48.5t-72 17.5t-82 -3q-201 -22 -201 -256v-104q0 -12 6.5 -18.5t13.5 -7.5z" />
</font>
</defs>
</svg>
