<?xml version="1.0" standalone="no"?>
<!DOCTYPE svg PUBLIC "-//W3C//DTD SVG 1.1//EN" "http://www.w3.org/Graphics/SVG/1.1/DTD/svg11.dtd" >
<svg xmlns="http://www.w3.org/2000/svg">
<metadata></metadata>
<defs>
<font id="carrigdisplay_italic" horiz-adv-x="1140" >
<font-face units-per-em="2048" ascent="1638" descent="-410" />
<missing-glyph horiz-adv-x="512" />
<glyph unicode="&#xfb01;" horiz-adv-x="1107" d="M-145 -555q-54 0 -98 10.5t-71 28t-45 39t-24.5 44t-6 42t8.5 33.5q14 25 28.5 37.5t26 13t20.5 -2t14 -7.5l5 -5q16 -16 28.5 -41t16.5 -42l4 -17q12 -43 35 -64t49.5 -22t57.5 4q52 12 86.5 54t54.5 149l39 203l168 905l20 121q5 26 -16 28q-66 2 -129 0h-9t-13 6 t-5 17l6 29q0 1 0.5 2t3 4.5t5.5 6t9.5 4.5t14.5 1q76 -4 129 0q23 0 29 27l22 129q1 6 3.5 17t13 42t24.5 60t40.5 65.5t59 64.5t81 50t104.5 28q82 11 139 5.5t95.5 -17.5t59 -33t30 -42.5t9 -45.5t-5 -41.5t-11.5 -31.5q-14 -25 -28.5 -37.5t-26 -13.5t-21 2t-14.5 8 l-5 4q-16 16 -28.5 41t-16.5 42l-4 17q-18 64 -60.5 81.5t-117.5 4.5q-152 -25 -184 -195l-39 -204q-2 -12 2.5 -18.5t9.5 -7.5l6 -1q36 -1 92 -1.5t101 0t86.5 1t44.5 0.5q65 0 100.5 -31.5t38.5 -74.5q3 -33 -7 -95t-21 -107l-11 -46q-29 -120 -78 -447q-7 -45 -5 -77 t6.5 -51.5t13 -30.5t15.5 -15t13 -4q23 0 45.5 15.5t39.5 36.5t35 53.5t28 55t22.5 52t14.5 35.5q7 16 28 8q14 -6 11 -22q-83 -320 -279 -320q-62 0 -94 30t-45 85q-3 12 -3.5 26t-0.5 24t3 27t4 23.5t5.5 26t5.5 22.5q58 264 102 549q7 54 4 89.5t-12 54.5t-19 28t-18 10 l-8 2q-66 3 -126 2.5t-102 -2.5l-42 -2q-11 -1 -18.5 -8.5t-9.5 -14.5l-1 -7q-11 -49 -22 -119l-168 -905l-23 -129q-1 -7 -3.5 -18.5t-13 -46t-25 -65.5t-41 -68.5t-58.5 -65t-80 -46t-104 -18.5z" />
<glyph unicode="&#xfb02;" horiz-adv-x="1122" d="M-145 -555q-54 0 -98 10.5t-71 28t-45 39t-24.5 44t-6 42t8.5 33.5q14 25 28.5 37.5t26 13t20.5 -2t14 -7.5l5 -5q16 -16 28.5 -41t16.5 -42l4 -17q12 -43 35 -64t49.5 -22t57.5 4q52 12 86.5 54t54.5 149l39 203q7 57 168 905l22 121q4 26 -18 28q-63 4 -129 0h-9t-13 6 t-5 17l6 29q0 2 1.5 5.5t9.5 8.5t22 4q76 -4 129 0q25 2 29 27l22 129q1 6 3.5 17t13 42t24.5 60t40.5 65.5t59 64.5t81 50t104.5 28q157 19 246 -16l82 23l39 10q1 -1 7 0.5t11.5 -6t1.5 -23.5q-62 -249 -151 -733q-51 -276 -86 -533q-11 -76 -4 -118t18 -56t27 -14 q23 0 45.5 15.5t39.5 37.5t34.5 54.5t27.5 56t22 52.5t15 36q8 19 29 8q15 -7 12 -22q-86 -320 -281 -320q-65 0 -101 31t-38 84q-1 44 10 114.5t23 116.5q18 81 88 457q23 122 78 457q4 26 -2 62.5t-14 59.5l-7 23q-18 64 -60.5 81.5t-117.5 4.5q-152 -26 -184 -195 l-39 -204q-2 -12 2.5 -18.5t9.5 -7.5l6 -1q58 -2 123.5 -2t102.5 1l36 1q14 1 20 -3.5t6 -9.5l-1 -5l-4 -29q-2 -12 -10 -17.5t-15 -5.5h-8q-58 3 -123.5 3t-102.5 -1l-36 -2q-11 -1 -18.5 -8.5t-9.5 -14.5l-1 -7q-11 -49 -22 -119l-166 -905l-25 -129q-1 -7 -3.5 -18.5 t-13 -46t-25 -65.5t-41 -68.5t-58.5 -65t-80 -46t-104 -18.5z" />
<glyph horiz-adv-x="0" />
<glyph horiz-adv-x="682" />
<glyph unicode=" "  horiz-adv-x="512" />
<glyph unicode="&#x09;" horiz-adv-x="512" />
<glyph unicode="&#xa0;" horiz-adv-x="512" />
<glyph unicode="!" horiz-adv-x="569" d="M182 291q-14 0 -21.5 10t-4.5 23q80 498 133 995q-1 16 22 53q28 46 68.5 82.5t69.5 36.5q19 0 29.5 -13t6.5 -36q-11 -40 -44 -171.5t-97.5 -404.5t-122.5 -542q-3 -14 -14.5 -23.5t-24.5 -9.5zM125 -25q-43 0 -66.5 29.5t-15.5 73.5q7 43 42.5 72.5t78.5 29.5 q44 0 68 -29.5t16 -72.5q-7 -44 -42.5 -73.5t-80.5 -29.5z" />
<glyph unicode="&#x22;" horiz-adv-x="530" d="M29 999q-14 0 -23 10t-6 23q7 102 8.5 199.5t-0.5 144.5l-2 47l2 7q3 23 29 32q35 9 71 9t55 -5l19 -4q20 -7 17 -32l-2 -7q-32 -76 -64 -173.5t-49 -157.5l-16 -60q-3 -14 -14.5 -23.5t-24.5 -9.5zM360 999q-14 0 -22.5 10t-5.5 23q7 102 8.5 199.5t-0.5 144.5l-2 47 l2 7q3 23 29 32q35 9 71 9t55 -5l19 -4q19 -6 16 -32l-2 -7q-32 -76 -64 -173.5t-48 -157.5l-17 -60q-3 -14 -14.5 -23.5t-24.5 -9.5z" />
<glyph unicode="#" horiz-adv-x="1220" d="M121 0q-9 0 -13.5 7t-1.5 16l152 413q3 6 1.5 9.5t-3.5 4.5t-4 1h-195q-9 0 -13 7t-1 17l20 51q3 9 12.5 16t18.5 7h193q8 0 13 5t5 9l135 363q4 14 -8 14h-196q-9 0 -13.5 7.5t-1.5 17.5l21 51q3 9 12 15.5t18 6.5h195q6 0 10.5 4t6.5 8l1 3l133 356q5 9 14.5 17t18.5 8 h51q10 0 15 -8t2 -17l-133 -356q-2 -6 0 -10t5 -5h3h233q13 0 19 13l133 358q3 9 13 17t20 8h51q10 0 14.5 -8t1.5 -17l-135 -356q-1 -6 1.5 -10t5.5 -5h3h209q11 0 15 -6.5t0 -15.5l-19 -51q-3 -10 -12.5 -17.5t-20.5 -7.5h-208q-12 0 -19 -14l-133 -363q-2 -7 -0.5 -10 t4.5 -3l4 -1h211q10 0 14.5 -7t-0.5 -16l-18 -51q-3 -10 -12.5 -17t-20.5 -7h-209q-5 0 -9 -2t-6.5 -4.5t-4.5 -5.5l-2 -3l-152 -413q-3 -9 -12 -16t-18 -7h-54q-9 0 -13 7t-1 16l151 413q3 6 1.5 9.5t-3.5 4.5t-4 1h-233q-5 0 -9.5 -2t-6.5 -4.5t-5 -5.5l-2 -3l-151 -413 q-3 -9 -12.5 -16t-18.5 -7h-53zM414 549h233q13 0 19 12l135 367q3 6 -1 9t-7 3h-234q-6 0 -11 -3.5t-7 -6.5l-2 -4l-133 -363q-5 -14 8 -14z" />
<glyph unicode="$" horiz-adv-x="1026" d="M860 1460q105 -11 143.5 -66t14.5 -104q-21 -40 -47 -50t-42 0l-16 9q-22 14 -39 37.5t-24 39.5l-6 17q-18 59 -117 68h-18q-25 0 -27 -16l-104 -557q-4 -28 16 -43q127 -95 188.5 -167t73.5 -149q14 -95 -37 -196.5t-143 -176.5q-108 -83 -246 -120q-10 -4 -14 -27 l-15 -74q-1 -11 -10.5 -17.5t-19.5 -6.5h-37q-22 0 -19 24l13 60q2 7 -0.5 11t-5.5 4l-3 1l-40 -2h-11q-33 -2 -75 10.5t-63.5 23t-29.5 15.5q-45 26 -70.5 60.5t-29 66t4 58.5t24.5 45q22 20 41 27.5t30.5 3.5t19.5 -10.5t12 -13.5l3 -7q14 -21 19.5 -50.5t4.5 -49.5 l-1 -19q-3 -42 24.5 -68t89.5 -33q42 0 47 2q2 0 7 2t11.5 9.5t8.5 19.5l107 565q4 24 0.5 39.5t-9.5 22.5l-6 6q-107 88 -168 186q-50 83 -50.5 176t41 173.5t123.5 143.5t189 89q35 7 39 29l9 53q7 25 28 25h37q10 0 17 -7.5t4 -17.5l-9 -47q-2 -9 0.5 -13.5t5.5 -5.5h3 h30q26 0 71 -3t52 -5zM592 1376q2 10 -2 16t-9 5.5t-8 -0.5q-75 -22 -129 -76q-44 -46 -59 -111t-4.5 -126.5t39.5 -112.5q16 -31 51 -66q2 -4 9 -6t17 8.5t15 40.5zM631 504q-15 22 -80 78h-1q-3 0 -7 1.5t-9.5 -7t-9.5 -27.5l-88 -477q-4 -15 -1.5 -21.5t3.5 -7t4 -0.5 q37 12 70 29q66 31 115.5 91.5t62.5 127.5q20 116 -59 213z" />
<glyph unicode="%" horiz-adv-x="1724" d="M283 -61l-37 16q-14 17 0 35l1163 1491q5 8 16 10t17 -6l33 -17q13 -15 0 -34l-1162 -1489q-11 -17 -30 -6zM346 578q-64 0 -112 24.5t-75 66t-42.5 97.5t-13.5 118.5t12 129.5q22 116 72 211.5t131.5 157t177.5 61.5q66 0 115 -27.5t75.5 -72t39.5 -103.5t12 -119 t-13 -121q-14 -78 -46.5 -152t-80 -135.5t-113.5 -98.5t-139 -37zM358 643q170 0 238 379q10 66 14.5 113.5t2.5 96t-14 78.5t-38 49t-67 19q-46 0 -82.5 -21.5t-60.5 -53t-44 -83t-31.5 -95.5t-23.5 -107q-71 -375 106 -375zM1231 -14q-64 0 -112 24.5t-75.5 66t-43 97.5 t-13.5 118.5t12 129.5q22 116 72 211.5t131.5 157t177.5 61.5q66 0 115 -27.5t76 -72t40 -103t12 -118.5t-13 -121q-14 -78 -46.5 -152t-80 -135.5t-113.5 -99t-139 -37.5zM1243 51q170 0 238 379q13 83 16.5 140.5t-4 110t-36.5 79t-79 26.5q-46 0 -82.5 -21.5t-60.5 -53 t-44 -83t-31 -95.5t-23 -107q-71 -375 106 -375z" />
<glyph unicode="&#x26;" horiz-adv-x="1558" d="M1440 1116q63 0 91 -45t28 -98q0 -102 -55 -182.5t-141 -122t-185 -41.5q-34 0 -27 -35q10 -63 10 -111q0 -146 -85.5 -266t-230.5 -187t-317 -67q-202 0 -324 107.5t-122 271.5q0 302 360 446q-59 63 -80.5 121.5t-21.5 126.5q0 128 63.5 230.5t160 155.5t202.5 53 q149 0 233 -83.5t84 -205.5q0 -70 -32.5 -117t-87.5 -47q-40 0 -73.5 31t-33.5 73q0 22 14.5 33.5t34.5 11.5q53 0 53 -55q0 -9 7 -18t18 -9q21 0 39.5 27t17.5 60q0 40 -13.5 79.5t-43 77t-85.5 61t-132 23.5q-117 0 -202 -108.5t-85 -272.5q2 -139 90 -215q19 -19 19 -39 t-21 -30q-69 -25 -125.5 -59t-103.5 -82t-73.5 -113t-26.5 -142q0 -144 103.5 -224.5t254.5 -80.5q209 0 340 106.5t137 278.5q-1 57 -20.5 101t-49 67.5t-59.5 35t-57 11.5q-111 0 -197 -74.5t-86 -150.5q0 -24 11.5 -43t33.5 -19q12 0 19 10t10.5 22t14.5 22t30 10 q24 0 38.5 -13t14.5 -34q0 -32 -30 -62t-74 -30q-61 0 -95 38t-34 95q0 75 34.5 132.5t86 90.5t120.5 53.5t129 27.5t121 7h146q137 0 234 68.5t97 161.5q0 24 -6.5 42.5t-16.5 27t-18 12.5t-14 4q-9 0 -15.5 -7.5t-6.5 -17.5q0 -53 -54 -53q-49 0 -49 47t34.5 73.5 t74.5 26.5z" />
<glyph unicode="'" horiz-adv-x="198" d="M29 999q-14 0 -23 10t-6 23q7 102 8.5 199.5t-0.5 144.5l-2 47l2 7q3 23 29 32q35 9 71 9t55 -5l19 -4q20 -7 17 -32l-2 -7q-32 -76 -64 -173.5t-49 -157.5l-16 -60q-3 -14 -14.5 -23.5t-24.5 -9.5z" />
<glyph unicode="(" horiz-adv-x="655" d="M377 -479q-88 61 -151.5 149t-95 179.5t-49.5 187.5t-18.5 180t3 151t10.5 106l6 38q25 136 75.5 265t109 224.5t127 181.5t127.5 142t112.5 100t79.5 61.5t32 20.5l8 1q7 -3 3 -25q-5 -17 -21 -35q-115 -109 -209.5 -246t-147.5 -254t-89 -218t-48 -160l-12 -58 q-30 -176 -25.5 -321.5t34 -259.5t62.5 -192.5t60 -119.5l27 -41q6 -7 8 -15.5t1 -12.5l-1 -5q-5 -29 -15 -26z" />
<glyph unicode=")" horiz-adv-x="657" d="M-113 -479l-6 -2q-6 3 -2 26q3 17 19 33q8 7 22.5 21t58 62t84.5 101t95 137t98 172.5t84.5 205t62.5 235.5q2 11 5.5 31.5t9.5 85t7.5 129.5t-6 157t-25.5 177t-56 180.5t-92 175.5q-5 8 -6.5 17t-0.5 13l1 5q5 27 13 26l3 -2q4 -1 25 -20.5t58 -60.5t75 -101 t75.5 -141.5t59.5 -182.5t26.5 -224t-22.5 -265q-3 -14 -8.5 -39.5t-29 -103.5t-54 -153.5t-85.5 -177.5t-120 -189.5t-162 -177t-207 -150.5z" />
<glyph unicode="*" horiz-adv-x="600" d="M291 958q-19 0 -23.5 7.5t-1.5 27.5l31 162q1 8 -4.5 9.5t-11.5 -3.5l-154 -80q-26 -15 -39 11q-9 17 -4.5 26.5t25.5 20.5l155 80q5 5 5.5 9.5t-1.5 6.5l-2 2l-131 80q-22 15 -2 47q21 30 49 12l123 -82q7 -4 13 1.5t8 11.5l28 155q3 20 9.5 27.5t25.5 7.5q22 0 27 -8 t2 -27l-29 -155q-4 -13 8 -13l156 82q27 15 43 -12q14 -25 -18 -41l-154 -80q-15 -13 -4 -24l123 -80q15 -10 15 -19.5t-13 -27.5q-19 -28 -47 -11l-119 80q-8 5 -12.5 2.5t-6.5 -8.5l-2 -6l-28 -156q-3 -21 -10 -28t-29 -7z" />
<glyph unicode="+" horiz-adv-x="1132" d="M535 127q-9 0 -17 8t-8 17v354q0 13 -8.5 22t-22.5 9h-354q-9 0 -16 7t-7 17v60q0 10 7 17t16 7h356q29 0 29 29v356q0 10 8 17.5t17 7.5h61q22 0 22 -25v-356q0 -29 33 -29h355q9 0 16.5 -7t7.5 -17v-60q0 -10 -7.5 -17t-16.5 -7h-355q-33 0 -33 -31v-354 q0 -10 -6 -17.5t-16 -7.5h-61z" />
<glyph unicode="," horiz-adv-x="417" d="M-16 -209q-11 26 10 31q17 5 37 14t46 25t45 41.5t25 54.5q17 95 -61 111q-25 5 -37.5 25.5t-3.5 47.5q20 60 98 60q17 0 33.5 -6t35.5 -20t30.5 -45.5t11.5 -76.5q0 -67 -47.5 -139.5t-130.5 -108.5q-23 -13 -52.5 -19t-39.5 5z" />
<glyph unicode="-" horiz-adv-x="624" d="M125 553q-9 0 -16 6.5t-7 15.5v58q0 9 7 15.5t16 6.5h375q9 0 15.5 -6.5t6.5 -15.5v-58q0 -9 -6.5 -15.5t-15.5 -6.5h-375z" />
<glyph unicode="." horiz-adv-x="415" d="M127 -16q-41 0 -65.5 30t-18.5 72q9 43 44.5 72.5t76.5 29.5q44 0 68.5 -29.5t15.5 -72.5q-6 -41 -42 -71.5t-79 -30.5z" />
<glyph unicode="/" horiz-adv-x="718" d="M-43 -72q-23 0 -16 27l725 1528q16 24 39 24h57q10 0 15 -7.5t1 -16.5l-725 -1530q-11 -25 -39 -25h-57z" />
<glyph unicode="0" horiz-adv-x="1204" d="M473 -16q-107 0 -186.5 40t-125.5 108.5t-68.5 162.5t-21 198t22.5 220q22 121 62 229.5t98 202t129 161.5t161 107t189 39q92 0 164 -31.5t117 -86.5t73.5 -127t37.5 -157t5 -170.5t-20 -174.5q-19 -106 -57 -208.5t-96 -195.5t-129 -163.5t-163 -112t-192 -41.5z M489 43q335 0 455 690q17 95 25 174.5t7.5 157t-15.5 136t-43 104t-76.5 69t-114.5 23.5q-346 0 -459 -662q-119 -692 221 -692z" />
<glyph unicode="1" horiz-adv-x="718" d="M29 -16q-7 -1 -8.5 5.5t0.5 13.5l2 7l12 10q51 4 86 12.5t44 14.5l9 6q30 17 55.5 71t36.5 99l10 45q56 237 95 449q40 220 55 446q0 72 -15 95q-17 26 -55 20q-2 0 -61.5 -14t-106.5 -19q-8 -2 -15.5 4t-8.5 17q-6 25 24 32q1 0 19 4l36 8t49.5 11.5t62 15.5t70 20 t77.5 25t81 30.5t83 35.5q10 4 18 4q12 0 12.5 -13t-6.5 -20q-60 -75 -104 -239q-36 -130 -97 -463q-48 -262 -77 -449q-3 -20 -6.5 -50t1.5 -89t29 -76q29 -23 129 -33q10 0 10 -10q0 -3 -1 -7.5t-6 -12t-13 -6.5q-168 16 -256 16q-39 0 -106.5 -4t-115.5 -8z" />
<glyph unicode="2" horiz-adv-x="1069" d="M-18 -16q-36 -2 -19 27q8 14 21 24q148 117 269.5 223t202.5 185t144 154t97.5 123.5t60.5 99t35 76.5t18 60q24 87 27 157t-12 112t-38.5 72.5t-52 44t-53 20.5t-40.5 8h-17q-73 0 -144 -27.5t-106 -54.5l-35 -28q-7 -7 -19 -10t-22 3q-19 16 4 39q41 39 87 69.5 t83.5 46t68.5 25t48 11.5l18 2q98 12 168.5 2t115.5 -39t71 -69t35.5 -87.5t9 -96t-8.5 -94t-17 -80.5t-16 -56l-8 -21q-15 -36 -38 -75t-45 -73t-62.5 -79.5t-67.5 -76.5t-83 -85t-86 -82.5t-100 -91.5t-102 -91.5t-114 -100.5q-9 -8 -12.5 -15t1 -13.5t19.5 -8.5 q60 -3 157 -9.5t131.5 -8t97.5 -3t115.5 1.5t123.5 10q20 5 37 2.5t8 -26.5q-13 -33 -16 -62q-1 -11 -3.5 -18t-10 -12.5t-21.5 -3.5q-195 16 -421 16t-355 -8z" />
<glyph unicode="3" horiz-adv-x="962" d="M260 -16q-56 0 -107.5 10t-88 25t-62.5 33t-36.5 35.5t-4.5 29.5t25 12q12 0 34.5 -12t46.5 -27t68.5 -27t97.5 -12q171 0 295 117t134 303q4 81 -17.5 141.5t-61.5 94t-88 49.5t-102 16t-61 4t-4 12q5 14 41.5 32t85.5 42.5t100.5 58.5t94.5 92.5t59 131.5 q24 111 -25.5 171t-151.5 60q-55 0 -105 -19t-78.5 -41.5t-54.5 -41.5t-38 -19t-13 13.5t5 23.5q21 52 121 106t227 54q138 0 208.5 -69t51.5 -173q-18 -92 -102 -189.5t-179 -150.5q-23 -14 -12 -18q120 0 198.5 -100t78.5 -244q0 -107 -47 -204.5t-126 -167t-185.5 -111 t-221.5 -41.5z" />
<glyph unicode="4" horiz-adv-x="1280" d="M647 -37q-16 -6 -24 2q-11 11 0 25q8 14 12 30q12 48 78 369q3 17 -13 17q-395 14 -688 -7l-10 4q-15 14 39 66q158 146 436.5 449.5t429.5 492.5q11 15 49.5 25t71.5 13l33 3q9 0 11.5 -5.5t0.5 -10.5l-2 -6q-36 -97 -68.5 -217.5t-60.5 -266t-39.5 -212.5t-32.5 -197 q-5 -27 17 -27q240 0 299 4q2 0 5 0.5t11 0t11 -3t5 -8t-6 -16.5q-25 -26 -45 -81l-1 -1q0 -1 -1 -2.5l-2 -3t-3.5 -3.5t-5.5 -3t-7.5 -1.5t-9.5 -0.5q-76 6 -275 10q-16 0 -18 -16q-44 -275 -53 -383q-3 -20 -25 -20q-74 0 -119 -19zM633 512h78q26 -3 30 20q1 6 26 132 t35.5 184t26 159.5t21.5 172.5q0 25 -36 -7q-5 -4 -11 -10q-128 -127 -565 -628q-11 -17 4 -19q101 -4 391 -4z" />
<glyph unicode="5" horiz-adv-x="1126" d="M305 -16q-108 0 -207 26q-24 10 -41 24.5t-16 28.5q2 27 45 78q7 9 16.5 17t27.5 7t32 -24q12 -22 21.5 -36t29 -33t47.5 -29t64 -10q52 2 115 26.5t126 72t113.5 109t77.5 145.5t18 173q0 4 -1 11t-6 28t-13 41t-24 45.5t-36 46.5t-52.5 39.5t-71 28t-92.5 9t-116 -14.5 q-49 -12 -106 -43q-25 -10 -35 6l-4 8q-4 8 6 27l10 22q39 106 74.5 280t32.5 257q0 102 76 102q28 0 133.5 -3t167.5 -3q56 0 162 3t157 3q40 0 25 -37q-19 -48 -32.5 -61t-35.5 -13t-110.5 17.5t-182.5 17.5h-194q-11 0 -17.5 -5.5t-8.5 -12t-5 -19.5q-35 -121 -72 -432 q-1 -21 3.5 -28.5t13.5 -4.5q69 27 139 27q51 0 96 -5.5t65 -11.5l19 -5q69 -18 116 -55.5t66.5 -82.5t27 -95.5t1.5 -97.5t-14 -85t-16 -61l-9 -23q-42 -97 -112 -172t-139.5 -115.5t-145 -66.5t-125 -33.5t-84.5 -7.5z" />
<glyph unicode="6" horiz-adv-x="1116" d="M434 -16q-196 0 -288.5 141t-51.5 371q2 12 6.5 34.5t26.5 90.5t52.5 135t88.5 159.5t129.5 174t181 168t238.5 151.5q4 2 10.5 5t24 9t33.5 9t33.5 1.5t27.5 -10.5q20 -15 -20 -30q-11 -3 -29.5 -10.5t-75 -38t-109.5 -70.5t-123 -113t-126.5 -160t-108.5 -216.5 t-80 -278.5q-29 -154 -1 -257t90.5 -154.5t148.5 -51.5q75 0 141.5 33.5t114.5 89.5q87 99 95 232t-72 251q-62 75 -164.5 88t-190.5 -39q-13 -3 -19 4.5t5 22.5q3 3 9 7.5t26.5 18.5t41 24t53.5 24.5t64.5 20.5t72.5 11t79 -4q4 0 10.5 -1t27.5 -6t39 -13t45 -23t45 -35.5 t39.5 -51t28.5 -70t11.5 -91t-10.5 -114.5q-1 -9 -4.5 -25t-20 -61.5t-40 -86.5t-69 -91.5t-102 -87t-144 -61.5t-190.5 -25z" />
<glyph unicode="7" horiz-adv-x="1089" d="M80 -39q-13 0 -17 8q-3 6 1 13.5t26 35.5q143 191 494 709q185 274 391 586q24 40 21 55.5t-35 15.5h-236q-107 0 -235.5 -17t-163.5 -17q-22 0 -30.5 11t-6.5 23l2 11q10 32 23 44.5t32 12.5q141 -6 414 -6q244 0 436 4q32 0 35 -12q5 -16 -4 -25q-173 -194 -510 -686 q-300 -440 -443 -684q-16 -33 -47 -43q-103 -39 -147 -39z" />
<glyph unicode="8" horiz-adv-x="1089" d="M315 -16q-113 9 -187.5 65t-97.5 135.5t2.5 176t100.5 184.5q81 93 248 198q7 4 9 8t-2 10.5t-8 11t-14 14.5l-6 6q-41 45 -63 78.5t-33 80.5q-23 96 23 198t133.5 177.5t189.5 106.5q79 24 159 15.5t140 -47t86.5 -108t-0.5 -168.5q-27 -95 -90.5 -158.5t-193.5 -150.5 q-9 -8 -8 -15t8 -11q276 -143 250 -365q-11 -96 -75.5 -183t-156.5 -145t-202 -89.5t-212 -24.5zM590 838q27 -14 36.5 -12.5t39.5 20.5q68 52 110 112q41 58 62.5 126.5t20.5 132t-39.5 110.5t-112.5 59q-56 9 -106 -7.5t-84 -50t-56.5 -71t-32.5 -75.5q-8 -30 -9.5 -65 t5.5 -75t29.5 -79.5t58.5 -69.5q41 -33 78 -55zM485 61q99 11 173.5 59.5t110 115.5t34 145t-46.5 145q-17 26 -38.5 48.5t-54 44.5t-47 31.5t-59 33.5t-49.5 27q-41 24 -52 24q-15 0 -42 -20q-216 -156 -228 -373q-7 -145 75 -220.5t224 -60.5z" />
<glyph unicode="9" horiz-adv-x="1118" d="M127 -2q-10 15 20 29q14 6 38 18.5t94 57t134.5 96.5t146 138.5t143.5 181.5t111.5 226.5t64.5 272.5q1 8 2 21.5t1 53t-5 75.5t-20.5 79.5t-39.5 75t-67.5 53t-100.5 21.5q-164 0 -293 -146q-41 -50 -60 -123t-17 -136t18 -109q17 -73 108.5 -135t198.5 -41 q16 5 21.5 -0.5t-9.5 -26.5q-2 -3 -7 -8t-24 -19t-44 -20t-68.5 -11.5t-97.5 5.5q-12 2 -32.5 7t-69.5 31t-83.5 63.5t-55 111.5t-3.5 168q2 9 6 25t22.5 62t43.5 88t71.5 93.5t103.5 88t142.5 62t184.5 25.5q20 0 39.5 -1.5t51 -8t59 -17t59 -30.5t56 -47.5t45.5 -69 t31 -92.5t9.5 -121.5t-15.5 -153.5q-2 -11 -6 -31t-25.5 -82.5t-52.5 -125.5t-92.5 -152t-139.5 -170.5t-200 -173t-268 -166.5q-4 -2 -11 -5t-26 -10t-35 -10t-32.5 -0.5t-24.5 13.5z" />
<glyph unicode=":" horiz-adv-x="534" d="M299 745q-43 0 -68 30t-16 73q7 41 43.5 71.5t77.5 30.5q42 0 67 -30t17 -72q-9 -43 -44 -73t-77 -30zM158 -14q-42 0 -67 30t-17 72q7 42 43 72t78 30q43 0 67.5 -29.5t16.5 -72.5q-8 -42 -43.5 -72t-77.5 -30z" />
<glyph unicode=";" horiz-adv-x="468" d="M295 745q-42 0 -66 31t-18 72q9 42 44.5 72t78.5 30q40 0 65.5 -30.5t16.5 -71.5q-6 -40 -43 -71.5t-78 -31.5zM25 -184q-17 22 10 30q5 1 14 4t32.5 14.5t42.5 25.5t38 38.5t26 53.5q1 4 2.5 10.5t1 24t-5 31.5t-19.5 27t-40 17q-25 5 -37.5 26t-3.5 48q10 32 49 51 q14 6 39 8q1 -2 12.5 0.5t29.5 -5t35.5 -19.5t30 -44.5t13.5 -78.5q0 -7 -1.5 -18.5t-12 -45t-27.5 -63t-53 -64.5t-84 -57q-2 -1 -4.5 -2.5t-11.5 -5t-17 -6.5t-18 -5.5t-17.5 -3.5t-14.5 1t-9 8z" />
<glyph unicode="&#x3c;" horiz-adv-x="1159" d="M1032 119l-868 420l-35 16q-10 4 -18.5 16t-8.5 21v4q0 23 25 37l893 434q12 7 18 -2.5t6 -22.5l3 -59q0 -12 -25 -27l-696 -338q-5 -3 -12 -7.5t-8.5 -17.5t20.5 -24l706 -340q21 -6 23 -14q1 -2 0 -6l2 -64q0 -10 -8 -19.5t-17 -6.5z" />
<glyph unicode="=" horiz-adv-x="1056" d="M123 694q-21 0 -21 23v55q0 23 21 23h809q9 0 15.5 -6.5t6.5 -16.5v-55q0 -10 -6.5 -16.5t-15.5 -6.5h-809zM123 373q-9 0 -15 6t-6 14v58q0 10 6 17t15 7h809q9 0 15.5 -7t6.5 -17v-58q0 -8 -6.5 -14t-15.5 -6h-809z" />
<glyph unicode="&#x3e;" horiz-adv-x="1153" d="M127 127q-12 -7 -18.5 2.5t-6.5 22.5v61q0 13 25 25l700 327q5 3 12 7.5t8.5 17.5t-20.5 24l-700 351q-2 1 -6.5 3t-6.5 2.5t-5 2.5t-4 3.5t-2 4.5t-1 6v64q0 10 8.5 19t16.5 5l864 -430l35 -18q10 -4 17.5 -16t7.5 -21v-4q0 -23 -25 -37z" />
<glyph unicode="?" horiz-adv-x="948" d="M311 330q-15 0 -28 10q-27 20 -46.5 51t-25.5 53l-6 21q-4 33 8.5 64t27.5 46l15 15q125 112 214.5 203.5t116.5 126.5l27 36q43 57 64.5 115.5t21.5 102t-6.5 78.5t-15.5 53l-10 18q-27 45 -72.5 63t-90 11t-85.5 -21t-66 -28l-26 -15q-19 -10 -45 -41q-39 -57 -64 -145 q-4 -25 -14 -29q-2 0 -5.5 -0.5t-11.5 -0.5t-14 2.5t-10 9.5t-2 18q7 39 12.5 81.5t7.5 65.5l2 23q1 28 28.5 53t67 41.5t79 28.5t67.5 17l27 5q99 17 169 7t115 -38t70.5 -58t34.5 -53l10 -24q17 -58 9 -116.5t-35 -114t-63 -106t-75.5 -92.5t-73 -73t-55.5 -48l-22 -17 q-86 -71 -138.5 -131t-62.5 -84l-10 -25q-6 -26 -3 -49t9 -38l6 -15q11 -18 8 -31q-6 -26 -35 -26zM236 -27q-44 0 -71.5 34t-19.5 77q9 47 49.5 82t84.5 35q47 0 74 -34.5t18 -82.5q-8 -43 -48 -77t-87 -34z" />
<glyph unicode="@" horiz-adv-x="1486" d="M1065 918q11 0 20 -9.5t5 -27.5q-31 -150 -68 -375t-41 -297q0 -59 47 -59q48 0 97 25.5t93.5 75t72.5 136t28 195.5q0 120 -31.5 218.5t-83 164t-119.5 110.5t-139 64.5t-143 19.5q-172 0 -314 -90.5t-221.5 -242.5t-79.5 -330q0 -187 69 -333t201.5 -230.5t307.5 -84.5 q86 3 159.5 23t123.5 51t82 60t55 61q12 16 31 8l10 -6q17 -8 4 -31q-86 -119 -208.5 -172t-291.5 -53q-101 0 -198 27t-182.5 83t-150 134t-102 187.5t-37.5 236.5q0 113 31.5 222t95 205t151.5 169.5t209.5 116t260.5 42.5q154 0 273.5 -50.5t193.5 -140t111.5 -205 t37.5 -251.5q0 -105 -39 -203t-102 -167t-146 -110.5t-169 -41.5q-37 0 -74 26.5t-51 69.5q-99 -96 -211 -96q-72 0 -128 29.5t-88.5 80t-48.5 110.5t-16 126q0 121 27.5 218.5t71.5 158.5t101.5 102t114 57.5t113.5 16.5q73 0 111.5 -23.5t60.5 -70.5q2 4 9 19t10 24 q9 27 35 27h59zM903 547q10 94 6.5 170t-32.5 124t-80 48q-125 0 -210 -147.5t-85 -379.5q0 -108 44.5 -180.5t108.5 -72.5q113 0 164 93.5t84 344.5z" />
<glyph unicode="A" horiz-adv-x="1556" d="M-86 -16q-11 -2 -14.5 4.5t-1.5 13.5l2 8q1 3 3 5t4 3t3.5 1.5t2.5 0.5h1q47 7 61 11q17 4 39 15.5t58 36.5t79.5 76t84.5 120q118 191 292.5 515.5t302.5 583.5q6 18 42.5 40t70.5 35l33 13q12 4 18 4l6 -10q-7 -104 -4 -123q18 -155 99.5 -580.5t120.5 -576.5 q29 -114 67 -135q39 -17 94 -25q15 0 15 -10q0 -31 -27 -26q-104 16 -180 16q-35 0 -90 -4t-93 -8l-38 -4q-10 -2 -14 4.5t-3 13.5l2 8q1 3 3 5t4 3t4 1.5t3 0.5h1l53 9q50 10 41 71q-16 142 -72 461q-1 17 -9 23t-28 6q-202 13 -407 0q-13 0 -25 -8t-18 -16l-6 -9 q-28 -54 -108 -200t-110 -212q-13 -28 -15.5 -49.5t-0.5 -32.5t12 -20t12 -9.5t11 -4.5q19 -6 45 -9q10 0 10 -10q0 -3 -0.5 -8t-6 -12.5t-15.5 -5.5q-107 16 -203 16q-35 0 -87.5 -4t-87.5 -8zM584 666q72 -6 176 -6t176 6q10 0 14.5 2t9.5 12.5t-2 34.5q-33 184 -81 495 q-1 9 -4.5 12t-8.5 0t-10 -12q-42 -70 -138 -248.5t-134 -246.5q-24 -39 2 -49z" />
<glyph unicode="B" d="M-29 -16q-10 -2 -12.5 4.5t-0.5 13.5l3 8q2 4 5.5 6.5t5.5 3.5h3q44 5 74 12.5t39 11.5l8 5q25 12 48.5 66.5t34.5 103.5l11 49q64 317 166 897q3 20 7 51.5t1.5 91.5t-22.5 76q-17 19 -111 29q-10 0 -10 12q0 3 0.5 8.5t6.5 13t16 5.5q61 -18 219 -18q51 0 139 10 q14 2 37 3.5t90.5 5t110.5 -0.5q5 0 13.5 -1t33.5 -7t44.5 -18t46 -34t38 -55.5t21 -82.5t-6.5 -115q-2 -10 -6.5 -26t-24 -62t-46 -86t-77 -85.5t-112.5 -72.5q-9 -5 -11.5 -10.5t3.5 -8.5q31 -5 62 -16t68.5 -37t63.5 -62.5t38.5 -96.5t0.5 -134q-1 -8 -3.5 -22t-14.5 -55 t-27.5 -79.5t-45 -87t-65 -87t-89 -70.5t-115.5 -45q-16 -3 -43 -5.5t-110.5 -6.5t-149.5 6q-74 10 -127 10q-37 0 -94 -4t-95 -8zM518 31q7 0 18.5 1.5t45 12.5t64 30.5t67 61.5t61.5 99q3 7 8.5 20t17.5 51.5t19.5 75.5t8 86t-10 90t-40.5 80t-79 63q-42 18 -93.5 27.5 t-82.5 9.5h-30q-8 0 -13 6.5t-2 16.5q6 22 23 22q34 0 86 9q1 0 21 4t37.5 10t45 18t51.5 32t48 48t42 71t27 95q1 6 3 16t6.5 40t6.5 57.5t0 62.5t-9 62t-23 49.5t-41 30.5q-12 4 -33 8.5t-79.5 5.5t-108.5 -14q-16 -6 -28 -29t-17 -51q-104 -413 -216 -1145 q-1 -13 1 -27.5t13.5 -34t31.5 -35t60 -26t93 -10.5z" />
<glyph unicode="C" horiz-adv-x="1370" d="M616 -39q-272 0 -409.5 117t-143.5 385q-5 120 23.5 243.5t83.5 234t137.5 208t180.5 168.5t217 112t243 41q156 0 389 -77q10 -4 12 -9.5t-1 -17.5q-16 -64 -27.5 -118t-14.5 -76l-3 -21q-2 -11 -13.5 -17t-21.5 -6h-11q-4 2 -5 7t0 9l1 5q8 50 10.5 84t0.5 43l-2 8 q-12 40 -71.5 71t-133.5 45.5t-146 14.5q-117 0 -222.5 -49.5t-184 -132.5t-137 -189.5t-89.5 -223.5t-34 -232q-4 -163 43.5 -290.5t146.5 -202.5t236 -75q146 0 253.5 33.5t141.5 81.5q18 22 49 135q7 19 23 19q20 0 29 -5t5 -18q-34 -83 -57 -192q-4 -22 -18 -37t-26 -19 l-11 -4q-236 -53 -443 -53z" />
<glyph unicode="D" horiz-adv-x="1470" d="M-49 -16q-8 -2 -10.5 4t-0.5 13l1 7q2 12 14 12q117 19 137 52q16 23 35 73t30 89l11 38q85 341 106 452t58 441q3 21 6.5 53t1.5 91.5t-18 72.5q-17 19 -111 31q-10 0 -10 12q0 3 1 7.5t6 11.5t13 6q117 -16 209 -16q15 0 225 9t314 9q103 0 186.5 -38t137 -105 t85.5 -159t31 -199.5t-27 -227.5q-74 -318 -260.5 -503.5t-484.5 -227.5q-92 -9 -162.5 -7t-171 8.5t-127.5 6.5q-40 0 -96.5 -4t-92.5 -8zM698 70q81 15 153.5 56t123 95t92.5 116t67.5 121t43.5 107t25 77l7 30q30 148 26 259t-32 187.5t-60.5 123.5t-58.5 68l-26 21 q-34 23 -76 37t-92.5 16.5t-86 3t-91 -7.5t-71 -10.5t-60.5 -11.5t-52 -39q-88 -359 -148 -704.5t-73 -485.5q0 -33 29 -43q64 -25 154 -29t148 5z" />
<glyph unicode="E" horiz-adv-x="1087" d="M-25 -16q-11 -2 -14 4.5t-1 13.5l3 8q1 3 3 5t4 3t3.5 1.5t2.5 0.5h1q43 5 72.5 13t38.5 13l8 5q24 16 47 71.5t34 103.5l11 48q39 172 89.5 445t74.5 444q3 21 7 53.5t2 93t-19 74.5q-17 19 -109 31q-12 2 -12 12q0 6 1.5 11.5t7 10.5t14.5 3q133 -18 225 -18 q315 0 532 18q4 0 8.5 -0.5t13 -6t-0.5 -20.5q-33 -65 -47 -172l-4 -47q-1 -11 -7.5 -16t-13.5 -4h-6q-10 1 -14.5 5t-3.5 7v4q5 48 5 81t-3 41l-2 9q-20 49 -168 49q-102 0 -178 -16q-35 -9 -43 -39q-50 -200 -101 -473q-3 -21 4.5 -33t20.5 -12q179 -9 299 2q40 4 53 43 q15 38 25 86q2 14 20 14q3 0 8 -0.5t12 -5t3 -12.5q-18 -55 -43 -170l-19 -162q-1 -10 -6.5 -15t-10.5 -5h-5q-10 0 -15.5 4t-5.5 8v4q8 54 4 88q-2 19 -8.5 27.5t-26.5 11.5q-36 5 -154 5.5t-138 -1.5q-38 -3 -47 -39q-65 -362 -93 -569q-3 -35 27 -45q31 -9 83 -14.5 t88 -7.5l36 -1q154 0 235 25q15 4 27 20q22 20 59 129q5 17 17 17q40 0 30 -25q-22 -47 -49 -147l-8 -41q0 -11 -5 -20.5t-10 -12.5l-5 -4q-11 -8 -33.5 -11t-39.5 -2l-17 1q-109 7 -244.5 11t-215.5 5h-81q-44 0 -102 -4t-94 -8z" />
<glyph unicode="F" horiz-adv-x="1001" d="M-45 -16q-11 -2 -14 4t-1 13l3 7q2 5 6 8t7 4h3q42 5 71.5 13t38.5 13l9 5q24 16 46.5 71.5t33.5 102.5l10 47q35 143 87.5 434t76.5 457q4 21 8 52.5t2.5 92t-20.5 76.5q-17 19 -107 31q-14 0 -14 12q0 3 1 8t7 12t16 5q113 -18 226 -18q255 0 530 18q4 0 8 -0.5t11 -6 t-3 -20.5q-39 -91 -51 -219q-3 -20 -31 -20q-6 0 -9 4t-3 8v4q4 53 3.5 82.5t-2.5 39.5l-3 9q-8 22 -44.5 35t-64 15.5t-53.5 2.5q-88 0 -176 -18q-38 -9 -47 -39q-44 -190 -106 -508q-6 -41 24 -45q29 -3 139.5 -2t139.5 4q39 3 53 43l27 86q1 17 24 17h8t11 -5.5t2 -15.5 q-20 -51 -45 -166q-8 -51 -12.5 -92.5t-4.5 -57.5v-16q-2 -22 -24 -22q-10 0 -15.5 4.5t-5.5 8.5v5q4 74 2 88q-3 31 -35 39q-27 6 -137.5 6.5t-134.5 -2.5q-39 -3 -45 -39q-43 -230 -70 -407q-20 -170 15 -201q16 -19 108 -31q12 0 12 -12q0 -3 -0.5 -7.5t-6 -11.5 t-15.5 -5q-152 16 -240 16q-41 0 -98 -4t-94 -8z" />
<glyph unicode="G" horiz-adv-x="1476" d="M578 -37q-233 9 -355.5 103.5t-152.5 318.5q-27 205 48.5 416.5t226.5 373t339 234.5q329 127 676 -2q28 -8 16 -43q-16 -45 -26.5 -103.5t-13.5 -94.5l-3 -36q-2 -10 -10 -15t-15 -5h-8q-10 1 -14.5 5.5t-3.5 8.5v4q14 89 6 119q-11 60 -64 100.5t-127.5 55t-160 10 t-164.5 -28.5q-223 -66 -352 -245t-166 -432q-16 -101 -7.5 -203t35 -188t86 -156.5t144.5 -108.5q105 -40 258 -29.5t191 54.5q25 25 39 87.5t28 182.5q0 4 0.5 11t2 27t2 38.5t0 41.5t-2 40.5t-6 30.5t-10.5 16q-37 19 -162 33q-14 0 -14 14q0 1 0.5 3.5t2 8.5t4 10.5t8 8 t11.5 2.5q191 -17 289 -17q45 0 102.5 4t92.5 8l34 5q8 2 11 -6.5t1 -17.5l-1 -9q-1 -6 -5 -9.5t-8 -4.5h-4q-43 -5 -73 -13.5t-39 -14.5l-9 -5q-44 -29 -71.5 -121.5t-34.5 -179t-2 -144.5q3 -34 -4.5 -50.5t-34.5 -26.5q-225 -77 -530 -66z" />
<glyph unicode="H" horiz-adv-x="1568" d="M-27 -16q-10 -2 -13 4t-1 13l2 7q1 5 5 8t8 4h3q43 5 72.5 13t38.5 13l8 5q25 16 48 71t34 102l10 46q31 135 99.5 467t81.5 422q3 22 5.5 55t-4 94.5t-30.5 75.5q-15 19 -107 31q-12 0 -12 12q0 3 0.5 7.5t6.5 11.5t16 6q135 -18 223 -18q38 0 99.5 4.5t103.5 9.5l43 4 q10 1 13.5 -5.5t1.5 -12.5l-1 -7q-2 -5 -6.5 -8t-8.5 -3l-3 -1q-43 -5 -72.5 -13t-38.5 -13l-8 -5q-24 -14 -47 -70t-34 -106l-11 -49q-7 -31 -25 -125.5t-31 -150.5q-4 -23 8.5 -36t27.5 -15l14 -1q285 -14 571 0q6 0 16 1.5t28.5 14.5t22.5 36q8 44 16 92t16.5 102.5 t13.5 81.5q3 22 7 54.5t1.5 94t-21.5 76.5q-14 19 -106 31q-15 0 -15 12q0 3 1 7.5t7.5 11.5t16.5 6q82 -16 240 -16q69 0 126 4t79 8l22 4q12 1 15.5 -5.5t0.5 -12.5l-2 -7q-2 -5 -5.5 -8t-6.5 -3l-2 -1q-43 -5 -72.5 -13t-37.5 -13l-9 -5q-25 -16 -48 -72t-33 -104 l-11 -49q-34 -150 -87 -436t-79 -453h2q-4 -20 -8 -51.5t-2.5 -91.5t20.5 -76q17 -19 109 -31q12 -2 12 -8q0 -4 -0.5 -9t-6.5 -13t-17 -6q-82 14 -238 16q-70 -1 -127.5 -5t-79.5 -7l-22 -4q-11 -2 -15 5t-2 15l2 8q1 3 5 5t8 3h4q43 5 72.5 13t38.5 13l8 5q24 16 47 71 t34 102l11 46q49 223 84 414q-1 0 0 4.5t-1.5 12t-6.5 14.5t-15.5 13t-28.5 7q-381 7 -571 0q-61 -3 -70 -51q-24 -122 -67 -414q-3 -20 -7 -51.5t-2.5 -91.5t19.5 -76q17 -19 107 -31q14 -2 14 -12q0 -3 -1 -7.5t-7.5 -11.5t-16.5 -5q-159 16 -239 16q-42 0 -99.5 -4 t-93.5 -8z" />
<glyph unicode="I" horiz-adv-x="729" d="M-27 -16q-10 -2 -13 4t-1 13l2 7q2 5 6 8t7 4h3q43 5 72.5 13t38.5 13l8 5q24 16 47 71t34 102l11 46q22 98 86.5 446.5t77.5 442.5q3 21 7 53.5t2 94t-21 77.5q-15 19 -107 31q-12 2 -12 12q0 3 0.5 7.5t6.5 11.5t16 6q143 -18 223 -18q44 0 105.5 4.5t101.5 9.5l39 4 q10 1 13.5 -5.5t1.5 -12.5l-1 -7q-1 -4 -5.5 -7t-8.5 -4l-4 -1q-43 -5 -72.5 -13t-38.5 -13l-8 -5q-24 -16 -47 -72.5t-34 -104.5l-11 -48q-22 -96 -86.5 -444.5t-77.5 -444.5q-3 -20 -7 -51.5t-1.5 -91.5t20.5 -76q17 -19 107 -31q14 0 14 -12q0 -3 -1 -7.5t-7.5 -11.5 t-16.5 -5q-139 16 -223 16q-38 0 -99.5 -4t-103.5 -8z" />
<glyph unicode="J" horiz-adv-x="679" d="M-203 -477q-7 0 -14.5 5.5t-7.5 14.5q0 11 2 17q6 14 16 14q13 -1 34 0t73 18t88 50q41 38 65 70t53 107.5t52 192.5q23 111 66.5 363.5t84.5 499.5t47 282q3 22 7 55.5t2.5 95.5t-19.5 76q-16 21 -110 31q-2 0 -4.5 0.5t-7 3.5t-3.5 8q1 3 2 7.5t7.5 11.5t15.5 6 q169 -18 241 -18q40 0 99.5 4.5t99.5 9.5l39 4q11 1 14 -5.5t1 -12.5l-3 -7q-1 -4 -4 -7t-5 -4l-3 -1q-36 -3 -66 -10.5t-43 -14.5l-12 -6q-24 -13 -47.5 -69.5t-34.5 -106.5l-12 -51q-20 -88 -97 -499t-118 -644q-14 -110 -98 -241q-7 -10 -20 -27t-54.5 -60t-86 -76 t-110 -60t-129.5 -27z" />
<glyph unicode="K" horiz-adv-x="1433" d="M-27 -16q-10 -2 -13 4t-1 13l2 7q1 4 5 7t8 4l3 1q43 5 72.5 13t38.5 13l8 5q24 16 47 71.5t34 102.5l11 47q29 129 86 438t78 451q3 21 7 53t2 93t-21 77q-17 19 -107 31q-12 2 -12 12q0 3 0.5 7.5t6.5 11.5t16 6q149 -18 239 -18q41 0 98.5 4.5t94.5 9.5l37 4 q10 1 13 -5.5t1 -12.5l-2 -7q-1 -4 -5 -7t-8 -4l-3 -1q-43 -5 -72.5 -13t-38.5 -13l-8 -5q-24 -16 -47 -72t-34 -104l-11 -47q-31 -139 -87.5 -445t-76.5 -444q-3 -21 -7 -52.5t-1.5 -92t20.5 -76.5q17 -19 107 -31q14 -2 14 -12q0 -3 -1 -7.5t-7.5 -11.5t-16.5 -5 q-81 14 -239 16q-70 -1 -127.5 -5t-79.5 -7zM1034 -16q-30 0 -55.5 6.5t-40.5 16t-26 19.5t-15 16l-4 7q-31 58 -105 193t-132.5 241.5t-61.5 112.5q-16 33 -50.5 83t-47.5 50q-9 0 -17 8q-10 17 6 29q247 222 504 487q33 38 49 67t18 45t-5.5 27t-14.5 14t-16 5q-5 1 -16 2 t-17 2q-10 2 -12 12q0 3 1 7.5t7 11.5t16 6q141 -18 215 -18q35 0 85.5 4.5t84.5 9.5l33 4q10 1 14 -5.5t3 -12.5l-2 -7q-2 -4 -6 -7t-8 -4l-3 -1q-105 -8 -237 -119q-35 -31 -142 -123t-202.5 -177t-184.5 -169q-14 -14 -6 -26q44 -95 324 -572q20 -31 41 -57.5t39 -44.5 t38 -33.5t34 -24t31 -16t25 -10.5t20 -6.5t13 -3.5q17 -6 56 -10q12 -1 12 -13q-1 -26 -21 -26h-221z" />
<glyph unicode="L" horiz-adv-x="1044" d="M-27 -16q-10 -2 -13 4t-1 13l2 7q1 5 5 8t8 4h3q43 5 72.5 12.5t38.5 11.5l8 5q23 10 46 65.5t34 105.5l12 50q31 139 87.5 446t74.5 443q4 22 8 54.5t2.5 94t-20.5 76.5q-17 19 -107 31q-12 2 -12 12q0 3 0.5 7.5t6.5 11.5t16 6q145 -18 239 -18q41 0 98 4.5t93 9.5 l37 4q11 1 14.5 -5.5t1.5 -12.5l-2 -7q-2 -5 -6 -8t-7 -3l-3 -1q-43 -5 -72.5 -13t-38.5 -13l-8 -5q-24 -15 -47 -71t-34 -105l-11 -49q-42 -182 -97.5 -497t-89.5 -543q-5 -31 27 -43q31 -9 83 -14.5t88 -7.5l36 -1q200 0 233 49q23 35 53 123q5 17 17 17q18 0 27 -7t4 -18 q-39 -86 -56 -184q-1 -11 -6 -20.5t-9 -12.5l-5 -4q-10 -8 -33 -11t-41 -2l-18 1q-315 16 -504 16q-40 0 -98.5 -4t-96.5 -8z" />
<glyph unicode="M" horiz-adv-x="1882" d="M709 -59q-18 0 -15 20q2 21 0 41q-26 244 -75 563.5t-91 493.5q-1 4 -1.5 5.5t-2 2t-4.5 0.5q-7 0 -10 -10q-53 -154 -126.5 -409t-109.5 -417q-34 -161 -8 -182q17 -17 107 -29q12 -2 12 -12q0 -3 -0.5 -7.5t-6.5 -11.5t-16 -5q-139 16 -219 16q-32 0 -85 -4t-90 -8 l-36 -4q-10 -2 -13 4t-1 13l2 7q1 4 5 7t8 4l4 1q42 5 71 12.5t37 11.5l8 5q11 8 23.5 24t24 36t22.5 42t20 43.5t15.5 38t11.5 27.5l4 12q101 291 262 891q6 25 10 60q0 35 -1 53t-9 46t-24 46q-11 11 -21 16q-34 21 -106 31q-13 0 -13 12q0 3 1 8t7.5 12.5t16.5 4.5 q92 -18 158 -18q34 0 81 9t60 9q11 0 20.5 -9t10.5 -26q28 -250 82.5 -580t109.5 -575q3 -6 6 -6q9 -3 13 8q62 99 328 562t337 593q17 33 47 33q15 0 56 -9t84 -9q76 0 155 18q10 3 14 -3.5t3 -14.5l-2 -7q-2 -5 -6.5 -8t-8.5 -3l-4 -1q-34 -4 -62 -12t-39 -13l-11 -6 q-87 -38 -117 -206q-20 -98 -54 -452t-34 -456q0 -194 39 -221q16 -17 108 -29q12 -2 12 -12q0 -3 -1 -7.5t-7 -11.5t-16 -5q-176 16 -252 16q-36 0 -93 -4t-96 -8l-38 -4q-12 -2 -16 4t-2 13l1 7q2 4 6.5 7t8.5 4l4 1q42 5 71 12.5t37 11.5l8 5q29 20 48 93.5t24 129.5 q15 85 40 370.5t36 442.5q0 11 -4 11q-8 0 -15 -11q-56 -89 -271.5 -466t-270.5 -486q-18 -27 -23 -57q-3 -14 -60.5 -61.5t-68.5 -61.5q-9 -12 -24 -12z" />
<glyph unicode="N" horiz-adv-x="1542" d="M1063 -55q-13 0 -16 16q-3 18 -13 43q-27 66 -264 522t-301 572q-9 6 -12 4q-1 -1 -6 -10q-14 -48 -52 -255.5t-69 -390.5l-31 -184q-25 -176 12 -211q15 -21 107 -31q14 0 14 -12q0 -3 -1 -7.5t-7 -11.5t-16 -5q-142 16 -203 16q-24 0 -81 -4t-102 -8l-45 -4 q-12 -2 -16 4t-2 13l2 7q2 5 6.5 8t8.5 4h4q42 4 71 12t37 14l8 5q52 36 92 209q26 125 93 473.5t75 425.5q2 15 2.5 37t-1.5 62t-17 74t-41 50q-30 23 -104 33l-11 5q-3 3 -2 7q0 3 0.5 8t6.5 12.5t16 4.5q92 -18 121 -18q32 0 79 9t56 9q22 0 35 -37q44 -124 203.5 -429.5 t385.5 -694.5q6 -8 13 -6q1 1 6 10q26 91 91.5 453.5t74.5 463.5q15 150 -17 172q-16 19 -104 31q-12 0 -12 12q0 3 1 8t6.5 12.5t14.5 4.5q145 -18 217 -18q32 0 84.5 4.5t89.5 9.5l37 4q11 3 15 -3.5t2 -14.5l-2 -7q-1 -5 -5 -8t-8 -3l-4 -1q-90 -9 -121 -31 q-39 -29 -73 -149q-27 -116 -108.5 -557t-92.5 -549q-3 -42 0 -51q3 -12 -10 -23q-28 -20 -58 -52t-37 -44q-8 -14 -22 -14z" />
<glyph unicode="O" horiz-adv-x="1454" d="M575 -39q-220 -11 -357 91.5t-167 316.5q-24 137 -3.5 271t69 255t131 225t180.5 180.5t218 121.5t245 48q101 2 185.5 -23.5t144.5 -74t104 -116t63.5 -148.5t24 -172.5t-15.5 -187.5q-40 -221 -150.5 -393.5t-284 -277t-387.5 -116.5zM713 31q139 33 259 152.5 t192 293.5t77 361q4 187 -60 328.5t-179 205.5t-254 31q-139 -32 -259.5 -151.5t-193 -294t-76.5 -361.5q-5 -186 59.5 -328t180 -206t254.5 -31z" />
<glyph unicode="P" horiz-adv-x="1153" d="M-27 -16q-11 -2 -14 4t-1 13l3 7q1 4 5 7t8 4l3 1q42 5 71.5 13t38.5 13l9 5q24 16 47 71t34 102l11 48q26 96 89.5 443t72.5 442q3 21 7 52.5t2.5 92t-19.5 76.5q-17 25 -109 37q-12 2 -12 12q0 3 0.5 7.5t6.5 11.5t16 6q112 -18 178 -18q27 0 124.5 7t169.5 10t167 -5 q4 0 11.5 -1.5t29.5 -7t42.5 -14t47 -25.5t47.5 -38t39 -54t27 -72.5t6.5 -94t-19.5 -117.5q-1 -7 -4.5 -20.5t-18 -52t-34.5 -75t-57.5 -84t-83 -85t-115 -71.5t-150.5 -50q-112 -18 -188 0q-11 3 -14.5 7t-2.5 13t9 16t16 7h4q23 -5 61.5 -6.5t105.5 13t116 50.5q4 3 10 8 t24.5 23t35.5 37.5t39.5 51t40.5 64t34 75.5t24 87t7.5 97t-13.5 106q-1 7 -3.5 18t-18.5 39t-40.5 50t-74 39.5t-114.5 17.5q-84 -3 -125 -23q-20 -10 -33.5 -38t-32.5 -93q-34 -100 -104 -481.5t-78 -489.5q-28 -187 10 -221q17 -19 109 -31q12 -2 12 -12q0 -3 -0.5 -7.5 t-7 -11.5t-17.5 -5q-163 16 -237 16q-36 0 -93.5 -4t-97.5 -8z" />
<glyph unicode="Q" horiz-adv-x="1484" d="M1243 -242q-60 -21 -137 -0.5t-127 60.5q-31 22 -64.5 48t-50 38.5t-49.5 27.5t-82 29q-56 14 -176 8q-220 -14 -356.5 85.5t-169.5 312.5q-23 137 -0.5 271t73.5 256t134.5 226.5t181.5 181t215.5 121t236.5 45.5q102 3 186.5 -22t143.5 -73t102.5 -115.5t62.5 -149 t23.5 -173.5t-14.5 -190q-42 -227 -162 -405.5t-284 -269.5q-67 -38 -42 -53q3 -1 7 -3q33 -12 127.5 -65.5t134.5 -67.5q138 -48 215 0q10 6 21 6q13 0 10 -22q-2 -9 -14 -21q-29 -24 -65.5 -45.5t-58.5 -30.5zM692 31q139 33 259 152.5t192.5 293.5t77.5 361 q4 187 -60.5 328.5t-179.5 205.5t-254 31q-139 -32 -259.5 -151.5t-192.5 -294t-76 -361.5q-4 -139 33 -256.5t103 -193.5t159.5 -108t197.5 -7z" />
<glyph unicode="R" horiz-adv-x="1318" d="M983 -39q93 0 170 100q4 8 2 15t-7 12l-5 4q-9 7 -16 7t-10 -3l-3 -4q-20 -29 -46.5 -44t-43.5 -15q-33 0 -55.5 22t-33.5 67t-15.5 96.5t-4.5 125.5q0 46 -5.5 88.5t-14.5 74.5t-20.5 61t-24.5 49t-25.5 37t-24 27.5t-20 18t-13 10.5t-3.5 3q166 67 262 198t96 283 q0 56 -16.5 100t-42 71.5t-60.5 46.5t-69.5 27t-71.5 11q-127 9 -256 -6q-86 -10 -139 -10q-71 1 -132 5.5t-87 8.5l-25 4q-10 1 -15 -5t-7 -17q-1 -6 2 -10t7 -4l3 -1q40 -5 66.5 -13t32.5 -13l7 -5q18 -16 21 -72t-4 -104l-6 -47q-11 -98 -74.5 -445.5t-89.5 -443.5 q-14 -58 -21.5 -86.5t-27 -73t-41.5 -61.5q-16 -11 -53.5 -20t-65.5 -11q-12 0 -16 -12q0 -1 -1 -3t-1.5 -6t0 -7.5t4.5 -6t10 -1.5q168 16 246 16q34 0 89.5 -4t94.5 -8l39 -4q11 -1 17 5t7 13v6q1 5 -2 8t-6 4h-4q-31 3 -64 12t-44 19q-37 34 -15 203q13 112 95 541 t104 503q7 22 12 34.5t17 26.5t28 19q28 8 58.5 13t46.5 5l16 1q67 0 116.5 -16t78.5 -40t46.5 -60.5t24 -70t7.5 -75.5q0 -206 -205 -357q-100 -67 -269 -59q-23 0 -26 -19t12 -24q27 -6 80 -6q58 0 101.5 -35t66.5 -91t34 -114.5t11 -116.5q0 -92 19 -161t44.5 -104 t59 -56.5t55 -26t39.5 -4.5z" />
<glyph unicode="S" horiz-adv-x="987" d="M276 -39q-72 -5 -149 9t-92 36q-12 14 -14 36.5t2.5 41.5t11 45t8.5 39q2 16 5 41t3 27q2 11 10.5 16.5t16.5 5.5h8q6 0 8.5 -4t1.5 -8v-4l-6 -56q-13 -136 152 -157q82 -11 167.5 23t148.5 105t79 158q10 60 -4.5 121.5t-52.5 102.5q-36 38 -88.5 84.5t-90.5 78.5 t-80.5 81.5t-70.5 103.5q-46 85 -41 175t44.5 168t115.5 138t172 84q125 40 311 0q6 -1 16.5 -3t36.5 -4.5t43 -0.5q3 0 7 -0.5t10.5 -6.5t-4.5 -20q-16 -24 -28.5 -67.5t-16.5 -75.5l-5 -31q-5 -20 -26 -20q-19 0 -19 12l2 29q6 73 -53.5 113t-140.5 40q-87 0 -158.5 -36.5 t-110.5 -95.5t-47.5 -135t31.5 -155q26 -55 75 -105.5t98.5 -90t97.5 -82t84 -99.5t47 -124q17 -104 -18.5 -200.5t-108.5 -165.5t-174.5 -113.5t-213.5 -53.5z" />
<glyph unicode="T" horiz-adv-x="1325" d="M281 -16q-11 -2 -15 4t-2 13l2 7q1 5 4.5 8t7.5 4h3q43 5 72.5 13t37.5 13l8 5q25 16 49 71t35 102l11 46q111 501 180 1006q5 37 2 55.5t-17 22.5q-88 26 -221 18q-18 0 -46 -2.5t-83.5 -18t-75.5 -40.5q-18 -19 -45 -117q-2 -10 -12 -16q-7 -6 -22.5 -2t-10.5 22 t11.5 46t16 87t5.5 84q-3 17 3 26t13 9h7q225 -16 567 -16q371 0 602 16q4 1 8 0t10 -8t-6 -27q-37 -76 -47 -217q-1 -11 -6.5 -16t-10.5 -4h-5q-7 0 -12 4t-6 8l-1 4q2 46 1 72t-4 36l-3 9q-10 25 -54.5 40.5t-83.5 18.5l-40 2q-131 9 -234 -18q-5 -1 -9.5 -3t-8 -5.5 l-6 -6t-5 -8t-4 -8.5t-3.5 -10.5t-3 -10.5t-3 -13t-3 -13q-45 -196 -102.5 -504t-85.5 -502q-4 -20 -8 -51.5t-2.5 -91.5t20.5 -76q17 -19 109 -31q12 0 12 -12q0 -3 -1 -7.5t-6.5 -11.5t-14.5 -5q-158 16 -224 16q-33 0 -94 -4t-106 -8z" />
<glyph unicode="U" horiz-adv-x="1609" d="M1073 -35q-10 7 -2 27q9 27 10 31q48 165 12 172q-11 2 -30 -13q-112 -108 -261.5 -166.5t-288 -53t-224.5 72.5q-163 130 -109 452l54 299q55 300 65 377q3 21 7 53t2 93t-21 77q-15 17 -109 29q-12 0 -14 12q0 4 1 9t7 12.5t16 3.5q154 -18 242 -18q34 0 91 4.5t97 9.5 l41 4q11 4 15.5 -2.5t3.5 -14.5l-2 -8q-2 -5 -6.5 -8t-8.5 -3l-4 -1q-44 -5 -74 -12.5t-38 -12.5l-8 -4q-24 -15 -48 -70.5t-35 -103.5l-12 -49q-21 -102 -68.5 -365t-54.5 -323q-3 -19 -4 -42.5t0.5 -61t8 -72.5t22.5 -74.5t39.5 -71.5t62.5 -59t89 -41q9 -3 26.5 -6.5 t71.5 -2.5t109 14.5t134.5 57t153.5 113.5q4 3 10 9t23.5 29.5t33 52t33 77t27.5 103.5q2 14 53.5 300.5t63.5 362.5q4 20 8 51.5t2 91.5t-22 76q-19 21 -109 33q-14 0 -14 12q0 3 1 8t7 12.5t16 4.5q152 -18 242 -18q30 0 87 4.5t98 9.5l42 4q12 4 16 -2.5t2 -14.5l-3 -8 q-2 -5 -6 -8t-7 -3l-4 -1q-42 -5 -71 -13.5t-37 -13.5l-8 -6q-25 -16 -49 -71t-35 -101l-11 -47q-29 -138 -95 -519t-73 -480q-3 -36 9.5 -76t50.5 -49q17 -5 117 -19q12 0 12 -12q0 -3 -0.5 -7.5t-6.5 -11.5t-16 -5q-132 16 -198 16q-63 0 -127 -35q-11 -7 -21 0z" />
<glyph unicode="V" horiz-adv-x="1546" d="M528 -39q-14 0 -14 16q-3 64 -10 125q-18 144 -102.5 621.5t-114.5 581.5q-12 34 -26 56t-22 27l-8 5q-36 15 -96 22q-12 2 -12 12q0 3 0.5 8t6 12t15.5 5q142 -18 205 -18q33 0 102 4.5t122 9.5l53 4q10 2 13.5 -4.5t1.5 -13.5l-1 -7q-2 -4 -6.5 -7t-8.5 -4l-3 -1 q-79 -11 -105 -22q-55 -27 -39 -197q8 -92 70.5 -466.5t87.5 -498.5q9 -42 37 0q58 97 282.5 488.5t286.5 501.5q21 45 28.5 80.5t4.5 54.5t-12.5 31.5t-18.5 16.5t-18 5l-45 6q-13 2 -13 12q0 3 0.5 8t6.5 12t16 5q131 -18 201 -18q34 0 88.5 4.5t92.5 9.5l38 4 q10 2 13.5 -4.5t2.5 -13.5l-2 -7q-2 -5 -6 -8t-7 -3l-3 -1q-40 -4 -56 -8q-7 -2 -17.5 -7t-33 -22.5t-47.5 -43t-62.5 -72.5t-76.5 -107q-83 -136 -333.5 -565t-301.5 -533q-15 -26 -39 -34q-54 -18 -90 -50q-12 -12 -25 -12z" />
<glyph unicode="W" horiz-adv-x="2111" d="M512 -39q-16 0 -16 16q-6 147 -65.5 630t-82.5 597q-11 57 -27.5 96.5t-36 58.5t-33 26.5t-30.5 11.5q-41 10 -127 20q-12 1 -12 13q0 3 1 7.5t6.5 11t14.5 3.5q183 -18 271 -18q43 0 113 4.5t118 9.5l49 4q11 3 14.5 -2.5t0.5 -12.5l-2 -7q-1 -5 -4.5 -8.5t-7.5 -3.5 l-3 -1q-52 -5 -92 -18q-24 -7 -41.5 -54.5t-17.5 -134.5q9 -104 53 -462.5t59 -448.5q2 -10 7.5 -14t13 -0.5t14.5 14.5q41 84 190.5 404.5t196.5 424.5l4 13q5 13 9.5 29t10.5 38.5t8 45.5t2 44.5t-7.5 40t-20.5 29.5q-4 4 -12 10.5t-40.5 19.5t-74.5 17q-12 0 -12 12 q0 3 1 8t7.5 12.5t16.5 4.5q83 -18 239 -18h54q8 0 13 -3t6 -7l1 -3q8 -106 79.5 -570.5t94.5 -582.5q2 -10 8 -14t14 -0.5t15 14.5q55 114 224.5 479.5t209.5 458.5q17 43 22 78t1 55.5t-13.5 35.5t-18 20.5t-15.5 7.5q-11 5 -72 12q-14 0 -14 10q0 4 1 9t7 13t16 5 q133 -18 201 -18q35 0 89 4.5t91 9.5l37 4q11 3 14.5 -4t1.5 -15l-2 -8l-14 -10q-76 -9 -96 -16q-13 -4 -25 -17.5t-18 -23.5t-6 -12q-65 -121 -318 -654t-297 -645q-11 -22 -33 -29q-13 -4 -39 -17.5t-38 -25.5q-14 -14 -25 -14q-16 0 -16 14q0 54 -68 490.5t-94 581.5 q-3 21 -16 22.5t-25 -22.5q-48 -101 -131 -275t-194.5 -415t-137.5 -310q-12 -25 -33 -31q-48 -19 -76 -45q-10 -10 -20 -10z" />
<glyph unicode="X" horiz-adv-x="1353" d="M-111 -16q-10 -2 -12.5 4t-0.5 13l3 7q2 5 5.5 8t6.5 4h3l106 17q59 10 88 47q55 66 136 173t195.5 262t164.5 222q2 3 5 9t7.5 22.5t-2.5 28.5q-143 400 -211 559q-17 33 -64 41l-100 14q-12 0 -12 12q-1 25 24 25q154 -18 222 -18q32 0 98 4.5t116 9.5l50 4 q10 0 13.5 -6t1.5 -12l-1 -7q-1 -5 -5.5 -8t-8.5 -3l-4 -1l-103 -14q-24 -3 -37 -22t-6 -42q72 -231 129 -399q5 -11 15.5 -11.5t21.5 13.5q36 52 96.5 137.5t102.5 146.5t72 107q9 15 12 30t-5 27t-26 15l-78 12q-12 0 -12 12q0 25 23 25q152 -18 215 -18q32 0 83 4.5 t86 9.5l35 4q11 0 15 -6t2 -12l-2 -7q-2 -5 -6 -8t-8 -3l-3 -1l-82 -12q-65 -9 -98 -45q-215 -263 -383 -502q-21 -30 -12 -59q19 -57 116 -312.5t156 -402.5q7 -16 25.5 -28t33.5 -16l15 -5l84 -13q14 -2 14 -12q0 -3 -1 -7.5t-6.5 -11.5t-14.5 -5q-144 16 -199 16 q-27 0 -80 -4t-92 -8l-39 -4q-9 -2 -12 4t-2 13l2 7q1 5 5 8t7 4h4l41 7q56 10 41 55q-86 270 -194 573q-1 3 -3 6t-9.5 6.5t-16.5 -10.5q-206 -256 -420 -567q-14 -20 -6 -32t17.5 -16.5t13.5 -4.5q13 -2 46.5 -8.5t51.5 -8.5q12 0 12 -12q0 -3 -0.5 -7.5t-5.5 -11.5 t-14 -5q-170 16 -238 16q-29 0 -80 -4t-87 -8z" />
<glyph unicode="Y" horiz-adv-x="1275" d="M225 -16q-11 -2 -14.5 4t-1.5 13l2 7q1 5 5 8t8 4h3q42 5 71.5 13t38.5 13l9 5q24 16 47 71t34 102l11 46q49 240 51 250q6 38 3 53q-42 156 -117.5 401.5t-132.5 399.5q-11 29 -58 35l-49 6q-12 0 -12 12q0 3 0.5 7.5t6 11.5t15.5 6q129 -18 195 -18q34 0 91 4.5t97 9.5 l41 4q10 1 14 -5.5t3 -12.5l-2 -7q-2 -5 -6.5 -8t-8.5 -3l-4 -1q-23 -2 -82 -10q-25 -4 -36 -19t-9 -28l2 -12q68 -281 166 -609q5 -14 15.5 -14.5t21.5 14.5q79 113 225 315.5t199 280.5q16 21 13 44.5t-31 27.5q-11 2 -35.5 5t-34.5 5q-12 0 -12 12q0 3 1 7.5t7 11.5t16 6 q150 -18 213 -18q22 0 61.5 4.5t68.5 9.5l28 4q11 1 14.5 -5.5t1.5 -12.5l-2 -7q-1 -5 -5 -8t-7 -3l-4 -1l-45 -6q-66 -10 -98 -45q-108 -137 -541 -715q-18 -22 -29 -61q-44 -187 -63 -318q-3 -20 -7 -51.5t-2 -91.5t21 -76q17 -19 109 -31q12 0 12 -12q0 -3 -0.5 -7.5 t-7 -11.5t-17.5 -5q-145 16 -221 16q-32 0 -93.5 -4t-107.5 -8z" />
<glyph unicode="Z" horiz-adv-x="1224" d="M899 -16q-363 10 -516 10q-231 0 -270 -2q-29 -1 -88 -5t-70.5 -4t-36.5 3q-6 12 10 32q250 302 549 697q302 404 420 579q41 57 -12 70q-124 19 -404 8q-43 -3 -70 -6t-59 -15t-49 -32q-18 -25 -45 -115q0 -1 -0.5 -2.5t-3 -5t-6 -6t-10 -4t-15.5 -0.5q-2 0 -5.5 1 t-7.5 6.5t-1 14.5q31 98 31 217q-1 14 5 20.5t13 6.5h6q203 -18 389 -18q129 0 295.5 9t208.5 9q2 0 5 -0.5t10 -3t10 -6.5t0.5 -14t-13.5 -23q-160 -191 -538 -690q-205 -268 -438 -598q-11 -17 -4 -29.5t28 -15.5q73 -8 202 -11t221 -3l93 1q203 0 232 43q21 28 53 123 q2 17 18 17q1 -1 9.5 0t17 -5t4.5 -18q-43 -108 -49 -147l-6 -41q0 -10 -5 -18.5t-11 -11.5l-5 -3q-13 -8 -36 -11.5t-39 -2.5h-17z" />
<glyph unicode="[" horiz-adv-x="681" d="M395 -385q-15 2 -40.5 4t-106.5 5.5t-152 -1.5l-14 -1q-15 -2 -30.5 -3.5t-30.5 -1.5t-17 2q-1 1 -2 2.5t-2 8t2 14.5q6 12 12 32q63 282 176 893q118 631 144 826l4 32l4 50q0 8 3 14t6 8l3 2q2 2 16 2t29.5 -1.5t28.5 -3.5l14 -1q85 -3 152.5 -1.5t109.5 5.5l41 4 q13 1 17 -8t2 -18l-2 -9q-2 -3 -6.5 -5t-8.5 -3h-4q-87 -8 -141.5 -17t-65.5 -15l-12 -5q-51 -29 -88 -161q-73 -314 -143 -695q-66 -369 -117 -712q-10 -137 27 -162q17 -21 207 -37q14 -2 14 -8q0 -4 -1 -10.5t-8 -16.5t-20 -8z" />
<glyph unicode="\" horiz-adv-x="821" d="M557 -72q-11 0 -21.5 7.5t-13.5 17.5l-438 1528q-3 10 2 17t16 7l62 2q10 0 20 -7.5t13 -18.5l440 -1528q3 -9 -3.5 -17t-17.5 -8h-59z" />
<glyph unicode="]" horiz-adv-x="663" d="M-84 -385q-12 -2 -16 6.5t-2 17.5l2 9q2 4 7 6t9 2h4q86 8 140.5 17t66.5 15l12 5q49 31 86 164q89 380 148 712q67 359 112 695q9 134 -24 161q-19 19 -207 37q-16 0 -16 8q0 4 1 10t8 15.5t19 7.5q15 -2 40.5 -3.5t107 -4.5t151.5 2l15 1q14 2 29.5 3.5t30.5 1.5t17 -2 q1 -1 2 -2.5t3 -8t-3 -15.5l-14 -48l-8 -32q-63 -285 -164 -826q-120 -654 -151 -895v-30q0 -9 -4 -15.5t-8 -8.5l-3 -3q-2 -2 -16 -2t-29.5 1.5t-29.5 3.5l-13 1q-85 3 -152.5 2t-108.5 -5z" />
<glyph unicode="^" horiz-adv-x="962" d="M131 764q-11 0 -21 4.5t-6 15.5l310 664q18 33 30 45t29 12q14 0 24.5 -11t32.5 -46l328 -664q4 -10 -5.5 -15t-23.5 -5h-63q-12 0 -21 20l-243 492q-7 16 -15 22t-14 3t-11 -8.5t-8 -10.5l-3 -6l-230 -492q-10 -20 -26 -20h-64z" />
<glyph unicode="_" horiz-adv-x="929" d="M23 -250q-9 0 -16 7t-7 16v57q0 9 7 16t16 7h882q9 0 17 -7t8 -16v-57q0 -9 -8 -16t-17 -7h-882z" />
<glyph unicode="`" horiz-adv-x="589" d="M422 1479q-45 30 -121 74t-129 73l-53 29q-2 1 -4 4t-5.5 12t3.5 19q16 24 39 45t38 30l15 9q12 6 23 3.5t14 -10.5q30 -48 83 -113t91 -106l37 -41q13 -16 -4 -26q-11 -11 -27 -2z" />
<glyph unicode="a" d="M385 -39q-71 0 -128 21.5t-92 55.5t-60.5 75t-37 82.5t-18.5 75.5t-7 55l-1 22q1 120 24.5 223t61 172t82.5 124t89.5 86t81.5 52t60 28l23 7q214 49 307 -84q15 -20 27 -18q7 2 16 25l12 41q4 11 11 16t12 4h6q37 -2 76 0q8 1 11.5 -4t2.5 -10v-6q-64 -338 -121 -709 q-12 -74 -14 -137q-1 -44 7 -71.5t17.5 -35.5t20.5 -8q27 0 53 20t47 54t36 64t30 66.5t20 45.5q6 14 25 8q18 -6 14 -22q-82 -318 -278 -318q-51 0 -84 28t-47 68q-8 24 -16.5 28.5t-26.5 -11.5q-32 -32 -68.5 -55t-66 -33.5t-54.5 -17t-39 -6.5zM487 45q44 13 80 39t60 63 t41 73t28.5 84t17 79t11.5 74l18 141q41 362 -140 396q-48 9 -111 -7q-6 -1 -16.5 -5t-40 -22t-57 -43.5t-61.5 -75.5t-59 -112.5t-43.5 -160t-21.5 -212.5q0 -5 0.5 -13.5t2.5 -36t7 -51t14.5 -58.5t24.5 -58.5t37 -52t51.5 -38t68.5 -16t88 12.5z" />
<glyph unicode="b" horiz-adv-x="1046" d="M502 -25q-183 -47 -312 54q-2 1 -5 3.5t-12.5 11t-18 18t-20 25.5t-20.5 33.5t-17 41.5t-12 49.5t-3 58t8 66.5q60 324 162 967q15 116 -21 131q-20 10 -81 0q-15 -2 -17 8q-4 24 21 28q92 11 229 48l39 10q1 -1 6.5 0.5t10.5 -7t1 -24.5q-55 -227 -112 -520 q-2 -17 4 -23q8 -8 33 15q41 37 98 58t94 23l37 3q73 0 132 -21.5t95 -55.5t62 -75t37 -82.5t17.5 -75.5t6.5 -55v-22q-1 -92 -16.5 -175t-41 -144.5t-59 -115t-70 -90.5t-72.5 -67t-69 -48t-58.5 -30t-40.5 -16zM465 29q7 1 18 4t44.5 19.5t63.5 41t67.5 73t65.5 111 t48 160.5t23 215v15t-2 38.5t-7.5 54.5t-15.5 62.5t-26 63t-40 55t-56.5 39t-76 15.5t-98.5 -17q-45 -15 -79.5 -45.5t-54 -65t-34 -81.5t-21 -82.5t-12.5 -80.5q-1 -11 -2 -16l-37 -252q-13 -46 -8 -110t18.5 -121t71 -87t150.5 -9z" />
<glyph unicode="c" horiz-adv-x="935" d="M444 -39q-146 0 -235.5 73.5t-114.5 215.5q-34 199 31 382.5t204 297.5t312 123q62 2 111 -7t79 -26t50.5 -38.5t27 -44.5t6.5 -43.5t-8 -35.5q-17 -36 -40.5 -45t-38.5 -1l-15 9q-16 13 -28 38t-15 44l-4 19q-17 71 -133 71q-74 0 -143 -39.5t-123.5 -112t-88.5 -184 t-38 -245.5q-6 -199 77.5 -304.5t227.5 -70.5q76 18 137 63.5t100 96.5q12 18 27 6q11 -11 9 -23.5t-11 -23.5q-75 -99 -172 -147t-191 -48z" />
<glyph unicode="d" horiz-adv-x="1153" d="M412 -39q-73 0 -132.5 21t-95 55t-61.5 75t-37.5 81.5t-17.5 74.5t-6 55l-1 21q1 118 26.5 220t64.5 170.5t86.5 124t94.5 87.5t86 53.5t63 28.5l24 8q91 29 165.5 5.5t108.5 -89.5q11 -21 29 -14q13 7 16 23q8 50 20 118t20.5 118.5t15.5 100.5q16 122 -21 136 q-21 8 -82 -2q-12 -2 -14 8q-7 26 18 30q92 11 260 58q8 2 15.5 -4.5t3.5 -24.5q-39 -149 -140.5 -696t-101.5 -637q-3 -34 1 -59.5t11.5 -37t15 -18.5t13.5 -7l6 -1q27 0 53 19.5t47 53.5t36.5 64t31 66t19.5 45q7 15 24 8q15 -7 15 -23q-21 -80 -49.5 -139.5t-56 -92.5 t-61 -52.5t-59 -25t-55.5 -5.5q-54 0 -91 33.5t-42 71.5q-2 17 -12 20q-12 4 -23 -10q-26 -32 -59 -56t-62 -34.5t-54.5 -17t-40.5 -6.5zM502 39q29 10 53.5 25.5t43.5 31.5t36 40t28 43t22 48t17 48t12.5 51t9.5 48t8 47.5t7 41.5l21 149q3 27 5 51t3 59.5t-0.5 64.5 t-8 62.5t-17.5 58t-29.5 46t-43.5 32t-61 11t-80 -13.5q-6 -2 -17 -5.5t-43 -22t-61.5 -44.5t-65.5 -75.5t-63 -111.5t-46.5 -157t-22.5 -207q-1 -16 0 -42.5t15.5 -90.5t41.5 -109.5t88.5 -72.5t147.5 -6z" />
<glyph unicode="e" horiz-adv-x="886" d="M379 -39q-136 0 -220 71.5t-110 211.5q-31 162 33 328t188 298q41 42 89 79t125.5 70.5t150.5 33.5q44 0 77.5 -5t66 -19.5t50 -44t17.5 -73.5q0 -81 -50.5 -157.5t-125 -131.5t-165.5 -100t-168 -70.5t-136 -35.5q-4 -53 -2.5 -98t8.5 -88.5t21 -75.5t36 -59.5t53 -41 t72 -19.5t94 5q135 22 248 156q7 8 15.5 9.5t13.5 -0.5l4 -3q8 -7 6.5 -17t-6.5 -19l-6 -9q-147 -195 -379 -195zM207 485q101 27 182.5 61.5t133.5 71.5t89.5 72t58 71.5t30 60.5t14.5 48q18 75 -28.5 109t-151.5 0q-73 -23 -134 -77t-100.5 -124t-63.5 -145t-30 -148z" />
<glyph unicode="f" horiz-adv-x="612" d="M-145 -553q-54 0 -98 10.5t-71 28t-45 39t-24.5 44t-6 42t8.5 33.5q14 25 28.5 37.5t26 13.5t20.5 -2t14 -7l5 -5q16 -16 28.5 -41t16.5 -42l4 -18q12 -43 35 -64t49.5 -22t57.5 4q52 12 86.5 54t54.5 149q94 458 227 1225q4 26 -16 28q-63 4 -129 0h-8.5t-13 6t-5.5 17 l6 29q0 2 1.5 5.5t9.5 8.5t22 4q63 -6 129 0h2.5t6 2t8 5t7 9t5.5 15l22 129q1 7 4 18.5t15 45.5t27 65t43 69t60.5 65t81.5 45.5t105 18.5q54 0 98 -10.5t71 -27.5t45 -38t24.5 -43t6 -41.5t-8.5 -33.5q-14 -25 -28.5 -37.5t-26 -13.5t-20.5 2t-14 8l-5 4q-16 16 -28.5 41 t-16.5 42l-4 17q-17 60 -53.5 75.5t-88.5 4.5q-52 -12 -86.5 -53.5t-54.5 -146.5l-39 -205q-3 -14 1.5 -21.5t10.5 -8.5l6 -1q50 -3 109 -3t93 1l34 2q13 1 19 -3.5t6 -9.5v-5l-5 -29q-2 -12 -10 -18t-15 -5h-7q-51 3 -110 3t-92 -1l-34 -2q-11 -1 -18.5 -8.5t-9.5 -14.5 l-1 -7q-43 -212 -119 -617.5t-100 -531.5q-1 -7 -3.5 -18.5t-14 -46t-26 -65.5t-41.5 -68.5t-59 -65t-80.5 -46t-104.5 -18.5z" />
<glyph unicode="g" horiz-adv-x="995" d="M297 -565q-77 0 -141.5 14.5t-101 34.5t-62 40.5t-34.5 35.5l-9 14q-60 110 0 227q48 91 114 124t99 9q26 -27 25 -50.5t-15 -39.5l-14 -16q-21 -21 -45 -33q-20 -10 -39.5 -31t-28.5 -38q-23 -58 -14.5 -99t39.5 -66.5t64.5 -40t59.5 -19.5l27 -5q71 -7 127.5 -2 t100.5 19.5t76.5 33.5t55 39.5t36.5 38t20 28.5l6 11q32 53 36.5 100t-16.5 82.5t-55 64.5t-84 51t-97.5 37t-100.5 26q-72 15 -124.5 33t-76.5 33t-38 28t-15 21l-2 7q-20 100 161 185q21 6 -6 22q-78 51 -100 156q-21 99 9.5 198.5t94 173.5t153 121.5t181.5 49.5 q128 3 213 -82q18 -18 35 -8q22 10 82 43q59 28 99.5 26t62 -21.5t22.5 -47.5q0 -40 -17.5 -61.5t-34.5 -23.5l-17 -1q-17 0 -36 9t-30 18l-10 9q-33 20 -90 -4q-20 -8 -13 -22q42 -84 -2 -234t-135 -227q-67 -61 -134 -87t-171 -26q-53 -1 -91.5 -10t-55.5 -21.5t-27 -24 t-11 -19.5l-1 -9q0 -28 21.5 -47t51.5 -26q63 -14 166 -34t178 -38q109 -26 151.5 -91t25.5 -177q-15 -78 -50.5 -141t-80 -101.5t-95.5 -67t-99 -41.5t-87 -20.5t-63 -8.5zM477 369q97 21 163 131.5t69 244.5q2 130 -60 203.5t-160 50.5q-65 -14 -117.5 -68.5t-82 -135 t-31.5 -172.5q-3 -129 59.5 -203t159.5 -51z" />
<glyph unicode="h" horiz-adv-x="1105" d="M766 -39q-46 0 -76.5 15t-44 37.5t-17 60t0 70.5t12.5 81q32 134 67.5 318t49.5 299q7 70 -8.5 104.5t-77.5 34.5q-20 0 -53.5 -12.5t-82.5 -46.5t-94.5 -84.5t-89.5 -137.5t-69 -194q-36 -223 -43 -268q-19 -152 -19 -207q-1 -1 0.5 -9.5t-5.5 -16.5t-23 -5 q-64 6 -134 0q-13 -2 -16.5 7t4.5 34q33 71 119 498q22 103 135 759q11 119 -22 132q-21 7 -82 -3q-13 -1 -15 5q-6 30 19 34q94 10 221 47l39 11q1 -1 6.5 0.5t10.5 -6t1 -23.5q-15 -62 -34 -154t-47.5 -233t-47.5 -231q-6 -28 6 -35.5t27 12.5q49 62 103.5 105t102 61.5 t81 25.5t61.5 7q54 0 89 -14.5t52 -37t20.5 -60.5t-0.5 -72.5t-15 -86.5q-56 -268 -99 -557q-26 -182 43 -182q33 0 66 34t52 71t41 88t26 59q8 15 26 8q15 -6 12 -22q-83 -320 -278 -320z" />
<glyph unicode="i" horiz-adv-x="616" d="M403 1311q-43 0 -73.5 30.5t-30.5 73.5t30.5 74t73.5 31t74 -31t31 -74t-31 -73.5t-74 -30.5zM276 -39q-59 0 -95 30.5t-44 80.5q-8 58 13 153q46 189 102 549q11 80 0.5 123.5t-26.5 46.5l-17 4q-50 0 -129 -155q-11 -22 -29 -13q-15 6 -10 27q32 114 93.5 172.5 t129.5 58.5q62 0 99 -35.5t40 -82.5q4 -46 -6.5 -107.5t-33.5 -157t-33 -151.5q-21 -113 -41 -279q-19 -182 41 -182q27 0 53 20t47 54.5t36 65t30 67t20 45.5q3 6 11 8.5t16 -0.5q16 -6 12 -22q-83 -320 -279 -320z" />
<glyph unicode="j" horiz-adv-x="600" d="M457 1311q-43 0 -74 30.5t-31 73.5t31 74t74 31t73.5 -31t30.5 -74t-30.5 -73.5t-73.5 -30.5zM-180 -561q-15 0 -21 4q-8 8 -4 27q4 20 17 20q39 0 91.5 17.5t86.5 48.5l12.5 12.5t27 36t39.5 64t38 91t34 123.5q101 511 162 889q11 81 0.5 125t-27.5 47l-16 4 q-50 0 -129 -155q-4 -8 -13.5 -11.5t-15.5 0.5q-16 8 -10 25q32 114 93.5 172.5t129.5 58.5q61 0 97 -35t43 -83q5 -22 -0.5 -59.5t-22 -110.5t-20.5 -95q-66 -313 -144 -770q-24 -117 -92 -223l-1 -2q-82 -114 -188 -174q-84 -47 -167 -47z" />
<glyph unicode="k" horiz-adv-x="1052" d="M713 -39q-65 0 -102.5 33.5t-37.5 81.5q0 34 16.5 128t18.5 109q0 4 1 10t1.5 25t0 37t-4 40.5t-9.5 41t-18 34.5t-28.5 23.5t-41.5 5.5t-56 -16q-36 -17 -74.5 -32t-69.5 -26t-39 -14l-32 -204q-17 -133 -17 -207v-10t-7.5 -15t-23.5 -6q-57 6 -131 0q-14 -2 -17.5 9.5 t5.5 31.5q16 35 55 201q122 581 195 1061q15 116 -21 131q-20 10 -81 0q-15 -2 -17 8q-4 24 21 28q92 11 219 48l41 10q1 -1 6.5 0.5t10.5 -6t1 -23.5q-61 -242 -129 -610q-6 -25 6 -28.5t23 13.5q69 86 162 132.5t166 46.5q90 0 126.5 -36t28.5 -102q-30 -199 -248 -327 q-4 -3 -4 -6.5t2 -5.5l2 -3q17 -9 32.5 -23t35.5 -42t31 -65.5t18 -93t-4 -124.5q-10 -75 -5.5 -115.5t15.5 -53.5t31 -13q27 0 53 20t47 54.5t36 65t30 67t20 45.5q8 16 25 8q17 -7 14 -22q-83 -320 -278 -320zM274 512q8 2 23 6t58 18.5t83 32t90.5 47t89.5 63t70.5 80.5 t42.5 99q14 72 -7.5 105t-76.5 20q-31 -8 -66 -24.5t-83.5 -53.5t-89 -86t-78 -129.5t-56.5 -177.5z" />
<glyph unicode="l" horiz-adv-x="563" d="M221 -39q-63 0 -100 33.5t-39 81.5q-2 70 33 231q33 158 91.5 484.5t86.5 511.5q16 117 -21 131q-19 10 -82 0q-12 -2 -14 10q-4 22 19 26q92 11 219 48l39 10q1 -1 7 0.5t11.5 -6t1.5 -23.5q-62 -251 -130 -620t-107 -648q-21 -188 40 -188q27 0 53 20t47.5 55t35.5 64 t30 67.5t19 45.5q6 13 22 10q0 -2 4 -2q8 -4 11 -8.5t4 -8.5v-5q-86 -320 -281 -320z" />
<glyph unicode="m" horiz-adv-x="1650" d="M1311 -39q-113 0 -140 117q-4 26 -0.5 60t9.5 62l6 29q66 284 108 592q9 75 -9.5 107.5t-74.5 32.5q-6 0 -17 -1t-43.5 -11t-63.5 -26.5t-71.5 -52t-72.5 -84t-61.5 -126.5t-44.5 -175q-54 -331 -54 -454q1 -4 0.5 -10t-7.5 -15t-23 -6q-57 6 -131 0q-4 -1 -8 -0.5 t-10.5 9t5.5 32.5q15 33 54 197q64 299 106 583q8 75 -7.5 107.5t-74.5 32.5q-6 0 -16.5 -1t-41.5 -11t-61 -26.5t-69.5 -52t-73 -83.5t-65.5 -125.5t-52 -172.5q-22 -122 -40 -259t-15 -199v-10t-8.5 -15t-24.5 -6q-55 6 -129 0q-4 -1 -8 -0.5t-10 9t6 32.5q14 33 51 197 q52 215 102 534q11 80 0.5 123.5t-27.5 46.5l-16 4q-53 0 -129 -155q-8 -15 -24 -9q-18 6 -15 23q32 114 94 172.5t130 58.5q48 0 77.5 -13.5t42 -42t16 -53t3.5 -65.5q0 -32 24 -15q12 8 25 25q56 71 142 117t169 47q168 0 166 -169v-5q0 -34 27 -12q11 9 20 22 q56 71 142.5 117t169.5 47q83 0 124.5 -37t43.5 -86q0 -44 -19 -143q-37 -177 -94 -539q-13 -89 -1 -138.5t42 -49.5q27 0 53 20t47 54.5t36 65t30 67t20 45.5q8 16 25 8t14 -22q-83 -320 -278 -320z" />
<glyph unicode="n" horiz-adv-x="1128" d="M788 -39q-113 0 -139 115q-5 11 -3 36t4 37.5t7 38t7 37.5q90 457 108 596q0 1 1.5 11t2 15.5t1.5 17t0 19t-3 19t-6 18.5t-11 15.5t-16.5 13t-23 8t-29.5 3.5q-6 0 -16.5 -1t-41.5 -11t-61.5 -26.5t-70.5 -52.5t-73 -84.5t-65.5 -127t-52.5 -175.5q-33 -210 -37 -243 q-18 -147 -16 -209v-10t-8.5 -15t-24.5 -6q-55 6 -129 0q-4 -1 -8 -0.5t-10 9t6 32.5q14 33 53 197q55 248 100 532q11 81 0.5 125t-27.5 47l-16 4q-33 0 -69.5 -50.5t-59.5 -104.5q-6 -16 -24 -9q-17 7 -14 23q32 114 93.5 172.5t129.5 58.5q46 0 75.5 -14.5t42.5 -42.5 t17 -53.5t4 -63.5q0 -43 39 -1q1 1 10 11q36 46 81.5 79.5t84.5 49t72.5 24.5t53.5 10l19 1q83 0 124.5 -37t43.5 -86q0 -69 -18 -143q-30 -146 -49 -246q-5 -28 -45 -293q-13 -78 -4 -120t20.5 -55t26.5 -13q23 0 46 15.5t40 37t34.5 54.5t27 55.5t21.5 53t15 36.5t9 8 t11 1l5 -1q17 -6 14 -22q-83 -320 -279 -320z" />
<glyph unicode="o" horiz-adv-x="1028" d="M401 -39q-149 -8 -239.5 66t-110.5 225q-15 118 0 231.5t66 215t121.5 179t166.5 124.5t201 51q86 2 154 -25t109.5 -77t67.5 -117.5t28 -146.5t-9 -165q-38 -241 -184 -393.5t-371 -167.5zM492 27q85 22 159.5 107.5t120.5 212t49 261.5q4 191 -86.5 303.5t-218.5 77.5 q-85 -22 -160 -105t-121.5 -207t-48.5 -259q-3 -196 88 -311t218 -80z" />
<glyph unicode="p" horiz-adv-x="1134" d="M-152 -559q-9 -1 -11.5 6t-0.5 14l2 7q2 4 5.5 7t6.5 4l3 1q34 5 58 13t31 13l7 5q26 20 57 116q55 228 120 573t99 570q1 6 3 17t4.5 38.5t2 49.5t-6.5 42.5t-19 24.5q-19 8 -78 0q-16 -2 -18 10q-5 25 20 27q125 16 254 59q3 1 6.5 0.5t8.5 -7.5t1 -23l-8 -45 q-4 -12 2 -15q3 -4 11 4q60 46 124.5 71.5t99.5 27.5l34 2q58 0 107.5 -13t84 -35.5t63 -51t46.5 -60.5t31 -63.5t19 -60t10 -51t5 -35.5v-13q3 -100 -13 -188.5t-45 -153.5t-69.5 -120.5t-81.5 -92.5t-87 -66t-81 -44.5t-67 -24.5q-58 -16 -114 -17t-98.5 9.5t-72.5 24 t-49 28.5q-23 17 -31 14q-7 -5 -10 -16q-41 -230 -63 -396q-3 -35 -1.5 -71t13.5 -45q25 -21 86 -31q10 -2 10 -12q0 -3 -1 -8t-6 -12.5t-13 -6.5q-70 16 -201 16q-57 0 -104.5 -4t-66.5 -8zM526 31q39 12 80 34t91.5 70t89 112t64.5 166t26 224q0 17 -2 45.5t-19.5 97 t-46.5 117.5t-91.5 79t-146.5 9q-28 -7 -54 -21t-45.5 -31t-38 -41.5t-31 -45.5t-25 -51.5t-20 -51.5t-16 -53t-12.5 -48.5t-10 -45.5t-8 -37l-26 -149q-3 -19 -5.5 -49.5t2.5 -106t25 -128.5t76 -86t143 -9z" />
<glyph unicode="q" horiz-adv-x="1132" d="M465 -563q-8 -2 -10 4t0 13l2 7q1 5 4 8.5t5 4.5h3q35 5 59.5 12.5t31.5 12.5l7 5q30 24 54 117q50 189 92 430q3 15 -8 21q-13 5 -31 -13q-27 -27 -62.5 -47.5t-66.5 -29.5t-58 -14.5t-43 -5.5l-16 -1q-75 0 -136 21.5t-98.5 56.5t-65 76.5t-39.5 83.5t-19.5 77t-7.5 56 l-1 22q1 117 26.5 218t64.5 169t86.5 122.5t94.5 85.5t86 52t63 28l24 7q119 24 198.5 12t126.5 -51q36 -28 64 -18q28 12 56 25.5t41 21.5l14 8q13 8 19.5 0t4.5 -16q-71 -290 -137 -649q-74 -405 -123 -748q-5 -35 -0.5 -70t14.5 -47q12 -18 84 -30q11 -1 11 -13 q0 -3 -1 -7.5t-6.5 -11.5t-13.5 -5q-68 14 -201 16q-59 -1 -107 -5t-66 -8zM528 29q50 12 91.5 48t67 77t47 99.5t31 95t20.5 83.5q2 10 3 14l27 152q1 6 2.5 16t5 42t3 60t-4 69.5t-16 71t-31.5 64t-52 48t-77.5 24.5t-107.5 -8q-6 -1 -17 -4.5t-43 -21.5t-61 -42.5 t-65.5 -73.5t-63 -110t-46 -155.5t-22.5 -206.5q-1 -17 0.5 -44.5t16.5 -95t43.5 -115t93.5 -77.5t155 -10z" />
<glyph unicode="r" horiz-adv-x="907" d="M113 0q-4 -1 -8 -0.5t-10.5 9t5.5 32.5q19 39 54 201q38 195 57 272l43 256q11 81 0.5 125t-26.5 47l-17 4q-17 0 -35.5 -14.5t-38 -44.5t-28.5 -46.5l-27 -49.5q-3 -6 -11.5 -9t-15.5 0q-16 6 -12 23q32 114 93.5 173.5t129.5 59.5q140 0 140 -157q0 -13 4 -16t8 0l4 3 q30 27 48.5 43t59 47.5t83.5 54t85 34.5q52 15 100 -2.5t48 -63.5q1 -25 -6 -43.5t-17 -26.5t-20.5 -12.5t-17.5 -4.5l-7 -1q-22 0 -46.5 9.5t-37.5 18.5l-14 9q-47 29 -109 4q-43 -18 -109 -85t-83 -136l-43 -185q-36 -182 -45 -288q-17 -133 -17 -209q1 -4 0.5 -9.5 t-7.5 -14.5t-23 -7q-57 8 -131 0z" />
<glyph unicode="s" horiz-adv-x="811" d="M428 6q-61 -29 -118 -39t-94.5 -4.5t-67 15.5t-42.5 20l-14 10q-27 21 -30.5 45t10.5 74q11 43 18 109q3 22 33 22q10 0 12 -6t-2 -21q-14 -94 4 -138q14 -33 45 -50q47 -26 107.5 -20.5t111.5 40.5q73 57 92 158.5t-32 153.5q-17 17 -74 72t-97.5 98t-56.5 69 q-44 73 -34.5 151t49 142t109 105t145.5 41q26 2 71 -2q139 -17 158 -17q13 0 17 -10q2 -7 -3 -18q-21 -39 -27.5 -57t-10.5 -50l-7 -51q-5 -21 -30 -21q-18 0 -15 17l2 20q2 50 -20.5 84.5t-65.5 44.5q-6 1 -16 3t-38 3t-53 -3t-54.5 -20.5t-49.5 -43.5q-109 -156 95 -320 q7 -6 31 -25t33 -26.5t29 -26t29 -30t23.5 -31.5t21.5 -38.5t13 -42.5t8 -50q8 -106 -59 -200.5t-156 -135.5z" />
<glyph unicode="t" horiz-adv-x="657" d="M254 -39q-62 0 -96.5 32.5t-42.5 82.5q-7 39 8 110q19 83 71 372.5t60 369.5q2 10 -1 16.5t-7 7.5l-4 2q-28 3 -64 3t-58 -1l-22 -2q-9 0 -13 6t-3 12v5l4 22q2 11 8.5 17.5t12.5 7.5h6q60 -6 123 0q31 4 38 29q13 39 41 215q0 2 1.5 5t9 7.5t18.5 3.5q39 -4 80 0 q23 0 18 -31l-36 -200q-2 -13 2.5 -20t9.5 -8l6 -1q33 -3 68.5 -3t55.5 1l19 2q15 2 22 -2.5t7 -9.5v-6l-6 -29q-3 -13 -11.5 -18.5t-16.5 -4.5h-7q-33 4 -68.5 4t-54.5 -2l-20 -2q-26 -4 -29 -20q-23 -90 -69.5 -378.5t-49.5 -352.5q-5 -42 -2 -71.5t7.5 -47t12.5 -26.5 t14 -12t13 -3q27 0 53 20t47.5 55t35.5 64t30 67.5t19 45.5q7 15 28 8q17 -7 13 -22q-86 -320 -281 -320z" />
<glyph unicode="u" horiz-adv-x="1179" d="M838 -39q-63 0 -101.5 34t-38.5 81v16q0 12 -6 12q-7 0 -14 -10q-26 -37 -73.5 -68t-104.5 -46q-148 -37 -237 -3t-123 112.5t-15 189.5l86 495q10 87 0.5 126t-25.5 44l-16 4q-54 0 -129 -153q-9 -18 -27 -9q-18 7 -14 23q32 113 93.5 171t129.5 58q62 0 97 -34.5 t42 -81.5q5 -57 -14 -150q-42 -219 -86 -481q-2 -13 -3.5 -25t-2 -35.5t1 -43.5t8 -45t17 -43.5t29.5 -35t44.5 -24.5t62.5 -7t83 13q33 11 62 28.5t51 37t41.5 49t33 53t26 60.5t19 61t14.5 65t11.5 61t9.5 61t8 54q10 70 39.5 248t32.5 185q2 7 8.5 11t12.5 5h6 q49 -4 104 0q8 1 11 -5t2 -12l-1 -6q-28 -126 -79.5 -412t-63.5 -374q-24 -172 43 -172q20 0 39 10.5t36 31t31 40.5t28 49.5t21.5 47.5t18 44.5t12.5 30.5q5 13 25 6q18 -6 14 -20q-85 -322 -280 -322z" />
<glyph unicode="v" horiz-adv-x="1044" d="M397 -39q-14 0 -14 12l-2 31q-10 109 -48.5 363.5t-64.5 398.5q-25 182 -75 182q-55 0 -130 -153q-8 -17 -26 -9q-19 8 -14 23q32 113 93.5 171t129.5 58q67 0 100.5 -29t38.5 -89q5 -70 51.5 -363t65.5 -397q4 -22 26 0q27 27 56 60t78 95t94.5 142t74.5 161 q29 92 15 164q-16 83 -76 99q-57 10 -84 30q-2 2 -5.5 4.5t-9 12.5t-5.5 21t10.5 27.5t32.5 33.5q16 11 41 13.5t54.5 -7.5t57 -30.5t49 -59t29.5 -88.5q8 -55 -16 -147.5t-56 -158.5q-131 -273 -340 -512q-13 -13 -30 -16q-39 -8 -72 -31q-15 -12 -29 -12z" />
<glyph unicode="w" horiz-adv-x="1601" d="M379 -39q-12 0 -12 12q0 22 -21.5 194t-48 371.5t-29.5 227.5q-9 73 -25 116.5t-28 54.5t-25 11q-54 0 -129 -153q-8 -16 -26 -9q-17 7 -12 23q31 114 92 171.5t131 57.5q64 0 98 -31.5t39 -86.5q5 -59 42 -345.5t48 -359.5q3 -9 10.5 -8t12.5 10q108 227 131 277 q50 107 219 505q5 13 12 19t12 6h4q26 -2 46 0q8 1 12 -6t6 -19q11 -111 57.5 -398t71.5 -419q1 -6 5.5 -9.5t12.5 -0.5t17 14q205 223 287 449q25 81 12 149q-16 84 -76 99q-57 10 -82 30q-2 2 -5.5 4.5t-9 12.5t-5.5 21t10.5 27.5t32.5 33.5q15 11 40 13.5t54.5 -7.5 t57 -30.5t49.5 -59t30 -88.5q16 -98 -74 -295q-116 -263 -342 -525l-2 -3q-2 -3 -4 -5t-6 -4.5t-8 -3.5q-37 -6 -72 -31q-15 -12 -26 -12q-17 0 -17 12q0 30 -2 50q-26 239 -108 712q-2 8 -9.5 10t-13.5 -8q-23 -45 -115 -239q-128 -270 -200 -445l-13 -33q-4 -10 -16 -14 q-34 -11 -55 -29q-16 -16 -35 -16z" />
<glyph unicode="x" horiz-adv-x="1107" d="M793 -39q-60 0 -92 30.5t-54 86.5q-7 18 -62.5 181.5t-74.5 217.5q-2 10 -12 10q-8 0 -15 -10l-34 -45q-43 -58 -116 -162.5t-119.5 -165.5t-84.5 -94q-22 -20 -47.5 -24.5t-45.5 3.5t-38 25q-24 26 -15.5 49t31.5 21q7 -4 27 0t42 12.5t57 41t73 83.5q21 28 238 320 q2 2 3.5 5.5t4.5 14.5t-2 19q-44 134 -103 270q-37 98 -69 98q-54 0 -129 -153q-3 -6 -11.5 -9t-15.5 0q-15 6 -12 23q31 114 92 171.5t131 57.5q60 0 87 -28.5t48 -87.5q16 -45 39 -117t39 -117q6 -14 14 -14q10 0 19 12q174 251 237 309q62 59 117 -4q38 -43 19 -76 q-13 -23 -34 -16q-8 2 -14 10t-9.5 11.5t-14 5.5t-21.5 -4.5t-31.5 -26t-46.5 -51.5q-4 -4 -36 -43.5t-74.5 -95t-63.5 -87.5q-11 -17 -6 -38q4 -18 66 -186.5t94 -243.5q26 -60 41 -79.5t29 -19.5q36 0 72.5 44t56.5 112q3 13 24 6q18 -7 15 -20q-33 -116 -89 -174 t-124 -58z" />
<glyph unicode="y" horiz-adv-x="995" d="M0 -563q-82 -4 -146 51.5t-59 103.5q4 37 24.5 51.5t38.5 10.5l19 -4q17 -7 32.5 -23t22.5 -29l7 -12q24 -40 61 -51q23 -6 44.5 -3.5t37.5 8.5l16 5q72 30 124.5 94.5t80 148t42.5 182.5t14 201t-7.5 202t-19.5 187t-24 154t-20 106l-9 38q-20 90 -68 90q-18 0 -37 -15 t-38 -44.5t-28.5 -47t-25.5 -48.5q-3 -6 -12 -8t-15 1q-17 7 -14 21q32 114 93.5 172.5t129.5 58.5q34 0 63 -18.5t45.5 -45t28 -53t15.5 -45.5l4 -18q47 -210 64 -422.5t10 -349.5q-3 -27 11 -26q22 3 52 65q106 214 186 506q23 111 11 157q-9 39 -30 64t-50 29 q-57 10 -84 28q-2 2 -5.5 4.5t-9.5 12.5t-6 21t9.5 27.5t31.5 33.5q19 16 50 16t63.5 -15.5t62 -58t41.5 -104.5q6 -35 0 -92q-9 -86 -39 -181q-23 -87 -50.5 -172t-76 -200t-104.5 -217.5t-138.5 -213t-176.5 -198.5q-21 -21 -45 -39q-107 -89 -197 -96z" />
<glyph unicode="z" horiz-adv-x="1019" d="M737 -16q-267 16 -395 16q-24 0 -57 -1.5t-80.5 -4.5t-81.5 -4q-24 -1 -52 -4t-29.5 -2.5t-14.5 2.5q-14 8 0 28q179 210 391 494q242 320 297 401q29 41 -8 45q-166 16 -277 4q-92 -8 -111 -32q-35 -33 -53 -111q0 -12 -20 -12h-7t-10 4t-4 12l6 15q17 76 17 167 q-2 11 3 17t11 6h6q156 -6 269 -6q177 0 360 6q28 2 38 -9.5t-13 -37.5q-35 -35 -79.5 -89.5t-78 -99.5t-100.5 -136t-107 -144q-242 -320 -305 -408q-8 -12 -3 -20t21 -10q51 -5 139.5 -9t150.5 -5l63 -1q56 -1 94 8t49 18l10 9q27 34 41 90q10 39 23 39q1 -1 10 0 t16.5 -4.5t3.5 -17.5q-39 -89 -47 -148l-2 -29q-2 -8 -6.5 -15t-8.5 -10l-3 -3q-7 -6 -23.5 -8t-29.5 -1z" />
<glyph unicode="{" horiz-adv-x="630" d="M344 -389q-5 0 -14.5 0.5t-35.5 5t-49 12.5t-49.5 25t-43.5 41q-3 4 -8 11.5t-14 38t-11 69.5t8.5 109t36.5 153q10 33 24 83.5t37 149t21 129.5v9t-7 21t-20.5 26.5t-45.5 22.5t-77 13q-2 0 -5 0.5t-7 5.5t-2 13l4 22q2 17 20 17q46 2 82 12.5t54.5 23.5t30.5 26t15 22 l3 8q13 31 26 121.5t20 165.5l7 75q4 83 18.5 152.5t32.5 110t35.5 69t29.5 38.5l11 11q41 37 97 58t92 23l36 3q8 0 12 -4.5t4 -8.5l1 -5l-6 -33q-1 -6 -6.5 -9.5t-10.5 -4.5h-6q-44 -5 -79 -23t-54 -40.5t-32 -44t-17 -36.5l-4 -14q-15 -51 -28 -172t-18 -216l-6 -95 q-4 -47 -23 -88t-42 -66t-52.5 -46t-46.5 -28.5t-32 -13.5q9 -4 18 -8.5t24 -15.5t27.5 -23.5t24.5 -32.5t18 -42.5t5 -54t-11 -65.5q-117 -368 -127 -483q0 -3 -0.5 -8t0 -20t4 -29t12 -31.5t22 -30.5t36.5 -24t53 -15q2 0 5.5 -0.5t9 -4t4.5 -9.5l-6 -33q-7 -18 -25 -18z " />
<glyph unicode="|" horiz-adv-x="679" d="M127 -408q-12 0 -18.5 8t-4.5 19l371 1997q5 20 31 20h51q13 0 17 -4t1 -16l-370 -1997q-4 -27 -27 -27h-51z" />
<glyph unicode="}" horiz-adv-x="610" d="M-86 -389q-8 0 -12 4.5t-4 8.5v5l6 33q1 6 6.5 9.5t10.5 4.5h5q43 5 78 23t54 40.5t32 44t17 36.5l4 14q15 51 27.5 172t17.5 216l6 95q5 58 30.5 105.5t62 75t60.5 41t45 20.5q-9 3 -18.5 8t-25 16t-28 23.5t-24.5 32.5t-18 42.5t-5 54t11 65.5q117 368 127 483 q1 6 1.5 15.5t-4 34.5t-15.5 45t-38.5 39t-68.5 24q-2 0 -5.5 0.5t-8.5 4t-4 9.5l6 33q6 18 24 18q5 0 14.5 -0.5t36 -5t49.5 -12.5t49.5 -25t43.5 -41q3 -4 8 -11.5t13.5 -38t10 -69.5t-9.5 -109t-37 -153q-9 -33 -23 -83.5t-36 -149t-20 -129.5q0 -2 -0.5 -5t1.5 -12 t6 -17t14.5 -18.5t25.5 -18t41 -13.5t59 -8q8 0 12 -4t4 -8v-5l-4 -22q-2 -8 -7.5 -12.5t-10.5 -5.5l-4 -1q-46 -2 -82 -12.5t-54.5 -23.5t-30 -26t-13.5 -22l-3 -8q-13 -31 -26.5 -121.5t-20.5 -165.5l-8 -75q-4 -83 -18.5 -152.5t-32 -110t-34.5 -69t-29 -38.5l-11 -11 q-41 -37 -97 -58t-92 -23z" />
<glyph unicode="~" horiz-adv-x="972" d="M604 670q-50 0 -92 12.5t-66 27.5t-59 27.5t-74 12.5q-83 0 -155 -76q-10 -7 -19 -5t-15 7l-5 6l-13 18q-13 19 5 37q46 49 112 82t133 33q55 0 104.5 -20t95 -40t91.5 -20q82 0 146 68q9 10 20 12.5t18 -0.5l7 -2l18 -10q10 -5 12.5 -14t-0.5 -15l-2 -6 q-42 -58 -114.5 -96.5t-147.5 -38.5z" />
<glyph unicode="&#xa1;" horiz-adv-x="405" d="M283 834q-44 -1 -69 28t-17 72q9 44 43.5 73t78.5 31q43 0 67 -29t17 -73q-9 -43 -43.5 -72.5t-76.5 -29.5zM-2 -473q-19 -2 -30 10.5t-7 30.5v6q1 3 18 72.5t40.5 170t54.5 232.5t69 304t74 341q1 13 13 23t26 10q13 0 21 -9.5t6 -23.5q-66 -498 -115 -995 q-2 -16 -25 -53q-44 -72 -120 -113q-12 -6 -25 -6z" />
<glyph unicode="&#xa2;" horiz-adv-x="933" d="M639 1053q62 2 111 -7t79 -26t50.5 -38.5t27 -44.5t6.5 -43.5t-8 -35.5q-17 -36 -40.5 -45t-38.5 -1l-15 9q-16 13 -28 38t-15 44l-4 19q-17 71 -133 71h-10l-179 -962q46 -6 101 6q76 18 137 63.5t100 96.5q12 18 27 6q11 -11 9 -23.5t-11 -23.5q-75 -99 -172 -147 t-191 -48h-12l-16 -84q-4 -27 -27 -27h-51q-12 0 -18.5 8t-4.5 19l19 96q-200 51 -240 277q-30 178 19.5 345t160 282.5t256.5 156.5l21 111q5 20 31 20h51q13 0 17 -4t1 -16l-16 -92h6zM350 72l166 897q-118 -52 -195 -198t-83 -359q-6 -245 112 -340z" />
<glyph unicode="&#xa3;" horiz-adv-x="1148" d="M10 18q-1 2 -3 5.5t-4.5 14.5t-0.5 22t12 26t29 29q90 55 168 147q4 4 11 13.5t27.5 44.5t38.5 78t39 118t35 160q0 10 -12 10h-192q-9 0 -14.5 7.5t-4.5 17.5l6 39q7 24 29 24h184q17 0 21 12q1 7 5.5 45.5t8.5 66t16 76.5t28 88t45.5 89t66.5 91t93 83t124 74 q10 5 26.5 11.5t62 20t84 18t79.5 -6.5t61 -43q2 -3 3.5 -8t4 -20.5t-5.5 -29.5q-22 -63 -45 -73q-3 -2 -9.5 -3t-27.5 9.5t-43 36.5q-3 4 -9 10.5t-27.5 19.5t-45 18t-61 -3.5t-76.5 -34.5q-5 -3 -13 -10.5t-31.5 -38t-43.5 -70t-43 -110.5t-37 -156l-26 -152q0 -10 16 -10 h352q11 0 16.5 -7t2.5 -17l-6 -39q-1 -10 -9.5 -17.5t-19.5 -7.5h-350q-8 -1 -13.5 -4t-6.5 -6l-1 -2l-6 -39q-2 -10 -5.5 -26.5t-21.5 -66t-42.5 -96.5t-72 -107t-106.5 -108q-12 -12 -3 -14q2 -1 5 0q166 23 369 -106q2 -1 6 -3.5t16.5 -9.5t25 -12.5t30.5 -11.5t34.5 -9 t36 -2t35.5 7q3 1 8 3.5t18 12t22 21t15.5 32.5t4.5 45q-5 74 18 101q2 2 6.5 5.5t18 8.5t26.5 4t31 -12t33 -35q2 -3 5 -9t2 -27.5t-13 -46t-50 -63.5t-98 -81q-10 -6 -27.5 -15t-71.5 -24.5t-108.5 -17.5t-130.5 20.5t-145 75.5q-4 3 -10.5 8t-30 18.5t-49.5 19.5 t-68 10.5t-86 -7.5q-10 -1 -14 -5t-2 -10q6 -23 -27 -63l-7.5 -7.5t-17 -14.5t-23.5 -15t-23.5 -2t-20.5 18z" />
<glyph unicode="&#xa4;" horiz-adv-x="868" d="M168 367l-51 34q-8 6 -10 16.5t4 16.5l39 51q8 13 8.5 27t-2.5 22l-4 7q-50 79 -50 168q0 91 50 170q16 26 -2 55l-39 51q-6 6 -4 16.5t10 16.5l51 35q6 5 16.5 3t16.5 -9l26 -37q9 -13 19.5 -16t17.5 0l6 3q73 43 164 43q96 0 166 -43h2q23 -16 41 13l27 37q13 17 35 6 l49 -35q7 -6 8.5 -16.5t-4.5 -16.5l-33 -51q-9 -13 -10 -26.5t3 -21.5l3 -7q45 -71 45 -170q0 -97 -45 -168q-16 -27 4 -56l33 -51q6 -6 4.5 -16.5t-8.5 -16.5l-49 -34q-9 -7 -19 -5t-16 11l-27 37q-8 11 -18.5 14t-16.5 0l-6 -2h-2q-70 -43 -166 -43q-91 0 -164 43 q-23 13 -43 -12l-26 -37q-6 -9 -16.5 -11t-16.5 5zM432 465q103 0 175.5 72.5t72.5 173.5q0 102 -72.5 172.5t-175.5 70.5q-100 0 -171 -70.5t-71 -172.5q0 -101 71 -173.5t171 -72.5z" />
<glyph unicode="&#xa5;" horiz-adv-x="1275" d="M1341 1446q11 1 15 -6.5t2 -15.5l-2 -7q-1 -3 -5 -5t-8 -2l-4 -1l-45 -6q-64 -11 -98 -45q-124 -156 -444 -580h143q9 0 14.5 -6.5t3.5 -15.5l-8 -43q-2 -9 -9.5 -16t-16.5 -7h-193l-31 -41q-25 -42 -28 -61l-4 -23h239q9 0 14.5 -6.5t4.5 -15.5l-9 -43q-2 -9 -9.5 -16 t-16.5 -7h-242q-5 -24 -20 -96.5t-21 -110.5q-3 -20 -7 -51.5t-2 -91.5t21 -76q17 -19 109 -31q12 -2 12 -8q0 -4 -0.5 -9t-6.5 -13t-17 -6q-65 14 -221 16q-70 -1 -131.5 -5t-87.5 -7l-27 -4q-11 -2 -15 5t-2 15l2 8q1 3 5 5t8 3h4q42 5 71.5 13t38.5 13l9 5q24 16 47 71 t34 102l11 46q35 167 43 207h-246q-9 0 -14.5 7t-3.5 16l8 43q1 9 9 15.5t17 6.5h242q-2 2 -2 8q-27 99 -31 117h-192q-9 0 -15 7t-4 16l9 43q1 9 9 15.5t17 6.5h150q-103 335 -193 590q-1 4 -6 10t-18.5 13.5t-32.5 11.5l-49 6l-13 8q0 3 0.5 8.5t6.5 13.5t16 7 q57 -14 194 -16q60 1 117.5 5t85.5 7l27 4q10 1 13.5 -6.5t1.5 -15.5l-1 -7q-2 -3 -6.5 -5t-8.5 -2l-3 -1q-14 -2 -41.5 -5t-40.5 -5q-25 -4 -36 -19t-9 -28l2 -13q58 -238 153 -561h80q297 406 394 549l3 7q3 6 5 12t3 15t-1 15.5t-9 13t-20 9.5q-11 2 -35.5 5t-34.5 5 q-12 2 -12 8q0 3 1 8.5t7.5 13.5t16.5 7q76 -16 213 -16q45 0 84.5 4t55.5 8z" />
<glyph unicode="&#xa6;" horiz-adv-x="565" d="M276 848q-7 0 -12 6t-4 14l100 541q3 11 10.5 18t14.5 7h59q23 0 17 -25l-101 -541q-3 -20 -24 -20h-60zM119 2q-6 0 -11 5.5t-4 12.5l101 541q1 11 8 18t14 7h60q21 0 18 -25l-100 -541q-4 -18 -27 -18h-59z" />
<glyph unicode="&#xa7;" horiz-adv-x="845" d="M70 45q-2 2 -3.5 6.5t-3.5 19.5t5 29q18 48 36 54q3 2 8 3.5t24.5 -8t43.5 -34.5q5 -4 13.5 -11t35 -19t53 -15.5t62.5 9.5t68 46q34 54 31.5 108t-30 103t-60 87t-59.5 61l-26 22q-68 64 -109 140t-50 138.5t-8.5 116t8.5 83.5l8 30q34 100 129 204.5t235 170.5 q9 4 25 10.5t58.5 19t79 16.5t75 -6t57.5 -40q2 -3 3.5 -7.5t4 -20t-5.5 -28.5q-15 -47 -35 -55q-2 -2 -7.5 -3.5t-25.5 8t-44 34.5q-5 5 -13.5 11.5t-35 19t-53 16t-62.5 -9.5t-68 -47q-33 -53 -30.5 -106.5t30.5 -103t60.5 -87.5t59.5 -61l26 -23q67 -59 107.5 -132.5 t50 -136.5t9 -118t-8.5 -87l-7 -32q-35 -101 -130 -205t-234 -170q-9 -4 -25 -10.5t-59 -19t-79 -16.5t-75 6t-59 40zM532 215q94 74 117 205q9 48 -3 105t-35.5 104.5t-48.5 87.5t-44 63l-18 23q-50 54 -86 108.5t-52.5 97t-26 83.5t-7.5 68t4 50v6t-4 8t-15 -5 q-94 -78 -116 -205q-9 -49 3 -106.5t35.5 -105t48.5 -87.5t44 -63l18 -23q51 -55 87.5 -110.5t53 -98.5t26 -84t7 -67.5t-3.5 -49.5q-1 -3 -0.5 -6.5t5 -3.5t11.5 6z" />
<glyph unicode="&#xa8;" horiz-adv-x="659" d="M186 1550q-35 0 -59.5 24.5t-24.5 59.5t24.5 59.5t59.5 24.5q34 0 59 -24.5t25 -59.5t-25 -59.5t-59 -24.5zM473 1550q-35 0 -58.5 24.5t-23.5 59.5t23.5 59.5t58.5 24.5q36 0 60 -24t24 -60t-24 -60t-60 -24z" />
<glyph unicode="&#xa9;" horiz-adv-x="1499" d="M645 -12q-196 0 -345.5 98.5t-216 266.5t-30.5 364q27 148 110 283.5t199 233t261 155t292 57.5q149 0 273.5 -57.5t203 -155.5t110.5 -232.5t5 -283.5q-27 -147 -109 -281.5t-197 -233t-261 -156.5t-295 -58zM662 80q130 0 256.5 50.5t227.5 135.5t173 203t96 248 q24 129 -4 246.5t-97.5 202.5t-178 135.5t-238.5 50.5q-129 0 -255.5 -50.5t-227 -135.5t-173 -202.5t-96.5 -246.5q-32 -173 26 -320t188.5 -232t302.5 -85zM633 326q-79 5 -135 30q-65 29 -102.5 91.5t-43.5 146.5q-5 80 23 163t84 156q57 74 133 126t162 73q56 16 120 16 q92 0 240 -36l27 -13q-3 -3 -5.5 -9.5t-3.5 -11.5l-2 -5q-24 -91 -24 -107q0 -1 -1.5 -5.5t-3.5 -8.5t-5.5 -7.5t-8.5 -4.5q-12 -2 -20 -2q-21 0 -26.5 7t-2.5 21q4 22 5 38t0 21l-1 5q0 14 -30 24q-58 23 -115 29q-98 6 -192.5 -40t-149.5 -134q-66 -91 -63 -227 q0 -123 69 -209q70 -70 168 -70h21q23 1 47.5 5t47.5 10t37.5 10.5t33.5 11t20 6.5q20 10 35 74q6 24 28 24h7q20 0 28 -12q5 -8 2 -18q-16 -48 -26 -103q-4 -18 -20.5 -27.5t-31.5 -11.5q-201 -35 -325 -26z" />
<glyph unicode="&#xaa;" horiz-adv-x="667" d="M242 936q-51 0 -88.5 20t-54.5 48t-26.5 56t-10.5 48l-1 20q0 58 12.5 107.5t32 82.5t43 59.5t46.5 41t42.5 24t31.5 12.5l12 3q37 10 66.5 5.5t46.5 -11.5t24 -16q6 -6 12 -6q5 0 8 10l2 8q1 5 4.5 7.5t7.5 2.5h3q49 -2 67 0q4 0 6 -2.5t2 -5.5v-2q-14 -64 -37.5 -209 t-29.5 -207q-2 -20 3 -30t11 -10l6 -1q18 0 39 33.5t35 75.5q3 7 9.5 8t23.5 -4q18 -5 16 -17q-13 -50 -30 -82t-37.5 -46t-38 -18.5t-41.5 -4.5q-26 0 -50 15t-32 32q-4 6 -7 8t-6.5 0.5t-5.5 -3t-6 -5.5q-17 -21 -44.5 -32.5t-46.5 -12.5zM291 997q36 9 59 43.5t29.5 60 t13.5 72.5q1 7 2 11l11 102q1 27 -2.5 49.5t-13.5 45.5t-34 32.5t-59 1.5q-5 -1 -13.5 -4.5t-31 -21.5t-39.5 -45t-32 -81.5t-17 -125.5v-6t1 -16t3.5 -22.5t6.5 -26.5t10.5 -26.5t16 -23.5t22 -17t29.5 -7.5t38 5.5z" />
<glyph unicode="&#xab;" horiz-adv-x="860" d="M752 924q8 -8 6 -19t-8 -21l-7 -10q-33 -49 -73.5 -105.5t-65.5 -88.5l-24 -31q-26 -35 -13 -63q47 -115 80 -226q15 -35 -8 -47q-21 -16 -31 0q-63 134 -157 273q-10 16 -7 32q2 14 19 31q64 64 128.5 132.5t96.5 105.5l33 37q7 7 15 7t12 -3zM492 922q8 -8 6 -19 t-8 -21l-7 -10q-33 -49 -74 -105.5t-65 -88.5l-25 -31q-25 -34 -12 -63q47 -115 80 -226q15 -35 -8 -47q-21 -16 -31 0q-64 134 -158 273q-9 15 -6 32q2 14 19 31q64 64 128.5 132.5t96.5 105.5l33 37q7 7 15 7t12 -3z" />
<glyph unicode="&#xac;" horiz-adv-x="1206" d="M965 113q-10 0 -17.5 6t-7.5 12v389q0 25 -25 25h-792q-8 0 -14.5 7t-6.5 17v56q0 7 6.5 13.5t14.5 6.5h901q7 0 12.5 -6t5.5 -14v-494q0 -6 -5.5 -12t-12.5 -6h-59z" />
<glyph unicode="&#xad;" horiz-adv-x="419" d="M23 553q-9 0 -16 6.5t-7 15.5v58q0 9 7 15.5t16 6.5h374q9 0 16 -6.5t7 -15.5v-58q0 -9 -7 -15.5t-16 -6.5h-374z" />
<glyph unicode="&#xae;" horiz-adv-x="1544" d="M647 -12q-148 0 -272 58t-203.5 155.5t-112.5 232.5t-6 283q36 197 165.5 365t316 266t383.5 98t346.5 -98t216 -266t30.5 -365q-27 -148 -110 -283t-199 -232.5t-261.5 -155.5t-293.5 -58zM664 80q130 0 257 50.5t228 135.5t173.5 203t96.5 248t-4 248t-97.5 203 t-178 135.5t-238.5 50.5q-173 0 -335.5 -85t-275.5 -232t-145 -320t26 -320t189 -232t304 -85zM399 319q-11 0 -20 9q-5 8 -4.5 15t2.5 9v2q9 17 31 17h-2q48 4 67 14q12 11 24.5 47t16.5 60l2 8l47 233q0 1 41 240q14 83 -2 102q-11 14 -61 19q-25 5 -25 16q0 15 12 27 q8 8 27 8q4 0 20 -2t47.5 -4t71.5 -2q10 0 22.5 0.5t23.5 1.5t20.5 2t15.5 1l6 1h-2q48 5 154 2q4 0 11.5 -0.5t28 -4t39 -10t39.5 -20.5t35 -33q46 -61 19 -159q-2 -6 -5.5 -17.5t-20.5 -42.5t-39.5 -58.5t-64.5 -59.5t-93 -52l22 -35q52 -88 166 -260q7 -11 16 -16l27 -10 q7 -2 10 -15q2 -9 -6 -22q-5 -8 -16 -8h-72q-66 0 -84 30q-109 191 -170 279l-10 16q-6 12 -21 15q-7 1 -19.5 2t-18.5 2q-30 7 -25 26q4 13 14.5 19.5t19.5 6.5l9 1q12 0 30 -1t26.5 -0.5t22 2t27 7.5t31.5 16q43 34 76 78q66 97 37 187l-3 6q-2 6 -5.5 12.5t-10.5 15 t-18 16.5t-25.5 14.5t-36 10.5t-47.5 4q-32 -2 -77 -12q-5 -8 -11 -28l-6 -27l-10 -45q-27 -124 -49 -242q-31 -162 -39 -233l-4 -17q-12 -85 4 -98q12 -8 61 -14h-2q7 0 16.5 -4.5t10.5 -12.5v-2q-1 -1 -2 -5t-4 -9.5t-8 -9.5q-9 -9 -23 -9h-2l-8 3q-39 6 -133 6 q-52 0 -95.5 -4.5t-48.5 -4.5z" />
<glyph unicode="&#xaf;" horiz-adv-x="569" d="M121 1561q-9 0 -15 7t-4 15l11 57q2 9 9.5 16t16.5 7h310q8 0 13.5 -7t4.5 -16l-10 -57q-1 -7 -10 -14.5t-17 -7.5h-309z" />
<glyph unicode="&#xb0;" horiz-adv-x="677" d="M342 1047q-100 0 -170 67t-70 166q0 100 70 170t170 70q94 0 163.5 -70.5t69.5 -169.5q0 -98 -69 -165.5t-164 -67.5zM342 1137q58 0 99.5 42t41.5 101q0 63 -41 106.5t-100 43.5q-63 0 -106 -43.5t-43 -106.5q0 -59 43 -101t106 -42z" />
<glyph unicode="&#xb1;" horiz-adv-x="1017" d="M479 186q-10 0 -17 7t-7 16v295q0 15 -11 24t-26 9h-291q-10 0 -17.5 7.5t-7.5 16.5v62q0 10 7 17t18 7h291q37 0 37 35v293q0 11 6.5 17.5t17.5 6.5h62q9 0 16.5 -7t7.5 -17v-293q0 -15 11 -25t26 -10h291q9 0 15.5 -7t6.5 -17v-62q0 -9 -6.5 -16.5t-15.5 -7.5h-291 q-15 0 -26 -9t-11 -24v-295q0 -9 -7.5 -16t-16.5 -7h-62zM127 0q-11 0 -18 7t-7 18v61q0 9 7.5 17t17.5 8h766q9 0 15.5 -8t6.5 -17v-61q0 -10 -6.5 -17.5t-15.5 -7.5h-766z" />
<glyph unicode="&#xb2;" horiz-adv-x="587" d="M12 799q-14 -2 -19 7t-1.5 20.5t12.5 17.5q161 124 255 212.5t130 140.5t57 110q27 80 18.5 128t-33.5 67.5t-66 19.5q-76 0 -142 -66q-11 -8 -26 -8q-22 0 -26 12.5t11 24.5q35 32 78.5 53.5t69.5 27.5l26 5q66 9 112 -5t67.5 -43t28.5 -70t1 -82.5t-22 -82.5 q-16 -38 -42.5 -75.5t-70 -81t-74 -71.5t-92 -81.5t-86.5 -75.5q-21 -18 -4 -18q138 -21 348 -4h-2q11 2 14.5 -2.5t0.5 -14.5q0 -2 -3.5 -19.5t-3.5 -25.5q-5 -23 -24 -20q-100 7 -250.5 7t-241.5 -7z" />
<glyph unicode="&#xb3;" horiz-adv-x="538" d="M162 797q-56 0 -100.5 14t-63.5 32.5t-16 33.5q2 12 6 16t14 4q14 0 58 -23.5t90 -23.5q86 0 144 49.5t75 136.5q18 83 -26.5 128.5t-115.5 45.5q-31 0 -39 3.5t-6 15.5q2 11 32 25.5t65.5 30t70 49.5t43.5 79q13 62 -9 92.5t-69 30.5q-35 0 -65 -18t-51 -36t-35 -18 t-19.5 11t0.5 18q21 35 74 64.5t143 29.5q63 0 108 -39.5t32 -99.5q-19 -100 -156 -178q74 -10 115.5 -63t23.5 -144q-29 -138 -119 -202t-204 -64z" />
<glyph unicode="&#xb4;" horiz-adv-x="626" d="M164 1473q-8 -6 -15 -5t-10 7q-9 13 6 28q183 164 281 281q6 8 17.5 10t19.5 -4q39 -37 53 -96q2 -11 -2.5 -20.5t-9.5 -13.5l-6 -3q-215 -112 -334 -184z" />
<glyph unicode="&#xb6;" horiz-adv-x="1513" d="M360 -408q-16 0 -16 19q0 7 5 12.5t13 5.5q30 2 58.5 9t41.5 14l13 6q28 13 48 53.5t24 69.5q4 19 29 143t30.5 151.5t26.5 133.5t28.5 147t24 130.5t25 144.5t19.5 128.5t20 139.5q14 64 -41 76q-80 17 -179 4q-145 -20 -236.5 -129.5t-55.5 -257.5q26 -104 104 -157.5 t190 -53.5q4 0 14.5 1t18 0.5t13.5 -3.5q7 -3 9 -11.5t-3 -15.5q-5 -10 -27 -14q-155 -26 -283 43.5t-161 210.5q-25 97 13 194t123.5 164.5t194.5 83.5q98 7 148.5 4.5t130 -8.5t129.5 -6h266q42 0 85.5 1.5t76 4t58.5 5t41 4t16 1.5q16 0 16 -12q0 -23 -20 -27 q-37 -8 -66 -16t-39 -12l-10 -4q-22 -9 -43 -53.5t-31 -84.5l-10 -40q-78 -346 -184 -1000q-9 -42 -5.5 -78.5t29.5 -54.5q42 -21 103 -29q14 -3 14 -18q0 -19 -14 -19q-1 0 -71.5 4t-167 8.5t-157.5 4.5q-63 0 -157.5 -4.5t-157.5 -8.5zM750 -354q58 0 88 49q11 16 19.5 40 t11.5 40l3 16q136 680 185 1000q13 96 8 145t-68 49q-43 0 -73 -43q-36 -56 -50 -119q-96 -435 -192 -1046q-8 -45 6 -82q8 -22 23.5 -34t26.5 -13z" />
<glyph unicode="&#xb7;" horiz-adv-x="368" d="M184 606q-51 0 -87 35t-36 86t36 88t87 37q52 0 87.5 -36.5t35.5 -88.5q0 -51 -35.5 -86t-87.5 -35z" />
<glyph unicode="&#xb8;" horiz-adv-x="520" d="M143 -401q-1 1 -3.5 2.5t-8 6.5t-10.5 10t-9.5 12t-7 14t-1 15t7.5 15q1 1 3 3.5t8 7t12.5 6.5t16 0t19.5 -10q4 -4 10.5 -9.5t26.5 -14t39 -5.5q3 0 7 1.5t15 7t18.5 13t12.5 23t2 35.5q-1 7 -5 18.5t-24.5 36t-50.5 37.5l-12 2q-6 4 2 10q8 5 21.5 16t46.5 50t57 84 q19 28 35 28h47l-15 -10q-2 -2 -5 -6t-12 -16.5t-16 -24t-15 -26.5t-11.5 -28t-3 -25t7.5 -19q5 -3 12 -9t20.5 -26.5t18 -42t-5.5 -54t-41 -65.5q-2 -2 -6.5 -6t-19 -15t-28.5 -20t-34.5 -18.5t-39.5 -13.5t-41 -2t-40 12z" />
<glyph unicode="&#xb9;" horiz-adv-x="413" d="M-2 819q-11 0 -6 17q2 20 14 20q43 0 72 18q13 6 25.5 32.5t18.5 49.5l7 23q63 249 90 448q9 59 -18 56q-120 -21 -121 -21q-8 -2 -9.5 3t1.5 20q5 22 14 24q2 0 21 4t44 10.5t56.5 15t67.5 22.5t67 30q6 4 16 4q19 0 19.5 -14.5t-8.5 -21.5q0 -1 -3.5 -6.5t-8.5 -14.5 t-11 -22t-13.5 -34t-13.5 -46q-22 -79 -51.5 -222.5t-44.5 -234.5q-16 -91 2 -105q11 -7 36 -12.5t40 -5.5q8 0 6 -20q-6 -17 -14 -17q-99 8 -152 8z" />
<glyph unicode="&#xba;" horiz-adv-x="606" d="M250 938q-80 -4 -127.5 34t-56.5 107q-15 90 17 178.5t104.5 147t164.5 61.5q103 3 154.5 -68.5t32.5 -185.5q-18 -118 -94.5 -192.5t-194.5 -81.5zM293 989q59 14 103.5 88.5t45.5 165.5q1 89 -37.5 139t-93.5 35q-60 -13 -102.5 -87.5t-44.5 -166.5q-3 -88 36 -138.5 t93 -35.5z" />
<glyph unicode="&#xbb;" horiz-adv-x="706" d="M379 313q-8 8 -6 19t8 20l6 10q33 49 74 105.5t65 88.5l25 32q25 34 12 63q-47 115 -80 226q-14 35 9 47q20 16 30 0q64 -134 158 -273q9 -15 6 -33q-2 -14 -18 -30q-64 -64 -128.5 -132.5t-97.5 -105.5l-32 -37q-7 -7 -15 -7t-12 4zM119 311q-8 8 -6 19t8 20l6 10 q33 49 74 105.5t65 88.5l25 32q25 34 12 63q-47 114 -80 225q-15 36 8 48q21 16 31 0q64 -134 158 -273q9 -15 6 -33q-2 -14 -18 -30q-64 -64 -128.5 -132.5t-97.5 -105.5l-32 -37q-7 -7 -15 -7t-12 4z" />
<glyph unicode="&#xbc;" horiz-adv-x="1654" d="M1477 1454q9 0 11 -6.5t-7 -15.5l-1180 -1430q-18 -22 -43 -22h-49q-22 0 -4 22l1179 1430q22 22 41 22h52zM467 614q-99 9 -152 9l-143 -9q-11 0 -6 17q2 20 14 20q42 0 72 19q13 6 25.5 32t18.5 49l7 23q62 248 90 449q4 28 -1 42.5t-17 12.5q-120 -21 -121 -21 q-8 -2 -9.5 3t1.5 20q6 23 14 25l30 7q30 6 62 13.5t79 24t85 36.5q6 5 16 5q13 0 17 -7.5t1.5 -15.5t-7.5 -14q0 -1 -3.5 -6.5t-8 -14.5t-10.5 -22t-13.5 -34t-13.5 -46q-22 -80 -52.5 -224t-44.5 -233q-16 -90 2 -104q11 -7 36 -13t40 -6q8 0 6 -20q-6 -17 -14 -17z M1456 385h5h11.5t12 -3t6.5 -8.5t-6 -15.5q-18 -24 -23 -41v2q-1 -2 -3 -5t-11.5 -7.5t-22.5 -3.5q-71 6 -135 6q-22 -122 -30 -188q-2 -8 -8 -12.5t-25 -8.5q-4 -1 -47 -16q-21 -8 -31 4q-6 8 0 21q2 4 6 20q39 161 43 180q-292 0 -371 -4l-13 4q-17 11 22 47 q97 89 251 251.5t216 248.5q7 9 31 15.5t44 8.5l21 3q14 1 19.5 -6t2.5 -17q-40 -91 -98 -377q-3 -16 -8.5 -41.5t-8.5 -40.5t-3 -18q131 0 153 2zM1235 483q43 217 49 254q-143 -141 -328 -352q68 -2 207 -2h51q19 86 21 100z" />
<glyph unicode="&#xbd;" horiz-adv-x="1679" d="M209 -20q-22 0 -4 22l1179 1430q22 22 41 22h52q9 0 11 -6.5t-7 -15.5l-1180 -1430q-18 -22 -43 -22h-49zM172 614q-11 0 -6 17q2 20 14 20q42 0 72 19q13 6 25.5 32t18.5 49l7 23q62 248 90 449q4 28 -1 42.5t-17 12.5q-120 -21 -121 -21q-8 -2 -9.5 3t1.5 20 q6 23 14 25l30 7q30 6 62 13.5t79 24t85 36.5q6 5 16 5q13 0 17 -7.5t1.5 -15.5t-7.5 -14q0 -1 -3.5 -6.5t-8 -14.5t-10.5 -22t-13.5 -34t-13.5 -46q-22 -80 -52.5 -224t-44.5 -233q-16 -90 2 -104q11 -7 36 -13t40 -6q8 0 6 -20q-6 -17 -14 -17q-99 9 -152 9zM961 102 q-20 -3 -22 16.5t13 28.5q161 124 255 212.5t130.5 140.5t57.5 110q27 80 18.5 128t-34 67.5t-66.5 19.5q-77 0 -142 -65q-11 -8 -26 -8q-22 0 -26 12t11 24q35 32 78.5 53.5t69.5 26.5l27 6q66 9 111.5 -4.5t67 -43t28.5 -70t1 -82t-22 -82.5q-16 -38 -42.5 -75.5t-70 -81 t-74 -71.5t-92 -81.5t-86.5 -75.5q-22 -19 -4 -19q138 -21 348 -4h-2q11 2 14.5 -2t0.5 -14q-6 -42 -6 -45q-5 -24 -25 -21q-100 8 -250 8t-241 -8z" />
<glyph unicode="&#xbe;" horiz-adv-x="1910" d="M1632 1454q9 0 11 -6.5t-7 -15.5l-1179 -1430q-18 -22 -43 -22h-49q-10 0 -11.5 6.5t6.5 15.5l1180 1430q22 22 41 22h51zM670 858q-15 -72 -48.5 -125t-79 -83t-94.5 -44t-102 -14q-56 0 -100.5 14t-63.5 32.5t-16 33.5q2 12 6 16t14 4q14 0 58 -23.5t90 -23.5 q86 0 144 49.5t75 136.5q18 84 -26 129.5t-115 45.5q-31 0 -38.5 3t-6.5 15q2 11 32 25.5t65.5 30t70 49.5t43.5 79q13 62 -9 92.5t-69 30.5q-35 0 -65 -17.5t-51.5 -35.5t-35.5 -18t-19 10t1 18q21 35 74 64.5t143 29.5q63 0 107.5 -39.5t31.5 -99.5q-19 -100 -156 -178 q74 -10 116 -63t24 -144zM1712 385h5h11.5t12 -3t6.5 -8.5t-6 -15.5q-18 -24 -23 -41v2q-1 -2 -3 -5t-11.5 -7.5t-22.5 -3.5q-70 6 -135 6q-22 -122 -30 -188q-2 -8 -8 -12.5t-25 -8.5q-4 -1 -47 -16q-21 -8 -31 4q-6 8 0 21q2 4 6 20q39 161 43 180q-292 0 -371 -4l-13 4 q-17 11 22 47q97 89 251 251.5t216 248.5q7 9 31 15.5t44 8.5l21 3q14 1 19.5 -6t2.5 -17q-40 -91 -98 -377q-3 -16 -8.5 -41.5t-8.5 -40.5t-3 -18q131 0 153 2zM1491 483q43 217 49 254q-143 -141 -328 -352q68 -2 207 -2h51q19 86 21 100z" />
<glyph unicode="&#xbf;" horiz-adv-x="843" d="M608 1036q44 0 71 -33.5t19 -76.5q-9 -47 -49 -82t-84 -35q-47 0 -74 34.5t-18 82.5q8 43 48 76.5t87 33.5zM532 680q16 0 29 -10q27 -20 46.5 -51t25.5 -53l6 -21q4 -33 -8.5 -64t-27.5 -46l-15 -15q-125 -112 -214.5 -203.5t-117.5 -127.5l-27 -36 q-43 -57 -64.5 -115.5t-21 -101.5t7 -78t15.5 -53l10 -18q27 -45 72.5 -63t90 -11t85.5 20.5t66 28.5l26 14q19 10 45 41q39 58 64 146q4 24 14 28q2 0 5.5 0.5t11.5 0.5t14 -2t10 -9t2 -18q-7 -39 -13 -81.5t-8 -65.5l-2 -23q-1 -44 -68 -80.5t-133 -50.5l-67 -15 q-99 -17 -169 -7t-115 38t-70.5 58t-34.5 54l-10 23q-17 58 -9 116.5t35 114.5t63 106t75.5 92.5t73 73t55.5 48.5l22 17q86 71 138.5 131t62.5 84l10 24q6 26 3 49t-9 39l-6 15q-10 17 -8 30q7 27 34 27z" />
<glyph unicode="&#xc0;" horiz-adv-x="1556" d="M1133 1518q-52 17 -136.5 40t-142.5 38l-59 14q-1 0 -2 0.5l-5 2.5t-5.5 5.5t-3 9t0.5 12.5q10 27 27 54t29 40l12 13q9 7 21 8.5t16 -4.5q41 -39 108.5 -89t114.5 -80l47 -30q17 -10 4 -26q-10 -13 -26 -8zM-86 -16q-11 -2 -14.5 4.5t-1.5 13.5l2 8q1 3 3 5t4 3t3.5 1.5 t2.5 0.5h1q47 7 61 11q17 4 39 15.5t58 36.5t79.5 76t84.5 120q118 191 292.5 515.5t302.5 583.5q6 18 42.5 40t70.5 35l33 13q12 4 18 4l6 -10q-7 -104 -4 -123q18 -155 99.5 -580.5t120.5 -576.5q29 -114 67 -135q39 -17 94 -25q15 0 15 -10q0 -31 -27 -26 q-104 16 -180 16q-35 0 -90 -4t-93 -8l-38 -4q-10 -2 -14 4.5t-3 13.5l2 8q1 3 3 5t4 3t4 1.5t3 0.5h1l53 9q50 10 41 71q-16 142 -72 461q-1 17 -9 23t-28 6q-202 13 -407 0q-13 0 -25 -8t-18 -16l-6 -9q-28 -54 -108 -200t-110 -212q-13 -28 -15.5 -49.5t-0.5 -32.5 t12 -20t12 -9.5t11 -4.5q19 -6 45 -9q10 0 10 -10q0 -3 -0.5 -8t-6 -12.5t-15.5 -5.5q-107 16 -203 16q-35 0 -87.5 -4t-87.5 -8zM584 666q72 -6 176 -6t176 6q10 0 14.5 2t9.5 12.5t-2 34.5q-33 184 -81 495q-1 9 -4.5 12t-8.5 0t-10 -12q-42 -70 -138 -248.5t-134 -246.5 q-24 -39 2 -49z" />
<glyph unicode="&#xc1;" horiz-adv-x="1556" d="M713 1518q-19 -6 -23 8q-6 15 12 26q220 111 345 199q7 6 18.5 5t17.5 -9q3 -5 8 -14.5t12.5 -37.5t6.5 -55q-1 -11 -7.5 -18.5t-12.5 -9.5l-7 -2q-237 -53 -370 -92zM-86 -16q-11 -2 -14.5 4.5t-1.5 13.5l2 8q1 3 3 5t4 3t3.5 1.5t2.5 0.5h1q47 7 61 11q17 4 39 15.5 t58 36.5t79.5 76t84.5 120q118 191 292.5 515.5t302.5 583.5q6 18 42.5 40t70.5 35l33 13q12 4 18 4l6 -10q-7 -104 -4 -123q18 -155 99.5 -580.5t120.5 -576.5q29 -114 67 -135q39 -17 94 -25q15 0 15 -10q0 -31 -27 -26q-104 16 -180 16q-35 0 -90 -4t-93 -8l-38 -4 q-10 -2 -14 4.5t-3 13.5l2 8q1 3 3 5t4 3t4 1.5t3 0.5h1l53 9q50 10 41 71q-16 142 -72 461q-1 17 -9 23t-28 6q-202 13 -407 0q-13 0 -25 -8t-18 -16l-6 -9q-28 -54 -108 -200t-110 -212q-13 -28 -15.5 -49.5t-0.5 -32.5t12 -20t12 -9.5t11 -4.5q19 -6 45 -9q10 0 10 -10 q0 -3 -0.5 -8t-6 -12.5t-15.5 -5.5q-107 16 -203 16q-35 0 -87.5 -4t-87.5 -8zM584 666q72 -6 176 -6t176 6q10 0 14.5 2t9.5 12.5t-2 34.5q-33 184 -81 495q-1 9 -4.5 12t-8.5 0t-10 -12q-42 -70 -138 -248.5t-134 -246.5q-24 -39 2 -49z" />
<glyph unicode="&#xc2;" horiz-adv-x="1556" d="M743 1507q-16 13 5 31q106 104 210 219q17 17 43 17q13 0 21 -4t10 -8l2 -5q28 -51 61 -106t53 -84l19 -29q13 -14 -4 -31q-7 -6 -16 -6t-14 6q-39 56 -132 125q-28 16 -59 0q-109 -67 -172 -125q-6 -5 -14 -5t-13 5zM-86 -16q-11 -2 -14.5 4.5t-1.5 13.5l2 8q1 3 3 5 t4 3t3.5 1.5t2.5 0.5h1q47 7 61 11q17 4 39 15.5t58 36.5t79.5 76t84.5 120q118 191 292.5 515.5t302.5 583.5q6 18 42.5 40t70.5 35l33 13q12 4 18 4l6 -10q-7 -104 -4 -123q18 -155 99.5 -580.5t120.5 -576.5q29 -114 67 -135q39 -17 94 -25q15 0 15 -10q0 -31 -27 -26 q-104 16 -180 16q-35 0 -90 -4t-93 -8l-38 -4q-10 -2 -14 4.5t-3 13.5l2 8q1 3 3 5t4 3t4 1.5t3 0.5h1l53 9q50 10 41 71q-16 142 -72 461q-1 17 -9 23t-28 6q-202 13 -407 0q-13 0 -25 -8t-18 -16l-6 -9q-28 -54 -108 -200t-110 -212q-13 -28 -15.5 -49.5t-0.5 -32.5 t12 -20t12 -9.5t11 -4.5q19 -6 45 -9q10 0 10 -10q0 -3 -0.5 -8t-6 -12.5t-15.5 -5.5q-107 16 -203 16q-35 0 -87.5 -4t-87.5 -8zM584 666q72 -6 176 -6t176 6q10 0 14.5 2t9.5 12.5t-2 34.5q-33 184 -81 495q-1 9 -4.5 12t-8.5 0t-10 -12q-42 -70 -138 -248.5t-134 -246.5 q-24 -39 2 -49z" />
<glyph unicode="&#xc3;" horiz-adv-x="1556" d="M711 1567q-7 13 10 30q20 21 38.5 38.5t26.5 24.5l9 7q25 22 58.5 30.5t64.5 4t58 -11.5t44 -15l16 -8q47 -17 86.5 -9.5t64.5 24.5l25 18q23 20 37 6q10 -8 -16 -39q-16 -19 -32 -35.5t-24 -23.5l-8 -6q-25 -22 -59.5 -30.5t-65.5 -4t-58 11.5t-44 15l-16 8 q-44 18 -82.5 12t-65.5 -22l-26 -17q-15 -13 -25 -15t-13 2zM-86 -16q-11 -2 -14.5 4.5t-1.5 13.5l2 8q1 3 3 5t4 3t3.5 1.5t2.5 0.5h1q47 7 61 11q17 4 39 15.5t58 36.5t79.5 76t84.5 120q118 191 292.5 515.5t302.5 583.5q6 18 42.5 40t70.5 35l33 13q12 4 18 4l6 -10 q-7 -104 -4 -123q18 -155 99.5 -580.5t120.5 -576.5q29 -114 67 -135q39 -17 94 -25q15 0 15 -10q0 -31 -27 -26q-104 16 -180 16q-35 0 -90 -4t-93 -8l-38 -4q-10 -2 -14 4.5t-3 13.5l2 8q1 3 3 5t4 3t4 1.5t3 0.5h1l53 9q50 10 41 71q-16 142 -72 461q-1 17 -9 23t-28 6 q-202 13 -407 0q-13 0 -25 -8t-18 -16l-6 -9q-28 -54 -108 -200t-110 -212q-13 -28 -15.5 -49.5t-0.5 -32.5t12 -20t12 -9.5t11 -4.5q19 -6 45 -9q10 0 10 -10q0 -3 -0.5 -8t-6 -12.5t-15.5 -5.5q-107 16 -203 16q-35 0 -87.5 -4t-87.5 -8zM584 666q72 -6 176 -6t176 6 q10 0 14.5 2t9.5 12.5t-2 34.5q-33 184 -81 495q-1 9 -4.5 12t-8.5 0t-10 -12q-42 -70 -138 -248.5t-134 -246.5q-24 -39 2 -49z" />
<glyph unicode="&#xc4;" horiz-adv-x="1556" d="M827 1550q-35 0 -59.5 24.5t-24.5 59.5t24.5 59.5t59.5 24.5q34 0 59 -24.5t25 -59.5t-25 -59.5t-59 -24.5zM1114 1550q-35 0 -58.5 24.5t-23.5 59.5t23.5 59.5t58.5 24.5q36 0 60 -24t24 -60t-24 -60t-60 -24zM-86 -16q-11 -2 -14.5 4.5t-1.5 13.5l2 8q1 3 3 5t4 3 t3.5 1.5t2.5 0.5h1q47 7 61 11q17 4 39 15.5t58 36.5t79.5 76t84.5 120q118 191 292.5 515.5t302.5 583.5q6 18 42.5 40t70.5 35l33 13q12 4 18 4l6 -10q-7 -104 -4 -123q18 -155 99.5 -580.5t120.5 -576.5q29 -114 67 -135q39 -17 94 -25q15 0 15 -10q0 -31 -27 -26 q-104 16 -180 16q-35 0 -90 -4t-93 -8l-38 -4q-10 -2 -14 4.5t-3 13.5l2 8q1 3 3 5t4 3t4 1.5t3 0.5h1l53 9q50 10 41 71q-16 142 -72 461q-1 17 -9 23t-28 6q-202 13 -407 0q-13 0 -25 -8t-18 -16l-6 -9q-28 -54 -108 -200t-110 -212q-13 -28 -15.5 -49.5t-0.5 -32.5 t12 -20t12 -9.5t11 -4.5q19 -6 45 -9q10 0 10 -10q0 -3 -0.5 -8t-6 -12.5t-15.5 -5.5q-107 16 -203 16q-35 0 -87.5 -4t-87.5 -8zM584 666q72 -6 176 -6t176 6q10 0 14.5 2t9.5 12.5t-2 34.5q-33 184 -81 495q-1 9 -4.5 12t-8.5 0t-10 -12q-42 -70 -138 -248.5t-134 -246.5 q-24 -39 2 -49z" />
<glyph unicode="&#xc5;" horiz-adv-x="1556" d="M952 1493q-62 0 -104.5 42.5t-42.5 104.5t43 105t104 43q62 0 105 -43t43 -105q0 -61 -43 -104t-105 -43zM952 1561q32 0 56 23.5t24 55.5t-24 56t-56 24t-56 -24t-24 -56t24 -55.5t56 -23.5zM-86 -16q-11 -2 -14.5 4.5t-1.5 13.5l2 8q1 3 3 5t4 3t3.5 1.5t2.5 0.5h1 q47 7 61 11q17 4 39 15.5t58 36.5t79.5 76t84.5 120q118 191 292.5 515.5t302.5 583.5q6 18 42.5 40t70.5 35l33 13q12 4 18 4l6 -10q-7 -104 -4 -123q18 -155 99.5 -580.5t120.5 -576.5q29 -114 67 -135q39 -17 94 -25q15 0 15 -10q0 -31 -27 -26q-104 16 -180 16 q-35 0 -90 -4t-93 -8l-38 -4q-10 -2 -14 4.5t-3 13.5l2 8q1 3 3 5t4 3t4 1.5t3 0.5h1l53 9q50 10 41 71q-16 142 -72 461q-1 17 -9 23t-28 6q-202 13 -407 0q-13 0 -25 -8t-18 -16l-6 -9q-28 -54 -108 -200t-110 -212q-13 -28 -15.5 -49.5t-0.5 -32.5t12 -20t12 -9.5 t11 -4.5q19 -6 45 -9q10 0 10 -10q0 -3 -0.5 -8t-6 -12.5t-15.5 -5.5q-107 16 -203 16q-35 0 -87.5 -4t-87.5 -8zM584 666q72 -6 176 -6t176 6q10 0 14.5 2t9.5 12.5t-2 34.5q-33 184 -81 495q-1 9 -4.5 12t-8.5 0t-10 -12q-42 -70 -138 -248.5t-134 -246.5q-24 -39 2 -49z " />
<glyph unicode="&#xc6;" horiz-adv-x="1966" d="M-84 -16q-12 -2 -15.5 4t-0.5 13l2 7q2 4 6 7t7 4l3 1q44 3 68 9q20 4 45.5 15.5t67.5 37t92 77t96 120.5q519 715 782 1091q10 15 9 27.5t-13 17.5q-10 3 -10 12q0 3 0.5 8t7 12.5t18.5 4.5q201 -18 262 -18q247 0 541 18h3.5t7 -2t7 -5t1.5 -11t-7 -19 q-38 -68 -45 -209q-2 -9 -9.5 -14t-13.5 -6h-7q-7 0 -11 4t-4 8v4q3 53 2 82.5t-4 39.5l-4 9q-15 47 -203 47q-55 0 -141 -14q-44 -6 -53 -39q-40 -159 -105 -475q0 -38 31 -45q33 -4 139 -3.5t148 5.5q14 2 31.5 13.5t25.5 29.5q20 49 31 86q4 16 22 16q7 0 12 -1t8.5 -6 t0.5 -13q-18 -57 -43 -168q-7 -49 -11 -89.5t-5 -56.5v-16q0 -9 -6 -14t-12 -6h-7q-11 0 -16.5 5t-4.5 10v5q3 69 0 84q-6 33 -40 39q-38 7 -145 8t-134 -4q-43 -9 -51 -39q-65 -342 -92 -569q-3 -34 30 -45q36 -9 81 -14t71 -6l27 -1q218 0 297 23q19 7 28 20q23 20 62 129 q8 17 24 17h3t7.5 -1t7.5 -3.5t4.5 -7.5t-1.5 -13q-23 -45 -52 -147l-6 -39q-2 -10 -8 -19.5t-11 -13.5l-5 -4q-11 -8 -40 -11t-52 -2l-23 1q-127 7 -263.5 10.5t-210.5 3.5h-73q-36 0 -103 -4t-116 -8l-49 -4q-12 -2 -16 4t-2 13l2 7q1 5 5.5 8t8.5 4h4q50 5 84.5 13 t43.5 13l9 5q29 17 54.5 73t35.5 103l11 47q67 280 86 408q3 20 -7 33.5t-26 15.5q-34 5 -146.5 5t-152.5 -5q-48 -4 -82 -49q-68 -99 -201.5 -282t-187.5 -263q-14 -22 -19 -40.5t-3 -30.5t7.5 -21t12.5 -13t12 -5l51 -7q2 0 5 -0.5t8 -4t4 -7.5q0 -3 -1 -7.5t-8.5 -11.5 t-19.5 -5q-149 16 -229 16q-42 0 -101 -4t-97 -8zM850 807q31 -3 129 -3t135 3q16 0 30.5 13.5t18.5 35.5q17 83 51 307q11 70 13 133q0 26 -14.5 34.5t-36.5 -17.5q-23 -31 -84.5 -111t-128.5 -170t-127 -176q-15 -25 -9.5 -36t23.5 -13z" />
<glyph unicode="&#xc7;" horiz-adv-x="1370" d="M1337 1393q10 -4 12 -9.5t-1 -17.5q-16 -64 -27.5 -118t-14.5 -76l-3 -21q-2 -11 -13.5 -17t-21.5 -6h-11q-4 2 -5 7t0 9l1 5q8 50 10.5 84t0.5 43l-2 8q-12 40 -71.5 71t-133.5 45.5t-146 14.5q-117 0 -222.5 -49.5t-184 -132.5t-137 -189.5t-89.5 -223.5t-34 -232 q-4 -163 43.5 -290.5t146.5 -202.5t236 -75q146 0 253.5 33.5t141.5 81.5q18 22 49 135q7 19 23 19q20 0 29 -5t5 -18q-34 -83 -57 -192q-4 -22 -18 -37t-26 -19l-11 -4q-208 -47 -391 -53q-50 -77 -25 -102q5 -3 12 -9t20.5 -26.5t18 -42t-5.5 -54t-41 -65.5q-2 -2 -6.5 -6 t-19 -15t-28.5 -20t-34.5 -18.5t-39.5 -13.5t-41 -2t-40 12q-1 1 -3.5 2.5t-8 6.5t-10.5 10t-9.5 12t-7 14t-1 15t7.5 15q1 1 3 3.5t8 7t12.5 6.5t16 0t19.5 -10q4 -4 10.5 -9.5t26.5 -14t39 -5.5q3 0 7 1.5t15 7t18.5 13t12.5 23t2 35.5q-1 7 -5 18.5t-24.5 36t-50.5 37.5 l-12 2q-6 4 2 10q7 4 18 13t40 41.5t52 70.5q-272 0 -409.5 117t-143.5 385q-5 120 23.5 243.5t83.5 234t137.5 208t180.5 168.5t217 112t243 41q156 0 389 -77z" />
<glyph unicode="&#xc8;" horiz-adv-x="1087" d="M864 1518q-52 17 -136.5 40t-143.5 38l-58 14q-1 0 -2 0.5t-4.5 2.5t-5 5.5t-3 9t0.5 12.5q10 27 27 54t29 40l12 13q9 7 20.5 8.5t15.5 -4.5q41 -39 108.5 -89t115.5 -80l47 -30q17 -10 4 -26q-10 -14 -27 -8zM-25 -16q-11 -2 -14 4.5t-1 13.5l3 8q1 3 3 5t4 3t3.5 1.5 t2.5 0.5h1q43 5 72.5 13t38.5 13l8 5q24 16 47 71.5t34 103.5l11 48q39 172 89.5 445t74.5 444q3 21 7 53.5t2 93t-19 74.5q-17 19 -109 31q-12 2 -12 12q0 6 1.5 11.5t7 10.5t14.5 3q133 -18 225 -18q315 0 532 18q4 0 8.5 -0.5t13 -6t-0.5 -20.5q-33 -65 -47 -172l-4 -47 q-1 -11 -7.5 -16t-13.5 -4h-6q-10 1 -14.5 5t-3.5 7v4q5 48 5 81t-3 41l-2 9q-20 49 -168 49q-102 0 -178 -16q-35 -9 -43 -39q-50 -200 -101 -473q-3 -21 4.5 -33t20.5 -12q179 -9 299 2q40 4 53 43q15 38 25 86q2 14 20 14q3 0 8 -0.5t12 -5t3 -12.5q-18 -55 -43 -170 l-19 -162q-1 -10 -6.5 -15t-10.5 -5h-5q-10 0 -15.5 4t-5.5 8v4q8 54 4 88q-2 19 -8.5 27.5t-26.5 11.5q-36 5 -154 5.5t-138 -1.5q-38 -3 -47 -39q-65 -362 -93 -569q-3 -35 27 -45q31 -9 83 -14.5t88 -7.5l36 -1q154 0 235 25q15 4 27 20q22 20 59 129q5 17 17 17 q40 0 30 -25q-22 -47 -49 -147l-8 -41q0 -11 -5 -20.5t-10 -12.5l-5 -4q-11 -8 -33.5 -11t-39.5 -2l-17 1q-109 7 -244.5 11t-215.5 5h-81q-44 0 -102 -4t-94 -8z" />
<glyph unicode="&#xc9;" horiz-adv-x="1087" d="M492 1518q-19 -6 -23 8q-6 15 12 26q219 111 344 199q7 6 19 4.5t18 -8.5q3 -5 8 -14.5t12.5 -37.5t6.5 -55q-1 -11 -7.5 -18.5t-13.5 -9.5l-6 -2q-237 -53 -370 -92zM-25 -16q-11 -2 -14 4.5t-1 13.5l3 8q1 3 3 5t4 3t3.5 1.5t2.5 0.5h1q43 5 72.5 13t38.5 13l8 5 q24 16 47 71.5t34 103.5l11 48q39 172 89.5 445t74.5 444q3 21 7 53.5t2 93t-19 74.5q-17 19 -109 31q-12 2 -12 12q0 6 1.5 11.5t7 10.5t14.5 3q133 -18 225 -18q315 0 532 18q4 0 8.5 -0.5t13 -6t-0.5 -20.5q-33 -65 -47 -172l-4 -47q-1 -11 -7.5 -16t-13.5 -4h-6 q-10 1 -14.5 5t-3.5 7v4q5 48 5 81t-3 41l-2 9q-20 49 -168 49q-102 0 -178 -16q-35 -9 -43 -39q-50 -200 -101 -473q-3 -21 4.5 -33t20.5 -12q179 -9 299 2q40 4 53 43q15 38 25 86q2 14 20 14q3 0 8 -0.5t12 -5t3 -12.5q-18 -55 -43 -170l-19 -162q-1 -10 -6.5 -15 t-10.5 -5h-5q-10 0 -15.5 4t-5.5 8v4q8 54 4 88q-2 19 -8.5 27.5t-26.5 11.5q-36 5 -154 5.5t-138 -1.5q-38 -3 -47 -39q-65 -362 -93 -569q-3 -35 27 -45q31 -9 83 -14.5t88 -7.5l36 -1q154 0 235 25q15 4 27 20q22 20 59 129q5 17 17 17q40 0 30 -25q-22 -47 -49 -147 l-8 -41q0 -11 -5 -20.5t-10 -12.5l-5 -4q-11 -8 -33.5 -11t-39.5 -2l-17 1q-109 7 -244.5 11t-215.5 5h-81q-44 0 -102 -4t-94 -8z" />
<glyph unicode="&#xca;" horiz-adv-x="1087" d="M504 1507q-17 14 4 31q107 104 211 219q17 17 43 17q13 0 21 -4t10 -8l2 -5q28 -51 61.5 -106t52.5 -84l19 -29q6 -6 4 -15.5t-8 -15.5q-8 -6 -17 -6t-14 6q-40 58 -131 125q-29 16 -60 0q-109 -67 -172 -125q-15 -11 -26 0zM-25 -16q-11 -2 -14 4.5t-1 13.5l3 8q1 3 3 5 t4 3t3.5 1.5t2.5 0.5h1q43 5 72.5 13t38.5 13l8 5q24 16 47 71.5t34 103.5l11 48q39 172 89.5 445t74.5 444q3 21 7 53.5t2 93t-19 74.5q-17 19 -109 31q-12 2 -12 12q0 6 1.5 11.5t7 10.5t14.5 3q133 -18 225 -18q315 0 532 18q4 0 8.5 -0.5t13 -6t-0.5 -20.5 q-33 -65 -47 -172l-4 -47q-1 -11 -7.5 -16t-13.5 -4h-6q-10 1 -14.5 5t-3.5 7v4q5 48 5 81t-3 41l-2 9q-20 49 -168 49q-102 0 -178 -16q-35 -9 -43 -39q-50 -200 -101 -473q-3 -21 4.5 -33t20.5 -12q179 -9 299 2q40 4 53 43q15 38 25 86q2 14 20 14q3 0 8 -0.5t12 -5 t3 -12.5q-18 -55 -43 -170l-19 -162q-1 -10 -6.5 -15t-10.5 -5h-5q-10 0 -15.5 4t-5.5 8v4q8 54 4 88q-2 19 -8.5 27.5t-26.5 11.5q-36 5 -154 5.5t-138 -1.5q-38 -3 -47 -39q-65 -362 -93 -569q-3 -35 27 -45q31 -9 83 -14.5t88 -7.5l36 -1q154 0 235 25q15 4 27 20 q22 20 59 129q5 17 17 17q40 0 30 -25q-22 -47 -49 -147l-8 -41q0 -11 -5 -20.5t-10 -12.5l-5 -4q-11 -8 -33.5 -11t-39.5 -2l-17 1q-109 7 -244.5 11t-215.5 5h-81q-44 0 -102 -4t-94 -8z" />
<glyph unicode="&#xcb;" horiz-adv-x="1087" d="M561 1550q-35 0 -59.5 24.5t-24.5 59.5t24.5 59.5t59.5 24.5q34 0 59 -24.5t25 -59.5t-25 -59.5t-59 -24.5zM848 1550q-35 0 -58.5 24.5t-23.5 59.5t23.5 59.5t58.5 24.5q36 0 60 -24t24 -60t-24 -60t-60 -24zM-25 -16q-11 -2 -14 4.5t-1 13.5l3 8q1 3 3 5t4 3t3.5 1.5 t2.5 0.5h1q43 5 72.5 13t38.5 13l8 5q24 16 47 71.5t34 103.5l11 48q39 172 89.5 445t74.5 444q3 21 7 53.5t2 93t-19 74.5q-17 19 -109 31q-12 2 -12 12q0 6 1.5 11.5t7 10.5t14.5 3q133 -18 225 -18q315 0 532 18q4 0 8.5 -0.5t13 -6t-0.5 -20.5q-33 -65 -47 -172l-4 -47 q-1 -11 -7.5 -16t-13.5 -4h-6q-10 1 -14.5 5t-3.5 7v4q5 48 5 81t-3 41l-2 9q-20 49 -168 49q-102 0 -178 -16q-35 -9 -43 -39q-50 -200 -101 -473q-3 -21 4.5 -33t20.5 -12q179 -9 299 2q40 4 53 43q15 38 25 86q2 14 20 14q3 0 8 -0.5t12 -5t3 -12.5q-18 -55 -43 -170 l-19 -162q-1 -10 -6.5 -15t-10.5 -5h-5q-10 0 -15.5 4t-5.5 8v4q8 54 4 88q-2 19 -8.5 27.5t-26.5 11.5q-36 5 -154 5.5t-138 -1.5q-38 -3 -47 -39q-65 -362 -93 -569q-3 -35 27 -45q31 -9 83 -14.5t88 -7.5l36 -1q154 0 235 25q15 4 27 20q22 20 59 129q5 17 17 17 q40 0 30 -25q-22 -47 -49 -147l-8 -41q0 -11 -5 -20.5t-10 -12.5l-5 -4q-11 -8 -33.5 -11t-39.5 -2l-17 1q-109 7 -244.5 11t-215.5 5h-81q-44 0 -102 -4t-94 -8z" />
<glyph unicode="&#xcc;" horiz-adv-x="729" d="M666 1518q-52 17 -136.5 40t-143.5 38l-58 14q-1 0 -2 0.5l-5 2.5t-5.5 5.5t-3 9t0.5 12.5q10 27 27 54t29 40l12 13q9 7 21 8.5t16 -4.5q41 -39 108.5 -89t114.5 -80l47 -30q17 -10 4 -26q-10 -13 -26 -8zM-27 -16q-10 -2 -13 4t-1 13l2 7q2 5 6 8t7 4h3q43 5 72.5 13 t38.5 13l8 5q24 16 47 71t34 102l11 46q22 98 86.5 446.5t77.5 442.5q3 21 7 53.5t2 94t-21 77.5q-15 19 -107 31q-12 2 -12 12q0 3 0.5 7.5t6.5 11.5t16 6q143 -18 223 -18q44 0 105.5 4.5t101.5 9.5l39 4q10 1 13.5 -5.5t1.5 -12.5l-1 -7q-1 -4 -5.5 -7t-8.5 -4l-4 -1 q-43 -5 -72.5 -13t-38.5 -13l-8 -5q-24 -16 -47 -72.5t-34 -104.5l-11 -48q-22 -96 -86.5 -444.5t-77.5 -444.5q-3 -20 -7 -51.5t-1.5 -91.5t20.5 -76q17 -19 107 -31q14 0 14 -12q0 -3 -1 -7.5t-7.5 -11.5t-16.5 -5q-139 16 -223 16q-38 0 -99.5 -4t-103.5 -8z" />
<glyph unicode="&#xcd;" horiz-adv-x="729" d="M330 1518q-19 -6 -23 8q-6 15 12 26q220 111 345 199q7 6 18.5 5t17.5 -9q3 -5 8 -14.5t12.5 -37.5t6.5 -55q-1 -11 -7.5 -18.5t-13.5 -9.5l-6 -2q-237 -53 -370 -92zM-27 -16q-10 -2 -13 4t-1 13l2 7q2 5 6 8t7 4h3q43 5 72.5 13t38.5 13l8 5q24 16 47 71t34 102l11 46 q22 98 86.5 446.5t77.5 442.5q3 21 7 53.5t2 94t-21 77.5q-15 19 -107 31q-12 2 -12 12q0 3 0.5 7.5t6.5 11.5t16 6q143 -18 223 -18q44 0 105.5 4.5t101.5 9.5l39 4q10 1 13.5 -5.5t1.5 -12.5l-1 -7q-1 -4 -5.5 -7t-8.5 -4l-4 -1q-43 -5 -72.5 -13t-38.5 -13l-8 -5 q-24 -16 -47 -72.5t-34 -104.5l-11 -48q-22 -96 -86.5 -444.5t-77.5 -444.5q-3 -20 -7 -51.5t-1.5 -91.5t20.5 -76q17 -19 107 -31q14 0 14 -12q0 -3 -1 -7.5t-7.5 -11.5t-16.5 -5q-139 16 -223 16q-38 0 -99.5 -4t-103.5 -8z" />
<glyph unicode="&#xce;" horiz-adv-x="729" d="M297 1507q-17 14 4 31q107 104 211 219q17 17 43 17q13 0 21 -4t10 -8l2 -5q28 -51 61.5 -106t52.5 -84l19 -29q13 -14 -4 -31q-7 -6 -16.5 -6t-14.5 6q-40 58 -131 125q-28 16 -59 0q-109 -67 -172 -125q-6 -5 -14 -5t-13 5zM-27 -16q-10 -2 -13 4t-1 13l2 7q2 5 6 8 t7 4h3q43 5 72.5 13t38.5 13l8 5q24 16 47 71t34 102l11 46q22 98 86.5 446.5t77.5 442.5q3 21 7 53.5t2 94t-21 77.5q-15 19 -107 31q-12 2 -12 12q0 3 0.5 7.5t6.5 11.5t16 6q143 -18 223 -18q44 0 105.5 4.5t101.5 9.5l39 4q10 1 13.5 -5.5t1.5 -12.5l-1 -7 q-1 -4 -5.5 -7t-8.5 -4l-4 -1q-43 -5 -72.5 -13t-38.5 -13l-8 -5q-24 -16 -47 -72.5t-34 -104.5l-11 -48q-22 -96 -86.5 -444.5t-77.5 -444.5q-3 -20 -7 -51.5t-1.5 -91.5t20.5 -76q17 -19 107 -31q14 0 14 -12q0 -3 -1 -7.5t-7.5 -11.5t-16.5 -5q-139 16 -223 16 q-38 0 -99.5 -4t-103.5 -8z" />
<glyph unicode="&#xcf;" horiz-adv-x="729" d="M379 1550q-35 0 -59.5 24.5t-24.5 59.5t24.5 59.5t59.5 24.5q34 0 59 -24.5t25 -59.5t-25 -59.5t-59 -24.5zM666 1550q-35 0 -58.5 24.5t-23.5 59.5t23.5 59.5t58.5 24.5q36 0 60 -24t24 -60t-24 -60t-60 -24zM-27 -16q-10 -2 -13 4t-1 13l2 7q2 5 6 8t7 4h3 q43 5 72.5 13t38.5 13l8 5q24 16 47 71t34 102l11 46q22 98 86.5 446.5t77.5 442.5q3 21 7 53.5t2 94t-21 77.5q-15 19 -107 31q-12 2 -12 12q0 3 0.5 7.5t6.5 11.5t16 6q143 -18 223 -18q44 0 105.5 4.5t101.5 9.5l39 4q10 1 13.5 -5.5t1.5 -12.5l-1 -7q-1 -4 -5.5 -7 t-8.5 -4l-4 -1q-43 -5 -72.5 -13t-38.5 -13l-8 -5q-24 -16 -47 -72.5t-34 -104.5l-11 -48q-22 -96 -86.5 -444.5t-77.5 -444.5q-3 -20 -7 -51.5t-1.5 -91.5t20.5 -76q17 -19 107 -31q14 0 14 -12q0 -3 -1 -7.5t-7.5 -11.5t-16.5 -5q-139 16 -223 16q-38 0 -99.5 -4 t-103.5 -8z" />
<glyph unicode="&#xd0;" horiz-adv-x="1470" d="M969 1452q103 0 186.5 -38t137 -105t85.5 -159t31 -199.5t-27 -227.5q-74 -318 -260.5 -503.5t-484.5 -227.5q-92 -9 -162.5 -7t-171 8.5t-127.5 6.5q-40 0 -96.5 -4t-92.5 -8l-36 -4q-8 -2 -10.5 4t-0.5 13l1 7q2 12 14 12q117 19 137 52q16 23 35 73t30 89l11 38 q73 295 94 396h-96q-9 0 -14.5 6.5t-4.5 15.5l13 58q1 9 9 15.5t17 6.5h95q10 60 51 395q3 21 6.5 53t1.5 91.5t-18 72.5q-17 19 -111 31q-10 0 -10 12q0 3 1 7.5t6 11.5t13 6q117 -16 209 -16q15 0 225 9t314 9zM1210 672q30 148 26 259t-32 187.5t-60.5 123.5t-58.5 68 l-26 21q-34 23 -76 37t-92.5 16.5t-86 3t-91 -7.5t-71 -10.5t-60.5 -11.5t-52 -39q-56 -231 -118 -549h405q9 0 14.5 -6.5t4.5 -15.5l-13 -58q-1 -9 -9 -15.5t-17 -6.5h-404q-71 -380 -84 -539q0 -33 29 -43q64 -25 154 -29t148 5l58 8q81 15 153.5 56t123 95t92.5 116 t67.5 121t43.5 107t25 77z" />
<glyph unicode="&#xd1;" horiz-adv-x="1542" d="M653 1567q-7 12 11 30q20 21 38.5 38.5t26.5 24.5l8 7q25 22 59 30.5t64.5 4t58 -11.5t43.5 -15l17 -8q47 -17 86.5 -9.5t64.5 24.5l25 18q23 20 37 6q10 -8 -16 -39q-16 -19 -32 -35.5t-24 -23.5l-8 -6q-25 -22 -59.5 -30.5t-65.5 -4t-58.5 11.5t-44.5 15l-16 8 q-44 18 -82.5 12t-65.5 -22l-26 -17q-15 -13 -25 -15t-13 2zM1063 -55q-13 0 -16 16q-3 18 -13 43q-27 66 -264 522t-301 572q-9 6 -12 4q-1 -1 -6 -10q-14 -48 -52 -255.5t-69 -390.5l-31 -184q-25 -176 12 -211q15 -21 107 -31q14 0 14 -12q0 -3 -1 -7.5t-7 -11.5t-16 -5 q-142 16 -203 16q-24 0 -81 -4t-102 -8l-45 -4q-12 -2 -16 4t-2 13l2 7q2 5 6.5 8t8.5 4h4q42 4 71 12t37 14l8 5q52 36 92 209q26 125 93 473.5t75 425.5q2 15 2.5 37t-1.5 62t-17 74t-41 50q-30 23 -104 33l-11 5q-3 3 -2 7q0 3 0.5 8t6.5 12.5t16 4.5q92 -18 121 -18 q32 0 79 9t56 9q22 0 35 -37q44 -124 203.5 -429.5t385.5 -694.5q6 -8 13 -6q1 1 6 10q26 91 91.5 453.5t74.5 463.5q15 150 -17 172q-16 19 -104 31q-12 0 -12 12q0 3 1 8t6.5 12.5t14.5 4.5q145 -18 217 -18q32 0 84.5 4.5t89.5 9.5l37 4q11 3 15 -3.5t2 -14.5l-2 -7 q-1 -5 -5 -8t-8 -3l-4 -1q-90 -9 -121 -31q-39 -29 -73 -149q-27 -116 -108.5 -557t-92.5 -549q-3 -42 0 -51q3 -12 -10 -23q-28 -20 -58 -52t-37 -44q-8 -14 -22 -14z" />
<glyph unicode="&#xd2;" horiz-adv-x="1454" d="M1055 1518q-52 17 -136.5 40t-142.5 38l-59 14q-1 0 -2 0.5l-5 2.5t-5.5 5.5t-3 9t0.5 12.5q10 27 27 54t29 40l12 13q9 7 21 8.5t16 -4.5q41 -39 108.5 -89t114.5 -80l47 -30q17 -10 4 -26q-10 -13 -26 -8zM575 -39q-220 -11 -357 91.5t-167 316.5q-24 137 -3.5 271 t69 255t131 225t180.5 180.5t218 121.5t245 48q101 2 185.5 -23.5t144.5 -74t104 -116t63.5 -148.5t24 -172.5t-15.5 -187.5q-40 -221 -150.5 -393.5t-284 -277t-387.5 -116.5zM713 31q139 33 259 152.5t192 293.5t77 361q4 187 -60 328.5t-179 205.5t-254 31 q-139 -32 -259.5 -151.5t-193 -294t-76.5 -361.5q-5 -186 59.5 -328t180 -206t254.5 -31z" />
<glyph unicode="&#xd3;" horiz-adv-x="1454" d="M713 1518q-19 -6 -23 8q-6 15 12 26q220 111 345 199q7 6 18.5 5t17.5 -9q3 -5 8 -14.5t12.5 -37.5t6.5 -55q-1 -11 -7.5 -18.5t-12.5 -9.5l-7 -2q-237 -53 -370 -92zM575 -39q-220 -11 -357 91.5t-167 316.5q-24 137 -3.5 271t69 255t131 225t180.5 180.5t218 121.5 t245 48q101 2 185.5 -23.5t144.5 -74t104 -116t63.5 -148.5t24 -172.5t-15.5 -187.5q-40 -221 -150.5 -393.5t-284 -277t-387.5 -116.5zM713 31q139 33 259 152.5t192 293.5t77 361q4 187 -60 328.5t-179 205.5t-254 31q-139 -32 -259.5 -151.5t-193 -294t-76.5 -361.5 q-5 -186 59.5 -328t180 -206t254.5 -31z" />
<glyph unicode="&#xd4;" horiz-adv-x="1454" d="M733 1507q-17 14 4 31q107 104 211 219q17 17 43 17q13 0 21 -4t10 -8l2 -5q28 -51 61 -106t53 -84l19 -29q13 -14 -4 -31q-7 -6 -17 -6t-14 6q-40 58 -131 125q-28 16 -59 0q-109 -67 -172 -125q-6 -5 -14 -5t-13 5zM575 -39q-220 -11 -357 91.5t-167 316.5 q-24 137 -3.5 271t69 255t131 225t180.5 180.5t218 121.5t245 48q101 2 185.5 -23.5t144.5 -74t104 -116t63.5 -148.5t24 -172.5t-15.5 -187.5q-40 -221 -150.5 -393.5t-284 -277t-387.5 -116.5zM713 31q139 33 259 152.5t192 293.5t77 361q4 187 -60 328.5t-179 205.5 t-254 31q-139 -32 -259.5 -151.5t-193 -294t-76.5 -361.5q-5 -186 59.5 -328t180 -206t254.5 -31z" />
<glyph unicode="&#xd5;" horiz-adv-x="1454" d="M756 1567q-7 13 10 30q20 21 38.5 38.5t27.5 24.5l8 7q25 22 58.5 30.5t64.5 4t58 -11.5t43 -15l17 -8q47 -17 86.5 -9.5t64.5 24.5l25 18q23 20 37 6q10 -8 -16 -39q-16 -19 -32 -35.5t-24 -23.5l-8 -6q-25 -22 -59.5 -30.5t-65.5 -4t-58 11.5t-43 15l-17 8 q-44 18 -82.5 12t-64.5 -22l-27 -17q-15 -13 -25 -15t-13 2zM575 -39q-220 -11 -357 91.5t-167 316.5q-24 137 -3.5 271t69 255t131 225t180.5 180.5t218 121.5t245 48q101 2 185.5 -23.5t144.5 -74t104 -116t63.5 -148.5t24 -172.5t-15.5 -187.5q-40 -221 -150.5 -393.5 t-284 -277t-387.5 -116.5zM713 31q139 33 259 152.5t192 293.5t77 361q4 187 -60 328.5t-179 205.5t-254 31q-139 -32 -259.5 -151.5t-193 -294t-76.5 -361.5q-5 -186 59.5 -328t180 -206t254.5 -31z" />
<glyph unicode="&#xd6;" horiz-adv-x="1454" d="M838 1550q-35 0 -59.5 24.5t-24.5 59.5t24.5 59.5t59.5 24.5q34 0 59 -24.5t25 -59.5t-25 -59.5t-59 -24.5zM1124 1550q-35 0 -58.5 24.5t-23.5 59.5t23.5 59.5t58.5 24.5q36 0 60 -24t24 -60t-24 -60t-60 -24zM575 -39q-220 -11 -357 91.5t-167 316.5q-24 137 -3.5 271 t69 255t131 225t180.5 180.5t218 121.5t245 48q101 2 185.5 -23.5t144.5 -74t104 -116t63.5 -148.5t24 -172.5t-15.5 -187.5q-40 -221 -150.5 -393.5t-284 -277t-387.5 -116.5zM713 31q139 33 259 152.5t192 293.5t77 361q4 187 -60 328.5t-179 205.5t-254 31 q-139 -32 -259.5 -151.5t-193 -294t-76.5 -361.5q-5 -186 59.5 -328t180 -206t254.5 -31z" />
<glyph unicode="&#xd7;" horiz-adv-x="995" d="M152 197l-43 43q-14 14 0 32l290 291q9 11 9 25t-11 26l-288 287q-6 7 -6 17t6 16l43 41q4 7 13 7t17 -7l287 -287q29 -28 57 0l285 287q17 17 35 0l41 -41q6 -6 6 -16t-6 -17l-287 -285q-28 -28 0 -57l287 -287q14 -18 0 -32l-41 -43q-18 -11 -35 0l-287 290 q-29 24 -53 0l-289 -290q-19 -11 -30 0z" />
<glyph unicode="&#xd8;" horiz-adv-x="1714" d="M1712 1307q3 -4 1 -13.5t-9 -13.5l-201 -154q53 -172 15 -378q-40 -221 -150.5 -393.5t-284 -277t-387.5 -116.5q-321 -16 -454 199l-179 -137q-19 -13 -32 0l-29 40q-11 18 8 31l193 148q-23 64 -31 127q-24 137 -3.5 271t69 255t131 225t180.5 180.5t218 121.5t245 48 q166 4 281.5 -65.5t176.5 -194.5l183 140q15 15 30 0zM340 596q-3 -123 25 -229l962 733q-57 172 -180.5 256.5t-278.5 46.5q-139 -32 -259.5 -151.5t-192.5 -294t-76 -361.5zM1362 838q3 74 -12 170l-955 -732q63 -144 180 -211t259 -34q139 33 259 152.5t192 293.5t77 361 z" />
<glyph unicode="&#xd9;" horiz-adv-x="1609" d="M1096 1518q-52 17 -136.5 40t-143.5 38l-58 14q-1 0 -2 0.5l-5 2.5t-5.5 5.5t-3 9t0.5 12.5q10 27 27 54t29 40l12 13q9 7 21 8.5t16 -4.5q41 -39 108.5 -89t114.5 -80l47 -30q17 -10 4 -26q-10 -13 -26 -8zM1073 -35q-10 7 -2 27q9 27 10 31q48 165 12 172 q-11 2 -30 -13q-112 -108 -261.5 -166.5t-288 -53t-224.5 72.5q-163 130 -109 452l54 299q55 300 65 377q3 21 7 53t2 93t-21 77q-15 17 -109 29q-12 0 -14 12q0 4 1 9t7 12.5t16 3.5q154 -18 242 -18q34 0 91 4.5t97 9.5l41 4q11 4 15.5 -2.5t3.5 -14.5l-2 -8 q-2 -5 -6.5 -8t-8.5 -3l-4 -1q-44 -5 -74 -12.5t-38 -12.5l-8 -4q-24 -15 -48 -70.5t-35 -103.5l-12 -49q-21 -102 -68.5 -365t-54.5 -323q-3 -19 -4 -42.5t0.5 -61t8 -72.5t22.5 -74.5t39.5 -71.5t62.5 -59t89 -41q9 -3 26.5 -6.5t71.5 -2.5t109 14.5t134.5 57t153.5 113.5 q4 3 10 9t23.5 29.5t33 52t33 77t27.5 103.5q2 14 53.5 300.5t63.5 362.5q4 20 8 51.5t2 91.5t-22 76q-19 21 -109 33q-14 0 -14 12q0 3 1 8t7 12.5t16 4.5q152 -18 242 -18q30 0 87 4.5t98 9.5l42 4q12 4 16 -2.5t2 -14.5l-3 -8q-2 -5 -6 -8t-7 -3l-4 -1q-42 -5 -71 -13.5 t-37 -13.5l-8 -6q-25 -16 -49 -71t-35 -101l-11 -47q-29 -138 -95 -519t-73 -480q-3 -36 9.5 -76t50.5 -49q17 -5 117 -19q12 0 12 -12q0 -3 -0.5 -7.5t-6.5 -11.5t-16 -5q-132 16 -198 16q-63 0 -127 -35q-11 -7 -21 0z" />
<glyph unicode="&#xda;" horiz-adv-x="1609" d="M760 1518q-19 -6 -23 8q-6 15 13 26q219 111 344 199q8 6 19 5t17 -9q3 -5 8 -14.5t12.5 -37.5t6.5 -55q-1 -11 -7.5 -18.5t-13.5 -9.5l-6 -2q-237 -53 -370 -92zM1073 -35q-10 7 -2 27q9 27 10 31q48 165 12 172q-11 2 -30 -13q-112 -108 -261.5 -166.5t-288 -53 t-224.5 72.5q-163 130 -109 452l54 299q55 300 65 377q3 21 7 53t2 93t-21 77q-15 17 -109 29q-12 0 -14 12q0 4 1 9t7 12.5t16 3.5q154 -18 242 -18q34 0 91 4.5t97 9.5l41 4q11 4 15.5 -2.5t3.5 -14.5l-2 -8q-2 -5 -6.5 -8t-8.5 -3l-4 -1q-44 -5 -74 -12.5t-38 -12.5 l-8 -4q-24 -15 -48 -70.5t-35 -103.5l-12 -49q-21 -102 -68.5 -365t-54.5 -323q-3 -19 -4 -42.5t0.5 -61t8 -72.5t22.5 -74.5t39.5 -71.5t62.5 -59t89 -41q9 -3 26.5 -6.5t71.5 -2.5t109 14.5t134.5 57t153.5 113.5q4 3 10 9t23.5 29.5t33 52t33 77t27.5 103.5 q2 14 53.5 300.5t63.5 362.5q4 20 8 51.5t2 91.5t-22 76q-19 21 -109 33q-14 0 -14 12q0 3 1 8t7 12.5t16 4.5q152 -18 242 -18q30 0 87 4.5t98 9.5l42 4q12 4 16 -2.5t2 -14.5l-3 -8q-2 -5 -6 -8t-7 -3l-4 -1q-42 -5 -71 -13.5t-37 -13.5l-8 -6q-25 -16 -49 -71t-35 -101 l-11 -47q-29 -138 -95 -519t-73 -480q-3 -36 9.5 -76t50.5 -49q17 -5 117 -19q12 0 12 -12q0 -3 -0.5 -7.5t-6.5 -11.5t-16 -5q-132 16 -198 16q-63 0 -127 -35q-11 -7 -21 0z" />
<glyph unicode="&#xdb;" horiz-adv-x="1609" d="M745 1507q-16 13 5 31q107 104 211 219q17 17 43 17q13 0 21 -4t9 -8l2 -5q28 -51 61 -106t53 -84l19 -29q13 -14 -4 -31q-7 -6 -16 -6t-14 6q-40 58 -131 125q-29 16 -60 0q-109 -67 -172 -125q-6 -5 -14 -5t-13 5zM1073 -35q-10 7 -2 27q9 27 10 31q48 165 12 172 q-11 2 -30 -13q-112 -108 -261.5 -166.5t-288 -53t-224.5 72.5q-163 130 -109 452l54 299q55 300 65 377q3 21 7 53t2 93t-21 77q-15 17 -109 29q-12 0 -14 12q0 4 1 9t7 12.5t16 3.5q154 -18 242 -18q34 0 91 4.5t97 9.5l41 4q11 4 15.5 -2.5t3.5 -14.5l-2 -8 q-2 -5 -6.5 -8t-8.5 -3l-4 -1q-44 -5 -74 -12.5t-38 -12.5l-8 -4q-24 -15 -48 -70.5t-35 -103.5l-12 -49q-21 -102 -68.5 -365t-54.5 -323q-3 -19 -4 -42.5t0.5 -61t8 -72.5t22.5 -74.5t39.5 -71.5t62.5 -59t89 -41q9 -3 26.5 -6.5t71.5 -2.5t109 14.5t134.5 57t153.5 113.5 q4 3 10 9t23.5 29.5t33 52t33 77t27.5 103.5q2 14 53.5 300.5t63.5 362.5q4 20 8 51.5t2 91.5t-22 76q-19 21 -109 33q-14 0 -14 12q0 3 1 8t7 12.5t16 4.5q152 -18 242 -18q30 0 87 4.5t98 9.5l42 4q12 4 16 -2.5t2 -14.5l-3 -8q-2 -5 -6 -8t-7 -3l-4 -1q-42 -5 -71 -13.5 t-37 -13.5l-8 -6q-25 -16 -49 -71t-35 -101l-11 -47q-29 -138 -95 -519t-73 -480q-3 -36 9.5 -76t50.5 -49q17 -5 117 -19q12 0 12 -12q0 -3 -0.5 -7.5t-6.5 -11.5t-16 -5q-132 16 -198 16q-63 0 -127 -35q-11 -7 -21 0z" />
<glyph unicode="&#xdc;" horiz-adv-x="1609" d="M805 1550q-35 0 -59.5 24.5t-24.5 59.5t24.5 59.5t59.5 24.5q34 0 59 -24.5t25 -59.5t-25 -59.5t-59 -24.5zM1092 1550q-35 0 -58.5 24.5t-23.5 59.5t23.5 59.5t58.5 24.5q36 0 60 -24t24 -60t-24 -60t-60 -24zM1073 -35q-10 7 -2 27q9 27 10 31q48 165 12 172 q-11 2 -30 -13q-112 -108 -261.5 -166.5t-288 -53t-224.5 72.5q-163 130 -109 452l54 299q55 300 65 377q3 21 7 53t2 93t-21 77q-15 17 -109 29q-12 0 -14 12q0 4 1 9t7 12.5t16 3.5q154 -18 242 -18q34 0 91 4.5t97 9.5l41 4q11 4 15.5 -2.5t3.5 -14.5l-2 -8 q-2 -5 -6.5 -8t-8.5 -3l-4 -1q-44 -5 -74 -12.5t-38 -12.5l-8 -4q-24 -15 -48 -70.5t-35 -103.5l-12 -49q-21 -102 -68.5 -365t-54.5 -323q-3 -19 -4 -42.5t0.5 -61t8 -72.5t22.5 -74.5t39.5 -71.5t62.5 -59t89 -41q9 -3 26.5 -6.5t71.5 -2.5t109 14.5t134.5 57t153.5 113.5 q4 3 10 9t23.5 29.5t33 52t33 77t27.5 103.5q2 14 53.5 300.5t63.5 362.5q4 20 8 51.5t2 91.5t-22 76q-19 21 -109 33q-14 0 -14 12q0 3 1 8t7 12.5t16 4.5q152 -18 242 -18q30 0 87 4.5t98 9.5l42 4q12 4 16 -2.5t2 -14.5l-3 -8q-2 -5 -6 -8t-7 -3l-4 -1q-42 -5 -71 -13.5 t-37 -13.5l-8 -6q-25 -16 -49 -71t-35 -101l-11 -47q-29 -138 -95 -519t-73 -480q-3 -36 9.5 -76t50.5 -49q17 -5 117 -19q12 0 12 -12q0 -3 -0.5 -7.5t-6.5 -11.5t-16 -5q-132 16 -198 16q-63 0 -127 -35q-11 -7 -21 0z" />
<glyph unicode="&#xdd;" horiz-adv-x="1275" d="M616 1518q-18 -6 -22 8q-6 15 12 26q219 111 344 199q7 6 19 4.5t18 -8.5q3 -5 8 -14.5t12.5 -37.5t6.5 -55q-1 -11 -7.5 -18.5t-12.5 -9.5l-7 -2q-238 -53 -371 -92zM225 -16q-11 -2 -14.5 4t-1.5 13l2 7q1 5 5 8t8 4h3q42 5 71.5 13t38.5 13l9 5q24 16 47 71t34 102 l11 46q49 240 51 250q6 38 3 53q-42 156 -117.5 401.5t-132.5 399.5q-11 29 -58 35l-49 6q-12 0 -12 12q0 3 0.5 7.5t6 11.5t15.5 6q129 -18 195 -18q34 0 91 4.5t97 9.5l41 4q10 1 14 -5.5t3 -12.5l-2 -7q-2 -5 -6.5 -8t-8.5 -3l-4 -1q-23 -2 -82 -10q-25 -4 -36 -19 t-9 -28l2 -12q68 -281 166 -609q5 -14 15.5 -14.5t21.5 14.5q79 113 225 315.5t199 280.5q16 21 13 44.5t-31 27.5q-11 2 -35.5 5t-34.5 5q-12 0 -12 12q0 3 1 7.5t7 11.5t16 6q150 -18 213 -18q22 0 61.5 4.5t68.5 9.5l28 4q11 1 14.5 -5.5t1.5 -12.5l-2 -7q-1 -5 -5 -8 t-7 -3l-4 -1l-45 -6q-66 -10 -98 -45q-108 -137 -541 -715q-18 -22 -29 -61q-44 -187 -63 -318q-3 -20 -7 -51.5t-2 -91.5t21 -76q17 -19 109 -31q12 0 12 -12q0 -3 -0.5 -7.5t-7 -11.5t-17.5 -5q-145 16 -221 16q-32 0 -93.5 -4t-107.5 -8z" />
<glyph unicode="&#xde;" horiz-adv-x="1222" d="M59 -16q-12 -2 -15.5 5t-1.5 15l3 8q0 3 4 5t8 3h4q40 5 69.5 13t39.5 13l10 5q28 16 53 71.5t37 102.5l11 47q39 171 90 447q52 281 73 444q3 20 7 51.5t0.5 91.5t-25.5 76q-20 19 -104 31q-17 2 -17 8q0 3 0.5 8.5t7.5 13.5t19 7q55 -16 237 -16q81 0 142.5 4t82.5 8 l21 4q12 1 16 -6.5t2 -15.5l-2 -7q-1 -3 -5.5 -5t-8.5 -2l-4 -1q-41 -5 -70 -13t-38 -13l-9 -5q-54 -33 -96 -198q-3 -16 1.5 -25t8.5 -9.5t10 -0.5h1q91 21 258 4q5 0 13.5 -1t34 -5.5t49.5 -11.5t55 -22t56 -34t48 -49.5t34.5 -67.5t11.5 -89t-16 -113q-2 -6 -5.5 -17.5 t-20 -45.5t-38 -66t-61.5 -74t-88 -76t-119.5 -65.5t-154.5 -48.5q-22 -5 -53 -7q-8 3 -11.5 4.5t-8 6t-3.5 10.5q4 20 33 22q91 10 166 54l9 6t23.5 17.5t33.5 29t37 41.5t37.5 54t30.5 67t20.5 79.5t3.5 92.5t-17 106q-2 6 -5.5 16t-21 35t-42 44t-71 35t-104.5 16 q-76 2 -139 -35q-25 -18 -31 -41q-6 -31 -18 -89.5t-22 -111t-19 -100.5q-55 -296 -74 -447q-3 -21 -7 -52.5t0 -92t26 -76.5q26 -23 102 -31q18 0 18 -8q0 -4 -1 -9t-8 -13t-19 -6q-56 14 -238 16q-81 -1 -142.5 -5t-82.5 -7z" />
<glyph unicode="&#xdf;" horiz-adv-x="1067" d="M616 -31q-37 0 -64 6.5t-38.5 16t-18 19t-6.5 15.5v7q0 33 19 87t27 109q7 31 38 31q14 0 17 -8q1 -5 -3 -20t-8 -27l-4 -12q-17 -53 -14 -99t21 -55q20 -12 49 -8q54 5 100 48t60 124q21 112 -93 243q-118 125 -92 271q11 62 52.5 120t115.5 128q65 59 106.5 114 t53.5 121q19 97 -28 160t-152 63q-111 0 -209.5 -147.5t-145.5 -384.5l-18 -107q-50 -281 -98 -620q-4 -90 20 -111q15 -18 78 -30q12 -3 12 -9q0 -4 -1 -9t-7 -13.5t-16 -7.5q-41 16 -193 16q-68 0 -119.5 -4t-68.5 -8l-17 -4q-9 -1 -11.5 6.5t-0.5 15.5l2 8q1 3 4.5 5 t6.5 3l3 1q32 5 55.5 12.5t31.5 12.5l8 5q31 22 63 129q59 254 139 658l15 84q16 69 26 106t32.5 96t49.5 103q68 118 173.5 199t230.5 81q76 0 133.5 -24.5t87.5 -65t41.5 -89.5t1.5 -101q-7 -35 -18 -63.5t-32 -56t-32.5 -40.5t-44.5 -43.5t-41 -38.5l-51 -49 q-99 -89 -113 -166q-11 -59 12 -108t80 -111q18 -20 30.5 -35.5t28 -39.5t23 -45t16 -51.5t6 -59t-6.5 -68.5q-24 -123 -113.5 -201.5t-190.5 -83.5z" />
<glyph unicode="&#xe0;" d="M799 1143q-45 30 -121 74t-129 73l-53 29q-2 1 -4.5 4t-6 12t3.5 19q16 24 39.5 45t38.5 30l15 9q12 6 22.5 4t13.5 -10q30 -48 83 -113.5t91 -106.5l37 -41q13 -16 -4 -26q-11 -11 -26 -2zM385 -39q-71 0 -128 21.5t-92 55.5t-60.5 75t-37 82.5t-18.5 75.5t-7 55l-1 22 q1 120 24.5 223t61 172t82.5 124t89.5 86t81.5 52t60 28l23 7q214 49 307 -84q15 -20 27 -18q7 2 16 25l12 41q4 11 11 16t12 4h6q37 -2 76 0q8 1 11.5 -4t2.5 -10v-6q-64 -338 -121 -709q-12 -74 -14 -137q-1 -44 7 -71.5t17.5 -35.5t20.5 -8q27 0 53 20t47 54t36 64 t30 66.5t20 45.5q6 14 25 8q18 -6 14 -22q-82 -318 -278 -318q-51 0 -84 28t-47 68q-8 24 -16.5 28.5t-26.5 -11.5q-32 -32 -68.5 -55t-66 -33.5t-54.5 -17t-39 -6.5zM487 45q44 13 80 39t60 63t41 73t28.5 84t17 79t11.5 74l18 141q41 362 -140 396q-48 9 -111 -7 q-6 -1 -16.5 -5t-40 -22t-57 -43.5t-61.5 -75.5t-59 -112.5t-43.5 -160t-21.5 -212.5q0 -5 0.5 -13.5t2.5 -36t7 -51t14.5 -58.5t24.5 -58.5t37 -52t51.5 -38t68.5 -16t88 12.5z" />
<glyph unicode="&#xe1;" d="M526 1145q-16 -13 -24 2q-10 13 6 29q182 163 280 280q6 8 17.5 10t19.5 -4q40 -37 54 -96q2 -11 -3 -20.5t-10 -13.5l-6 -3q-215 -112 -334 -184zM385 -39q-71 0 -128 21.5t-92 55.5t-60.5 75t-37 82.5t-18.5 75.5t-7 55l-1 22q1 120 24.5 223t61 172t82.5 124t89.5 86 t81.5 52t60 28l23 7q214 49 307 -84q15 -20 27 -18q7 2 16 25l12 41q4 11 11 16t12 4h6q37 -2 76 0q8 1 11.5 -4t2.5 -10v-6q-64 -338 -121 -709q-12 -74 -14 -137q-1 -44 7 -71.5t17.5 -35.5t20.5 -8q27 0 53 20t47 54t36 64t30 66.5t20 45.5q6 14 25 8q18 -6 14 -22 q-82 -318 -278 -318q-51 0 -84 28t-47 68q-8 24 -16.5 28.5t-26.5 -11.5q-32 -32 -68.5 -55t-66 -33.5t-54.5 -17t-39 -6.5zM487 45q44 13 80 39t60 63t41 73t28.5 84t17 79t11.5 74l18 141q41 362 -140 396q-48 9 -111 -7q-6 -1 -16.5 -5t-40 -22t-57 -43.5t-61.5 -75.5 t-59 -112.5t-43.5 -160t-21.5 -212.5q0 -5 0.5 -13.5t2.5 -36t7 -51t14.5 -58.5t24.5 -58.5t37 -52t51.5 -38t68.5 -16t88 12.5z" />
<glyph unicode="&#xe2;" d="M465 1180q-16 13 4 30q107 105 211 220q16 16 43 16q13 0 21 -4t10 -8l2 -4q28 -51 61 -106t53 -84l19 -30q13 -13 -4 -30q-7 -6 -16.5 -6t-14.5 6q-40 58 -131 125q-28 16 -59 0q-109 -67 -172 -125q-6 -4 -14 -4t-13 4zM385 -39q-71 0 -128 21.5t-92 55.5t-60.5 75 t-37 82.5t-18.5 75.5t-7 55l-1 22q1 120 24.5 223t61 172t82.5 124t89.5 86t81.5 52t60 28l23 7q214 49 307 -84q15 -20 27 -18q7 2 16 25l12 41q4 11 11 16t12 4h6q37 -2 76 0q8 1 11.5 -4t2.5 -10v-6q-64 -338 -121 -709q-12 -74 -14 -137q-1 -44 7 -71.5t17.5 -35.5 t20.5 -8q27 0 53 20t47 54t36 64t30 66.5t20 45.5q6 14 25 8q18 -6 14 -22q-82 -318 -278 -318q-51 0 -84 28t-47 68q-8 24 -16.5 28.5t-26.5 -11.5q-32 -32 -68.5 -55t-66 -33.5t-54.5 -17t-39 -6.5zM487 45q44 13 80 39t60 63t41 73t28.5 84t17 79t11.5 74l18 141 q41 362 -140 396q-48 9 -111 -7q-6 -1 -16.5 -5t-40 -22t-57 -43.5t-61.5 -75.5t-59 -112.5t-43.5 -160t-21.5 -212.5q0 -5 0.5 -13.5t2.5 -36t7 -51t14.5 -58.5t24.5 -58.5t37 -52t51.5 -38t68.5 -16t88 12.5z" />
<glyph unicode="&#xe3;" d="M403 1243q-7 13 11 31q20 21 38 38t26 24l9 7q25 22 59 30.5t64.5 4t58 -11.5t43.5 -15l17 -8q47 -17 86.5 -9.5t64.5 24.5l25 18q23 20 37 6q10 -8 -16 -39q-16 -19 -32 -35.5t-24 -23.5l-8 -6q-25 -22 -59.5 -30.5t-65.5 -4t-58.5 11.5t-44.5 15l-16 8q-44 18 -82.5 12 t-65.5 -22l-26 -17q-15 -13 -25 -15t-13 2zM385 -39q-71 0 -128 21.5t-92 55.5t-60.5 75t-37 82.5t-18.5 75.5t-7 55l-1 22q1 120 24.5 223t61 172t82.5 124t89.5 86t81.5 52t60 28l23 7q214 49 307 -84q15 -20 27 -18q7 2 16 25l12 41q4 11 11 16t12 4h6q37 -2 76 0 q8 1 11.5 -4t2.5 -10v-6q-64 -338 -121 -709q-12 -74 -14 -137q-1 -44 7 -71.5t17.5 -35.5t20.5 -8q27 0 53 20t47 54t36 64t30 66.5t20 45.5q6 14 25 8q18 -6 14 -22q-82 -318 -278 -318q-51 0 -84 28t-47 68q-8 24 -16.5 28.5t-26.5 -11.5q-32 -32 -68.5 -55t-66 -33.5 t-54.5 -17t-39 -6.5zM487 45q44 13 80 39t60 63t41 73t28.5 84t17 79t11.5 74l18 141q41 362 -140 396q-48 9 -111 -7q-6 -1 -16.5 -5t-40 -22t-57 -43.5t-61.5 -75.5t-59 -112.5t-43.5 -160t-21.5 -212.5q0 -5 0.5 -13.5t2.5 -36t7 -51t14.5 -58.5t24.5 -58.5t37 -52 t51.5 -38t68.5 -16t88 12.5z" />
<glyph unicode="&#xe4;" d="M502 1294q-35 0 -59.5 24.5t-24.5 59.5t24.5 59.5t59.5 24.5q34 0 59 -24.5t25 -59.5t-25 -59.5t-59 -24.5zM788 1294q-35 0 -58 24t-23 60t23 60t58 24q36 0 60 -24t24 -60t-24 -60t-60 -24zM385 -39q-71 0 -128 21.5t-92 55.5t-60.5 75t-37 82.5t-18.5 75.5t-7 55 l-1 22q1 120 24.5 223t61 172t82.5 124t89.5 86t81.5 52t60 28l23 7q214 49 307 -84q15 -20 27 -18q7 2 16 25l12 41q4 11 11 16t12 4h6q37 -2 76 0q8 1 11.5 -4t2.5 -10v-6q-64 -338 -121 -709q-12 -74 -14 -137q-1 -44 7 -71.5t17.5 -35.5t20.5 -8q27 0 53 20t47 54t36 64 t30 66.5t20 45.5q6 14 25 8q18 -6 14 -22q-82 -318 -278 -318q-51 0 -84 28t-47 68q-8 24 -16.5 28.5t-26.5 -11.5q-32 -32 -68.5 -55t-66 -33.5t-54.5 -17t-39 -6.5zM487 45q44 13 80 39t60 63t41 73t28.5 84t17 79t11.5 74l18 141q41 362 -140 396q-48 9 -111 -7 q-6 -1 -16.5 -5t-40 -22t-57 -43.5t-61.5 -75.5t-59 -112.5t-43.5 -160t-21.5 -212.5q0 -5 0.5 -13.5t2.5 -36t7 -51t14.5 -58.5t24.5 -58.5t37 -52t51.5 -38t68.5 -16t88 12.5z" />
<glyph unicode="&#xe5;" d="M639 1237q-61 0 -104 42.5t-43 104.5t43 105t104 43t104 -43t43 -105t-43 -104.5t-104 -42.5zM639 1305q32 0 56 23.5t24 55.5t-24 56t-56 24t-56 -24t-24 -56t24 -55.5t56 -23.5zM385 -39q-71 0 -128 21.5t-92 55.5t-60.5 75t-37 82.5t-18.5 75.5t-7 55l-1 22 q1 120 24.5 223t61 172t82.5 124t89.5 86t81.5 52t60 28l23 7q214 49 307 -84q15 -20 27 -18q7 2 16 25l12 41q4 11 11 16t12 4h6q37 -2 76 0q8 1 11.5 -4t2.5 -10v-6q-64 -338 -121 -709q-12 -74 -14 -137q-1 -44 7 -71.5t17.5 -35.5t20.5 -8q27 0 53 20t47 54t36 64 t30 66.5t20 45.5q6 14 25 8q18 -6 14 -22q-82 -318 -278 -318q-51 0 -84 28t-47 68q-8 24 -16.5 28.5t-26.5 -11.5q-32 -32 -68.5 -55t-66 -33.5t-54.5 -17t-39 -6.5zM487 45q44 13 80 39t60 63t41 73t28.5 84t17 79t11.5 74l18 141q41 362 -140 396q-48 9 -111 -7 q-6 -1 -16.5 -5t-40 -22t-57 -43.5t-61.5 -75.5t-59 -112.5t-43.5 -160t-21.5 -212.5q0 -5 0.5 -13.5t2.5 -36t7 -51t14.5 -58.5t24.5 -58.5t37 -52t51.5 -38t68.5 -16t88 12.5z" />
<glyph unicode="&#xe6;" horiz-adv-x="1511" d="M1389 199q8 -7 6.5 -17t-7.5 -19l-6 -9q-147 -195 -378 -195q-238 0 -312 213q-18 -16 -43.5 -32.5t-59 -37t-46.5 -28.5q-129 -71 -170 -87q-70 -26 -150 -26q-109 0 -173.5 65.5t-43.5 168.5q15 88 73 164.5t148.5 134.5t197 102t232.5 76q3 1 8 2.5t14 10.5t11 22 q1 9 9.5 50t11.5 64q13 77 -26.5 127.5t-131.5 50.5q-105 0 -162 -20.5t-80 -71.5q0 -4 -0.5 -10t-3.5 -23t-8 -31t-16.5 -28t-26.5 -20q-3 -1 -8 -3t-19 -4t-25 -1t-22 9.5t-14 24.5q-6 25 16 62.5t65 75t118.5 64t164.5 26.5q82 0 141 -13t91.5 -36.5t51.5 -55t20.5 -68.5 t-0.5 -77q5 7 59 69q41 42 89 79t125.5 70.5t150.5 33.5q44 0 77.5 -5t65.5 -19.5t49.5 -44t17.5 -73.5q0 -81 -50.5 -157.5t-125 -131.5t-165.5 -100t-168 -70.5t-136 -35.5q-4 -62 -1.5 -113.5t13 -99.5t31.5 -81t53.5 -57.5t79 -29t107.5 3.5q135 22 248 156 q7 8 15.5 9.5t12.5 -0.5zM1159 977q-73 -23 -134 -77t-100.5 -124t-63.5 -145t-30 -148q101 27 182.5 61.5t133.5 71.5t89.5 72t58 71.5t30 60.5t14.5 48q18 75 -28.5 109t-151.5 0zM502 115q61 38 83 63.5t27 57.5l60 339q3 18 -4 24t-25 1q-173 -44 -258 -90 q-65 -36 -121 -94.5t-87.5 -120t-26 -122t56.5 -97.5q43 -31 96 -31.5t98 17.5t101 53z" />
<glyph unicode="&#xe7;" horiz-adv-x="935" d="M641 1053q62 2 111 -7t79 -26t50.5 -38.5t27 -44.5t6.5 -43.5t-8 -35.5q-17 -36 -40.5 -45t-38.5 -1l-15 9q-16 13 -28 38t-15 44l-4 19q-17 71 -133 71q-74 0 -143 -39.5t-123.5 -112t-88.5 -184t-38 -245.5q-6 -199 77.5 -304.5t227.5 -70.5q76 18 137 63.5t100 96.5 q12 18 27 6q11 -11 9 -23.5t-11 -23.5q-91 -121 -225 -170q-69 -99 -41 -127q5 -3 12 -9t20.5 -26.5t18 -42t-5.5 -54t-41 -65.5q-2 -2 -6.5 -6t-19 -15t-28.5 -20t-34.5 -18.5t-39.5 -13.5t-41 -2t-40 12q-1 1 -3.5 2.5t-8 6.5t-10.5 10t-10 12t-7 14t-1 15t7 15q1 1 3 3.5 t8 7t12.5 6.5t16 0t19.5 -10q4 -4 10.5 -9.5t26.5 -14t39 -5.5q3 0 7 1.5t15 7t19 13t13 23t2 35.5q-1 7 -5 18.5t-24.5 36t-50.5 37.5l-13 2q-6 4 2 10q7 5 19 14t42.5 43.5t53.5 75.5q-33 -8 -74 -8q-146 0 -235.5 73.5t-114.5 215.5q-34 199 31 382.5t204 297.5t312 123z " />
<glyph unicode="&#xe8;" horiz-adv-x="886" d="M799 1151q-45 30 -121 74t-129 73l-53 29q-2 1 -4.5 4t-6 12t3.5 19q16 24 39.5 45t38.5 30l15 9q12 6 22.5 4t13.5 -10q30 -48 83 -113t91 -106l37 -41q13 -17 -4 -27q-11 -11 -26 -2zM379 -39q-136 0 -220 71.5t-110 211.5q-31 162 33 328t188 298q41 42 89 79 t125.5 70.5t150.5 33.5q44 0 77.5 -5t66 -19.5t50 -44t17.5 -73.5q0 -81 -50.5 -157.5t-125 -131.5t-165.5 -100t-168 -70.5t-136 -35.5q-4 -53 -2.5 -98t8.5 -88.5t21 -75.5t36 -59.5t53 -41t72 -19.5t94 5q135 22 248 156q7 8 15.5 9.5t13.5 -0.5l4 -3q8 -7 6.5 -17 t-6.5 -19l-6 -9q-147 -195 -379 -195zM207 485q101 27 182.5 61.5t133.5 71.5t89.5 72t58 71.5t30 60.5t14.5 48q18 75 -28.5 109t-151.5 0q-73 -23 -134 -77t-100.5 -124t-63.5 -145t-30 -148z" />
<glyph unicode="&#xe9;" horiz-adv-x="886" d="M537 1145q-8 -6 -15 -5t-10 7q-10 13 6 29q183 163 281 280q6 8 17.5 10t19.5 -4q39 -37 53 -96q2 -11 -3 -20.5t-10 -13.5l-6 -3q-214 -112 -333 -184zM379 -39q-136 0 -220 71.5t-110 211.5q-31 162 33 328t188 298q41 42 89 79t125.5 70.5t150.5 33.5q44 0 77.5 -5 t66 -19.5t50 -44t17.5 -73.5q0 -81 -50.5 -157.5t-125 -131.5t-165.5 -100t-168 -70.5t-136 -35.5q-4 -53 -2.5 -98t8.5 -88.5t21 -75.5t36 -59.5t53 -41t72 -19.5t94 5q135 22 248 156q7 8 15.5 9.5t13.5 -0.5l4 -3q8 -7 6.5 -17t-6.5 -19l-6 -9q-147 -195 -379 -195z M207 485q101 27 182.5 61.5t133.5 71.5t89.5 72t58 71.5t30 60.5t14.5 48q18 75 -28.5 109t-151.5 0q-73 -23 -134 -77t-100.5 -124t-63.5 -145t-30 -148z" />
<glyph unicode="&#xea;" horiz-adv-x="886" d="M449 1180q-16 13 4 30q107 105 211 220q16 16 43 16q13 0 21 -4t10 -8l1 -4q28 -51 61.5 -106t52.5 -84l19 -30q13 -13 -4 -30q-8 -6 -16.5 -6t-13.5 6q-40 58 -131 125q-29 16 -60 0q-109 -67 -172 -125q-15 -11 -26 0zM379 -39q-136 0 -220 71.5t-110 211.5 q-31 162 33 328t188 298q41 42 89 79t125.5 70.5t150.5 33.5q44 0 77.5 -5t66 -19.5t50 -44t17.5 -73.5q0 -81 -50.5 -157.5t-125 -131.5t-165.5 -100t-168 -70.5t-136 -35.5q-4 -53 -2.5 -98t8.5 -88.5t21 -75.5t36 -59.5t53 -41t72 -19.5t94 5q135 22 248 156 q7 8 15.5 9.5t13.5 -0.5l4 -3q8 -7 6.5 -17t-6.5 -19l-6 -9q-147 -195 -379 -195zM207 485q101 27 182.5 61.5t133.5 71.5t89.5 72t58 71.5t30 60.5t14.5 48q18 75 -28.5 109t-151.5 0q-73 -23 -134 -77t-100.5 -124t-63.5 -145t-30 -148z" />
<glyph unicode="&#xeb;" horiz-adv-x="886" d="M528 1294q-35 0 -59.5 24.5t-24.5 59.5t24.5 59.5t59.5 24.5q34 0 59 -24.5t25 -59.5t-25 -59.5t-59 -24.5zM815 1294q-35 0 -58.5 24.5t-23.5 59.5t23.5 59.5t58.5 24.5q36 0 60 -24t24 -60t-24 -60t-60 -24zM379 -39q-136 0 -220 71.5t-110 211.5q-31 162 33 328 t188 298q41 42 89 79t125.5 70.5t150.5 33.5q44 0 77.5 -5t66 -19.5t50 -44t17.5 -73.5q0 -81 -50.5 -157.5t-125 -131.5t-165.5 -100t-168 -70.5t-136 -35.5q-4 -53 -2.5 -98t8.5 -88.5t21 -75.5t36 -59.5t53 -41t72 -19.5t94 5q135 22 248 156q7 8 15.5 9.5t13.5 -0.5 l4 -3q8 -7 6.5 -17t-6.5 -19l-6 -9q-147 -195 -379 -195zM207 485q101 27 182.5 61.5t133.5 71.5t89.5 72t58 71.5t30 60.5t14.5 48q18 75 -28.5 109t-151.5 0q-73 -23 -134 -77t-100.5 -124t-63.5 -145t-30 -148z" />
<glyph unicode="&#xec;" horiz-adv-x="638" d="M487 1151q-45 30 -121 74t-129 73l-53 29q-2 1 -4 4t-5.5 12t3.5 19q16 24 39 45t38 30l15 9q12 6 23 4t14 -10q30 -48 83 -113t90 -106l38 -41q13 -17 -4 -27q-11 -11 -27 -2zM299 -39q-65 0 -99.5 30.5t-39.5 80.5q-7 67 12 153q46 189 102 549q11 80 0.5 123.5 t-26.5 46.5l-17 4q-50 0 -129 -155q-7 -15 -24 -9q-19 8 -15 23q32 114 94 172.5t130 58.5q61 0 96.5 -35t42.5 -83q4 -46 -7 -108t-33.5 -156.5t-33.5 -151.5q-21 -113 -41 -279q-10 -67 -4 -107.5t17.5 -57.5t27.5 -17q27 0 53 20t47 54.5t36.5 65t30.5 67t20 45.5 q8 16 28 8q15 -6 11 -22q-83 -320 -279 -320z" />
<glyph unicode="&#xed;" horiz-adv-x="638" d="M217 1145q-16 -13 -24 2q-10 13 6 29q182 163 280 280q6 8 17.5 10t19.5 -4q39 -37 53 -96q2 -11 -2.5 -20.5t-10.5 -13.5l-5 -3q-215 -112 -334 -184zM299 -39q-65 0 -99.5 30.5t-39.5 80.5q-7 67 12 153q46 189 102 549q11 80 0.5 123.5t-26.5 46.5l-17 4 q-50 0 -129 -155q-7 -15 -24 -9q-19 8 -15 23q32 114 94 172.5t130 58.5q61 0 96.5 -35t42.5 -83q4 -46 -7 -108t-33.5 -156.5t-33.5 -151.5q-21 -113 -41 -279q-10 -67 -4 -107.5t17.5 -57.5t27.5 -17q27 0 53 20t47 54.5t36.5 65t30.5 67t20 45.5q8 16 28 8q15 -6 11 -22 q-83 -320 -279 -320z" />
<glyph unicode="&#xee;" horiz-adv-x="638" d="M139 1180q-16 13 4 30q107 105 211 220q16 16 43 16q13 0 21 -4t10 -8l2 -4q28 -51 61 -106t53 -84l19 -30q13 -13 -4 -30q-7 -6 -17 -6t-14 6q-40 58 -131 125q-28 16 -59 0q-109 -67 -172 -125q-6 -4 -14 -4t-13 4zM299 -39q-65 0 -99.5 30.5t-39.5 80.5q-7 67 12 153 q46 189 102 549q11 80 0.5 123.5t-26.5 46.5l-17 4q-50 0 -129 -155q-7 -15 -24 -9q-19 8 -15 23q32 114 94 172.5t130 58.5q61 0 96.5 -35t42.5 -83q4 -46 -7 -108t-33.5 -156.5t-33.5 -151.5q-21 -113 -41 -279q-10 -67 -4 -107.5t17.5 -57.5t27.5 -17q27 0 53 20t47 54.5 t36.5 65t30.5 67t20 45.5q8 16 28 8q15 -6 11 -22q-83 -320 -279 -320z" />
<glyph unicode="&#xef;" horiz-adv-x="638" d="M264 1294q-35 0 -59.5 24.5t-24.5 59.5t24.5 59.5t59.5 24.5q34 0 59 -24.5t25 -59.5t-25 -59.5t-59 -24.5zM551 1294q-35 0 -58.5 24.5t-23.5 59.5t23.5 59.5t58.5 24.5q36 0 60 -24t24 -60t-24 -60t-60 -24zM299 -39q-65 0 -99.5 30.5t-39.5 80.5q-7 67 12 153 q46 189 102 549q11 80 0.5 123.5t-26.5 46.5l-17 4q-50 0 -129 -155q-7 -15 -24 -9q-19 8 -15 23q32 114 94 172.5t130 58.5q61 0 96.5 -35t42.5 -83q4 -46 -7 -108t-33.5 -156.5t-33.5 -151.5q-21 -113 -41 -279q-10 -67 -4 -107.5t17.5 -57.5t27.5 -17q27 0 53 20t47 54.5 t36.5 65t30.5 67t20 45.5q8 16 28 8q15 -6 11 -22q-83 -320 -279 -320z" />
<glyph unicode="&#xf0;" horiz-adv-x="1048" d="M420 -27q-147 -7 -232 62q-99 77 -118 229q-27 168 31.5 347.5t185.5 297.5q72 65 163 103t175 41q101 3 194 -52q-38 157 -145 267l-232 -111q-16 -8 -20 6l-12 37q-4 17 10 23l196 96q-87 68 -200 98q-10 3 -14 8.5t-2 10.5l1 4l13 28q6 15 26 15q158 -35 275 -119 l219 106q6 3 12 1t8 -7l13 -37q4 -16 -11 -22l-184 -88q60 -57 103.5 -130.5t64.5 -145t34.5 -147.5t12.5 -137.5t-2 -115.5q0 -48 -10 -106q-40 -246 -184 -396q-73 -75 -172.5 -117.5t-198.5 -48.5zM510 37q130 34 228.5 199.5t101.5 363.5q4 197 -86.5 312.5t-218.5 80.5 q-130 -34 -228.5 -199.5t-101.5 -363.5q-4 -128 37.5 -227.5t113 -144t154.5 -21.5z" />
<glyph unicode="&#xf1;" horiz-adv-x="1128" d="M434 1243q-8 13 10 31q20 21 38.5 38t27.5 24l8 7q25 22 59 30.5t64.5 4t58 -11.5t44.5 -15l16 -8q47 -17 86.5 -9.5t64.5 24.5l25 18q23 20 37 6q9 -7 -17 -39q-16 -19 -32 -35.5t-24 -23.5l-7 -6q-25 -22 -59.5 -30.5t-65.5 -4t-58.5 11.5t-43.5 15l-17 8 q-44 18 -82.5 12t-64.5 -22l-27 -17q-15 -13 -25 -15t-13 2zM788 -39q-113 0 -139 115q-5 11 -3 36t4 37.5t7 38t7 37.5q90 457 108 596q0 1 1.5 11t2 15.5t1.5 17t0 19t-3 19t-6 18.5t-11 15.5t-16.5 13t-23 8t-29.5 3.5q-6 0 -16.5 -1t-41.5 -11t-61.5 -26.5t-70.5 -52.5 t-73 -84.5t-65.5 -127t-52.5 -175.5q-33 -210 -37 -243q-18 -147 -16 -209v-10t-8.5 -15t-24.5 -6q-55 6 -129 0q-4 -1 -8 -0.5t-10 9t6 32.5q14 33 53 197q55 248 100 532q11 81 0.5 125t-27.5 47l-16 4q-33 0 -69.5 -50.5t-59.5 -104.5q-6 -16 -24 -9q-17 7 -14 23 q32 114 93.5 172.5t129.5 58.5q46 0 75.5 -14.5t42.5 -42.5t17 -53.5t4 -63.5q0 -43 39 -1q1 1 10 11q36 46 81.5 79.5t84.5 49t72.5 24.5t53.5 10l19 1q83 0 124.5 -37t43.5 -86q0 -69 -18 -143q-30 -146 -49 -246q-5 -28 -45 -293q-13 -78 -4 -120t20.5 -55t26.5 -13 q23 0 46 15.5t40 37t34.5 54.5t27 55.5t21.5 53t15 36.5t9 8t11 1l5 -1q17 -6 14 -22q-83 -320 -279 -320z" />
<glyph unicode="&#xf2;" horiz-adv-x="1028" d="M793 1151q-45 30 -121 74t-130 73l-53 29q-2 1 -4 4t-5.5 12t3.5 19q16 24 39 45t38 30l15 9q12 6 23 4t14 -10q30 -48 83 -113t91 -106l37 -41q13 -17 -4 -27q-11 -11 -26 -2zM401 -39q-149 -8 -239.5 66t-110.5 225q-15 118 0 231.5t66 215t121.5 179t166.5 124.5 t201 51q86 2 154 -25t109.5 -77t67.5 -117.5t28 -146.5t-9 -165q-38 -241 -184 -393.5t-371 -167.5zM492 27q85 22 159.5 107.5t120.5 212t49 261.5q4 191 -86.5 303.5t-218.5 77.5q-85 -22 -160 -105t-121.5 -207t-48.5 -259q-3 -196 88 -311t218 -80z" />
<glyph unicode="&#xf3;" horiz-adv-x="1028" d="M532 1145q-16 -13 -24 2q-10 13 6 29q183 163 281 280q6 8 17 10t19 -4q40 -37 54 -96q2 -11 -3 -20.5t-10 -13.5l-6 -3q-215 -112 -334 -184zM401 -39q-149 -8 -239.5 66t-110.5 225q-15 118 0 231.5t66 215t121.5 179t166.5 124.5t201 51q86 2 154 -25t109.5 -77 t67.5 -117.5t28 -146.5t-9 -165q-38 -241 -184 -393.5t-371 -167.5zM492 27q85 22 159.5 107.5t120.5 212t49 261.5q4 191 -86.5 303.5t-218.5 77.5q-85 -22 -160 -105t-121.5 -207t-48.5 -259q-3 -196 88 -311t218 -80z" />
<glyph unicode="&#xf4;" horiz-adv-x="1028" d="M432 1180q-16 13 4 30q107 105 211 220q16 16 43 16q13 0 21 -4t10 -8l2 -4q28 -51 61.5 -106t52.5 -84l19 -30q13 -13 -4 -30q-7 -6 -16.5 -6t-14.5 6q-40 58 -131 125q-28 16 -59 0q-109 -67 -172 -125q-6 -4 -14.5 -4t-12.5 4zM401 -39q-149 -8 -239.5 66t-110.5 225 q-15 118 0 231.5t66 215t121.5 179t166.5 124.5t201 51q86 2 154 -25t109.5 -77t67.5 -117.5t28 -146.5t-9 -165q-38 -241 -184 -393.5t-371 -167.5zM492 27q85 22 159.5 107.5t120.5 212t49 261.5q4 191 -86.5 303.5t-218.5 77.5q-85 -22 -160 -105t-121.5 -207t-48.5 -259 q-3 -196 88 -311t218 -80z" />
<glyph unicode="&#xf5;" horiz-adv-x="1028" d="M428 1243q-8 13 10 31q20 21 38.5 38t27.5 24l8 7q25 22 59 30.5t64.5 4t58 -11.5t44.5 -15l16 -8q47 -17 86.5 -9.5t64.5 24.5l25 18q23 20 37 6q9 -7 -17 -39q-16 -19 -32 -35.5t-24 -23.5l-7 -6q-25 -22 -59.5 -30.5t-65.5 -4t-58.5 11.5t-43.5 15l-17 8 q-44 18 -82.5 12t-64.5 -22l-27 -17q-15 -13 -25 -15t-13 2zM401 -39q-149 -8 -239.5 66t-110.5 225q-15 118 0 231.5t66 215t121.5 179t166.5 124.5t201 51q86 2 154 -25t109.5 -77t67.5 -117.5t28 -146.5t-9 -165q-38 -241 -184 -393.5t-371 -167.5zM492 27 q85 22 159.5 107.5t120.5 212t49 261.5q4 191 -86.5 303.5t-218.5 77.5q-85 -22 -160 -105t-121.5 -207t-48.5 -259q-3 -196 88 -311t218 -80z" />
<glyph unicode="&#xf6;" horiz-adv-x="1028" d="M524 1294q-35 0 -59.5 24.5t-24.5 59.5t24.5 59.5t59.5 24.5q34 0 59 -24.5t25 -59.5t-25 -59.5t-59 -24.5zM811 1294q-35 0 -58.5 24.5t-23.5 59.5t23.5 59.5t58.5 24.5q36 0 60 -24t24 -60t-24 -60t-60 -24zM401 -39q-149 -8 -239.5 66t-110.5 225q-15 118 0 231.5 t66 215t121.5 179t166.5 124.5t201 51q86 2 154 -25t109.5 -77t67.5 -117.5t28 -146.5t-9 -165q-38 -241 -184 -393.5t-371 -167.5zM492 27q85 22 159.5 107.5t120.5 212t49 261.5q4 191 -86.5 303.5t-218.5 77.5q-85 -22 -160 -105t-121.5 -207t-48.5 -259q-3 -196 88 -311 t218 -80z" />
<glyph unicode="&#xf7;" horiz-adv-x="1052" d="M528 782q-33 0 -56 23.5t-23 54.5q0 34 22.5 57t56.5 23q33 0 56.5 -23.5t23.5 -56.5q0 -31 -24 -54.5t-56 -23.5zM125 543q-9 0 -16 6.5t-7 15.5v53q0 9 7 15t16 6h805q20 0 20 -21v-53q0 -9 -5.5 -15.5t-14.5 -6.5h-805zM528 244q-32 0 -54.5 23.5t-22.5 54.5 q0 34 22.5 56.5t54.5 22.5q33 0 56.5 -23t23.5 -56q0 -31 -24 -54.5t-56 -23.5z" />
<glyph unicode="&#xf8;" horiz-adv-x="1179" d="M1178 967q3 -4 0.5 -13.5t-9.5 -13.5l-178 -137q33 -122 8 -281q-38 -241 -184 -393.5t-371 -167.5q-239 -12 -319 174l-145 -112q-16 -13 -33 0l-27 40q-11 18 8 31l170 131q-1 4 -2 13.5t-2 13.5q-15 118 0 231.5t66 215t121.5 179t166.5 124.5t201 51q218 6 309 -166 l160 123q16 16 31 0zM229 418q0 -30 4 -88l607 465q-36 112 -112 166t-169 28q-85 -22 -160 -105t-121.5 -207t-48.5 -259zM864 608q0 63 -4 92l-606 -467q36 -117 112 -174.5t169 -31.5q85 22 159.5 107.5t120.5 212t49 261.5z" />
<glyph unicode="&#xf9;" horiz-adv-x="1179" d="M784 1151q-45 30 -121 74t-129 73l-53 29q-2 1 -4 4t-5.5 12t3.5 19q16 24 39 45t38 30l15 9q12 6 23 4t14 -10q30 -48 83 -113t91 -106l37 -41q13 -17 -4 -27q-11 -11 -27 -2zM838 -39q-63 0 -101.5 34t-38.5 81v16q0 12 -6 12q-7 0 -14 -10q-26 -37 -73.5 -68 t-104.5 -46q-148 -37 -237 -3t-123 112.5t-15 189.5l86 495q10 87 0.5 126t-25.5 44l-16 4q-54 0 -129 -153q-9 -18 -27 -9q-18 7 -14 23q32 113 93.5 171t129.5 58q62 0 97 -34.5t42 -81.5q5 -57 -14 -150q-42 -219 -86 -481q-2 -13 -3.5 -25t-2 -35.5t1 -43.5t8 -45 t17 -43.5t29.5 -35t44.5 -24.5t62.5 -7t83 13q33 11 62 28.5t51 37t41.5 49t33 53t26 60.5t19 61t14.5 65t11.5 61t9.5 61t8 54q10 70 39.5 248t32.5 185q2 7 8.5 11t12.5 5h6q49 -4 104 0q8 1 11 -5t2 -12l-1 -6q-28 -126 -79.5 -412t-63.5 -374q-24 -172 43 -172 q20 0 39 10.5t36 31t31 40.5t28 49.5t21.5 47.5t18 44.5t12.5 30.5q5 13 25 6q18 -6 14 -20q-85 -322 -280 -322z" />
<glyph unicode="&#xfa;" horiz-adv-x="1179" d="M528 1145q-16 -13 -24 2q-10 13 6 29q183 163 281 280q6 8 17 10t19 -4q40 -37 54 -96q2 -11 -3 -20.5t-10 -13.5l-6 -3q-215 -112 -334 -184zM838 -39q-63 0 -101.5 34t-38.5 81v16q0 12 -6 12q-7 0 -14 -10q-26 -37 -73.5 -68t-104.5 -46q-148 -37 -237 -3t-123 112.5 t-15 189.5l86 495q10 87 0.5 126t-25.5 44l-16 4q-54 0 -129 -153q-9 -18 -27 -9q-18 7 -14 23q32 113 93.5 171t129.5 58q62 0 97 -34.5t42 -81.5q5 -57 -14 -150q-42 -219 -86 -481q-2 -13 -3.5 -25t-2 -35.5t1 -43.5t8 -45t17 -43.5t29.5 -35t44.5 -24.5t62.5 -7t83 13 q33 11 62 28.5t51 37t41.5 49t33 53t26 60.5t19 61t14.5 65t11.5 61t9.5 61t8 54q10 70 39.5 248t32.5 185q2 7 8.5 11t12.5 5h6q49 -4 104 0q8 1 11 -5t2 -12l-1 -6q-28 -126 -79.5 -412t-63.5 -374q-24 -172 43 -172q20 0 39 10.5t36 31t31 40.5t28 49.5t21.5 47.5 t18 44.5t12.5 30.5q5 13 25 6q18 -6 14 -20q-85 -322 -280 -322z" />
<glyph unicode="&#xfb;" horiz-adv-x="1179" d="M440 1180q-16 13 4 30q107 105 211 220q16 16 43 16q13 0 21 -4t10 -8l2 -4q28 -51 61.5 -106t52.5 -84l19 -30q13 -13 -4 -30q-8 -6 -17 -6t-14 6q-40 58 -131 125q-28 16 -59 0q-109 -67 -172 -125q-6 -4 -14.5 -4t-12.5 4zM838 -39q-63 0 -101.5 34t-38.5 81v16 q0 12 -6 12q-7 0 -14 -10q-26 -37 -73.5 -68t-104.5 -46q-148 -37 -237 -3t-123 112.5t-15 189.5l86 495q10 87 0.5 126t-25.5 44l-16 4q-54 0 -129 -153q-9 -18 -27 -9q-18 7 -14 23q32 113 93.5 171t129.5 58q62 0 97 -34.5t42 -81.5q5 -57 -14 -150q-42 -219 -86 -481 q-2 -13 -3.5 -25t-2 -35.5t1 -43.5t8 -45t17 -43.5t29.5 -35t44.5 -24.5t62.5 -7t83 13q33 11 62 28.5t51 37t41.5 49t33 53t26 60.5t19 61t14.5 65t11.5 61t9.5 61t8 54q10 70 39.5 248t32.5 185q2 7 8.5 11t12.5 5h6q49 -4 104 0q8 1 11 -5t2 -12l-1 -6 q-28 -126 -79.5 -412t-63.5 -374q-24 -172 43 -172q20 0 39 10.5t36 31t31 40.5t28 49.5t21.5 47.5t18 44.5t12.5 30.5q5 13 25 6q18 -6 14 -20q-85 -322 -280 -322z" />
<glyph unicode="&#xfc;" horiz-adv-x="1179" d="M514 1294q-35 0 -59.5 24.5t-24.5 59.5t24.5 59.5t59.5 24.5q34 0 59 -24.5t25 -59.5t-25 -59.5t-59 -24.5zM801 1294q-35 0 -58.5 24.5t-23.5 59.5t23.5 59.5t58.5 24.5q36 0 60 -24t24 -60t-24 -60t-60 -24zM838 -39q-63 0 -101.5 34t-38.5 81v16q0 12 -6 12 q-7 0 -14 -10q-26 -37 -73.5 -68t-104.5 -46q-148 -37 -237 -3t-123 112.5t-15 189.5l86 495q10 87 0.5 126t-25.5 44l-16 4q-54 0 -129 -153q-9 -18 -27 -9q-18 7 -14 23q32 113 93.5 171t129.5 58q62 0 97 -34.5t42 -81.5q5 -57 -14 -150q-42 -219 -86 -481 q-2 -13 -3.5 -25t-2 -35.5t1 -43.5t8 -45t17 -43.5t29.5 -35t44.5 -24.5t62.5 -7t83 13q33 11 62 28.5t51 37t41.5 49t33 53t26 60.5t19 61t14.5 65t11.5 61t9.5 61t8 54q10 70 39.5 248t32.5 185q2 7 8.5 11t12.5 5h6q49 -4 104 0q8 1 11 -5t2 -12l-1 -6 q-28 -126 -79.5 -412t-63.5 -374q-24 -172 43 -172q20 0 39 10.5t36 31t31 40.5t28 49.5t21.5 47.5t18 44.5t12.5 30.5q5 13 25 6q18 -6 14 -20q-85 -322 -280 -322z" />
<glyph unicode="&#xfd;" horiz-adv-x="995" d="M444 1145q-16 -13 -24 2q-10 13 6 29q183 163 281 280q6 8 17 10t19 -4q40 -37 54 -96q2 -11 -3 -20.5t-10 -13.5l-6 -3q-215 -112 -334 -184zM0 -563q-82 -4 -146 51.5t-59 103.5q4 37 24.5 51.5t38.5 10.5l19 -4q17 -7 32.5 -23t22.5 -29l7 -12q24 -40 61 -51 q23 -6 44.5 -3.5t37.5 8.5l16 5q72 30 124.5 94.5t80 148t42.5 182.5t14 201t-7.5 202t-19.5 187t-24 154t-20 106l-9 38q-20 90 -68 90q-18 0 -37 -15t-38 -44.5t-28.5 -47t-25.5 -48.5q-3 -6 -12 -8t-15 1q-17 7 -14 21q32 114 93.5 172.5t129.5 58.5q34 0 63 -18.5 t45.5 -45t28 -53t15.5 -45.5l4 -18q47 -210 64 -422.5t10 -349.5q-3 -27 11 -26q22 3 52 65q106 214 186 506q23 111 11 157q-9 39 -30 64t-50 29q-57 10 -84 28q-2 2 -5.5 4.5t-9.5 12.5t-6 21t9.5 27.5t31.5 33.5q19 16 50 16t63.5 -15.5t62 -58t41.5 -104.5q6 -35 0 -92 q-9 -86 -39 -181q-23 -87 -50.5 -172t-76 -200t-104.5 -217.5t-138.5 -213t-176.5 -198.5q-21 -21 -45 -39q-107 -89 -197 -96z" />
<glyph unicode="&#xfe;" horiz-adv-x="1193" d="M-190 -592q-9 -2 -12 5.5t-2 15.5l1 8q1 4 5 6.5t8 2.5l4 1q27 5 48.5 13t29.5 13l8 5q28 18 59 110q74 301 164 781q22 116 85.5 475.5t82.5 490.5q7 34 1 78.5t-28 52.5t-94 0q-16 -4 -16 4q0 1 -1 3t-1 7.5t1.5 10t6.5 8t14 4.5q87 10 232 49h2l45 11h8t10.5 -7.5 t1.5 -23.5q-59 -250 -123 -586q0 -14 2 -16q4 -4 8 0q70 54 160.5 83t145.5 31l55 3q75 0 136 -21t98.5 -55t65.5 -74.5t41 -81.5t20.5 -75t8.5 -55l1 -21q1 -93 -13.5 -175.5t-40.5 -143.5t-59.5 -113t-71 -88t-75.5 -64.5t-72.5 -45t-61 -27.5t-42.5 -15l-15 -4 q-290 -55 -418 51q-17 12 -28 8q-13 -4 -13 -12q-54 -334 -67 -449q-4 -86 18 -108q23 -19 84 -31q10 -2 12 -10q0 -4 -1 -9t-7 -13.5t-16 -6.5q-45 17 -199 17q-68 0 -117 -4.5t-64 -8.5zM586 27q7 2 20 5.5t49 22t69 43.5t73 73.5t68.5 108.5t47.5 151.5t17 199.5 q-1 17 -4.5 45t-26 96.5t-57 117t-106.5 78.5t-167 9q-32 -7 -61 -21.5t-51 -30.5t-43 -41.5t-34.5 -45t-28 -52t-22 -51t-17 -53t-13 -47.5t-10.5 -45.5t-8 -36.5l-29 -152q-1 -6 -2.5 -15.5t-4.5 -41t-1 -58.5t7.5 -68t20.5 -69t39 -61.5t62 -46.5t90 -23t123 9z" />
<glyph unicode="&#xff;" horiz-adv-x="995" d="M440 1294q-35 0 -59.5 24.5t-24.5 59.5t24.5 59.5t59.5 24.5q34 0 59 -24.5t25 -59.5t-25 -59.5t-59 -24.5zM727 1294q-35 0 -58.5 24.5t-23.5 59.5t23.5 59.5t58.5 24.5q36 0 60 -24t24 -60t-24 -60t-60 -24zM0 -563q-82 -4 -146 51.5t-59 103.5q4 37 24.5 51.5 t38.5 10.5l19 -4q17 -7 32.5 -23t22.5 -29l7 -12q24 -40 61 -51q23 -6 44.5 -3.5t37.5 8.5l16 5q72 30 124.5 94.5t80 148t42.5 182.5t14 201t-7.5 202t-19.5 187t-24 154t-20 106l-9 38q-20 90 -68 90q-18 0 -37 -15t-38 -44.5t-28.5 -47t-25.5 -48.5q-3 -6 -12 -8t-15 1 q-17 7 -14 21q32 114 93.5 172.5t129.5 58.5q34 0 63 -18.5t45.5 -45t28 -53t15.5 -45.5l4 -18q47 -210 64 -422.5t10 -349.5q-3 -27 11 -26q22 3 52 65q106 214 186 506q23 111 11 157q-9 39 -30 64t-50 29q-57 10 -84 28q-2 2 -5.5 4.5t-9.5 12.5t-6 21t9.5 27.5 t31.5 33.5q19 16 50 16t63.5 -15.5t62 -58t41.5 -104.5q6 -35 0 -92q-9 -86 -39 -181q-23 -87 -50.5 -172t-76 -200t-104.5 -217.5t-138.5 -213t-176.5 -198.5q-21 -21 -45 -39q-107 -89 -197 -96z" />
<glyph unicode="&#x152;" horiz-adv-x="1914" d="M637 -39q-224 -11 -352 84q-69 52 -113.5 136t-58.5 184q-37 232 59 484t287 417q108 95 240 149.5t255 54.5q82 0 158 -24q59 -12 184 -12q316 0 533 18q4 0 8.5 -0.5t12.5 -6t-1 -20.5q-33 -65 -47 -172l-4 -47q-1 -11 -7.5 -16t-12.5 -4h-6q-10 1 -15 5t-5 7l1 4 q5 48 5 81t-2 41l-3 9q-20 49 -168 49q-102 0 -178 -16q-35 -9 -43 -39q-46 -184 -100 -473q-3 -21 4 -33t20 -12q179 -9 299 2q40 4 53 43q15 38 25 86q3 14 21 14q3 0 8 -0.5t11.5 -5t2.5 -12.5q-18 -55 -43 -170q-7 -49 -11.5 -89.5t-5.5 -56.5l-1 -16q-1 -10 -6.5 -15 t-10.5 -5h-6q-10 0 -15 4t-5 8v4q8 54 4 88q-2 19 -8.5 27.5t-26.5 11.5q-36 5 -154.5 5.5t-138.5 -1.5q-38 -3 -47 -39q-62 -341 -92 -569q-3 -35 26 -45q31 -9 83 -14.5t88 -7.5l36 -1q155 0 236 25q14 4 26 20q23 20 60 129q4 17 16 17q41 0 31 -25q-22 -47 -49 -147 l-8 -41q0 -11 -5 -20.5t-11 -12.5l-5 -4q-11 -8 -33.5 -11t-39.5 -2l-17 1q-240 16 -541 16q-186 0 -233 -12q-82 -21 -164 -27zM774 27q72 16 131 55q66 46 99 147l12 45q37 164 87 436t77 453q5 35 -8 81t-46 79q-138 119 -317 76q-139 -32 -259.5 -151.5t-192.5 -294 t-76 -361.5q-4 -139 33 -256.5t103 -193.5t159.5 -108t197.5 -7z" />
<glyph unicode="&#x153;" horiz-adv-x="1646" d="M1503 201q8 -7 6.5 -17t-7.5 -19l-5 -9q-147 -195 -379 -195q-264 0 -323 256q-31 -45 -66 -80q-73 -75 -172.5 -117.5t-198.5 -48.5q-146 -7 -231 62q-100 78 -119 229q-27 168 31.5 347.5t185.5 297.5q72 65 163 103t175 41q107 2 200.5 -56.5t131.5 -160.5 q14 -34 20 -80q43 61 95 116q41 42 89 79t125 70.5t150 33.5q44 0 77.5 -5t66 -19.5t50 -44t17.5 -73.5q0 -81 -50.5 -157.5t-125 -131.5t-165.5 -100t-168 -70.5t-136 -35.5q-4 -62 -1.5 -113.5t13 -99.5t31.5 -81t53.5 -57.5t79 -29t107.5 3.5q134 22 247 156 q7 8 15.5 9.5t12.5 -0.5zM778 598q4 197 -86.5 312.5t-218.5 80.5q-130 -34 -228.5 -199.5t-101.5 -363.5q-4 -128 37.5 -227.5t113.5 -144t155 -21.5q130 34 228 199.5t101 363.5zM1274 979q-73 -23 -134 -77t-100.5 -124t-63.5 -145t-30 -148q101 27 182.5 61.5 t133.5 71.5t89.5 72t58 71.5t30 60.5t14.5 48q18 75 -28.5 109t-151.5 0z" />
<glyph unicode="&#x178;" horiz-adv-x="1275" d="M666 1550q-35 0 -59.5 24.5t-24.5 59.5t24.5 59.5t59.5 24.5q34 0 59 -24.5t25 -59.5t-25 -59.5t-59 -24.5zM952 1550q-35 0 -58.5 24.5t-23.5 59.5t23.5 59.5t58.5 24.5q36 0 60 -24t24 -60t-24 -60t-60 -24zM225 -16q-11 -2 -14.5 4t-1.5 13l2 7q1 5 5 8t8 4h3 q42 5 71.5 13t38.5 13l9 5q24 16 47 71t34 102l11 46q49 240 51 250q6 38 3 53q-42 156 -117.5 401.5t-132.5 399.5q-11 29 -58 35l-49 6q-12 0 -12 12q0 3 0.5 7.5t6 11.5t15.5 6q129 -18 195 -18q34 0 91 4.5t97 9.5l41 4q10 1 14 -5.5t3 -12.5l-2 -7q-2 -5 -6.5 -8 t-8.5 -3l-4 -1q-23 -2 -82 -10q-25 -4 -36 -19t-9 -28l2 -12q68 -281 166 -609q5 -14 15.5 -14.5t21.5 14.5q79 113 225 315.5t199 280.5q16 21 13 44.5t-31 27.5q-11 2 -35.5 5t-34.5 5q-12 0 -12 12q0 3 1 7.5t7 11.5t16 6q150 -18 213 -18q22 0 61.5 4.5t68.5 9.5l28 4 q11 1 14.5 -5.5t1.5 -12.5l-2 -7q-1 -5 -5 -8t-7 -3l-4 -1l-45 -6q-66 -10 -98 -45q-108 -137 -541 -715q-18 -22 -29 -61q-44 -187 -63 -318q-3 -20 -7 -51.5t-2 -91.5t21 -76q17 -19 109 -31q12 0 12 -12q0 -3 -0.5 -7.5t-7 -11.5t-17.5 -5q-145 16 -221 16 q-32 0 -93.5 -4t-107.5 -8z" />
<glyph unicode="&#x2c6;" horiz-adv-x="641" d="M111 1507q-17 14 4 31q107 104 211 219q17 17 43 17q13 0 21 -4t10 -8l1 -5q28 -51 61.5 -106t53.5 -84l19 -29q5 -7 3.5 -15.5t-8.5 -15.5q-8 -6 -16.5 -6t-13.5 6q-40 58 -131 125q-29 16 -60 0q-109 -67 -172 -125q-15 -11 -26 0z" />
<glyph unicode="&#x2dc;" horiz-adv-x="751" d="M106 1567q-7 12 11 30q20 21 38.5 38.5t26.5 24.5l8 7q25 22 59 30.5t64.5 4t58 -11.5t44.5 -15l16 -8q47 -17 86.5 -9.5t64.5 24.5l25 18q23 20 37 6q10 -8 -16 -39q-16 -19 -32 -35.5t-24 -23.5l-8 -6q-25 -22 -59.5 -30.5t-65.5 -4t-58 11.5t-44 15l-16 8 q-44 18 -83 12t-65 -22l-27 -17q-15 -13 -25 -15t-13 2z" />
<glyph unicode="&#x2000;" horiz-adv-x="897" />
<glyph unicode="&#x2001;" horiz-adv-x="1794" />
<glyph unicode="&#x2002;" horiz-adv-x="897" />
<glyph unicode="&#x2003;" horiz-adv-x="1794" />
<glyph unicode="&#x2004;" horiz-adv-x="598" />
<glyph unicode="&#x2005;" horiz-adv-x="448" />
<glyph unicode="&#x2006;" horiz-adv-x="299" />
<glyph unicode="&#x2007;" horiz-adv-x="299" />
<glyph unicode="&#x2008;" horiz-adv-x="224" />
<glyph unicode="&#x2009;" horiz-adv-x="358" />
<glyph unicode="&#x200a;" horiz-adv-x="99" />
<glyph unicode="&#x2010;" horiz-adv-x="624" d="M125 553q-9 0 -16 6.5t-7 15.5v58q0 9 7 15.5t16 6.5h375q9 0 15.5 -6.5t6.5 -15.5v-58q0 -9 -6.5 -15.5t-15.5 -6.5h-375z" />
<glyph unicode="&#x2011;" horiz-adv-x="624" d="M125 553q-9 0 -16 6.5t-7 15.5v58q0 9 7 15.5t16 6.5h375q9 0 15.5 -6.5t6.5 -15.5v-58q0 -9 -6.5 -15.5t-15.5 -6.5h-375z" />
<glyph unicode="&#x2012;" horiz-adv-x="624" d="M125 553q-9 0 -16 6.5t-7 15.5v58q0 9 7 15.5t16 6.5h375q9 0 15.5 -6.5t6.5 -15.5v-58q0 -9 -6.5 -15.5t-15.5 -6.5h-375z" />
<glyph unicode="&#x2013;" horiz-adv-x="1077" d="M125 553q-9 0 -16 6.5t-7 15.5v58q0 9 7 15.5t16 6.5h827q9 0 16 -6.5t7 -15.5v-58q0 -9 -7 -15.5t-16 -6.5h-827z" />
<glyph unicode="&#x2014;" horiz-adv-x="1636" d="M84 553q-9 0 -16 6.5t-7 15.5v58q0 9 7 15.5t16 6.5h1468q9 0 16 -6.5t7 -15.5v-58q0 -9 -7 -15.5t-16 -6.5h-1468z" />
<glyph unicode="&#x2018;" horiz-adv-x="354" d="M231 1026q-13 0 -26.5 2.5t-33 12.5t-34 27t-25 50t-10.5 78q0 33 10 67t31.5 71t64.5 70.5t101 55.5q90 38 103 13q14 -27 -15 -35q-73 -23 -105 -47q-49 -36 -69 -97q-27 -98 64 -123q28 -8 39.5 -31.5t1.5 -52.5q-24 -61 -97 -61z" />
<glyph unicode="&#x2019;" horiz-adv-x="415" d="M287 1481q13 0 26.5 -2.5t33 -12.5t34 -27t25 -50t10.5 -78q0 -33 -10 -67t-31.5 -71t-64.5 -70.5t-101 -55.5q-90 -38 -103 -13q-14 28 15 35q72 23 102 44q51 36 72 99q27 98 -64 123q-28 8 -39.5 31.5t-1.5 52.5q24 62 97 62z" />
<glyph unicode="&#x201a;" horiz-adv-x="276" d="M53 217q13 0 26.5 -2.5t33 -12.5t34 -27t25 -50t10.5 -78q0 -33 -10 -67t-31.5 -71t-64.5 -70.5t-101 -55.5q-8 -4 -20.5 -8t-30.5 -9t-32.5 -4t-18.5 9q-13 27 14 34q73 23 105 47q49 36 69 97q27 99 -63 123q-28 8 -39.5 31.5t-1.5 52.5q24 61 96 61z" />
<glyph unicode="&#x201c;" horiz-adv-x="702" d="M211 1026q-13 0 -26.5 2.5t-33 12.5t-34 27t-25 50t-10.5 78q0 33 10 67t31.5 71t64.5 70.5t101 55.5q89 38 102 13q14 -28 -14 -35q-73 -23 -105 -47q-49 -36 -69 -97q-27 -99 63 -123q28 -8 39.5 -31.5t1.5 -52.5q-24 -61 -96 -61zM559 1026q-13 0 -26.5 2.5t-33 12.5 t-34 27t-25 50t-10.5 78q0 33 10 67t31.5 71t64.5 70.5t101 55.5q89 38 102 13q14 -28 -14 -35q-73 -23 -105 -47q-49 -36 -69 -97q-27 -99 63 -123q28 -8 39.5 -31.5t1.5 -52.5q-24 -61 -96 -61z" />
<glyph unicode="&#x201d;" horiz-adv-x="743" d="M287 1481q13 0 26.5 -2.5t33 -12.5t34 -27t25 -50t10.5 -78q0 -33 -10 -67t-31.5 -71t-64.5 -70.5t-101 -55.5q-90 -38 -103 -13q-14 28 15 35q72 23 102 44q51 36 72 99q27 98 -64 123q-28 8 -39.5 31.5t-1.5 52.5q24 62 97 62zM635 1481q13 0 26.5 -2.5t33 -12.5 t34 -27t25 -50t10.5 -78q0 -33 -10 -67t-31.5 -71t-64.5 -70.5t-101 -55.5q-89 -38 -102 -13q-14 28 14 35q72 23 102 44q51 36 72 99q27 99 -63 123q-28 8 -39.5 31.5t-1.5 52.5q24 62 96 62z" />
<glyph unicode="&#x201e;" horiz-adv-x="622" d="M53 217q13 0 26.5 -2.5t33 -12.5t34 -27t25 -50t10.5 -78q0 -33 -10 -67t-31.5 -71t-64.5 -70.5t-101 -55.5q-8 -4 -20.5 -8t-30.5 -9t-32.5 -4t-18.5 9q-13 27 14 34q73 23 105 47q49 36 69 97q27 99 -63 123q-28 8 -39.5 31.5t-1.5 52.5q24 61 96 61zM391 217 q13 0 26.5 -2.5t33 -12.5t34 -27t25 -50t10.5 -78q0 -33 -10 -67t-31.5 -71t-64.5 -70.5t-101 -55.5q-8 -4 -20.5 -8t-30.5 -9t-32.5 -4t-18.5 9q-13 27 14 34q73 23 105 47q49 36 69 97q27 99 -63 123q-28 8 -39.5 31.5t-1.5 52.5q24 61 96 61z" />
<glyph unicode="&#x2022;" horiz-adv-x="483" d="M242 551q-74 0 -127.5 53.5t-53.5 126.5t53.5 126.5t127.5 53.5t127 -53.5t53 -126.5t-53 -126.5t-127 -53.5z" />
<glyph unicode="&#x2026;" horiz-adv-x="1284" d="M86 -14q-41 0 -65.5 30t-18.5 72q9 43 44.5 72.5t76.5 29.5q44 0 68.5 -29.5t15.5 -72.5q-6 -41 -42 -71.5t-79 -30.5zM500 -14q-42 0 -67 30t-17 72q7 42 43 72t78 30q43 0 67.5 -29.5t16.5 -72.5q-8 -42 -43.5 -72t-77.5 -30zM901 -14q-41 0 -65.5 30t-18.5 72 q9 43 44.5 72.5t76.5 29.5q44 0 68.5 -29.5t15.5 -72.5q-6 -41 -42 -71.5t-79 -30.5z" />
<glyph unicode="&#x202f;" horiz-adv-x="358" />
<glyph unicode="&#x2039;" horiz-adv-x="548" d="M358 922q8 -8 6 -19t-8 -21l-6 -10q-33 -49 -74 -105.5t-66 -88.5l-24 -31q-25 -34 -12 -63q47 -115 80 -226q15 -35 -8 -47q-21 -16 -31 0q-64 134 -158 273q-9 15 -6 32q2 14 19 31q64 64 128.5 132.5t97.5 105.5l32 37q7 7 14.5 7t11.5 -3z" />
<glyph unicode="&#x203a;" horiz-adv-x="538" d="M88 311q-8 8 -6 19t8 20l6 10q33 49 74 105.5t66 88.5l24 32q25 34 12 63q-46 114 -79 225q-15 36 8 48q20 16 30 0q64 -134 158 -273q9 -15 6 -33q-2 -14 -18 -30q-64 -64 -128.5 -132.5t-96.5 -105.5l-33 -37q-7 -7 -15 -7t-12 4z" />
<glyph unicode="&#x205f;" horiz-adv-x="448" />
<glyph unicode="&#x20ac;" horiz-adv-x="1204" d="M590 -16q-142 0 -225 63q-109 83 -125 318q-4 118 2 186q-1 1 0 7.5t-5 14t-18 7.5h-94q-10 0 -16.5 7.5t-4.5 16.5l9 39q2 11 10 18t18 7h86q14 0 22.5 6.5t10.5 13.5l2 6q15 70 17 76q0 27 -25 27h-84q-13 0 -20 7t-5 17l7 39q7 25 30 25h105q7 0 13 3t9 6.5t6 7.5t4 5 q39 115 96 210.5t135.5 173t184.5 119.5t230 38q126 -3 223 -66q10 -7 14 -15.5t3 -13.5l-1 -5q-16 -65 -27 -119t-13 -75l-3 -21q-1 -12 -11 -16.5t-20 -3.5l-10 1q-3 1 -3.5 5t0.5 7l1 4q8 66 -18 125q-3 4 -12.5 19t-17 24.5t-15.5 16.5q-68 74 -183 74q-93 0 -165 -58 q-101 -81 -179 -293q-32 -110 -36 -127v-3v-4t0.5 -5t2 -5t3.5 -4.5t6 -3.5t10 -1h498q9 0 14 -7.5t2 -17.5l-6 -39q-1 -9 -9 -16.5t-16 -7.5h-508q-12 0 -20 -7.5t-10 -14.5l-2 -7l-15 -74q0 -26 23 -26h506q9 0 14 -7.5t4 -17.5l-8 -39q-2 -9 -10 -16.5t-17 -7.5h-495 q-13 0 -21 -6.5t-10 -11.5t-2 -9q-5 -83 -3 -159t20.5 -141t48.5 -112.5t80.5 -73.5t117.5 -24q108 6 199 88q58 58 61 66q1 2 7.5 17.5t16 42.5t19.5 62q5 17 13 19q1 -1 11.5 0.5t20.5 -4.5t6 -19q-11 -44 -34 -112q-6 -18 -6 -49q-3 -27 -19 -39q-48 -36 -80 -52 q-144 -79 -315 -79z" />
<glyph unicode="&#x2122;" horiz-adv-x="1386" d="M295 977q-10 0 -10 18q0 15 10 15q29 0 39 10q6 4 9.5 17.5t4.5 25.5v12q2 41 2 135l-4 168q-24 9 -77 6.5t-64 -16.5q-5 -5 -8 -27q-1 -12 -4.5 -15t-12.5 -3q-8 0 -10 3t-2 15q0 2 1 16.5t0.5 29t-3.5 30.5q-4 10 -0.5 16t8.5 7h6q82 -6 178 -6h68q96 0 176 6 q3 0 6.5 -0.5t8.5 -6.5t1 -16q-9 -35 -4 -76q0 -11 -2.5 -14.5t-11.5 -3.5q-8 0 -10.5 3t-3.5 15q0 19 -8 27q-16 14 -66 16t-74 -6q-6 -99 -6 -168q0 -94 2 -135q0 -47 12 -55q9 -6 41 -10q9 0 9 -15q0 -18 -9 -18q-3 0 -16 1.5t-34.5 3t-45.5 1.5q-23 0 -45 -1.5t-35 -3 t-16 -1.5zM936 973q-20 0 -23 10q0 8 -30 86t-56 137q-6 17 -18 44.5t-14 33.5l-13 -76q-13 -115 -14 -145q-5 -41 4 -47q8 -4 41 -8q8 0 8 -13q0 -12 -2 -15t-8 -3q-5 0 -28.5 2t-51.5 2q-30 0 -55.5 -2t-26.5 -2q-6 0 -8 3t-2 15q0 13 6 13l37 8q5 4 10 18.5t8 27.5l2 13 q17 82 21 135q2 21 8 62.5t8 64.5q5 32 -18 52q-13 10 -39 14q-10 2 -13 5.5t-3 16.5q0 15 10 15q23 -6 74 -6q8 0 31 3t26 3q12 -1 18 -17q38 -110 80 -209l49 -116h2q6 14 26 52t30 64q39 75 92 209q3 7 8 11.5t8 5.5h4q3 0 25.5 -3t30.5 -3q29 0 65 6q10 0 10 -15 q0 -20 -12 -22l-35 -10q-22 -11 -22 -54q1 -13 5 -56.5t7 -72.5q4 -55 16 -135q10 -50 21 -57q9 -6 41 -10q8 0 8 -13q0 -18 -8 -18q-6 0 -37 2t-53 2q-26 0 -59 -2t-37 -2q-11 0 -11 18q0 13 8 13q36 5 41 10t5 39q-2 77 -11 151l-10 92l-43 -94q-49 -99 -74 -170 q-4 -12 -4 -20q0 -12 -20 -27.5t-35 -15.5z" />
<glyph unicode="&#x25fc;" horiz-adv-x="1034" d="M0 1034h1034v-1034h-1034v1034z" />
<glyph unicode="&#xfb03;" horiz-adv-x="1529" d="M-145 -555q-54 0 -98 10.5t-71 28t-45 39t-24.5 44t-6 42t8.5 33.5q14 25 28.5 37.5t26 13t20.5 -2t14 -7.5l5 -5q16 -16 28.5 -41t16.5 -42l4 -17q12 -43 35 -64t49.5 -22t57.5 4q52 12 86.5 54t54.5 149l39 203l168 905l20 121q5 25 -16 28q-63 4 -129 0h-8.5t-13 6 t-5.5 17l6 29q0 2 1.5 5.5t9.5 8.5t22 4q68 -4 129 0q23 0 29 27l12 71q1 7 3.5 19t13.5 46t25 65.5t40.5 69.5t58.5 65t80.5 46t104.5 19q139 0 203 -68q89 107 229 123q82 11 139 5.5t95 -17.5t59 -33t30.5 -42.5t8.5 -45.5t-5.5 -41.5t-11.5 -31.5q-14 -25 -28.5 -37.5 t-26 -13.5t-20.5 2t-14 8l-5 4q-17 16 -29.5 41t-16.5 42l-3 17q-19 64 -61.5 81.5t-118.5 4.5q-152 -26 -182 -195l-39 -204q-2 -12 2.5 -18.5t9.5 -7.5l6 -1q29 -1 72 -1.5t84.5 -0.5t78 0.5t61.5 1.5h26q65 0 100.5 -31.5t40.5 -74.5q4 -28 -5.5 -90.5t-20.5 -111.5 l-11 -48q-6 -31 -20.5 -101.5t-19.5 -98.5t-16 -94t-24 -151q-12 -77 -3.5 -117.5t19 -52.5t25.5 -12q90 0 183 241q3 8 4 11q6 16 26 8q15 -5 12 -22q-83 -320 -278 -320q-112 0 -139 115q-11 48 12 149q52 211 104 549q7 54 4 89.5t-12 54.5t-19 28t-18 10l-8 2 q-66 3 -126 2.5t-102 -2.5l-42 -2q-11 -1 -18.5 -8.5t-9.5 -14.5l-1 -7q-5 -20 -13.5 -64.5t-10.5 -54.5l-166 -905l-23 -129q-1 -7 -3.5 -18.5t-13.5 -46t-25.5 -65.5t-41 -68.5t-58.5 -65t-80 -46t-104 -18.5q-156 0 -219 82q-82 -82 -202 -82zM690 1024q2 0 6 1t11 8 t10 20l16 82q7 58 5.5 99.5t-6.5 63.5l-5 23q-12 43 -34.5 64t-49 22t-57.5 -4q-53 -12 -87.5 -54t-54.5 -149l-28 -147q-2 -12 2.5 -18.5t9.5 -7.5l6 -1q42 -2 256 -2zM326 -504q52 12 86.5 54t54.5 149l37 203l168 905l22 121q4 4 0.5 16t-16.5 12l-197 2l-59 -2 q-11 -1 -18.5 -8.5t-9.5 -14.5l-1 -7q-11 -49 -22 -119l-168 -905l-23 -129l-2 -9q-7 -48 -6 -89t6 -69l4 -28q13 -43 36.5 -64t50 -22t57.5 4z" />
<glyph unicode="&#xfb04;" horiz-adv-x="1542" d="M-145 -555q-54 0 -98 10.5t-71 28t-45 39t-24.5 44t-6 42t8.5 33.5q14 25 28.5 37.5t26 13t20.5 -2t14 -7.5l5 -5q16 -16 28.5 -41t16.5 -42l4 -17q12 -43 35 -64t49.5 -22t57.5 4q52 12 86.5 54t54.5 149l39 203l168 905l20 121q4 26 -16 28q-63 2 -129 0h-9t-13 6 t-5 17l6 29q0 2 1.5 5.5t9.5 8.5t22 4q76 -4 129 0q23 0 29 27l8 51q1 7 3.5 19t13.5 46t25 65.5t40.5 69.5t58.5 65t80.5 46t104.5 19q130 0 196 -62q90 121 240 137q158 19 244 -16l84 23l39 10q1 -1 6.5 0.5t10.5 -6t1 -23.5q-64 -271 -149 -733q-33 -182 -89 -533 q-13 -78 -2.5 -120t22 -55t23.5 -13q33 0 65.5 34t51.5 71t41.5 88.5t26.5 58.5q7 14 24 8q18 -6 15 -22q-83 -320 -279 -320q-65 0 -101 31t-38 84q-1 44 10 114.5t23 116.5q18 81 88 457q39 217 78 457q4 26 -2 62.5t-14 59.5l-7 23q-19 64 -61.5 81.5t-118.5 4.5 q-152 -26 -182 -195l-39 -204q-2 -12 2.5 -18.5t9.5 -7.5l6 -1q57 -2 122.5 -2t102.5 1l37 1q13 1 19 -3.5t6 -9.5v-5l-4 -29q-2 -12 -10 -17.5t-15 -5.5h-8q-58 3 -123.5 3t-102.5 -1l-36 -2q-11 -1 -18.5 -8.5t-9.5 -14.5l-1 -7q-5 -20 -13.5 -64.5t-10.5 -54.5l-166 -905 l-23 -129q-1 -7 -3.5 -18.5t-13.5 -46t-25.5 -65.5t-41 -68.5t-58.5 -65t-80 -46t-104 -18.5q-156 0 -219 82q-82 -82 -202 -82zM434 1026q34 -1 80.5 -1.5t80.5 0t64 1t31 0.5q3 0 6.5 0.5t11 7.5t9.5 19l10 51q8 61 7 104.5t-6 67.5l-5 24q-13 42 -36 63.5t-49 22.5 t-56 -4q-25 -6 -44 -16t-39 -31t-35.5 -60t-25.5 -95l-22 -127q-2 -12 2.5 -18.5t9.5 -7.5zM326 -504q52 12 86.5 54t54.5 149l37 203l168 905l22 121q4 4 0.5 16t-16.5 12q-133 5 -256 0q-11 -1 -18.5 -8.5t-9.5 -14.5l-1 -7q-11 -49 -22 -119l-168 -905l-25 -138 q-7 -48 -6 -89t6 -69l4 -28q17 -61 54 -77t90 -5z" />
</font>
</defs>
</svg>
